<svg  width="46" height="56" viewBox="0 0 46 56" fill="none" xmlns="http://www.w3.org/2000/svg">
                <path d="M11.5 0C11.1729 0 10.8457 0.124688 10.5966 0.372869C10.0982 0.869233 10.0982 1.67622 10.5966 2.17259L13.9457 5.50852C10.1433 8.28779 7.66667 12.7597 7.66667 17.8182H38.3333C38.3333 12.7597 35.8567 8.28779 32.0543 5.50852L35.4034 2.17259C35.9018 1.67368 35.9018 0.871778 35.4034 0.372869C34.9051 -0.123494 34.0949 -0.123494 33.5966 0.372869L29.8082 4.14631C27.7549 3.12979 25.4487 2.54545 23 2.54545C20.5513 2.54545 18.2451 3.12979 16.1918 4.14631L12.4034 0.372869C12.1543 0.124688 11.8271 0 11.5 0ZM15.3333 10.1818H17.8889V12.7273H15.3333V10.1818ZM28.1111 10.1818H30.6667V12.7273H28.1111V10.1818ZM2.55556 20.3636C1.14489 20.3636 0 21.504 0 22.9091V38.1818C0 39.5869 1.14489 40.7273 2.55556 40.7273C3.96622 40.7273 5.11111 39.5869 5.11111 38.1818V22.9091C5.11111 21.504 3.96622 20.3636 2.55556 20.3636ZM7.66667 20.3636V40.7273C7.66667 42.1324 8.81156 43.2727 10.2222 43.2727H12.7778V52.1818C12.7778 54.2895 14.4951 56 16.6111 56C18.7271 56 20.4444 54.2895 20.4444 52.1818V43.2727H25.5556V52.1818C25.5556 54.2895 27.2729 56 29.3889 56C31.5049 56 33.2222 54.2895 33.2222 52.1818V43.2727H35.7778C37.1884 43.2727 38.3333 42.1324 38.3333 40.7273V20.3636H7.66667ZM43.4444 20.3636C42.0338 20.3636 40.8889 21.504 40.8889 22.9091V38.1818C40.8889 39.5869 42.0338 40.7273 43.4444 40.7273C44.8551 40.7273 46 39.5869 46 38.1818V22.9091C46 21.504 44.8551 20.3636 43.4444 20.3636Z" fill="white"/>
                </svg>