<svg class="h-full w-auto" width="380" height="345" viewBox="0 0 554 345" fill="none" xmlns="http://www.w3.org/2000/svg">
                    <g clip-path="url(#clip0_72_6611)">
                    <path d="M544.014 281.701C520.605 317.22 480.466 338.097 437.933 338.097H84.9133C13.956 338.097 -25.8331 255.116 20.1846 208.39C66.2018 161.664 25.556 121.756 96.5357 84.2869C165.301 47.986 188.778 125.363 252.127 74.7332C315.475 24.1042 407.704 28.8805 427.967 80.4647C448.23 132.051 443.455 150.205 486.432 161.666C529.411 173.127 571.433 238.087 545.647 279.163C545.11 280.02 544.566 280.866 544.014 281.701Z" fill="#AFC5DD"/>
                    <path d="M528.321 296.099C491.132 299.255 466.062 368.98 373.094 327.07C373.094 327.07 383.302 296.632 429.033 277.658C474.762 258.686 528.321 296.099 528.321 296.099Z" fill="#BFD9F3"/>
                    <path d="M385.789 321.849C395.494 316.802 405.563 312.45 415.843 308.666C418.402 307.682 420.996 306.798 423.598 305.937C426.188 305.038 428.813 304.244 431.433 303.432C434.044 302.592 436.701 301.907 439.35 301.189C440.675 300.837 441.995 300.462 443.327 300.128L447.33 299.167L451.344 298.247L455.386 297.451L459.429 296.657C460.777 296.398 462.137 296.198 463.496 295.991C466.214 295.59 468.922 295.134 471.661 294.872C474.396 294.588 477.115 294.194 479.867 294.091C490.819 293.296 501.893 293.476 512.692 295.304C501.753 295.039 490.908 295.686 480.152 297.012L478.133 297.242L476.124 297.551L472.103 298.137C469.418 298.481 466.759 299.021 464.094 299.502C462.765 299.762 461.424 299.95 460.096 300.226L456.117 301.052L452.14 301.88L448.185 302.827L444.221 303.734C442.903 304.049 441.594 304.406 440.28 304.74L436.341 305.759C435.026 306.092 433.73 306.5 432.418 306.844C429.801 307.562 427.178 308.264 424.585 309.072C421.987 309.862 419.372 310.603 416.784 311.434C406.402 314.669 396.113 318.23 385.789 321.849Z" fill="#A0B8CE"/>
                    <path d="M532.873 177.442C487.496 209.885 508.487 318.611 357.057 335.73C357.057 335.73 346.948 288.828 391.229 229.542C435.51 170.256 532.873 177.442 532.873 177.442Z" fill="#D0E8F8"/>
                    <path d="M367.131 322.63C373.736 308.319 381.888 294.708 391.059 281.823C400.204 268.912 410.457 256.763 421.624 245.511C432.805 234.279 444.92 223.922 458.03 214.982C471.1 206.044 485.2 198.354 500.239 193.562C486.28 200.882 473.347 209.584 461.062 219.127C448.823 228.723 437.25 239.132 426.286 250.155C415.314 261.174 404.974 272.822 395.133 284.918C385.323 297.046 376.102 309.67 367.131 322.63Z" fill="#BFD9F3"/>
                    <path d="M43.3708 286.409C80.2468 292.176 100.344 363.494 196.033 328.236C196.033 328.236 187.993 297.154 143.712 275.008C99.4309 252.862 43.3708 286.409 43.3708 286.409Z" fill="#BFD9F3"/>
                    <path d="M183.737 322.135C173.694 317.798 163.681 313.52 153.552 309.562C151.029 308.551 148.473 307.627 145.938 306.656C143.407 305.668 140.839 304.783 138.28 303.882C136.995 303.447 135.732 302.948 134.444 302.524L130.586 301.23C129.299 300.804 128.018 300.356 126.726 299.948L122.836 298.765L118.958 297.541L115.048 296.435L111.136 295.33C109.832 294.962 108.507 294.681 107.201 294.327C104.575 293.659 101.961 292.934 99.3068 292.401L95.337 291.533L93.3543 291.084L91.3581 290.713C80.7212 288.632 69.9475 287.222 59.0181 286.716C69.9187 285.654 80.9786 286.253 91.8468 287.819C94.5846 288.115 97.2692 288.699 99.9773 289.175C102.691 289.63 105.36 290.276 108.044 290.867C109.384 291.168 110.728 291.464 112.054 291.817L116.03 292.894L120.007 293.973L123.946 295.173L127.872 296.415C129.176 296.841 130.467 297.308 131.765 297.753C134.356 298.656 136.959 299.526 139.504 300.548C142.061 301.543 144.622 302.52 147.143 303.598C149.677 304.64 152.202 305.705 154.686 306.867C164.674 311.367 174.411 316.416 183.737 322.135Z" fill="#A0B8CE"/>
                    <path d="M67.8848 172.449C108.745 206.254 81.5609 307.957 224.022 334.331C224.022 334.331 236.748 290.529 198.723 231.341C160.697 172.153 67.8848 172.449 67.8848 172.449Z" fill="#D0E8F8"/>
                    <path d="M215.345 321.235C207.645 308.372 199.717 295.805 191.209 283.663C182.667 271.552 173.638 259.826 163.976 248.647C154.321 237.465 144.056 226.82 133.114 216.885C122.123 206.998 110.469 197.858 97.7534 189.921C111.725 195.411 124.613 203.625 136.429 212.963C148.287 222.305 159.095 232.938 168.952 244.344C178.794 255.768 187.702 267.988 195.491 280.864C203.309 293.713 210.1 307.19 215.345 321.235Z" fill="#BFD9F3"/>
                    <path d="M308.184 267.128C303.07 273.204 298.433 283.277 295.556 284.876C292.678 286.475 287.827 287.031 283.242 301.791C278.658 316.552 301.804 314.531 301.804 314.531C301.804 314.531 311.701 308.845 315.697 295.109L325.609 286.315L308.184 267.128Z" fill="#F6878D"/>
                    <path d="M290.279 312.913C290.279 312.913 297.77 310.473 304.125 303.76C310.503 297.02 311.326 285.032 311.326 285.032L314.381 290.742L320.492 284.209L323.437 283.924L325.609 286.315L315.697 295.109C311.701 308.845 301.804 314.531 301.804 314.531C301.804 314.531 295.423 315.084 290.026 313.477C290.165 313.128 290.279 312.913 290.279 312.913Z" fill="#F14262"/>
                    <path d="M342.886 214.262C335.796 219.446 331.566 223.207 328.041 230.259C324.515 237.311 302.423 262.648 301.013 264.906C299.602 267.166 313.428 291.144 324.495 297.02C324.495 297.02 341.202 277.744 350.838 270.457C360.473 263.17 357.184 237.311 352.718 228.613C348.253 219.916 342.886 214.262 342.886 214.262Z" fill="#4A69BB"/>
                    <path d="M342.628 260.918V246.525C342.628 246.525 344.503 245.775 345.966 250.632C346.551 252.576 346.506 254.619 346.245 256.378L357.002 248.287C357.447 257.345 355.992 266.558 350.838 270.457C341.202 277.744 324.495 297.02 324.495 297.02C321.64 295.504 318.602 292.779 315.689 289.538C322.492 282.762 335.399 269.684 342.628 260.918Z" fill="#3556AE"/>
                    <path d="M273.898 308.845C272.057 309.42 270.699 310.299 270.699 312.617C270.699 314.936 271.099 318.613 271.977 320.052C272.856 321.491 277.397 322.353 277.397 322.353C277.397 322.353 277.093 312.777 276.134 311.018C275.175 309.259 273.898 308.845 273.898 308.845Z" fill="#F6878D"/>
                    <path d="M271.977 320.052C271.73 319.647 271.525 319.056 271.352 318.377C272.337 319.346 272.668 319.353 273.874 319.48L277.321 320.555C277.374 321.633 277.397 322.353 277.397 322.353C277.397 322.353 272.856 321.491 271.977 320.052Z" fill="#F14262"/>
                    <path d="M278.292 305.342C276.054 305.582 273.816 307.261 273.816 309.579C273.816 311.897 273.016 318.374 273.816 319.412C274.615 320.452 278.532 323.41 279.891 323.649C281.25 323.89 283.556 323.49 283.242 322.77C282.928 322.051 278.292 305.342 278.292 305.342Z" fill="#F6878D"/>
                    <path d="M273.476 317.672C275.173 319.588 279.512 319.416 279.512 319.416C279.512 319.416 281.419 321.453 281.654 322.107C281.796 322.503 282.577 323.023 282.683 323.426C281.967 323.699 280.742 323.8 279.891 323.649C278.558 323.415 274.775 320.571 273.874 319.48L273.476 317.677C273.476 317.676 273.476 317.674 273.476 317.672Z" fill="#F14262"/>
                    <path d="M286.677 301.517C279.81 301.905 278.532 302.544 278.292 305.342C278.052 308.14 278.212 316.294 279.09 318.374C279.971 320.452 280.449 322.291 281.569 323.41C282.688 324.529 284.363 324.534 284.363 324.534C284.363 324.534 288.123 319.013 288.283 314.377C288.442 309.739 286.677 301.517 286.677 301.517Z" fill="#F6878D"/>
                    <path d="M282.727 319.94C283.075 318.041 283.848 316.017 283.946 309.663C283.983 307.275 286.196 319.742 285.207 323.164C284.715 324.013 284.362 324.534 284.362 324.534C284.362 324.534 282.688 324.529 281.569 323.41C280.449 322.291 279.97 320.452 279.09 318.374C279.034 318.239 278.98 318.075 278.929 317.892C279.377 319.058 280.8 319.823 282.727 319.94Z" fill="#F14262"/>
                    <path d="M301.711 315.576C301.279 319.396 296.276 320.772 295.716 322.69C295.157 324.609 295.556 326.368 294.597 326.847C293.638 327.327 289.642 325.089 289.802 322.531C289.802 322.531 288.762 324.689 286.444 325.089C284.127 325.488 283.567 323.794 283.967 321.243C284.366 318.692 284.287 317.334 284.207 314.297C284.127 311.259 283.407 308.46 284.766 305.102C286.125 301.744 287.963 298.786 291.64 299.346C295.316 299.905 297.555 304.543 299.553 306.142C301.55 307.74 302.189 311.339 301.711 315.576Z" fill="#F6878D"/>
                    <path d="M289.802 322.531C290.026 317.672 290.279 313.696 290.279 312.913C290.279 312.128 290.026 306.972 291.858 306.659C292.136 306.612 296.167 309.166 296.245 310.889C296.323 312.614 296.245 315.709 294.991 316.59C293.739 317.472 289.802 322.531 289.802 322.531Z" fill="#F14262"/>
                    <path d="M456.363 224.618C449.078 215.371 446.57 214.43 439.05 210.043C431.529 205.654 403.013 194.528 397.137 193.116C391.262 191.707 367.564 202.756 359.788 206.282C352.014 209.807 342.118 213.277 340.432 216.713C334.79 228.217 345.967 244.521 346.025 278.684C346.056 296.578 350.133 336.816 350.133 336.816C350.133 336.816 439.677 336.984 440.929 335.103C442.184 333.222 445.317 268.968 446.885 255.804C448.451 242.639 456.363 224.618 456.363 224.618Z" fill="#4A69BB"/>
                    <path d="M340.762 234.726C340.09 232.563 339.692 230.361 339.356 228.149C339.049 225.934 338.809 223.708 338.842 221.444C339.515 223.607 339.913 225.809 340.246 228.02C340.551 230.237 340.793 232.461 340.762 234.726Z" fill="#3556AE"/>
                    <path d="M374.247 221.267C370.787 219.974 362.591 222.222 361.092 222.744C359.593 223.265 361.974 216.859 362.855 216.067C363.736 215.273 365.146 213.426 367.849 214.262C370.551 215.096 372.824 218.192 373.215 219.211C373.607 220.229 374.247 221.267 374.247 221.267Z" fill="#3556AE"/>
                    <path d="M403.073 226.615C401.839 226.557 394.641 223.246 392.919 222.423C391.195 221.6 383.387 221.216 378.145 222.681C378.145 222.681 388.238 215.861 394.113 215.92C399.988 215.978 402.222 218.094 402.691 219.974C403.161 221.855 403.073 226.615 403.073 226.615Z" fill="#3556AE"/>
                    <path d="M364.58 322.408C365.541 321.468 424.019 323.349 425.195 317.237C426.37 311.125 427.178 300.01 427.178 300.01C420.139 303.771 409.918 302.204 409.918 302.204C416.734 299.978 426.604 288.794 427.075 285.502C428.523 275.364 423.108 247.411 423.108 247.411L427.075 239.427L431.717 236.841C431.717 236.841 440.519 241.226 448.046 249.292C447.538 251.523 447.131 253.724 446.884 255.804C445.407 268.215 442.537 326.03 441.163 334.18C423.05 334.848 390.217 336.051 368.246 336.805C357.601 336.83 350.132 336.816 350.132 336.816C350.132 336.816 349.995 331.523 349.675 323.934C355.804 323.575 363.983 322.992 364.58 322.408Z" fill="#3556AE"/>
                    <path d="M376.455 222.972C382.765 222.211 392.907 216.743 396.903 218.622C400.898 220.503 401.838 225.322 402.66 226.145C403.483 226.968 407.008 222.854 407.008 212.746C407.008 202.638 407.319 192.287 399.877 190.88C392.437 189.473 373.165 196.76 369.287 199.7C365.409 202.638 363.764 205.614 362.706 208.475C361.649 211.335 358.829 222.854 360.121 222.972C361.414 223.089 365.057 215.567 367.76 215.331C370.462 215.096 374.746 223.178 376.455 222.972Z" fill="#4A69BB"/>
                    <path d="M372.866 213.922C371.256 210.102 369.494 206.752 369.553 204.107C369.612 201.462 370.199 199.641 373.137 198.817C376.074 197.995 377.308 199.582 377.485 203.578C377.661 207.574 372.866 213.922 372.866 213.922Z" fill="#3556AE"/>
                    <path d="M395.901 206.8C402.044 201.227 402.739 194.997 402.163 193.705C401.586 192.412 399.049 191.471 399.049 191.471C399.049 191.471 398.05 195.526 398.637 196.526C399.225 197.525 395.901 206.8 395.901 206.8Z" fill="#3556AE"/>
                    <path d="M386.124 220.271C387.62 219.599 389.182 219.075 390.775 218.643C392.375 218.253 394.018 217.944 395.727 218.054C396.569 218.117 397.474 218.301 398.228 218.897C398.892 219.524 399.398 220.091 399.963 220.736C401.082 222.007 401.853 223.55 402.562 225.001C402.719 225.335 402.966 225.728 403.075 225.764C403.088 225.769 403.082 225.789 403.209 225.71C403.315 225.636 403.439 225.507 403.551 225.367C404.009 224.78 404.384 224.049 404.751 223.336C405.491 221.929 405.887 220.37 406.202 218.781C406.508 217.192 406.685 215.57 406.799 213.943C406.939 212.317 406.985 210.682 407.007 209.043C407.33 212.307 407.336 215.612 406.883 218.895C406.664 220.533 406.254 222.185 405.515 223.712C405.15 224.46 404.78 225.198 404.24 225.914C404.096 226.091 403.943 226.27 403.716 226.434C403.607 226.516 403.457 226.593 403.279 226.637C403.093 226.681 402.869 226.65 402.702 226.572C402.366 226.403 402.224 226.177 402.087 225.985C401.957 225.788 401.855 225.596 401.758 225.407C401.047 223.917 400.343 222.495 399.308 221.281C398.814 220.679 398.233 220.015 397.724 219.504C397.191 219.06 396.429 218.839 395.658 218.742C394.094 218.557 392.46 218.774 390.87 219.072C389.267 219.355 387.691 219.791 386.124 220.271Z" fill="#3556AE"/>
                    <path d="M371.656 218.164C370.974 217.561 370.298 216.959 369.559 216.458C369.193 216.208 368.82 215.968 368.436 215.804C368.241 215.729 368.054 215.672 367.878 215.649C367.801 215.657 367.718 215.65 367.656 215.669C367.599 215.708 367.565 215.692 367.454 215.774C365.939 216.709 364.76 217.993 363.757 219.463C363.249 220.172 362.803 220.984 362.203 221.719C361.903 222.084 361.583 222.437 361.178 222.751C360.967 222.897 360.752 223.068 360.373 223.113C360.192 223.144 359.938 223.066 359.784 222.929C359.63 222.788 359.554 222.629 359.509 222.492C359.344 221.936 359.397 221.472 359.441 221.002C359.499 220.537 359.581 220.084 359.685 219.637C359.91 218.747 360.158 217.872 360.478 217.018C360.356 217.921 360.193 218.812 360.12 219.71C360.07 220.156 360.036 220.602 360.029 221.04C360.027 221.467 360.036 221.935 360.165 222.24C360.193 222.318 360.236 222.358 360.251 222.369C360.273 222.367 360.251 222.375 360.296 222.363C360.372 222.355 360.549 222.254 360.692 222.129C360.992 221.875 361.274 221.542 361.532 221.193C362.062 220.51 362.487 219.722 363.018 218.95C363.553 218.195 364.138 217.463 364.818 216.812C365.496 216.162 366.282 215.605 367.093 215.175C367.167 215.123 367.356 215.055 367.51 215.012C367.666 214.981 367.818 214.998 367.963 215.006C368.237 215.061 368.473 215.159 368.692 215.275C369.118 215.517 369.483 215.808 369.83 216.115C370.504 216.751 371.123 217.422 371.656 218.164Z" fill="#3556AE"/>
                    <path d="M372.003 190.961C372.016 193.445 372.116 195.921 372.374 198.393C373.007 204.453 372.386 212.446 372.866 213.922C373.4 215.567 376.573 221.444 376.573 221.444C376.573 221.444 382.213 218.857 384.564 216.037C386.914 213.217 389.968 213.073 394.082 208.913C398.195 204.753 400.991 198.146 400.075 192.647C399.957 191.942 399.236 184.902 399.076 177.614C398.917 170.327 391.262 164.79 383.976 164.79C376.691 164.79 372.329 175.603 372.101 182.891C372.007 185.881 371.99 188.69 372.003 190.961Z" fill="#F6878D"/>
                    <path d="M399.076 177.614C399.236 184.902 399.957 191.942 400.075 192.647C400.358 194.347 400.285 196.154 399.93 197.96C398.318 198.257 377.568 198.758 372.192 196.255C372.07 194.494 372.013 192.729 372.003 190.961C371.99 188.69 372.007 185.881 372.101 182.891C372.197 179.802 373.04 176.081 374.529 172.817L391.598 166.766C395.788 169.001 398.974 172.943 399.076 177.614Z" fill="#F14262"/>
                    <path d="M359.22 147.27C348.196 147.27 344.071 155.741 344.071 162.089C344.071 167.786 345.897 176.908 359.22 176.908C365.884 176.908 370.394 170.273 370.394 162.089C370.394 153.904 365.884 147.27 359.22 147.27Z" fill="#4B4791"/>
                    <path d="M358.734 150.9C350.409 150.9 347.294 157.295 347.294 162.089C347.294 166.391 348.673 173.278 358.734 173.278C363.765 173.278 367.171 168.269 367.171 162.089C367.171 155.909 363.765 150.9 358.734 150.9Z" fill="#302A5E"/>
                    <path d="M345.312 152.272C345.963 156.136 347.875 157.613 348.729 162.822C349.584 168.03 347.306 175.6 350.703 182.192C354.1 188.784 359.592 197.452 362.766 197.817C365.939 198.184 391.355 193.89 399.931 176.833C402.392 171.937 407.653 152.737 403.152 141.014C398.649 129.29 391.326 118.547 374.401 118.221C357.476 117.895 341.86 131.795 345.312 152.272Z" fill="#F6878D"/>
                    <path d="M359.467 173.392C360.372 173.413 361.364 173.069 361.81 172.475C362.201 171.956 362.363 171.272 362.248 170.633C360.925 171.723 359.303 171.911 357.674 171.626C357.473 172.842 358.41 173.367 359.467 173.392Z" fill="#F14262"/>
                    <path d="M389.407 152.272C388.764 148.253 386.078 145.933 386.078 145.933C386.078 145.933 379.61 143.248 374.605 142.76C369.601 142.271 364.474 140.807 364.474 140.807C364.474 140.807 366.061 144.825 368.746 146.539C368.746 146.539 356.784 145.933 353.001 142.393C353.001 142.393 353.734 145.311 354.466 147.27C354.466 147.27 348.607 146.666 346.777 144.346C346.777 144.346 345.312 149.455 345.312 152.272C345.312 152.272 338.273 142.638 340.064 134.987C341.855 127.336 344.294 124.406 344.294 124.406C344.294 124.406 339.25 124.895 336.483 124.406C336.483 124.406 342.993 118.71 347.875 114.966C352.758 111.222 367.403 111.059 367.403 111.059C367.403 111.059 366.265 107.152 367.566 100.967C367.566 100.967 373.832 110.165 380.464 112.972C387.095 115.78 386.202 115.541 393.233 117.316C400.265 119.092 406.95 123.593 409.757 127.378C412.564 131.162 415.615 135.069 417.446 135.678C417.446 135.678 413.051 135.069 410.855 133.237C410.855 133.237 414.518 141.56 409.676 152.272C404.834 162.984 392.703 159.814 390.349 157.449C387.998 155.085 389.407 152.272 389.407 152.272Z" fill="#D1544E"/>
                    <path d="M390.349 157.449C387.998 155.085 389.407 152.272 389.407 152.272C389.018 149.841 387.882 148.036 387.045 146.987C388.806 136.31 388.088 125.231 384.962 114.872C386.789 115.614 387.873 115.947 390.519 116.628C393.766 121.512 396.194 127.009 397.866 132.577C399.995 139.667 401.027 147.326 399.04 154.457C398.531 156.285 397.789 158.069 396.849 159.739C393.838 159.487 391.299 158.404 390.349 157.449Z" fill="#913634"/>
                    <path d="M393.663 148.294C393.663 148.294 394.5 121.518 380.464 112.972C380.464 112.972 391.326 111.752 397.551 122.617C403.775 133.481 403.354 142.801 403.198 148.024C403.041 153.246 393.663 148.294 393.663 148.294Z" fill="#4B4791"/>
                    <path d="M397.942 147.27C408.967 147.27 413.093 155.741 413.093 162.089C413.093 167.786 411.267 176.908 397.942 176.908C391.279 176.908 386.77 170.273 386.77 162.089C386.77 153.904 391.279 147.27 397.942 147.27Z" fill="#4B4791"/>
                    <path d="M391.998 162.089C391.998 154.824 396.793 148.934 402.709 148.934C408.623 148.934 413.093 154.824 413.093 162.089C413.093 169.354 408.623 175.244 402.709 175.244C396.793 175.244 391.998 169.354 391.998 162.089Z" fill="#302A5E"/>
                    <path d="M396.833 162.089C396.833 157.145 400.096 153.137 404.122 153.137C408.147 153.137 411.411 157.145 411.411 162.089C411.411 167.034 408.147 171.041 404.122 171.041C400.096 171.041 396.833 167.034 396.833 162.089Z" fill="#4B4791"/>
                    <path d="M369.998 176.908C367.019 178.548 357.287 179.095 356.626 179.004C355.964 178.912 357.323 186.303 359.706 186.577C362.09 186.851 366.856 186.213 368.842 184.298C370.828 182.384 369.998 176.908 369.998 176.908Z" fill="#F14262"/>
                    <path d="M369.376 179.062C369.192 178.407 369.048 177.881 368.91 177.369C365.632 178.488 359.18 178.961 357.192 179.01C357.354 179.997 357.638 180.998 358.041 181.979C358.104 181.939 358.025 182.075 358.088 182.034C362.383 182.71 366.752 181.318 369.376 179.062Z" fill="white"/>
                    <path d="M368.685 159.241C368.685 157.892 369.35 156.799 370.17 156.799C370.991 156.799 371.656 157.892 371.656 159.241C371.656 160.589 370.991 161.682 370.17 161.682C369.35 161.682 368.685 160.589 368.685 159.241Z" fill="#391E4F"/>
                    <path d="M351.693 160.379C351.693 159.031 352.265 157.938 352.97 157.938C353.675 157.938 354.246 159.031 354.246 160.379C354.246 161.728 353.675 162.822 352.97 162.822C352.265 162.822 351.693 161.728 351.693 160.379Z" fill="#391E4F"/>
                    <path d="M376.999 149.722C375.984 149.163 374.892 148.778 373.77 148.456C372.645 148.153 371.477 147.976 370.291 147.934C369.114 147.875 367.867 147.842 366.725 148.283C365.582 148.677 364.544 149.396 363.78 150.343L363.867 150.489C365.093 150.357 366.105 150.056 367.175 149.914C368.219 149.757 369.234 149.376 370.325 149.287C372.487 149.104 374.751 149.275 376.93 149.877L376.999 149.722Z" fill="#391E4F"/>
                    <path d="M347.398 152.877C347.928 152.672 348.486 152.543 349.04 152.479C349.592 152.405 350.145 152.378 350.693 152.371C351.245 152.363 351.793 152.56 352.331 152.429C352.603 152.368 352.88 152.316 353.163 152.197C353.447 152.101 353.739 151.974 354.05 151.756L354.068 151.587C353.537 151.069 352.936 150.847 352.325 150.736C351.709 150.621 351.099 150.867 350.507 151.03C349.911 151.185 349.328 151.393 348.78 151.674C348.241 151.973 347.713 152.285 347.294 152.744L347.398 152.877Z" fill="#391E4F"/>
                    <path d="M364.58 328.202C364.586 328.58 364.057 329.126 362.766 329.126C361.472 329.126 326.709 329.126 322.008 329.126C317.307 329.126 316.21 327.268 317.621 324.917C319.031 322.565 324.985 317.393 339.713 313.789C354.442 310.185 362.185 318.613 364.58 322.408C366.336 325.192 364.58 328.202 364.58 328.202Z" fill="#4B4791"/>
                    <path d="M317.274 325.623C318.085 328.319 349.184 326.913 349.184 326.913C349.184 326.913 346.03 322.652 342.545 322.531C339.058 322.408 337.363 323.621 332.688 324.426C328.013 325.229 331.479 322.521 331.479 322.521C331.479 322.521 328.176 321.791 326.831 320.748C326.831 320.748 334.535 318.471 337.767 317.941C340.997 317.414 349.224 317.766 350.281 317.941C351.029 318.067 354.825 315.862 359.411 316.968C361.973 318.841 363.666 320.961 364.58 322.408C366.336 325.192 364.58 328.202 364.58 328.202C364.586 328.58 364.057 329.126 362.766 329.126C361.472 329.126 326.709 329.126 322.008 329.126C317.791 329.126 316.481 327.628 317.274 325.623Z" fill="#302A5E"/>
                    <path d="M450.293 302.713C450.293 302.713 421.309 307.197 405.599 310.008C390.716 312.672 377.866 313.829 374.222 313.123C370.579 312.418 358.124 307.834 354.128 306.189C350.133 304.543 342.142 303.602 338.03 304.895C333.916 306.189 330.547 307.598 328.902 307.598C327.258 307.598 327.57 310.263 329.764 310.812C331.957 311.36 333.916 311.282 333.916 311.282C333.916 311.282 326.474 315.356 325.142 315.749C323.811 316.14 325.388 318.569 327.19 318.412C327.19 318.412 325.612 319.353 326.161 320.293C326.709 321.233 330.625 321.233 330.625 321.233C330.625 321.233 325.846 323.584 329.842 324.524C333.837 325.464 338.616 320.999 340.576 320.606C342.533 320.214 347.077 320.45 349.271 322.096C351.465 323.741 360.866 331.341 373.713 326.797C373.713 326.797 460.918 330.331 469.615 330.331C478.31 330.331 483.562 322.644 480.773 307.834C477.985 293.024 472.579 281.976 472.579 281.976L442.497 284.091L450.293 302.713Z" fill="#F6878D"/>
                    <path d="M340.782 308.928C341.549 308.747 342.161 308.641 342.545 308.617C342.545 308.617 341.801 308.746 340.782 308.928Z" fill="#F14262"/>
                    <path d="M333.916 311.282C333.916 311.282 331.957 311.36 329.764 310.812C329.147 310.658 328.685 310.333 328.366 309.952C330.806 311.03 333.81 310.341 335.454 309.95C336.492 309.702 339.04 309.238 340.782 308.928C339.038 309.338 336.481 310.139 333.916 311.282Z" fill="#F14262"/>
                    <path d="M334.3 314.808C334.488 314.723 334.647 314.656 334.75 314.624C334.75 314.624 334.58 314.693 334.3 314.808Z" fill="#F14262"/>
                    <path d="M325.157 317.493C325.185 317.519 326.045 318.278 327.856 317.49C329.364 316.833 333.025 315.33 334.3 314.808C332.695 315.537 328.347 317.991 327.19 318.412C326.389 318.482 325.634 318.041 325.157 317.493Z" fill="#F14262"/>
                    <path d="M329.658 320.372C330.989 319.98 333.771 318.294 335.475 317.49C337.178 316.684 339.353 316.59 339.353 316.59C339.353 316.59 338.705 316.65 337.002 317.49C335.298 318.33 330.625 321.233 330.625 321.233C330.625 321.233 328.113 321.233 326.831 320.748C326.845 320.748 328.331 320.761 329.658 320.372Z" fill="#F14262"/>
                    <path d="M354.453 322.291C356.92 323.82 364.206 325.817 368.554 324.995C372.902 324.172 373.842 320.529 373.842 320.529L375.057 324.446C375.057 324.446 435.536 326.17 447.835 325.617C459.994 325.07 478.957 324.794 481.434 317.49C480.754 325.967 476.163 330.331 469.614 330.331C460.918 330.331 373.713 326.797 373.713 326.797C360.866 331.341 351.464 323.741 349.271 322.096C347.447 320.727 344.004 320.336 341.767 320.468H341.768C345.104 319.298 351.985 320.763 354.453 322.291Z" fill="#F14262"/>
                    <path d="M450.293 302.713C450.293 302.713 461.624 301.174 463.895 300.939L462.172 293.887L447.835 296.786L450.293 302.713Z" fill="#F14262"/>
                    <path d="M480.574 282.973C481.001 284.077 480.73 285.318 479.884 286.144C474.617 291.288 467.704 298.293 460.594 299.372C452.838 300.546 439.912 301.017 439.206 299.372C438.501 297.725 435.916 276.804 431.216 266.225C426.515 255.647 423.46 250.24 422.285 244.128C421.11 238.016 431.685 223.677 436.387 222.501C441.087 221.326 451.898 220.621 456.363 224.618C460.829 228.613 464.119 243.894 469.289 255.413C473.462 264.707 478.705 278.134 480.574 282.973Z" fill="#4A69BB"/>
                    <path d="M451.484 222.297C450.044 222.131 448.606 222.012 447.164 221.98C445.726 221.922 444.287 221.926 442.855 222.011C441.424 222.098 440 222.241 438.597 222.493C437.892 222.606 437.201 222.769 436.507 222.925C435.862 223.16 435.196 223.331 434.602 223.702C433.971 223.986 433.422 224.433 432.841 224.819C432.314 225.286 431.749 225.709 431.267 226.231C430.234 227.202 429.364 228.341 428.482 229.466C427.621 230.612 426.84 231.821 426.098 233.055C425.333 234.277 424.654 235.551 423.992 236.841C424.964 234.106 426.306 231.506 427.916 229.066C428.735 227.856 429.624 226.683 430.662 225.63C431.15 225.075 431.749 224.623 432.3 224.127C432.916 223.704 433.494 223.227 434.185 222.905C434.832 222.515 435.579 222.317 436.296 222.072C437.016 221.921 437.732 221.748 438.46 221.655C439.912 221.446 441.374 221.309 442.835 221.322C445.751 221.316 448.666 221.598 451.484 222.297Z" fill="#3556AE"/>
                    <path d="M474.706 287.304C474.668 283.547 466.738 249.114 459.733 229.921C462.711 236.479 465.493 246.957 469.289 255.413C473.462 264.707 478.705 278.134 480.574 282.973C481.001 284.077 480.73 285.318 479.884 286.144C477.866 288.115 475.606 290.356 473.187 292.436C473.369 292.258 474.742 290.811 474.706 287.304Z" fill="#3556AE"/>
                    <path d="M96.6643 248.512C96.5212 249.671 96.7633 250.838 97.3258 251.861C99.3769 255.592 100.416 259.879 100.282 264.135C100.193 266.939 99.6172 269.809 100.381 272.509C101.698 277.168 106.614 280.048 108.196 284.624C109.598 288.68 108.294 293.781 111.208 296.93C111.931 297.711 113.052 298.308 114.04 297.912C114.535 297.714 114.907 297.3 115.26 296.899C118.601 293.104 122.179 288.49 121.148 283.539C120.18 278.887 115.387 275.744 114.479 271.08C113.737 267.268 115.685 262.874 113.501 259.663C112.899 258.777 112.037 258.1 111.379 257.254C108.783 253.92 109.745 248.607 106.753 245.622C105.778 244.649 104.558 244.097 103.228 243.813C100.092 243.142 97.0585 245.327 96.6643 248.511V248.512Z" fill="#D34C58"/>
                    <path d="M115.669 307.615C115.869 305.135 115.955 302.652 116.047 300.163C115.934 297.683 115.802 295.201 115.589 292.721C115.377 290.242 115.098 287.762 114.66 285.297C114.214 282.848 113.626 280.345 112.596 278.043C110.796 273.492 109.342 268.732 107.872 264.017L105.74 256.907C104.863 254.585 104.009 252.258 103.183 249.914C103.546 252.379 104.109 254.801 104.604 257.239L106.74 264.364C108.219 269.105 109.659 273.833 111.503 278.498C112.501 280.729 113.052 283.088 113.495 285.503C113.924 287.917 114.2 290.366 114.41 292.822C114.617 295.278 114.761 297.744 114.855 300.212L115.669 307.615Z" fill="#F6859C"/>
                    <path d="M102.572 257.324C102.982 257.943 103.508 258.408 104.074 258.818C104.365 259.013 104.706 259.14 105.023 259.3C105.344 259.454 105.625 259.661 105.886 259.897L105.998 259.998L106.099 259.844C106.336 259.483 106.623 259.147 106.85 258.78C107.068 258.41 107.298 258.044 107.492 257.662C107.871 256.891 108.152 256.073 108.295 255.186L108.225 255.151C107.605 255.801 107.123 256.52 106.738 257.288C106.55 257.673 106.399 258.077 106.236 258.475C106.08 258.878 105.987 259.311 105.842 259.718L106.056 259.665C105.753 259.486 105.472 259.279 105.231 259.017C104.985 258.762 104.763 258.475 104.492 258.256C103.934 257.836 103.335 257.471 102.62 257.261L102.572 257.324Z" fill="#F6859C"/>
                    <path d="M103.174 265.806C103.601 266.157 104.04 266.537 104.501 266.855C104.961 267.18 105.427 267.493 105.933 267.746C106.443 267.991 106.985 268.185 107.475 268.464C107.968 268.736 108.418 269.079 108.858 269.438L109.013 269.563L109.171 269.359C109.85 268.467 110.432 267.52 110.981 266.555C111.498 265.571 111.958 264.555 112.289 263.466L112.221 263.427C111.458 264.272 110.826 265.192 110.25 266.141C109.707 267.11 109.196 268.096 108.783 269.14L109.095 269.061C108.579 268.82 108.073 268.568 107.608 268.247C107.141 267.932 106.725 267.534 106.274 267.19C105.818 266.853 105.322 266.581 104.815 266.329C104.301 266.082 103.791 265.842 103.191 265.73L103.174 265.806Z" fill="#F6859C"/>
                    <path d="M106.188 277.002C106.655 277.473 107.176 277.82 107.713 278.134C108.244 278.46 108.827 278.677 109.447 278.823C110.066 278.973 110.626 279.246 111.124 279.628C111.623 280.006 112.11 280.423 112.608 280.749L112.984 280.995L113.264 280.577C113.676 279.958 114.05 279.32 114.341 278.635C114.633 277.952 114.892 277.249 115.037 276.484L114.95 276.437C114.381 276.969 113.927 277.563 113.506 278.176C113.084 278.788 112.744 279.446 112.444 280.126L113.1 279.953C112.531 279.64 111.926 279.459 111.328 279.249C110.729 279.044 110.184 278.747 109.692 278.337C109.203 277.921 108.667 277.593 108.078 277.378C107.494 277.151 106.89 276.968 106.229 276.913L106.188 277.002Z" fill="#F6859C"/>
                    <path d="M119.615 308.101C121.553 307.781 128.822 305.455 128.314 303.557C126.135 295.409 123.957 286.165 131.502 282.179C135.133 280.262 139.691 279.287 141.758 275.738C143.888 272.083 142.32 267.438 140.408 263.664C138.498 259.889 136.197 255.85 137.015 251.7C137.874 247.354 141.982 244.147 142.639 239.766C143.537 233.784 137.73 228.965 132.152 226.629C130.254 225.835 128.168 225.156 126.169 225.638C124.74 225.983 123.502 226.9 122.522 227.995C118.603 232.378 118.764 238.99 119.658 244.801C120.553 250.613 121.922 256.75 119.732 262.207C118.178 266.083 114.851 269.729 115.742 273.808C116.099 275.443 117.118 276.869 117.506 278.495C118.554 282.881 114.911 286.833 113.241 291.021C111.087 296.426 112.565 303.031 116.65 307.132C117.426 307.912 118.528 308.279 119.615 308.101Z" fill="#F35A6C"/>
                    <path d="M118.928 308.191C119.377 304.964 119.826 301.751 120.402 298.561C120.537 297.762 120.705 296.969 120.834 296.171C120.955 295.372 121.026 294.567 121.158 293.771C121.399 292.173 121.668 290.582 121.973 289C122.588 285.838 123.324 282.691 124.405 279.699C124.946 278.209 125.589 276.751 126.438 275.493C126.859 274.868 127.357 274.311 127.907 273.937C128.634 273.459 129.327 272.845 129.868 272.112C130.986 270.631 131.324 268.748 131.283 267.052C131.245 265.333 130.921 263.692 130.557 262.089C129.81 258.888 128.869 255.797 128.347 252.649C127.816 249.518 127.712 246.309 128.539 243.305C128.794 242.573 128.994 241.826 129.235 241.08C129.481 240.337 129.801 239.615 130.162 238.907C130.885 237.492 131.83 236.174 132.876 234.923C131.594 235.928 130.405 237.091 129.412 238.436C128.914 239.105 128.447 239.81 128.05 240.557C127.64 241.297 127.293 242.084 127.113 242.915C126.208 246.202 126.337 249.644 126.888 252.894C127.432 256.16 128.389 259.298 129.115 262.42C129.471 263.979 129.772 265.545 129.804 267.077C129.836 268.603 129.541 270.093 128.679 271.234C128.252 271.805 127.717 272.29 127.089 272.705C126.295 273.246 125.706 273.94 125.219 274.653C124.251 276.092 123.584 277.635 123.014 279.191C121.889 282.31 121.146 285.51 120.519 288.72C120.211 290.325 119.939 291.936 119.695 293.55C119.584 294.358 119.433 295.161 119.336 295.972C119.253 296.784 119.217 297.602 119.165 298.416C118.989 301.676 118.868 304.933 118.928 308.191Z" fill="#F6859C"/>
                    <path d="M131.804 244.589C131.246 244.784 130.778 245.109 130.344 245.456C129.915 245.81 129.505 246.183 129.202 246.657C128.896 247.127 128.624 247.623 128.231 248.009C127.854 248.409 127.399 248.734 126.962 249.085L127.537 249.121C127.343 248.703 127.104 248.312 126.885 247.912C126.658 247.515 126.431 247.119 126.164 246.751C125.912 246.374 125.624 246.019 125.351 245.657C125.075 245.293 124.765 244.958 124.514 244.574L124.417 244.59C124.396 245.099 124.549 245.569 124.705 246.014C124.875 246.456 125.065 246.885 125.295 247.291C125.509 247.705 125.781 248.081 126.055 248.454C126.339 248.822 126.609 249.194 126.934 249.536L127.294 249.914L127.509 249.572C127.803 249.105 128.086 248.62 128.454 248.214C128.805 247.793 129.283 247.489 129.735 247.166C130.19 246.846 130.548 246.437 130.9 246.021C131.249 245.599 131.574 245.165 131.866 244.666L131.804 244.589Z" fill="#F6859C"/>
                    <path d="M124.757 256.926C124.987 257.481 125.289 257.987 125.625 258.462C125.969 258.931 126.325 259.388 126.736 259.796C127.155 260.195 127.636 260.536 128.086 260.903C128.527 261.279 128.915 261.702 129.269 262.165L129.381 262.312L129.539 262.185C130.127 261.718 130.592 261.292 131.055 260.794C131.493 260.294 131.96 259.818 132.368 259.298C132.779 258.78 133.162 258.243 133.527 257.691C133.895 257.14 134.225 256.565 134.609 256.028L134.553 255.946C133.909 256.25 133.409 256.722 132.91 257.171C132.422 257.632 131.968 258.122 131.547 258.636C131.123 259.147 130.762 259.707 130.367 260.238C129.983 260.757 129.658 261.404 129.292 261.859L129.563 261.879C129.117 261.513 128.714 261.101 128.368 260.638C128.031 260.167 127.728 259.664 127.374 259.213C127.01 258.77 126.596 258.373 126.185 257.973C125.765 257.581 125.321 257.211 124.834 256.866L124.757 256.926Z" fill="#F6859C"/>
                    <path d="M137.719 266.451C137.107 267.169 136.472 267.832 135.824 268.465C135.173 269.098 134.474 269.652 133.794 270.262C133.1 270.851 132.315 271.379 131.424 271.639C130.542 271.918 129.605 271.953 128.702 271.942L129.106 272.227C128.947 271.466 128.71 270.748 128.461 270.022C128.216 269.297 127.902 268.593 127.524 267.922C127.15 267.248 126.705 266.604 126.181 266.023C125.648 265.458 125.031 264.926 124.294 264.662L124.244 264.748C124.802 265.253 125.233 265.836 125.606 266.459C125.986 267.077 126.308 267.729 126.624 268.386L127.531 270.388C127.829 271.06 128.092 271.759 128.353 272.438L128.48 272.766L128.758 272.723C129.72 272.571 130.632 272.246 131.523 271.932C132.405 271.588 133.311 271.286 134.178 270.842C135.054 270.414 135.792 269.748 136.41 269.008C137.029 268.267 137.532 267.423 137.807 266.495L137.719 266.451Z" fill="#F6859C"/>
                    <path d="M120.19 273.74C119.894 274.454 119.791 275.231 119.811 276.002C119.844 276.771 119.965 277.547 120.234 278.272C120.518 278.992 120.933 279.654 121.398 280.253L122.755 282.057L122.851 282.185L123.008 282.075C123.741 281.552 124.577 281.156 125.372 280.741C126.167 280.315 126.991 279.949 127.816 279.599C128.638 279.243 129.461 278.884 130.306 278.567C131.145 278.222 132.009 277.948 132.884 277.619L132.869 277.521C131 277.48 129.112 277.877 127.393 278.634C126.53 279.01 125.72 279.494 124.935 280.003C124.153 280.525 123.455 281.154 122.772 281.802L123.025 281.819C122.523 281.29 122.065 280.704 121.772 280.031C121.447 279.375 121.286 278.66 121.063 277.991C120.63 276.641 120.355 275.251 120.286 273.762L120.19 273.74Z" fill="#F6859C"/>
                    <path d="M106.435 329.126H127.186C129.111 329.126 130.749 327.462 131.038 325.208L134.323 299.676C134.682 296.883 132.856 294.367 130.47 294.367H103.151C100.764 294.367 98.9378 296.883 99.2969 299.676L102.582 325.208C102.872 327.462 104.509 329.126 106.435 329.126Z" fill="#4B4791"/>
                    <path d="M103.151 294.367H117.118C114.731 294.367 112.905 296.883 113.264 299.676L116.549 325.208C116.839 327.462 118.476 329.126 120.402 329.126H106.435C104.509 329.126 102.872 327.462 102.582 325.208L99.2969 299.676C98.9378 296.883 100.764 294.367 103.151 294.367Z" fill="#302A5E"/>
                    <path d="M292.31 322.115H205.525C204.65 322.115 203.942 322.823 203.942 323.698V327.544C203.942 328.418 204.65 329.126 205.525 329.126H292.31V322.115Z" fill="#1D1A3B"/>
                    <path d="M314.644 326.951V328.515C314.644 328.854 314.37 329.126 314.032 329.126H292.171C291.491 329.126 290.94 328.575 290.94 327.895V323.34C290.94 322.604 291.58 322.032 292.31 322.115L314.102 326.344C314.41 326.38 314.644 326.641 314.644 326.951Z" fill="#4B4791"/>
                    <path d="M140.644 174.578H302.845C306.126 174.578 309.054 176.637 310.167 179.725L345.64 278.258C347.123 283.34 343.406 287.147 337.432 287.791C336.517 287.89 332.16 285.931 325.318 282.712H180.31C177.028 282.712 174.1 280.653 172.988 277.565L140.943 188.556C135.525 185.727 132.437 184.111 132.437 184.111C132.437 184.111 130.431 174.578 140.644 174.578Z" fill="#4B4791"/>
                    <path d="M297.766 179.657H135.566C133.262 179.657 131.656 181.943 132.437 184.111L167.91 282.644C169.022 285.732 171.951 287.791 175.232 287.791H337.432C339.737 287.791 341.342 285.505 340.562 283.337L305.089 184.804C303.978 181.716 301.048 179.657 297.766 179.657Z" fill="#302A5E"/>
                    <path d="M261.148 287.791L253.949 261.08L226.659 287.791H261.148Z" fill="#1D1A3B"/>
                    <path d="M221.657 214.262C222.37 218.666 225.22 220.442 228.633 220.442C232.046 220.442 234.613 217.622 234.016 214.262C233.418 210.901 230.452 208.081 227.039 208.081C223.626 208.081 221.111 210.892 221.657 214.262Z" fill="#4B4791"/>
                    <path d="M297.886 271.395L295.801 265.601H298.422L300.507 271.395H297.886Z" fill="#1D1A3B"/>
                    <path d="M292.364 271.395L290.279 265.601H292.901L294.986 271.395H292.364Z" fill="#1D1A3B"/>
                    <path d="M286.844 271.395L284.758 265.601H287.379L289.466 271.395H286.844Z" fill="#1D1A3B"/>
                    <path d="M281.323 271.395L279.237 265.601H281.859L283.945 271.395H281.323Z" fill="#1D1A3B"/>
                    <path d="M202.902 271.395L200.817 265.601H203.439L205.525 271.395H202.902Z" fill="#1D1A3B"/>
                    <path d="M197.382 271.395L195.296 265.601H197.917L200.003 271.395H197.382Z" fill="#1D1A3B"/>
                    <path d="M191.86 271.395L189.775 265.601H192.397L194.483 271.395H191.86Z" fill="#1D1A3B"/>
                    <path d="M186.34 271.395L184.254 265.601H186.875L188.961 271.395H186.34Z" fill="#1D1A3B"/>
                    <path d="M206.377 319.604C207.977 315.001 227.387 252.356 227.387 252.356H252.302L253.948 261.08C253.948 261.08 237.243 315.001 235.642 319.604C235.52 319.955 235.404 320.307 235.295 320.66H235.297C233.833 325.161 237.696 325.142 242.045 325.142C246.396 325.142 285.985 325.142 285.985 325.142V329.126H242.045H212.78C203.976 329.126 204.776 324.207 206.377 319.604Z" fill="#302A5E"/>
                    <path d="M252.303 252.356C252.303 252.356 232.893 315.001 231.292 319.604C229.691 324.207 228.891 329.126 237.696 329.126H208.43C199.626 329.126 200.426 324.207 202.027 319.604C203.628 315.001 223.037 252.356 223.037 252.356H252.303Z" fill="#4B4791"/>
                    <path d="M246.201 252.356C244.27 252.267 242.34 252.224 240.41 252.16C238.48 252.094 236.549 252.079 234.619 252.037C232.689 252.006 230.759 251.95 228.828 251.949L223.038 251.913L222.715 251.911L222.614 252.225C221.806 254.748 221.011 257.274 220.253 259.812L217.944 267.416C216.458 272.502 214.97 277.586 213.612 282.712C215.395 277.719 217.049 272.685 218.705 267.652L221.108 260.078C221.921 257.556 222.697 255.024 223.46 252.488L223.038 252.799L228.828 252.763C230.759 252.763 232.689 252.707 234.619 252.676C236.549 252.633 238.48 252.619 240.41 252.552C242.34 252.49 244.27 252.445 246.201 252.356Z" fill="#7268BB"/>
                    <path d="M76.4626 344.506H506.065C510.31 344.506 513.753 341.063 513.753 336.816C513.753 332.569 510.31 329.126 506.065 329.126H76.4626C72.2164 329.126 68.7749 332.569 68.7749 336.816C68.7749 341.063 72.2164 344.506 76.4626 344.506Z" fill="#963F53"/>
                    <path d="M76.4626 344.506H506.065C510.31 344.506 513.753 341.063 513.753 336.816H68.7749C68.7749 341.063 72.2164 344.506 76.4626 344.506Z" fill="#632643"/>
                    <path d="M167.236 85.738C167.236 121.458 138.285 150.416 102.572 150.416C66.8588 150.416 37.9072 121.458 37.9072 85.738C37.9072 50.0169 66.8588 21.0588 102.572 21.0588C138.285 21.0588 167.236 50.0169 167.236 85.738Z" fill="#4A69BB"/>
                    <path d="M193.497 137.354C194.726 143.525 189.014 149.01 187.225 150.039C185.436 151.068 173.433 155.868 166.223 156.039C159.013 156.21 149.498 140.954 153.392 139.24C157.287 137.526 183.817 135.641 186.73 135.641C189.644 135.641 193.497 137.354 193.497 137.354Z" fill="#F9A8BE"/>
                    <path d="M174.589 134.098C171.442 152.61 163.968 167.009 161.636 167.267C159.304 167.523 136.898 159.81 130.721 156.981C124.544 154.153 132.618 110.704 136.463 111.469C140.307 112.234 148.734 120.581 155.694 124.584C162.653 128.587 174.589 134.098 174.589 134.098Z" fill="white"/>
                    <path d="M137.684 141.793C139.844 145.499 157.649 154.89 167.455 158.313C165.032 163.78 162.748 167.143 161.636 167.267C159.639 167.486 142.927 161.863 134.287 158.467C135.011 151.587 137.684 141.793 137.684 141.793Z" fill="#D0EEFB"/>
                    <path d="M193.524 136.498C193.699 143.842 187.085 144.897 179.168 143.011C171.251 141.125 158.323 123.298 152.568 115.242C146.814 107.186 136.076 92.8288 133.856 91.5442C131.635 90.2578 126.543 89.5764 122.186 82.3317C117.83 75.0879 123.561 59.9171 125.619 58.1176C127.678 56.3173 145.321 62.3269 147.371 65.365C149.421 68.4022 145.92 84.7298 146.541 86.7867C147.162 88.8436 162.178 105.643 168.734 109.757C175.29 113.871 193.396 131.184 193.524 136.498Z" fill="#F9A8BE"/>
                    <path d="M134.655 70.2377C132.581 69.2097 132.079 64.5387 133.385 65.3614C134.69 66.1851 136.974 66.1671 140.063 66.1239C143.152 66.0807 144.419 65.8151 144.419 65.8151C144.419 65.8151 144.735 67.8387 144.719 69.4969C144.719 69.4969 136.731 71.2666 134.655 70.2377Z" fill="#F46986"/>
                    <path d="M120.916 71.2999C122.175 68.9604 123.146 67.1861 123.146 67.1861L135.284 78.8714C138.603 75.9926 142.663 73.3659 142.663 73.3659L143.731 75.2707C141.767 78.5942 140.056 85.6228 140.018 87.3367C140.018 87.3367 138.154 89.3937 137.113 89.5647C137.113 89.5647 150.098 110.135 158.446 120.248C166.744 130.303 172.427 138.998 176.339 141.793C168.446 137.242 157.681 122.399 152.568 115.242C146.813 107.186 136.076 92.8288 133.855 91.5442C131.635 90.2578 126.543 89.5764 122.186 82.3317C120.458 79.4583 120.329 75.3391 120.916 71.2999Z" fill="#F46986"/>
                    <path d="M146.18 72.4729C146.032 73.6719 133.972 84.1294 132.709 85.3302C132.614 85.4194 131.671 85.558 131.412 85.3302C128.204 82.5109 114.198 57.0707 113.949 56.1526C113.715 55.2965 123.013 46.5458 125.852 44.2044C126.239 43.8857 127.832 44.0784 128.093 44.4655C130.958 48.7098 146.37 70.9246 146.18 72.4729Z" fill="#101428"/>
                    <path d="M144.883 72.4728C144.736 73.6719 132.675 84.1293 131.412 85.3302C130.15 86.5301 112.922 57.1454 112.652 56.1525C112.418 55.2964 122.77 46.687 125.61 44.3466C125.996 44.0279 126.535 44.0783 126.797 44.4654C129.662 48.7098 145.073 70.9245 144.883 72.4728Z" fill="#2C3686"/>
                    <path d="M142.852 70.7544C142.715 71.8752 131.432 81.6593 130.25 82.7818C129.069 83.9043 112.953 56.4145 112.699 55.4855C112.482 54.6852 122.165 46.6313 124.822 44.4411C125.184 44.1423 125.689 44.19 125.933 44.5518C128.614 48.5226 143.031 69.3051 142.852 70.7544Z" fill="#48B0E7"/>
                    <path d="M135.619 56.4154C133.751 55.2893 131.458 51.4752 131.252 50.1897C131.046 48.9042 131.173 47.7466 132.177 47.49C133.181 47.2326 136.272 51.2609 137.813 52.4609C139.354 53.6608 141.23 56.1462 140.465 57.8179C139.701 59.4886 136.277 58.8459 135.91 58.5893C135.544 58.3319 135.619 56.4154 135.619 56.4154Z" fill="#F9A8BE"/>
                    <path d="M131.598 47.8276C131.006 49.2895 134.865 55.1551 138.248 56.8439L136.99 58.2815C136.99 58.2815 136.419 58.1555 135.686 57.9817C135.586 57.3309 135.618 56.4154 135.618 56.4154C133.752 55.2893 131.458 51.4752 131.252 50.1897C131.095 49.2148 131.135 48.3182 131.598 47.8276Z" fill="#F46986"/>
                    <path d="M139.961 62.3422C136.748 60.6246 134.227 60.8173 132.479 60.1107C130.732 59.4031 130.414 56.7034 131.603 56.2534C132.792 55.8033 140.035 56.9609 141.902 57.7963C143.769 58.6316 144.661 62.4808 144.661 62.4808L139.961 62.3422Z" fill="#F9A8BE"/>
                    <path d="M138.554 60.3393C140.371 60.6814 140.997 60.3393 140.997 60.3393C140.945 61.0495 141.615 61.4033 142.37 62.4133L139.961 62.3422C136.748 60.6247 134.227 60.8173 132.479 60.1107C131.682 59.7875 131.199 59.0493 131.003 58.3013C131.782 59.7812 136.746 59.9972 138.554 60.3393Z" fill="#F46986"/>
                    <path d="M147.371 65.365C145.656 67.7379 137.248 66.7099 135.552 66.4524C133.857 66.195 132.794 65.1247 132.966 64.0453C133.316 61.8669 144.427 62.2531 145.345 62.596C146.262 62.939 147.371 65.365 147.371 65.365Z" fill="#F9A8BE"/>
                    <path d="M133.028 64.5693C134.176 65.7116 136.938 66.3625 139.952 66.6055C142.562 66.8161 144.062 66.7153 144.409 66.6847C141.24 67.1897 136.744 66.6334 135.552 66.4525C134.137 66.2382 133.209 65.4506 133.028 64.5693Z" fill="#F46986"/>
                    <path d="M108.02 98.6151C125.868 107.7 128.797 107.348 136.463 111.469C144.128 115.59 141.847 158.953 141.361 165.638C140.875 172.323 139.027 198.892 140.046 206.093C141.064 213.292 145.031 240.033 146.788 244.146C148.545 248.26 151.897 255.203 146.713 259.316C141.529 263.431 130.562 266.259 106.749 264.717C82.9362 263.174 57.2678 248.517 56.132 246.461C54.9962 244.404 67.515 206.607 68.0388 199.407C68.5626 192.207 69.9845 186.808 70.7414 183.466C71.4983 180.122 63.924 164.438 62.7127 154.41C61.5031 144.382 50.6106 116.72 52.676 111.652C54.7415 106.585 73.7132 100.939 86.6316 94.4959C99.5499 88.0515 108.02 98.6151 108.02 98.6151Z" fill="white"/>
                    <path d="M125.715 109.858C122.777 119.517 116.794 128.227 108.833 134.434C99.1673 132.062 89.3394 127.803 81.4241 121.768C90.27 128.284 99.917 133.766 110.245 137.509C118.968 130.363 124.145 121.026 125.715 109.858Z" fill="#D0EEFB"/>
                    <path d="M122.071 105.26C118.643 103.798 114.239 101.78 108.02 98.6151C108.02 98.6151 99.5499 88.0515 86.6315 94.4959C82.1487 96.731 76.9387 98.8708 71.9573 100.923C79.653 114.019 92.1223 124.264 106.516 129.135C114.105 123.157 119.563 114.591 122.071 105.26Z" fill="#F9A8BE"/>
                    <path d="M56.1319 246.461C54.9961 244.404 67.5149 206.607 68.0387 199.407C68.5625 192.208 69.9845 186.808 70.7413 183.466C71.4982 180.122 63.924 164.438 62.7126 154.41C62.5029 152.668 61.9962 150.386 61.3203 147.789L69.3671 141.793C74.0866 154.96 77.0304 178.101 81.5025 183.758C85.9754 189.415 97.1181 191.728 97.1181 191.728C97.1181 191.728 86.1122 194.3 81.3135 193.271C81.3135 193.271 76.1899 213.585 76.1323 223.612C76.0747 233.64 77.0043 248.811 77.1231 250.868C77.1672 251.635 76.998 254.313 76.7685 257.365C65.2361 252.799 56.7736 247.622 56.1319 246.461Z" fill="#D0EEFB"/>
                    <path d="M88.6583 76.2284C88.4738 86.9586 87.7664 94.3293 85.3887 96.3863C85.3887 96.3863 89.4764 114.191 105.798 112.671C111.319 112.156 110.793 102.9 108.02 98.6151L109.663 85.4544L88.6583 76.2284Z" fill="#F9A8BE"/>
                    <path d="M86.6313 94.4959C88.0281 91.2049 88.5105 84.7919 88.6581 76.2285L109.663 85.4545L108.609 93.8937C104.886 95.5644 86.6313 94.4959 86.6313 94.4959Z" fill="#F46986"/>
                    <path d="M65.0921 155.513C70.007 145.849 71.9752 130.155 67.5383 121.895C63.1023 113.635 54.7297 110.66 52.6759 111.653C50.6213 112.644 45.0594 125.529 39.8368 131.476C34.6142 137.424 20.3526 154.109 19.9203 155.513C19.4878 156.917 30.2285 168.252 50.4296 176.576C52.8343 177.568 65.0921 155.513 65.0921 155.513Z" fill="white"/>
                    <path d="M50.1082 163.006L46.8853 169.616C46.8853 169.616 62.7611 153.697 69.3517 141.819C68.5534 146.774 67.0666 151.631 65.092 155.513C65.092 155.513 52.8351 177.568 50.4295 176.576C46.9726 175.152 43.8155 173.637 40.9211 172.102L50.1082 163.006Z" fill="#D0EEFB"/>
                    <path d="M110.877 77.1899C109.785 72.7663 109.809 68.2429 109.545 63.7195C109.348 60.3384 109.176 57.2427 106.107 55.219C103.864 53.7409 101.052 53.4511 98.4132 53.786C91.3213 54.6861 89.7959 61.5978 90.3385 68.143C90.7543 73.1525 92.7109 77.9631 94.654 82.5712C92.0458 82.4559 88.4846 81.0885 86.9267 78.9173C87.6269 81.7745 88.9517 84.3994 91.0225 86.4203C83.4645 86.2907 76.4491 81.3433 72.4451 74.6999C68.4419 68.0566 67.1729 59.945 67.5995 52.126C68.1053 42.8469 70.9979 33.5453 76.7362 26.4014C88.2776 12.0318 110.513 10.3565 124.053 22.7053C128.708 26.9496 132.084 32.6406 133.773 38.8123C135.993 46.9256 135.947 55.6295 134.217 63.8356C133.502 67.2338 133.173 70.1747 132.836 73.5774C132.731 74.6324 131.453 86.8803 132.192 86.8353C127.418 87.1252 121.933 86.1611 118.698 82.5108C120.148 85.0178 121.4 87.433 122.85 89.9401C116.821 88.9373 112.39 83.3183 110.877 77.1899Z" fill="#302A5E"/>
                    <path d="M86.1014 60.4986C83.9684 59.2375 81.4044 58.5533 79.4271 60.5607C76.5121 63.5169 80.6529 77.2736 86.9366 73.9312C86.9366 73.9312 96.0363 86.658 102.715 90.2578C109.395 93.8577 114.152 92.0582 116.653 89.4864C119.154 86.9154 127.683 76.3689 129.218 65.1886C129.765 61.2026 129.178 53.3611 129.301 51.6894C129.675 46.5476 131.623 42.3248 127.566 38.2893C123.471 34.2123 117.796 31.7458 112.02 31.5415C104.745 31.2849 97.4727 34.5553 92.656 40.0131C87.3335 46.0453 86.4101 52.8551 86.1014 60.4986Z" fill="#F9A8BE"/>
                    <path d="M80.4595 64.3199C81.0031 61.8003 83.1522 61.3034 84.7506 63.0597C86.3895 64.8601 86.6649 70.5609 86.2437 71.4017C85.8225 72.2416 83.0073 72.1813 82.4736 70.4412C81.9408 68.7011 83.5797 67.6101 85.1619 68.125C85.1619 68.125 85.6047 65.5856 84.3105 63.95C83.0172 62.3134 81.6699 62.9399 81.3396 63.3594C81.0085 63.7798 80.4595 64.3199 80.4595 64.3199Z" fill="#F46986"/>
                    <path d="M97.8542 53.1711C98.4626 52.6049 99.1088 52.0783 99.7856 51.5787C100.467 51.0872 101.194 50.6452 101.965 50.286C102.731 49.925 103.533 49.5371 104.382 49.4713C105.222 49.3975 106.068 49.4651 106.836 49.7963L106.826 49.9115C106.415 50.0763 106.023 50.1816 105.638 50.2932L104.504 50.6065C103.768 50.8234 103.004 50.8891 102.256 51.1385C101.514 51.3851 100.782 51.702 100.06 52.0648C99.332 52.4195 98.63 52.8407 97.9199 53.262L97.8542 53.1711Z" fill="#391E4F"/>
                    <path d="M126.285 50.2851C125.596 49.9205 124.867 49.6541 124.11 49.4948C123.356 49.3264 122.585 49.24 121.811 49.2211C121.033 49.2049 120.259 49.3642 119.491 49.3588C118.716 49.3615 117.938 49.3849 117.087 49.2994L117.063 49.1887C117.791 48.6603 118.621 48.374 119.457 48.212C120.3 48.0419 121.144 48.1814 121.959 48.3029C122.777 48.4226 123.574 48.6333 124.321 48.9448C125.063 49.2652 125.768 49.6631 126.356 50.1897L126.285 50.2851Z" fill="#391E4F"/>
                    <path d="M105.487 57.6909C105.458 56.6035 104.911 55.7736 104.264 55.8375C103.618 55.9005 103.116 56.834 103.144 57.9214C103.173 59.0088 103.72 59.8388 104.368 59.7758C105.015 59.7119 105.515 58.7793 105.487 57.6909Z" fill="#391E4F"/>
                    <path d="M122.657 56.3181C122.628 55.2307 122.176 54.3908 121.647 54.4431C121.119 54.4944 120.713 55.4189 120.741 56.5063C120.77 57.5937 121.222 58.4327 121.751 58.3814C122.279 58.3292 122.686 57.4056 122.657 56.3181Z" fill="#391E4F"/>
                    <path d="M110.864 68.2618C112.352 69.297 114.546 69.2746 116.166 68.2078C115.982 69.045 115.607 69.8624 114.793 70.1603C113.977 70.4574 113.077 70.3701 112.328 70.0262C111.579 69.6823 111.337 68.9289 110.864 68.2618Z" fill="#F46986"/>
                    <path d="M104.906 74.6423C108.492 74.7008 117.112 74.0383 119.923 73.6386C118.815 77.2726 115.908 80.8608 111.85 80.8626C108.195 80.8653 105.781 77.8614 104.906 74.6423Z" fill="#EC1F32"/>
                    <path d="M108.196 79.6761C109.622 79.2368 111.072 79.4628 111.656 79.6428C111.656 79.6428 113.552 78.316 116.308 79.1873C115.054 80.2 113.562 80.8617 111.85 80.8626C110.44 80.8635 109.219 80.4098 108.196 79.6761Z" fill="#F36480"/>
                    <path d="M117.49 76.6776C113.861 77.8092 109.899 77.4833 106.48 76.2509C106.456 75.7144 106.416 75.1734 106.375 74.6333C109.919 74.5577 115.656 74.1292 118.727 73.7862C118.462 74.7909 118.064 75.7729 117.49 76.6776Z" fill="white"/>
                    <path d="M89.6879 48.6648C95.536 48.4155 101.338 47.1273 106.743 44.8778C107.771 42.4986 107.806 40.3867 107.96 37.7996C109.43 40.4965 110.303 43.5149 110.454 46.5818C113.86 46.3612 117.282 46.1785 120.688 45.9571C121.642 43.2574 121.757 40.4785 121.606 37.6187C122.757 40.3048 123.336 43.6859 123.728 46.5809C125.784 45.8499 128.389 46.9167 130.536 47.3019C133.198 41.3715 133.024 30.6269 127.394 26.1296C121.91 21.7484 112.385 20.5575 105.685 21.527C91.4302 23.5911 80.2263 35.4294 81.111 50.1789C81.615 58.5939 85.835 66.5497 91.8865 72.4171C88.2893 65.2381 87.5747 56.4127 89.6879 48.6648Z" fill="#302A5E"/>
                    <path d="M193.8 90.0364C193.8 110.809 210.635 127.648 231.403 127.648C252.171 127.648 269.007 110.809 269.007 90.0364C269.007 69.2637 252.171 52.4239 231.403 52.4239C210.635 52.4239 193.8 69.2637 193.8 90.0364Z" fill="#F35A6C"/>
                    <path d="M212.852 104.76H249.954C251.657 104.76 253.038 103.379 253.038 101.676V78.397C253.038 76.6929 251.657 75.312 249.954 75.312H212.852C211.149 75.312 209.768 76.6929 209.768 78.397V101.676C209.768 103.379 211.149 104.76 212.852 104.76Z" fill="#D0E8F8"/>
                    <path d="M212.852 104.76H249.954C251.657 104.76 253.038 103.379 253.038 101.676L231.403 88.0676L209.768 101.676C209.768 103.379 211.149 104.76 212.852 104.76Z" fill="#BFD9F3"/>
                    <path d="M212.852 75.3121H249.954C251.657 75.3121 253.038 76.693 253.038 78.397L231.403 92.0042L209.768 78.397C209.768 76.693 211.149 75.3121 212.852 75.3121Z" fill="#4A69BB"/>
                    <path d="M460.397 144.16C460.397 164.933 477.232 181.772 498.001 181.772C518.769 181.772 535.605 164.933 535.605 144.16C535.605 123.388 518.769 106.548 498.001 106.548C477.232 106.548 460.397 123.388 460.397 144.16Z" fill="#F35A6C"/>
                    <path d="M491.571 145.646C488.366 145.646 485.77 143.047 485.77 139.843C485.77 136.637 488.366 134.039 491.571 134.039C494.776 134.039 497.374 136.637 497.374 139.843C497.374 143.047 494.776 145.646 491.571 145.646ZM508.548 136.805H504.767C504.425 135.313 503.836 133.92 503.047 132.66L505.724 129.984C506.088 129.618 506.088 129.027 505.724 128.662L502.749 125.688C502.385 125.323 501.792 125.323 501.428 125.688L498.752 128.364C497.493 127.575 496.1 126.986 494.609 126.644V122.863C494.609 122.347 494.19 121.928 493.675 121.928H489.469C488.953 121.928 488.535 122.347 488.535 122.863V126.644C487.044 126.986 485.649 127.575 484.39 128.364L481.716 125.688C481.351 125.323 480.758 125.323 480.394 125.688L477.42 128.662C477.055 129.027 477.055 129.618 477.42 129.984L480.096 132.66C479.306 133.92 478.719 135.313 478.376 136.805H474.596C474.079 136.805 473.662 137.223 473.662 137.74V141.946C473.662 142.462 474.079 142.88 474.596 142.88H478.376C478.719 144.372 479.306 145.766 480.096 147.024L477.42 149.701C477.055 150.066 477.055 150.658 477.42 151.023L480.394 153.997C480.758 154.362 481.351 154.362 481.716 153.997L484.39 151.321C485.649 152.11 487.044 152.699 488.535 153.041V156.822C488.535 157.339 488.953 157.757 489.469 157.757H493.675C494.19 157.757 494.609 157.339 494.609 156.822V153.041C496.1 152.699 497.493 152.11 498.752 151.321L501.428 153.997C501.792 154.362 502.385 154.362 502.749 153.997L505.724 151.023C506.088 150.658 506.088 150.066 505.724 149.701L503.047 147.024C503.836 145.766 504.425 144.372 504.767 142.88H508.548C509.064 142.88 509.482 142.462 509.482 141.946V137.74C509.482 137.223 509.064 136.805 508.548 136.805Z" fill="#D0E8F8"/>
                    <path d="M491.572 144.776C488.848 144.776 486.641 142.567 486.641 139.843C486.641 137.118 488.848 134.91 491.572 134.91C494.295 134.91 496.503 137.118 496.503 139.843C496.503 142.567 494.295 144.776 491.572 144.776ZM491.572 131.764C487.111 131.764 483.495 135.381 483.495 139.843C483.495 144.304 487.111 147.921 491.572 147.921C496.032 147.921 499.649 144.304 499.649 139.843C499.649 135.381 496.032 131.764 491.572 131.764Z" fill="#4A69BB"/>
                    <path d="M516.024 157.887C514.387 157.887 513.06 156.56 513.06 154.923C513.06 153.285 514.387 151.958 516.024 151.958C517.66 151.958 518.988 153.285 518.988 154.923C518.988 156.56 517.66 157.887 516.024 157.887ZM524.696 153.371H522.764C522.59 152.608 522.29 151.896 521.887 151.253L523.253 149.887C523.439 149.7 523.439 149.398 523.253 149.211L521.735 147.692C521.548 147.505 521.246 147.505 521.06 147.692L519.692 149.059C519.049 148.655 518.337 148.355 517.576 148.18V146.248C517.576 145.985 517.362 145.771 517.098 145.771H514.95C514.686 145.771 514.472 145.985 514.472 146.248V148.18C513.71 148.355 512.998 148.655 512.356 149.059L510.989 147.692C510.802 147.505 510.499 147.505 510.313 147.692L508.795 149.211C508.608 149.398 508.608 149.7 508.795 149.887L510.161 151.253C509.758 151.896 509.457 152.608 509.283 153.371H507.351C507.087 153.371 506.874 153.585 506.874 153.848V155.997C506.874 156.261 507.087 156.475 507.351 156.475H509.283C509.457 157.237 509.758 157.949 510.161 158.592L508.795 159.959C508.608 160.145 508.608 160.448 508.795 160.634L510.313 162.154C510.499 162.34 510.802 162.34 510.989 162.154L512.356 160.786C512.998 161.19 513.71 161.49 514.472 161.666V163.597C514.472 163.861 514.686 164.075 514.95 164.075H517.098C517.362 164.075 517.576 163.861 517.576 163.597V161.666C518.337 161.49 519.049 161.19 519.692 160.786L521.06 162.154C521.246 162.34 521.548 162.34 521.735 162.154L523.253 160.634C523.439 160.448 523.439 160.145 523.253 159.959L521.887 158.592C522.29 157.949 522.59 157.237 522.764 156.475H524.696C524.96 156.475 525.173 156.261 525.173 155.997V153.848C525.173 153.585 524.96 153.371 524.696 153.371Z" fill="#D0E8F8"/>
                    <path d="M516.024 157.443C514.632 157.443 513.504 156.314 513.504 154.923C513.504 153.531 514.632 152.403 516.024 152.403C517.415 152.403 518.543 153.531 518.543 154.923C518.543 156.314 517.415 157.443 516.024 157.443ZM516.024 150.796C513.745 150.796 511.897 152.643 511.897 154.923C511.897 157.202 513.745 159.05 516.024 159.05C518.302 159.05 520.149 157.202 520.149 154.923C520.149 152.643 518.302 150.796 516.024 150.796Z" fill="#4A69BB"/>
                    <path d="M290.752 37.6252C290.752 58.3987 307.588 75.2376 328.355 75.2376C349.124 75.2376 365.96 58.3987 365.96 37.6252C365.96 16.8534 349.124 0.0136642 328.355 0.0136642C307.588 0.0136642 290.752 16.8534 290.752 37.6252Z" fill="#F35A6C"/>
                    <path d="M309.694 56.9546H347.019C348.66 56.9546 349.992 55.6232 349.992 53.9813V22.9213C349.992 21.2785 348.66 19.9471 347.019 19.9471H309.694C308.053 19.9471 306.721 21.2785 306.721 22.9213V53.9813C306.721 55.6232 308.053 56.9546 309.694 56.9546Z" fill="white"/>
                    <path d="M306.721 27.6923H349.992V22.9213C349.992 21.2785 348.66 19.9471 347.019 19.9471H309.694C308.053 19.9471 306.721 21.2785 306.721 22.9213V27.6923Z" fill="#4A69BB"/>
                    <path d="M339.656 21.5989C340.14 21.5989 340.533 21.2056 340.533 20.7213V19.1738C340.533 18.6895 340.14 18.2962 339.656 18.2962C339.171 18.2962 338.778 18.6895 338.778 19.1738V20.7213C338.778 21.2056 339.171 21.5989 339.656 21.5989Z" fill="white"/>
                    <path d="M342.164 21.5989C342.648 21.5989 343.042 21.2056 343.042 20.7213V19.1738C343.042 18.6895 342.648 18.2962 342.164 18.2962C341.679 18.2962 341.287 18.6895 341.287 19.1738V20.7213C341.287 21.2056 341.679 21.5989 342.164 21.5989Z" fill="white"/>
                    <path d="M314.549 21.5989C315.034 21.5989 315.426 21.2056 315.426 20.7213V19.1738C315.426 18.6895 315.034 18.2962 314.549 18.2962C314.065 18.2962 313.671 18.6895 313.671 19.1738V20.7213C313.671 21.2056 314.065 21.5989 314.549 21.5989Z" fill="white"/>
                    <path d="M317.058 21.5989C317.542 21.5989 317.935 21.2056 317.935 20.7213V19.1738C317.935 18.6895 317.542 18.2962 317.058 18.2962C316.573 18.2962 316.18 18.6895 316.18 19.1738V20.7213C316.18 21.2056 316.573 21.5989 317.058 21.5989Z" fill="white"/>
                    <path d="M331.087 36.0469H333.409C333.802 36.0469 334.123 35.7273 334.123 35.3331V33.0106C334.123 32.6163 333.802 32.2976 333.409 32.2976H331.087C330.693 32.2976 330.373 32.6163 330.373 33.0106V35.3331C330.373 35.7273 330.693 36.0469 331.087 36.0469Z" fill="#D0E8F8"/>
                    <path d="M322.168 36.0469H324.489C324.884 36.0469 325.203 35.7273 325.203 35.3331V33.0106C325.203 32.6163 324.884 32.2976 324.489 32.2976H322.168C321.773 32.2976 321.455 32.6163 321.455 33.0106V35.3331C321.455 35.7273 321.773 36.0469 322.168 36.0469Z" fill="#D0E8F8"/>
                    <path d="M313.248 36.0469H315.57C315.964 36.0469 316.283 35.7273 316.283 35.3331V33.0106C316.283 32.6163 315.964 32.2976 315.57 32.2976H313.248C312.854 32.2976 312.534 32.6163 312.534 33.0106V35.3331C312.534 35.7273 312.854 36.0469 313.248 36.0469Z" fill="#D0E8F8"/>
                    <path d="M340.007 43.7294H342.328C342.722 43.7294 343.042 43.4098 343.042 43.0155V40.693C343.042 40.2987 342.722 39.9801 342.328 39.9801H340.007C339.612 39.9801 339.293 40.2987 339.293 40.693V43.0155C339.293 43.4098 339.612 43.7294 340.007 43.7294Z" fill="#D0E8F8"/>
                    <path d="M331.087 43.7294H333.409C333.802 43.7294 334.123 43.4098 334.123 43.0155V40.693C334.123 40.2987 333.802 39.9801 333.409 39.9801H331.087C330.693 39.9801 330.373 40.2987 330.373 40.693V43.0155C330.373 43.4098 330.693 43.7294 331.087 43.7294Z" fill="#D0E8F8"/>
                    <path d="M322.168 43.7294H324.489C324.884 43.7294 325.203 43.4098 325.203 43.0155V40.693C325.203 40.2987 324.884 39.9801 324.489 39.9801H322.168C321.773 39.9801 321.455 40.2987 321.455 40.693V43.0155C321.455 43.4098 321.773 43.7294 322.168 43.7294Z" fill="#D0E8F8"/>
                    <path d="M313.248 43.7294H315.57C315.964 43.7294 316.283 43.4098 316.283 43.0155V40.693C316.283 40.2987 315.964 39.9801 315.57 39.9801H313.248C312.854 39.9801 312.534 40.2987 312.534 40.693V43.0155C312.534 43.4098 312.854 43.7294 313.248 43.7294Z" fill="#D0E8F8"/>
                    <path d="M340.007 51.411H342.328C342.722 51.411 343.042 51.0915 343.042 50.6972V48.3747C343.042 47.9804 342.722 47.6608 342.328 47.6608H340.007C339.612 47.6608 339.293 47.9804 339.293 48.3747V50.6972C339.293 51.0915 339.612 51.411 340.007 51.411Z" fill="#D0E8F8"/>
                    <path d="M331.087 51.411H333.409C333.802 51.411 334.123 51.0915 334.123 50.6972V48.3747C334.123 47.9804 333.802 47.6608 333.409 47.6608H331.087C330.693 47.6608 330.373 47.9804 330.373 48.3747V50.6972C330.373 51.0915 330.693 51.411 331.087 51.411Z" fill="#D0E8F8"/>
                    <path d="M322.168 51.411H324.489C324.884 51.411 325.203 51.0915 325.203 50.6972V48.3747C325.203 47.9804 324.884 47.6608 324.489 47.6608H322.168C321.773 47.6608 321.455 47.9804 321.455 48.3747V50.6972C321.455 51.0915 321.773 51.411 322.168 51.411Z" fill="#D0E8F8"/>
                    <path d="M473.608 56.9546C473.608 77.7273 456.773 94.567 436.005 94.567C415.236 94.567 398.401 77.7273 398.401 56.9546C398.401 36.1819 415.236 19.3422 436.005 19.3422C456.773 19.3422 473.608 36.1819 473.608 56.9546Z" fill="#F35A6C"/>
                    <path d="M461.76 56.9546C461.76 71.1829 450.229 82.7161 436.005 82.7161C421.779 82.7161 410.249 71.1829 410.249 56.9546C410.249 42.7272 421.779 31.1931 436.005 31.1931C450.229 31.1931 461.76 42.7272 461.76 56.9546Z" fill="white"/>
                    <path d="M438.164 78.9038V75.3859C438.164 74.7315 437.634 74.2013 436.98 74.2013H435.029C434.375 74.2013 433.845 74.7315 433.845 75.3859V78.9038C423.391 77.8875 415.077 69.5707 414.06 59.1151H417.577C418.232 59.1151 418.763 58.5849 418.763 57.9304V55.9797C418.763 55.3253 418.232 54.7951 417.577 54.7951H414.06C415.077 44.3394 423.391 36.0226 433.845 35.0063V38.5242C433.845 39.1787 434.375 39.7089 435.029 39.7089H436.98C437.634 39.7089 438.164 39.1787 438.164 38.5242V35.0063C448.617 36.0226 456.932 44.3394 457.949 54.7951H454.431C453.777 54.7951 453.246 55.3253 453.246 55.9797V57.9304C453.246 58.5849 453.777 59.1151 454.431 59.1151H457.949C456.932 69.5707 448.617 77.8875 438.164 78.9038ZM436.005 31.1931C421.779 31.1931 410.249 42.7272 410.249 56.9546C410.249 71.1829 421.779 82.7161 436.005 82.7161C450.229 82.7161 461.76 71.1829 461.76 56.9546C461.76 42.7272 450.229 31.1931 436.005 31.1931Z" fill="#4A69BB"/>
                    <path d="M420.344 61.7691V60.8103L423.944 56.8685C424.367 56.4068 424.715 56.0056 424.989 55.6647C425.262 55.3202 425.464 54.997 425.596 54.6952C425.731 54.3898 425.798 54.0702 425.798 53.7364C425.798 53.3529 425.706 53.0208 425.521 52.7403C425.34 52.4598 425.091 52.2431 424.775 52.0904C424.459 51.9377 424.104 51.8614 423.71 51.8614C423.291 51.8614 422.925 51.9484 422.613 52.1224C422.304 52.2929 422.064 52.5326 421.894 52.8415C421.727 53.1505 421.643 53.5127 421.643 53.9282H420.386C420.386 53.289 420.534 52.7279 420.828 52.2449C421.123 51.762 421.524 51.3855 422.032 51.1157C422.544 50.8458 423.117 50.7108 423.753 50.7108C424.392 50.7108 424.958 50.8458 425.452 51.1157C425.946 51.3855 426.333 51.7495 426.613 52.2076C426.894 52.6657 427.034 53.1753 427.034 53.7364C427.034 54.1377 426.961 54.5301 426.816 54.9136C426.674 55.2936 426.425 55.7179 426.07 56.1867C425.718 56.6519 425.23 57.2201 424.605 57.8912L422.155 60.512V60.5972H427.226V61.7691H420.344ZM428.936 59.5318V58.4452L433.73 50.86H434.518V52.5432H433.985L430.363 58.2747V58.36H436.819V59.5318H428.936ZM434.071 61.7691V59.2016V58.6956V50.86H435.328V61.7691H434.071ZM442.693 50.3486L439.178 63.4097H438.027L441.543 50.3486H442.693ZM444.503 61.7691L449.382 52.1171V52.0318H443.757V50.86H450.746V52.0958L445.888 61.7691H444.503Z" fill="#CFBCD4"/>
                    </g>
                    <defs>
                    <clipPath id="clip0_72_6611">
                    <rect width="554" height="345" fill="white"/>
                    </clipPath>
                    </defs>
                    </svg>
                    
                