<svg width="56" height="56" viewBox="0 0 56 56" fill="none" xmlns="http://www.w3.org/2000/svg">
                  <g clip-path="url(#clip0_194_2)">
                  <path d="M47.8503 3.26365C49.6737 4.13666 50.6829 4.81863 51.8118 5.93641L51.8127 5.93729C52.57 6.69455 52.8731 7.09918 53.2274 7.81931L53.2278 7.82014L53.6544 8.69514L53.6796 8.74679L53.6797 8.80426L53.7125 27.8574V27.8575L53.7344 46.9107L53.7344 46.9566L53.7182 46.9995L53.4451 47.7204C52.4951 50.2613 49.5633 52.3279 44.9879 53.842C41.8371 54.8886 38.4711 55.5366 33.9865 55.9971L33.9859 55.9972C31.355 56.2614 24.7651 56.2613 22.0694 55.9972L22.0693 55.9972C14.5937 55.2628 9.29575 53.7476 5.5707 51.2643L5.57034 51.264C4.0835 50.2691 3.06978 49.0934 2.55498 47.7206L2.55498 47.7206L2.55442 47.7191L2.28098 46.9753L2.26557 46.9334L2.26563 46.8888L2.2875 27.8466L2.2875 27.8464L2.32031 8.80426L2.32041 8.74679L2.34559 8.69514L2.77215 7.82014L2.77256 7.81931C3.12691 7.09918 3.43002 6.69455 4.18728 5.93728L4.18817 5.93641C5.31701 4.81874 6.32616 4.13679 8.14918 3.2639C11.9299 1.43987 17.3467 0.254677 23.6097 -0.129219L23.61 -0.129234C25.7966 -0.261089 29.9407 -0.261063 32.0937 -0.140236L32.095 -0.140152C38.6845 0.265522 43.9704 1.39564 47.8503 3.26365ZM47.8503 3.26365C47.8503 3.26363 47.8502 3.2636 47.8501 3.26358L47.7425 3.48836L47.8506 3.26381C47.8505 3.26376 47.8504 3.26371 47.8503 3.26365ZM6.15166 15.0073L6.15429 15.009C8.92953 16.7852 13.0802 18.1382 18.0094 18.8847C24.0718 19.8072 31.9284 19.8072 37.9907 18.8847C43.6848 18.0179 48.3848 16.3243 51.1042 14.1177L6.15166 15.0073ZM6.15166 15.0073C5.73528 14.7334 5.1701 14.3349 4.90687 14.1179C4.90619 14.1173 4.90552 14.1167 4.90484 14.1162L4.84375 14.0679V17.8609L4.84375 17.9792C4.84372 20.4123 4.84371 21.5962 4.95553 22.3035C5.01056 22.6516 5.09067 22.8668 5.20398 23.0525C5.32173 23.2454 5.48051 23.4169 5.72365 23.6793L5.72846 23.6845C6.90495 24.9507 9.00607 26.0936 11.8435 27.0186C14.674 27.9412 18.21 28.6384 22.2273 29.0309C24.5756 29.2592 31.1435 29.2916 33.2254 29.0856C37.5511 28.6546 41.2077 27.9626 44.0898 27.0454C46.9775 26.1263 49.0621 24.989 50.2714 23.6847L50.2764 23.6793C50.5195 23.4169 50.6783 23.2454 50.796 23.0525C50.9093 22.8668 50.9894 22.6516 51.0445 22.3035C51.1563 21.5962 51.1563 20.4122 51.1562 17.9791V17.8609V14.0756L51.1044 14.1176L6.15166 15.0073ZM34.3714 2.58916L34.3702 2.58903C33.6628 2.50864 31.4126 2.43208 29.1642 2.38961C26.9144 2.3471 24.7074 2.33954 24.0838 2.39285L24.083 2.39291C21.2951 2.6225 20.5462 2.69861 19.2305 2.88346C13.7748 3.65815 9.15441 5.18206 6.73295 6.97137L6.73284 6.97146C5.38012 7.96989 4.90937 8.74705 4.90937 9.67969C4.90937 10.0544 4.96953 10.3548 5.11139 10.6482C5.25548 10.9461 5.4909 11.2514 5.86428 11.6248C6.96377 12.7243 8.794 13.7397 11.1798 14.5875C13.5606 15.4335 16.4741 16.1054 19.7199 16.5302C22.637 16.9112 23.8615 16.9766 28 16.9766C32.1385 16.9766 33.363 16.9112 36.2801 16.5302L36.2803 16.5302C40.0105 16.0456 43.344 15.2077 45.9094 14.1702C47.1921 13.6514 48.2774 13.0849 49.1226 12.4914C49.9699 11.8965 50.5618 11.2846 50.8782 10.68C51.0085 10.4286 51.0857 10.0675 51.0934 9.69639C51.1011 9.32397 51.038 8.97974 50.9224 8.7569C50.1855 7.36621 48.2881 6.0594 45.4147 4.97812C42.5554 3.90215 38.782 3.06892 34.3714 2.58916ZM51.1562 30.1438V26.3038C47.5379 29.1573 41.6342 30.92 33.5987 31.5851C30.8397 31.8159 25.0948 31.8159 22.4007 31.585C15.0494 30.9606 9.35391 29.4141 5.90917 27.0592C5.52791 26.8083 5.07084 26.4858 4.84375 26.2979V30.1438V34.4529L5.0826 34.9704C5.08271 34.9707 5.08283 34.9709 5.08295 34.9712C5.42639 35.7029 6.16928 36.4531 7.29371 37.1754C8.41428 37.8952 9.89238 38.5735 11.673 39.1707C16.289 40.713 21.5763 41.4547 28.109 41.4438H28.1094C32.6133 41.4438 35.7906 41.1604 39.4907 40.4313L39.491 40.4312C42.5445 39.8325 45.1587 39.0041 47.1358 38.0493C49.1245 37.0889 50.4245 36.0218 50.9172 34.9709C50.9172 34.9708 50.9173 34.9706 50.9174 34.9705L51.1562 34.4529V30.1438ZM8.13994 40.5416L8.13836 40.5408C7.52719 40.2464 6.79202 39.8344 6.1642 39.4453C5.85007 39.2506 5.56042 39.0602 5.32505 38.8916C5.15538 38.77 5.00483 38.6535 4.89319 38.551C4.8852 38.7573 4.87768 39.0259 4.87104 39.3447C4.85468 40.1301 4.84375 41.2138 4.84375 42.4047V46.7027L5.09353 47.2423C5.09363 47.2425 5.09372 47.2427 5.09382 47.2429C5.35867 47.8072 5.89982 48.3956 6.69705 48.9795C7.49142 49.5612 8.52314 50.126 9.74391 50.6487C12.1852 51.694 15.3598 52.5613 18.848 53.0619L18.8481 53.0619C22.1796 53.541 23.2498 53.6063 28 53.6063C32.7502 53.6063 33.8204 53.541 37.1519 53.0619L37.152 53.0619C40.6402 52.5613 43.8148 51.694 46.2561 50.6487C47.4769 50.126 48.5086 49.5612 49.303 48.9795C50.1002 48.3956 50.6413 47.8072 50.9062 47.2429C50.9063 47.2427 50.9064 47.2425 50.9065 47.2423L51.1562 46.7027V42.4047C51.1562 41.2134 51.1481 40.1294 51.1344 39.3438C51.1288 39.0199 51.1223 38.7479 51.115 38.5403C50.6368 38.9756 49.7483 39.534 48.7625 40.0616C47.7454 40.606 46.5988 41.1313 45.6378 41.4701L45.637 41.4704C42.3204 42.6274 38.2958 43.4181 33.8182 43.8022L33.8175 43.8023C31.5616 43.9893 24.4384 43.9893 22.1825 43.8023L22.182 43.8022C16.4888 43.3196 11.6439 42.1996 8.13994 40.5416Z" fill="white" stroke="white" stroke-width="0.5"/>
                  </g>
                  <defs>
                  <clipPath id="clip0_194_2">
                  <rect width="56" height="56" fill="white"/>
                  </clipPath>
                  </defs>
                  </svg>