<svg width="63" height="56" viewBox="0 0 63 56" fill="none" xmlns="http://www.w3.org/2000/svg">
                  <path d="M22.2797 30.5869L19.4622 12.2921H17.7421C17.3423 12.2921 16.9589 12.1333 16.6762 11.8506C16.3934 11.5679 16.2346 11.1844 16.2346 10.7846C16.2346 10.3848 16.3934 10.0014 16.6762 9.71867C16.9589 9.43596 17.3423 9.27714 17.7421 9.27714H20.7345C21.0982 9.27043 21.4518 9.39636 21.7294 9.6314C22.0144 9.87099 22.2002 10.2078 22.251 10.5766L22.7455 13.7996H34.3245V16.8145H23.2098L25.064 28.8744H39.2329L41.4942 21.337H44.6418L41.7987 30.8145C41.7056 31.1252 41.5148 31.3975 41.2547 31.5912C40.9945 31.7848 40.6788 31.8894 40.3545 31.8893H23.7962C23.4222 31.8962 23.0592 31.7629 22.7786 31.5155C22.5053 31.2764 22.3276 30.9466 22.2782 30.5869H22.2797ZM28.2946 36.4118C28.2946 37.2114 27.9769 37.9783 27.4115 38.5437C26.8461 39.1091 26.0792 39.4267 25.2796 39.4267C24.48 39.4267 23.7131 39.1091 23.1477 38.5437C22.5822 37.9783 22.2646 37.2114 22.2646 36.4118C22.2646 35.6122 22.5822 34.8453 23.1477 34.2799C23.7131 33.7145 24.48 33.3968 25.2796 33.3968C26.0792 33.3968 26.8461 33.7145 27.4115 34.2799C27.9769 34.8453 28.2946 35.6122 28.2946 36.4118ZM41.862 36.4118C41.862 37.2114 41.5443 37.9783 40.9789 38.5437C40.4135 39.1091 39.6466 39.4267 38.847 39.4267C38.0474 39.4267 37.2805 39.1091 36.7151 38.5437C36.1497 37.9783 35.832 37.2114 35.832 36.4118C35.832 35.6122 36.1497 34.8453 36.7151 34.2799C37.2805 33.7145 38.0474 33.3968 38.847 33.3968C39.6466 33.3968 40.4135 33.7145 40.9789 34.2799C41.5443 34.8453 41.862 35.6122 41.862 36.4118ZM41.862 9.27714C42.2618 9.27714 42.6453 9.43596 42.928 9.71867C43.2107 10.0014 43.3695 10.3848 43.3695 10.7846V12.2921H44.877C45.2768 12.2921 45.6602 12.4509 45.9429 12.7336C46.2257 13.0163 46.3845 13.3998 46.3845 13.7996C46.3845 14.1994 46.2257 14.5828 45.9429 14.8655C45.6602 15.1482 45.2768 15.3071 44.877 15.3071H43.3695V16.8145C43.3695 17.2144 43.2107 17.5978 42.928 17.8805C42.6453 18.1632 42.2618 18.322 41.862 18.322C41.4622 18.322 41.0788 18.1632 40.796 17.8805C40.5133 17.5978 40.3545 17.2144 40.3545 16.8145V15.3071H38.847C38.4472 15.3071 38.0638 15.1482 37.7811 14.8655C37.4983 14.5828 37.3395 14.1994 37.3395 13.7996C37.3395 13.3998 37.4983 13.0163 37.7811 12.7336C38.0638 12.4509 38.4472 12.2921 38.847 12.2921H40.3545V10.7846C40.3545 10.3848 40.5133 10.0014 40.796 9.71867C41.0788 9.43596 41.4622 9.27714 41.862 9.27714Z" fill="white"/>
                  <path d="M0 6.22222C0 4.57199 0.655553 2.98934 1.82245 1.82245C2.98934 0.655553 4.57199 0 6.22222 0H56C57.6502 0 59.2329 0.655553 60.3998 1.82245C61.5667 2.98934 62.2222 4.57199 62.2222 6.22222V40.4444C62.2222 42.0947 61.5667 43.6773 60.3998 44.8442C59.2329 46.0111 57.6502 46.6667 56 46.6667H6.22222C4.57199 46.6667 2.98934 46.0111 1.82245 44.8442C0.655553 43.6773 0 42.0947 0 40.4444V6.22222ZM56 6.22222H6.22222V40.4444H56V6.22222ZM62.2222 52.8889C62.2222 53.714 61.8944 54.5053 61.311 55.0888C60.7276 55.6722 59.9362 56 59.1111 56H3.11111C2.28599 56 1.49467 55.6722 0.911223 55.0888C0.327777 54.5053 0 53.714 0 52.8889C0 52.0638 0.327777 51.2724 0.911223 50.689C1.49467 50.1056 2.28599 49.7778 3.11111 49.7778H59.1111C59.9362 49.7778 60.7276 50.1056 61.311 50.689C61.8944 51.2724 62.2222 52.0638 62.2222 52.8889Z" fill="white"/>
                  </svg>