<svg width="340" height="530" viewBox="0 0 518 465" fill="none" xmlns="http://www.w3.org/2000/svg">
                  <path d="M261.882 11.8632C261.882 11.8632 165.159 -25.0819 118.608 30.3773C72.0551 85.8376 185.334 158.267 68.3912 213.596C-14.1911 252.669 28.0503 358.366 115.478 344.797C214.963 329.355 147.334 275.366 366.978 307.496C475.772 323.41 556.165 101.472 261.882 11.8632Z" fill="#E1E4F2"/>
                  <path d="M356.073 33.7529C360.588 28.4457 358.642 20.5089 352.311 17.3473C347.326 14.8576 341.034 13.4898 336.341 18.4933C327.26 28.1747 340.883 34.711 348.091 36.6501C351.147 37.4717 354.674 35.3982 356.073 33.7529Z" fill="#E1E4F2"/>
                  <path d="M54.7145 202.32C51.0595 196.434 42.6252 195.479 37.3667 200.112C33.2271 203.76 29.7392 208.969 33.0355 214.912C39.4124 226.412 50.4652 216.353 54.8243 210.512C56.6727 208.035 55.8481 204.145 54.7145 202.32Z" fill="#E1E4F2"/>
                  <path d="M483.502 250.938C483.502 250.938 492.608 231.833 483.068 224.2C473.528 216.567 462.139 239.819 465.999 250.227C469.86 260.636 481.014 257.774 483.502 250.938Z" fill="#E1E4F2"/>
                  <path d="M512.972 454.854C512.972 460.581 398.092 465.224 256.38 465.224C114.668 465.224 -0.212891 460.581 -0.212891 454.854C-0.212891 449.129 114.668 444.486 256.38 444.486C398.092 444.486 512.972 449.129 512.972 454.854Z" fill="#BDC1D1"/>
                  <path d="M391.481 76.3199C416.217 49.1349 396.791 8.76921 396.791 8.76921C396.791 8.76921 362.137 29.0716 346.313 53.6216C330.487 78.1738 347.475 104.765 347.475 104.765C347.475 104.765 370.43 99.4529 391.481 76.3199Z" fill="#BDC1D1"/>
                  <path d="M347.569 105.842C347.42 105.854 347.267 105.838 347.115 105.79C346.526 105.6 346.207 104.987 346.404 104.422C355.025 79.6596 388.868 22.9255 389.208 22.3552C389.518 21.8374 390.207 21.6593 390.746 21.9553C391.287 22.2525 391.472 22.9134 391.163 23.4324C390.822 24.0005 357.091 80.5478 348.541 105.107C348.394 105.529 348.003 105.806 347.569 105.842Z" fill="#8D94AB"/>
                  <path d="M375.021 50.4524C374.567 50.4907 374.116 50.2601 373.908 49.8428C373.639 49.3042 373.875 48.6575 374.436 48.3997L392.216 40.2116C392.779 39.9538 393.451 40.1799 393.72 40.7185C393.99 41.2571 393.753 41.9027 393.191 42.1617L375.41 50.3497C375.284 50.4087 375.153 50.4415 375.021 50.4524Z" fill="#8D94AB"/>
                  <path d="M370.999 57.6998C370.516 57.7391 370.042 57.4747 369.855 57.0192L363.666 41.9649C363.437 41.4088 363.722 40.7807 364.301 40.5622C364.881 40.3437 365.534 40.6168 365.762 41.1718L371.95 56.2249C372.178 56.781 371.895 57.4092 371.316 57.6288C371.211 57.667 371.104 57.691 370.999 57.6998Z" fill="#8D94AB"/>
                  <path d="M366.7 65.6049C366.129 65.6519 365.602 65.275 365.497 64.7222C365.385 64.1345 365.789 63.5718 366.401 63.4637L389.382 59.4128C389.998 59.3046 390.582 59.6936 390.693 60.2813C390.806 60.8691 390.4 61.4317 389.789 61.5398L366.808 65.5907L366.7 65.6049Z" fill="#8D94AB"/>
                  <path d="M362.89 72.7912C362.478 72.8251 362.062 72.6415 361.832 72.281L350.527 54.6835C350.201 54.1755 350.366 53.5091 350.895 53.1956C351.425 52.8799 352.119 53.0404 352.446 53.5484L363.749 71.146C364.075 71.655 363.911 72.3214 363.381 72.6339C363.226 72.7267 363.058 72.7781 362.89 72.7912Z" fill="#8D94AB"/>
                  <path d="M356.44 85.4977C355.943 85.5392 355.462 85.2596 355.285 84.7898C355.071 84.2283 355.373 83.6077 355.958 83.4035L378.086 75.6797C378.671 75.4754 379.317 75.7649 379.53 76.3264C379.742 76.888 379.44 77.5085 378.857 77.7117L356.728 85.4354L356.44 85.4977Z" fill="#8D94AB"/>
                  <path d="M353.139 92.4294C352.669 92.4677 352.206 92.2186 352.009 91.7794L344.37 74.7642C344.123 74.2158 344.388 73.5789 344.959 73.3429C345.529 73.1058 346.193 73.3593 346.439 73.9077L354.077 90.9229C354.324 91.4714 354.061 92.1083 353.49 92.3442C353.375 92.3923 353.258 92.4196 353.139 92.4294Z" fill="#8D94AB"/>
                  <path d="M143.54 220.666C120.203 195.814 97.5833 166.442 84.6655 146.665C67.79 120.826 60.2047 99.6977 62.1198 83.8634C62.2474 82.8147 63.2356 82.062 64.3301 82.1832C65.4232 82.3056 66.2069 83.2549 66.0798 84.3048C62.732 111.984 91.3241 160.474 148.445 220.078L143.54 220.666Z" fill="#8D94AB"/>
                  <path d="M71.6208 122.428C71.6208 122.428 58.5113 132.298 41.335 109.493C41.335 109.493 65.8658 99.8484 71.6208 122.428Z" fill="#BDC1D1"/>
                  <path d="M79.8425 134.625C79.8425 134.625 68.8467 122.608 91.6096 104.876C91.6096 104.876 103.007 127.852 79.8425 134.625Z" fill="#BDC1D1"/>
                  <path d="M64.4485 96.0652C64.4485 96.0652 49.9094 88.2562 65.2118 64.2525C65.2118 64.2525 83.9356 82.2673 64.4485 96.0652Z" fill="#BDC1D1"/>
                  <path d="M95.594 159.651C95.594 159.651 86.7344 173.197 62.5361 157.313C62.5361 157.313 82.2222 140.272 95.594 159.651Z" fill="#BDC1D1"/>
                  <path d="M105.931 170.86C105.931 170.86 92.9365 160.85 112.162 139.606C112.162 139.606 127.526 160.343 105.931 170.86Z" fill="#BDC1D1"/>
                  <path d="M118.493 187.555C118.493 187.555 109.903 201.259 85.3945 185.819C85.3945 185.819 104.741 168.422 118.493 187.555Z" fill="#BDC1D1"/>
                  <path d="M128.2 200.439C128.2 200.439 144.253 196.162 135.315 169.36C135.315 169.36 112.676 182.599 128.2 200.439Z" fill="#BDC1D1"/>
                  <path d="M336.825 402.876C358.812 376.914 379.842 346.472 391.691 326.089C407.173 299.458 413.627 277.984 410.873 262.265C410.688 261.224 409.662 260.52 408.575 260.695C407.49 260.87 406.757 261.857 406.941 262.9C411.755 290.378 385.777 340.207 331.896 402.527L336.825 402.876Z" fill="#8D94AB"/>
                  <path d="M403.432 301.244C403.432 301.244 417.047 310.46 432.99 286.844C432.99 286.844 407.979 278.413 403.432 301.244Z" fill="#BDC1D1"/>
                  <path d="M395.868 313.828C395.868 313.828 406.211 301.288 382.536 284.694C382.536 284.694 372.374 308.198 395.868 313.828Z" fill="#BDC1D1"/>
                  <path d="M409.192 274.565C409.192 274.565 423.299 266.054 406.741 242.831C406.741 242.831 388.998 261.738 409.192 274.565Z" fill="#BDC1D1"/>
                  <path d="M381.467 339.593C381.467 339.593 391.033 352.686 414.357 335.64C414.357 335.64 393.792 319.585 381.467 339.593Z" fill="#BDC1D1"/>
                  <path d="M371.74 351.292C371.74 351.292 384.186 340.66 363.856 320.385C363.856 320.385 349.614 341.847 371.74 351.292Z" fill="#BDC1D1"/>
                  <path d="M360.08 368.581C360.08 368.581 369.386 381.848 393.043 365.228C393.043 365.228 372.798 348.801 360.08 368.581Z" fill="#BDC1D1"/>
                  <path d="M351.07 381.924C351.07 381.924 334.81 378.438 342.311 351.233C342.311 351.233 365.625 363.347 351.07 381.924Z" fill="#BDC1D1"/>
                  <path d="M454.172 82.4181C454.325 82.4181 454.475 82.4618 454.604 82.5448C457.565 84.4719 461.347 85.5327 465.255 85.5327C474.264 85.5327 481.594 79.995 481.594 73.1889C481.594 66.3817 474.264 60.844 465.255 60.844C456.245 60.844 448.914 66.3817 448.914 73.1889C448.914 74.6102 449.232 76.0031 449.858 77.3294C449.959 77.5424 449.949 77.7893 449.83 77.9936L446.142 84.3135L453.988 82.4399L454.172 82.4181ZM465.255 87.0043C461.168 87.0043 457.198 85.9205 454.03 83.9465L444.792 86.1532C444.496 86.2242 444.183 86.1183 443.997 85.8856C443.812 85.6518 443.788 85.335 443.938 85.0793L448.305 77.5927C447.691 76.1779 447.381 74.6976 447.381 73.1889C447.381 69.4658 449.262 65.9764 452.679 63.3632C456.047 60.7894 460.512 59.3724 465.255 59.3724C469.997 59.3724 474.462 60.7894 477.83 63.3632C481.246 65.9764 483.128 69.4658 483.128 73.1889C483.128 76.9109 481.246 80.4014 477.829 83.0135C474.462 85.5873 469.997 87.0043 465.255 87.0043Z" fill="#8D94AB"/>
                  <path d="M473.1 71.8703C472.149 71.8703 471.375 72.6142 471.375 73.5286C471.375 74.4419 472.149 75.1859 473.1 75.1859C474.053 75.1859 474.828 74.4419 474.828 73.5286C474.828 72.6142 474.053 71.8703 473.1 71.8703ZM473.1 76.6247C471.323 76.6247 469.875 75.2362 469.875 73.5286C469.875 71.8211 471.323 70.4326 473.1 70.4326C474.879 70.4326 476.325 71.8211 476.325 73.5286C476.325 75.2362 474.879 76.6247 473.1 76.6247Z" fill="#8D94AB"/>
                  <path d="M465.262 71.8703C464.311 71.8703 463.536 72.6142 463.536 73.5286C463.536 74.4419 464.311 75.1859 465.262 75.1859C466.214 75.1859 466.989 74.4419 466.989 73.5286C466.989 72.6142 466.214 71.8703 465.262 71.8703ZM465.262 76.6247C463.484 76.6247 462.037 75.2362 462.037 73.5286C462.037 71.8211 463.484 70.4326 465.262 70.4326C467.041 70.4326 468.489 71.8211 468.489 73.5286C468.489 75.2362 467.041 76.6247 465.262 76.6247Z" fill="#8D94AB"/>
                  <path d="M457.425 71.8703C456.473 71.8703 455.698 72.6142 455.698 73.5286C455.698 74.4419 456.473 75.1859 457.425 75.1859C458.378 75.1859 459.152 74.4419 459.152 73.5286C459.152 72.6142 458.378 71.8703 457.425 71.8703ZM457.425 76.6247C455.647 76.6247 454.2 75.2362 454.2 73.5286C454.2 71.8211 455.647 70.4326 457.425 70.4326C459.203 70.4326 460.651 71.8211 460.651 73.5286C460.651 75.2362 459.203 76.6247 457.425 76.6247Z" fill="#8D94AB"/>
                  <path d="M92.1901 23.4389C86.137 23.4389 81.2125 28.166 81.2125 33.9768C81.2125 39.7877 86.137 44.5148 92.1901 44.5148C98.2433 44.5148 103.168 39.7877 103.168 33.9768C103.168 28.166 98.2433 23.4389 92.1901 23.4389ZM92.1901 45.8389C85.3768 45.8389 79.834 40.5174 79.834 33.9768C79.834 27.4362 85.3768 22.1148 92.1901 22.1148C99.0035 22.1148 104.547 27.4362 104.547 33.9768C104.547 40.5174 99.0035 45.8389 92.1901 45.8389Z" fill="#8D94AB"/>
                  <path d="M92.1906 34.6389C92.0222 34.6389 91.8595 34.5799 91.7331 34.4717C91.5863 34.3461 91.501 34.1658 91.501 33.9768V26.0149C91.501 25.6489 91.8094 25.3529 92.1906 25.3529C92.5719 25.3529 92.8803 25.6489 92.8803 26.0149V33.2318L99.1906 32.5075C99.5685 32.4638 99.911 32.7227 99.9565 33.0854C100.002 33.4492 99.7324 33.778 99.3545 33.8217L92.2726 34.6334L92.1906 34.6389Z" fill="#8D94AB"/>
                  <path d="M37.8686 179.529H44.8013V173.351C44.8013 172.985 45.1103 172.689 45.4907 172.689H51.9291V166.033H45.4907C45.1103 166.033 44.8013 165.737 44.8013 165.371V159.191H37.8686V165.371C37.8686 165.737 37.5601 166.033 37.1791 166.033H30.7417V172.689H37.1791C37.5601 172.689 37.8686 172.985 37.8686 173.351V179.529ZM45.4907 180.853H37.1791C36.7987 180.853 36.4897 180.557 36.4897 180.191V174.013H30.0517C29.6708 174.013 29.3623 173.717 29.3623 173.351V165.371C29.3623 165.005 29.6708 164.709 30.0517 164.709H36.4897V158.529C36.4897 158.164 36.7987 157.868 37.1791 157.868H45.4907C45.8722 157.868 46.1807 158.164 46.1807 158.529V164.709H52.6181C52.9991 164.709 53.3076 165.005 53.3076 165.371V173.351C53.3076 173.717 52.9991 174.013 52.6181 174.013H46.1807V180.191C46.1807 180.557 45.8722 180.853 45.4907 180.853Z" fill="#8D94AB"/>
                  <path d="M481.424 97.1992H445.545C445.164 97.1992 444.856 96.9032 444.856 96.5372C444.856 96.1723 445.164 95.8751 445.545 95.8751H481.424C481.805 95.8751 482.112 96.1723 482.112 96.5372C482.112 96.9032 481.805 97.1992 481.424 97.1992Z" fill="#8D94AB"/>
                  <path d="M311.198 11.6795C309.227 11.6795 307.624 13.2178 307.624 15.1099C307.624 17.001 309.227 18.5391 311.198 18.5391C313.168 18.5391 314.77 17.001 314.77 15.1099C314.77 13.2178 313.168 11.6795 311.198 11.6795ZM311.198 19.8632C308.467 19.8632 306.245 17.7307 306.245 15.1099C306.245 12.488 308.467 10.3565 311.198 10.3565C313.928 10.3565 316.148 12.488 316.148 15.1099C316.148 17.7307 313.928 19.8632 311.198 19.8632Z" fill="#8D94AB"/>
                  <path d="M296.559 15.7556H195.312C194.93 15.7556 194.622 15.4596 194.622 15.0947C194.622 14.7287 194.93 14.4326 195.312 14.4326H296.559C296.94 14.4326 297.249 14.7287 297.249 15.0947C297.249 15.4596 296.94 15.7556 296.559 15.7556Z" fill="#8D94AB"/>
                  <path d="M362.607 47.3465V432.421C362.607 438.429 360.084 443.867 355.998 447.82C351.874 451.806 346.159 454.275 339.843 454.275H140.085C127.511 454.275 117.32 444.492 117.32 432.421V47.3465C117.32 38.8438 122.375 31.4806 129.76 27.8656C132.862 26.347 136.369 25.4928 140.085 25.4928H339.843C352.416 25.4928 362.607 35.2758 362.607 47.3465Z" fill="#0C0C0C"/>
                  <path d="M362.606 132.326H368.46C368.991 132.326 369.421 131.914 369.421 131.404V91.8232C369.421 91.3141 368.991 90.9011 368.46 90.9011H362.606V132.326Z" fill="#373335"/>
                  <path d="M117.32 145.636H110.166C109.519 145.636 108.993 145.132 108.993 144.51V95.8915C108.993 95.2688 109.519 94.764 110.166 94.764H117.32V145.636Z" fill="#373335"/>
                  <path d="M117.32 203.412H110.166C109.519 203.412 108.993 202.909 108.993 202.286V153.668C108.993 153.045 109.519 152.54 110.166 152.54H117.32V203.412Z" fill="#373335"/>
                  <path d="M351.25 46.0224V433.739C351.25 435.073 350.967 436.347 350.45 437.512C348.917 440.958 345.369 443.369 341.222 443.369H138.713C133.174 443.369 128.685 439.067 128.685 433.739V46.0224C128.685 42.0579 131.192 38.645 134.772 37.1625C135.98 36.6654 137.309 36.3945 138.713 36.3945H341.222C346.757 36.3945 351.25 40.7076 351.25 46.0224Z" fill="#BDC1D1"/>
                  <path d="M351.25 364.241V433.739C351.25 435.073 350.967 436.347 350.45 437.512C348.917 440.958 345.369 443.369 341.222 443.369H138.713C133.174 443.369 128.685 439.067 128.685 433.739V364.192C129.422 356.258 136.365 350.043 144.82 350.043H335.11C343.584 350.043 350.535 356.284 351.25 364.241Z" fill="white"/>
                  <path d="M224.184 391.138H157.381C155.457 391.138 153.896 389.64 153.896 387.792V379.641C153.896 377.794 155.457 376.297 157.381 376.297H224.184C226.108 376.297 227.668 377.794 227.668 379.641V387.792C227.668 389.64 226.108 391.138 224.184 391.138Z" fill="#ECA41E"/>
                  <path d="M224.184 423.729H157.381C155.457 423.729 153.896 422.232 153.896 420.383V412.233C153.896 410.387 155.457 408.889 157.381 408.889H224.184C226.108 408.889 227.668 410.387 227.668 412.233V420.383C227.668 422.232 226.108 423.729 224.184 423.729Z" fill="#647924"/>
                  <path d="M325.533 391.138H258.731C256.807 391.138 255.247 389.64 255.247 387.792V379.641C255.247 377.794 256.807 376.297 258.731 376.297H325.533C327.459 376.297 329.019 377.794 329.019 379.641V387.792C329.019 389.64 327.459 391.138 325.533 391.138Z" fill="#F25B32"/>
                  <path d="M325.533 423.729H258.731C256.807 423.729 255.247 422.232 255.247 420.383V412.233C255.247 410.387 256.807 408.889 258.731 408.889H325.533C327.459 408.889 329.019 410.387 329.019 412.233V420.383C329.019 422.232 327.459 423.729 325.533 423.729Z" fill="#BDC1D1"/>
                  <path d="M293.739 361.515H189.173C187.84 361.515 186.759 360.478 186.759 359.198C186.759 357.918 187.84 356.881 189.173 356.881H293.739C295.073 356.881 296.153 357.918 296.153 359.198C296.153 360.478 295.073 361.515 293.739 361.515Z" fill="#BDC1D1"/>
                  <path d="M128.683 46.0213V64.0766H351.25V46.0213C351.25 40.7087 346.757 36.3945 341.22 36.3945H138.712C137.309 36.3945 135.98 36.6655 134.77 37.1625C131.191 38.645 128.683 42.0579 128.683 46.0213Z" fill="white"/>
                  <path d="M315.364 50.9265C315.364 52.9312 313.67 54.5557 311.583 54.5557C309.496 54.5557 307.803 52.9312 307.803 50.9265C307.803 48.9218 309.496 47.2974 311.583 47.2974C313.67 47.2974 315.364 48.9218 315.364 50.9265Z" fill="#647924"/>
                  <path d="M328.543 50.9265C328.543 52.9312 326.851 54.5557 324.764 54.5557C322.676 54.5557 320.982 52.9312 320.982 50.9265C320.982 48.9218 322.676 47.2974 324.764 47.2974C326.851 47.2974 328.543 48.9218 328.543 50.9265Z" fill="#F25B32"/>
                  <path d="M341.666 50.9265C341.666 52.9312 339.973 54.5557 337.885 54.5557C335.797 54.5557 334.104 52.9312 334.104 50.9265C334.104 48.9218 335.797 47.2974 337.885 47.2974C339.973 47.2974 341.666 48.9218 341.666 50.9265Z" fill="#0C0C0C"/>
                  <path d="M296.704 36.1127L291.165 41.4308C285.617 46.7566 278.093 49.7489 270.246 49.7489H209.705C201.858 49.7489 194.333 46.7566 188.786 41.4308L183.29 36.1553L296.704 36.1127Z" fill="#0C0C0C"/>
                  <path d="M199.718 42.9307H280.211C280.359 42.9307 280.479 42.815 280.479 42.6719V39.5189C280.479 39.3769 280.359 39.2611 280.211 39.2611H199.718C199.57 39.2611 199.448 39.3769 199.448 39.5189V42.6719C199.448 42.815 199.57 42.9307 199.718 42.9307Z" fill="#373335"/>
                  <path d="M328.399 246.499H156.009C152.505 246.499 149.666 243.774 149.666 240.41V178.228C149.666 174.865 152.505 172.138 156.009 172.138H328.399C331.902 172.138 334.743 174.865 334.743 178.228V240.41C334.743 243.774 331.902 246.499 328.399 246.499Z" fill="#8D94AB"/>
                  <path d="M323.986 242.387H151.597C148.093 242.387 145.253 239.661 145.253 236.298V174.117C145.253 170.753 148.093 168.026 151.597 168.026H323.986C327.49 168.026 330.331 170.753 330.331 174.117V236.298C330.331 239.661 327.49 242.387 323.986 242.387Z" fill="white"/>
                  <path d="M316.684 190.798H220.463C218.872 190.798 217.581 189.56 217.581 188.031V186.944C217.581 185.417 218.872 184.178 220.463 184.178H316.684C318.275 184.178 319.566 185.417 319.566 186.944V188.031C319.566 189.56 318.275 190.798 316.684 190.798Z" fill="#F25B32"/>
                  <path d="M260.365 204.866H219.896C218.618 204.866 217.581 203.871 217.581 202.644V201.771C217.581 200.545 218.618 199.55 219.896 199.55H260.365C261.643 199.55 262.68 200.545 262.68 201.771V202.644C262.68 203.871 261.643 204.866 260.365 204.866Z" fill="#BDC1D1"/>
                  <path d="M260.365 228.045H219.896C218.618 228.045 217.581 227.049 217.581 225.822V224.95C217.581 223.722 218.618 222.728 219.896 222.728H260.365C261.643 222.728 262.68 223.722 262.68 224.95V225.822C262.68 227.049 261.643 228.045 260.365 228.045Z" fill="#BDC1D1"/>
                  <path d="M260.365 216.348H219.896C218.618 216.348 217.581 215.354 217.581 214.127V213.255C217.581 212.028 218.618 211.032 219.896 211.032H260.365C261.643 211.032 262.68 212.028 262.68 213.255V214.127C262.68 215.354 261.643 216.348 260.365 216.348Z" fill="#BDC1D1"/>
                  <path d="M317.25 204.866H276.779C275.501 204.866 274.466 203.871 274.466 202.644V201.771C274.466 200.545 275.501 199.55 276.779 199.55H317.25C318.528 199.55 319.565 200.545 319.565 201.771V202.644C319.565 203.871 318.528 204.866 317.25 204.866Z" fill="#BDC1D1"/>
                  <path d="M317.25 228.045H276.779C275.501 228.045 274.466 227.049 274.466 225.822V224.95C274.466 223.722 275.501 222.728 276.779 222.728H317.25C318.528 222.728 319.565 223.722 319.565 224.95V225.822C319.565 227.049 318.528 228.045 317.25 228.045Z" fill="#BDC1D1"/>
                  <path d="M317.25 216.348H276.779C275.501 216.348 274.466 215.354 274.466 214.127V213.255C274.466 212.028 275.501 211.032 276.779 211.032H317.25C318.528 211.032 319.565 212.028 319.565 213.255V214.127C319.565 215.354 318.528 216.348 317.25 216.348Z" fill="#BDC1D1"/>
                  <path d="M181.913 184.614C170.084 184.614 160.462 193.852 160.462 205.207C160.462 216.561 170.084 225.799 181.913 225.799C193.742 225.799 203.365 216.561 203.365 205.207C203.365 193.852 193.742 184.614 181.913 184.614ZM181.913 229.05C168.217 229.05 157.074 218.354 157.074 205.207C157.074 192.059 168.217 181.363 181.913 181.363C195.609 181.363 206.752 192.059 206.752 205.207C206.752 218.354 195.609 229.05 181.913 229.05Z" fill="#F25B32"/>
                  <path d="M181.913 206.833C181.501 206.833 181.101 206.689 180.789 206.423C180.427 206.114 180.22 205.672 180.22 205.207V189.412C180.22 188.514 180.978 187.787 181.913 187.787C182.849 187.787 183.607 188.514 183.607 189.412V203.375L195.761 201.981C196.689 201.874 197.533 202.51 197.643 203.403C197.755 204.294 197.091 205.103 196.162 205.209L182.113 206.821L181.913 206.833Z" fill="#F25B32"/>
                  <path d="M328.399 154.404H156.009C152.505 154.404 149.666 151.677 149.666 148.314V86.1325C149.666 82.7698 152.505 80.0419 156.009 80.0419H328.399C331.902 80.0419 334.743 82.7698 334.743 86.1325V148.314C334.743 151.677 331.902 154.404 328.399 154.404Z" fill="#8D94AB"/>
                  <path d="M323.986 150.292H151.597C148.093 150.292 145.253 147.565 145.253 144.202V82.0204C145.253 78.6567 148.093 75.9299 151.597 75.9299H323.986C327.49 75.9299 330.331 78.6567 330.331 82.0204V144.202C330.331 147.565 327.49 150.292 323.986 150.292Z" fill="white"/>
                  <path d="M197.331 135.731H169.252C164.504 135.731 160.654 132.035 160.654 127.477V100.522C160.654 95.9636 164.504 92.2689 169.252 92.2689H197.331C202.08 92.2689 205.929 95.9636 205.929 100.522V127.477C205.929 132.035 202.08 135.731 197.331 135.731Z" fill="#647924"/>
                  <path d="M175.47 126.034C175.339 126.034 175.208 126.023 175.078 126C174.421 125.883 173.856 125.484 173.547 124.916L169.186 116.906C168.631 115.887 169.041 114.628 170.103 114.095C171.165 113.563 172.475 113.957 173.03 114.976L176.106 120.624L196.659 103.115C197.555 102.351 198.926 102.43 199.722 103.29C200.517 104.151 200.435 105.467 199.538 106.231L176.91 125.509C176.509 125.85 175.996 126.034 175.47 126.034Z" fill="white"/>
                  <path d="M316.684 98.7025H220.463C218.872 98.7025 217.581 97.4636 217.581 95.9352V94.8493C217.581 93.3209 218.872 92.0821 220.463 92.0821H316.684C318.275 92.0821 319.566 93.3209 319.566 94.8493V95.9352C319.566 97.4636 318.275 98.7025 316.684 98.7025Z" fill="#647924"/>
                  <path d="M260.365 112.77H219.896C218.618 112.77 217.581 111.776 217.581 110.549V109.676C217.581 108.448 218.618 107.454 219.896 107.454H260.365C261.643 107.454 262.68 108.448 262.68 109.676V110.549C262.68 111.776 261.643 112.77 260.365 112.77Z" fill="#BDC1D1"/>
                  <path d="M260.365 135.949H219.896C218.618 135.949 217.581 134.954 217.581 133.727V132.854C217.581 131.627 218.618 130.633 219.896 130.633H260.365C261.643 130.633 262.68 131.627 262.68 132.854V133.727C262.68 134.954 261.643 135.949 260.365 135.949Z" fill="#BDC1D1"/>
                  <path d="M260.365 124.253H219.896C218.618 124.253 217.581 123.259 217.581 122.032V121.159C217.581 119.932 218.618 118.937 219.896 118.937H260.365C261.643 118.937 262.68 119.932 262.68 121.159V122.032C262.68 123.259 261.643 124.253 260.365 124.253Z" fill="#BDC1D1"/>
                  <path d="M317.25 112.77H276.779C275.501 112.77 274.466 111.776 274.466 110.549V109.676C274.466 108.448 275.501 107.454 276.779 107.454H317.25C318.528 107.454 319.565 108.448 319.565 109.676V110.549C319.565 111.776 318.528 112.77 317.25 112.77Z" fill="#BDC1D1"/>
                  <path d="M317.25 135.949H276.779C275.501 135.949 274.466 134.954 274.466 133.727V132.854C274.466 131.627 275.501 130.633 276.779 130.633H317.25C318.528 130.633 319.565 131.627 319.565 132.854V133.727C319.565 134.954 318.528 135.949 317.25 135.949Z" fill="#BDC1D1"/>
                  <path d="M317.25 124.253H276.779C275.501 124.253 274.466 123.259 274.466 122.032V121.159C274.466 119.932 275.501 118.937 276.779 118.937H317.25C318.528 118.937 319.565 119.932 319.565 121.159V122.032C319.565 123.259 318.528 124.253 317.25 124.253Z" fill="#BDC1D1"/>
                  <path d="M328.399 340.76H156.009C152.505 340.76 149.666 338.033 149.666 334.67V272.488C149.666 269.126 152.505 266.399 156.009 266.399H328.399C331.902 266.399 334.743 269.126 334.743 272.488V334.67C334.743 338.033 331.902 340.76 328.399 340.76Z" fill="#8D94AB"/>
                  <path d="M323.986 336.648H151.597C148.093 336.648 145.253 333.922 145.253 330.557V268.377C145.253 265.012 148.093 262.286 151.597 262.286H323.986C327.49 262.286 330.331 265.012 330.331 268.377V330.557C330.331 333.922 327.49 336.648 323.986 336.648Z" fill="white"/>
                  <path d="M196.631 300.203H162.418C161.338 300.203 160.463 299.363 160.463 298.326V297.588C160.463 296.551 161.338 295.71 162.418 295.71H196.631C197.711 295.71 198.587 296.551 198.587 297.588V298.326C198.587 299.363 197.711 300.203 196.631 300.203Z" fill="#BDC1D1"/>
                  <path d="M196.631 319.798H162.418C161.338 319.798 160.463 318.956 160.463 317.92V317.181C160.463 316.144 161.338 315.304 162.418 315.304H196.631C197.711 315.304 198.587 316.144 198.587 317.181V317.92C198.587 318.956 197.711 319.798 196.631 319.798Z" fill="#BDC1D1"/>
                  <path d="M196.631 309.911H162.418C161.338 309.911 160.463 309.071 160.463 308.032V307.295C160.463 306.257 161.338 305.416 162.418 305.416H196.631C197.711 305.416 198.587 306.257 198.587 307.295V308.032C198.587 309.071 197.711 309.911 196.631 309.911Z" fill="#BDC1D1"/>
                  <path d="M242.922 300.203H208.71C207.629 300.203 206.753 299.363 206.753 298.326V297.588C206.753 296.551 207.629 295.71 208.71 295.71H242.922C244.002 295.71 244.878 296.551 244.878 297.588V298.326C244.878 299.363 244.002 300.203 242.922 300.203Z" fill="#BDC1D1"/>
                  <path d="M242.922 319.798H208.71C207.629 319.798 206.753 318.956 206.753 317.92V317.181C206.753 316.144 207.629 315.304 208.71 315.304H242.922C244.002 315.304 244.878 316.144 244.878 317.181V317.92C244.878 318.956 244.002 319.798 242.922 319.798Z" fill="#BDC1D1"/>
                  <path d="M242.922 309.911H208.71C207.629 309.911 206.753 309.071 206.753 308.032V307.295C206.753 306.257 207.629 305.416 208.71 305.416H242.922C244.002 305.416 244.878 306.257 244.878 307.295V308.032C244.878 309.071 244.002 309.911 242.922 309.911Z" fill="#BDC1D1"/>
                  <path d="M259.534 303.417C259.534 301.809 260.891 300.509 262.565 300.509C264.236 300.509 265.594 301.809 265.594 303.417C265.594 305.024 264.236 306.326 262.565 306.326C260.891 306.326 259.534 305.024 259.534 303.417ZM255.387 304.071C255.352 305.404 255.713 306.656 256.369 307.721C256.685 308.239 257.013 308.751 257.318 309.275L262.506 318.257L265.906 312.373C266.81 310.811 267.788 309.291 268.739 307.754C269.377 306.724 269.743 305.522 269.743 304.241C269.743 300.283 266.26 297.099 262.073 297.367C258.404 297.6 255.474 300.544 255.387 304.071Z" fill="#ECA41E"/>
                  <path d="M276.541 302.124C276.594 301.908 276.646 301.693 276.702 301.478C276.899 300.72 277.273 300.052 277.807 299.461C278.188 299.038 278.629 298.678 279.127 298.403C279.815 298.024 280.594 298.185 281.102 298.773C282.008 299.823 282.91 300.876 283.805 301.935C284.354 302.586 284.264 303.475 283.584 304.054C283.096 304.469 282.581 304.855 282.078 305.25L281.881 305.375C283.083 308.478 285.122 310.874 288.048 312.6C288.402 312.317 288.774 312.02 289.147 311.724C289.337 311.573 289.526 311.419 289.722 311.275C290.311 310.844 290.991 310.8 291.604 311.182C291.796 311.304 291.955 311.484 292.104 311.658C292.924 312.607 293.732 313.565 294.552 314.512C294.812 314.813 294.978 315.145 295.035 315.53C295.02 315.671 295.005 315.811 294.99 315.952C294.848 316.19 294.75 316.471 294.554 316.658C294.074 317.117 293.546 317.526 292.918 317.798C292.183 318.116 291.414 318.312 290.608 318.244C290.075 318.198 289.544 318.091 289.029 317.952C287.705 317.598 286.499 316.992 285.364 316.258C284.239 315.53 283.216 314.683 282.276 313.746C281.005 312.482 279.881 311.105 278.86 309.649C278.054 308.501 277.358 307.3 276.907 305.978C276.681 305.314 276.528 304.634 276.479 303.935C276.46 303.654 276.453 303.372 276.44 303.09C276.473 302.768 276.506 302.446 276.541 302.124Z" fill="#F25B32"/>
                  <path d="M313.871 312.504C312.663 315.517 310.594 316.95 309.93 317.347V312.504H313.871ZM318.224 312.504C316.815 314.906 314.361 316.637 311.571 317.207C312.05 316.8 312.5 316.34 312.913 315.836C313.713 314.862 314.349 313.741 314.807 312.504H318.224ZM315.623 307.16C315.575 305.917 315.338 304.685 314.919 303.498H318.444C319.046 304.647 319.395 305.878 319.484 307.16H315.623ZM314.752 308.001C314.721 309.299 314.526 310.531 314.172 311.664H309.93V308.001H314.752ZM314.589 302.657C314.2 301.758 313.707 300.893 313.122 300.089C312.691 299.496 312.22 298.939 311.717 298.431C314.276 298.992 316.522 300.514 317.944 302.657H314.589ZM313.992 303.498C314.44 304.682 314.695 305.913 314.746 307.16H309.93V303.498H313.992ZM309.93 302.657V298.201L310.209 298.216C310.587 298.521 311.502 299.323 312.418 300.59C312.889 301.241 313.298 301.936 313.636 302.657H309.93ZM315.627 308.001H319.503C319.477 309.274 319.194 310.506 318.662 311.664H315.083C315.415 310.519 315.599 309.288 315.627 308.001ZM303.257 308.001C303.286 309.288 303.47 310.519 303.803 311.664H300.324C299.791 310.506 299.509 309.274 299.483 308.001H303.257ZM299.502 307.16C299.591 305.877 299.941 304.646 300.541 303.498H303.965C303.546 304.685 303.31 305.917 303.262 307.16H299.502ZM304.139 307.16C304.189 305.909 304.444 304.678 304.894 303.498H309.055V307.16H304.139ZM301.041 302.657C302.435 300.554 304.635 299.043 307.14 298.461C306.648 298.96 306.184 299.507 305.762 300.089C305.179 300.893 304.685 301.758 304.295 302.657H301.041ZM305.252 302.657C306.414 300.188 308.122 298.668 308.666 298.225C308.796 298.215 308.926 298.206 309.055 298.201V302.657H305.252ZM309.055 312.504V317.406C308.725 317.219 307.681 316.569 306.638 315.29C305.969 314.47 305.421 313.532 305.012 312.504H309.055ZM307.281 317.179C304.515 316.581 302.163 314.898 300.762 312.504H304.078C304.535 313.741 305.171 314.862 305.971 315.836C306.374 316.328 306.814 316.778 307.281 317.179ZM304.713 311.664C304.358 310.528 304.164 309.297 304.133 308.001H309.055V311.664H304.713ZM298.604 307.803C298.604 313.568 303.489 318.257 309.493 318.257C315.497 318.257 320.382 313.568 320.382 307.803C320.382 302.041 315.497 297.351 309.493 297.351C303.489 297.351 298.604 302.041 298.604 307.803Z" fill="#647924"/>
                  <path d="M167.951 277.071C167.951 276.248 167.365 275.743 166.547 275.743C165.727 275.743 165.143 276.248 165.143 277.071C165.143 277.895 165.727 278.42 166.547 278.42C167.365 278.42 167.951 277.895 167.951 277.071ZM172.788 279.131C172.788 283.719 169.726 286.396 165.22 286.396C163.602 286.396 162.021 286.022 160.988 285.366L162.646 282.277C163.446 282.82 164.264 282.97 165.122 282.97C166.684 282.97 167.775 282.202 168.088 280.742C167.405 281.21 166.528 281.471 165.376 281.471C162.88 281.471 160.695 279.844 160.695 277.278C160.695 274.47 163.152 272.69 166.234 272.69C170.135 272.69 172.788 274.843 172.788 279.131Z" fill="#373335"/>
                  <path d="M173.743 283.851C173.743 282.408 174.855 281.453 176.317 281.453C177.781 281.453 178.892 282.408 178.892 283.851C178.892 285.272 177.781 286.284 176.317 286.284C174.855 286.284 173.743 285.272 173.743 283.851ZM173.743 278.064C173.743 276.622 174.855 275.667 176.317 275.667C177.781 275.667 178.892 276.622 178.892 278.064C178.892 279.487 177.781 280.498 176.317 280.498C174.855 280.498 173.743 279.487 173.743 278.064Z" fill="#373335"/>
                  <path d="M190.79 281.902C190.79 284.149 188.917 286.396 184.548 286.396C182.676 286.396 180.627 286.003 179.165 285.218L180.725 281.959C181.896 282.614 183.241 282.914 184.392 282.914C185.426 282.914 186.167 282.577 186.167 281.902C186.167 281.342 185.718 281.004 184.548 281.004H182.734V278.289L184.743 276.323H179.867V272.99H190.049V275.705L187.514 278.177C189.659 278.681 190.79 280.086 190.79 281.902Z" fill="#373335"/>
                  <path d="M199.564 279.543C199.564 277.016 198.902 276.23 198.004 276.23C197.107 276.23 196.444 277.016 196.444 279.543C196.444 282.071 197.107 282.857 198.004 282.857C198.902 282.857 199.564 282.071 199.564 279.543ZM191.821 279.543C191.821 275.2 194.396 272.69 198.004 272.69C201.613 272.69 204.187 275.2 204.187 279.543C204.187 283.887 201.613 286.396 198.004 286.396C194.396 286.396 191.821 283.887 191.821 279.543Z" fill="#373335"/>
                  <path d="M217.722 282.764V282.053H216.629C215.693 282.053 215.283 282.352 215.283 282.914C215.283 283.382 215.673 283.737 216.337 283.737C216.941 283.737 217.487 283.438 217.722 282.764ZM222.13 280.592V286.096H218.034V284.749C217.527 285.778 216.512 286.284 215.011 286.284C212.397 286.284 211.051 284.86 211.051 283.1C211.051 281.117 212.612 280.012 215.927 280.012H217.703C217.566 279.225 216.941 278.813 215.693 278.813C214.737 278.813 213.665 279.113 212.963 279.619L211.558 276.829C212.807 276.079 214.698 275.667 216.356 275.667C220.023 275.667 222.13 277.185 222.13 280.592Z" fill="#373335"/>
                  <path d="M242.415 280.256V286.096H238.006V280.985C238.006 279.712 237.519 279.225 236.817 279.225C236.036 279.225 235.432 279.73 235.432 281.097V286.096H231.023V280.985C231.023 279.712 230.574 279.225 229.834 279.225C229.053 279.225 228.449 279.73 228.449 281.097V286.096H224.041V275.855H228.235V276.81C229.034 276.042 230.087 275.667 231.258 275.667C232.642 275.667 233.852 276.154 234.593 277.222C235.451 276.23 236.699 275.667 238.162 275.667C240.58 275.667 242.415 277.034 242.415 280.256Z" fill="#373335"/>
                  <path d="M318.042 283.823H257.722C256.432 283.823 255.385 282.817 255.385 281.577V280.697C255.385 279.457 256.432 278.452 257.722 278.452H318.042C319.334 278.452 320.381 279.457 320.381 280.697V281.577C320.381 282.817 319.334 283.823 318.042 283.823Z" fill="#ECA41E"/>
                  <path d="M109.73 414.469H35.3483C35.0419 414.469 34.7939 414.231 34.7939 413.938V409.261C34.7939 408.968 35.0419 408.729 35.3483 408.729H109.73C110.036 408.729 110.285 408.968 110.285 409.261V413.938C110.285 414.231 110.036 414.469 109.73 414.469Z" fill="#0C0C0C"/>
                  <path d="M38.1106 345.129H107.117C108.263 345.129 109.193 346.021 109.193 347.124V355.261C109.193 356.363 108.263 357.255 107.117 357.255H38.1106C36.9637 357.255 36.0342 356.363 36.0342 355.261V347.124C36.0342 346.021 36.9637 345.129 38.1106 345.129Z" fill="#373335"/>
                  <path d="M54.4048 293.536C54.4048 293.536 25.3076 288.014 17.1871 268.527C9.06711 249.039 38.7569 234.423 54.4048 244.888C71.1453 256.084 54.4048 293.536 54.4048 293.536Z" fill="#647924"/>
                  <path d="M71.7063 344.732C71.4494 344.732 71.2248 344.552 71.1863 344.301C68.3984 326.2 57.1636 300.158 48.2287 281.499C38.5403 261.265 29.397 245.116 29.3058 244.956C29.1662 244.71 29.2604 244.403 29.516 244.27C29.7713 244.136 30.0913 244.227 30.2305 244.472C30.3216 244.633 39.4823 260.812 49.1853 281.077C58.1486 299.795 69.4223 325.935 72.2273 344.153C72.27 344.429 72.0718 344.686 71.7837 344.727L71.7063 344.732Z" fill="#0C0C0C"/>
                  <path d="M53.3135 291.65C53.1259 291.65 52.944 291.553 52.8489 291.384C40.1937 268.755 19.6415 252.339 19.4361 252.175C19.2117 251.997 19.1792 251.679 19.3642 251.464C19.5494 251.248 19.8812 251.217 20.1056 251.396C20.3132 251.56 41.0201 268.097 53.7762 290.906C53.914 291.151 53.8181 291.458 53.562 291.59L53.3135 291.65Z" fill="#0C0C0C"/>
                  <path d="M53.8869 293.27C53.7379 293.27 53.5894 293.21 53.4854 293.092C44.2558 282.663 34.8035 276.179 28.499 272.577C21.6659 268.672 16.955 267.216 16.9079 267.202C16.6315 267.118 16.4781 266.832 16.5656 266.567C16.6537 266.302 16.9494 266.154 17.2262 266.238C17.421 266.297 22.0731 267.733 29.003 271.689C35.385 275.332 44.952 281.889 54.2878 292.438C54.4759 292.65 54.4492 292.969 54.2274 293.15C54.1287 293.231 54.0073 293.27 53.8869 293.27Z" fill="#0C0C0C"/>
                  <path d="M51.3266 287.338C51.107 287.338 50.9025 287.206 50.8283 286.995C43.7338 267.008 46.3438 242.717 46.3704 242.475C46.4019 242.197 46.6598 241.996 46.9506 242.025C47.2395 242.055 47.4485 242.304 47.4177 242.582C47.3906 242.823 44.807 266.898 51.825 286.67C51.9183 286.934 51.7716 287.221 51.496 287.312L51.3266 287.338Z" fill="#0C0C0C"/>
                  <path d="M53.1107 291.295C52.8582 291.295 52.6346 291.119 52.5919 290.871C50.4208 278.218 52.0896 267.898 53.8708 261.468C55.8059 254.485 58.2242 250.552 58.3265 250.39C58.4749 250.149 58.7977 250.072 59.0475 250.215C59.2974 250.357 59.3792 250.668 59.2307 250.906C59.2062 250.946 56.7728 254.909 54.8773 261.77C53.1294 268.096 51.4938 278.252 53.6313 290.707C53.6784 290.983 53.4837 291.243 53.1969 291.287L53.1107 291.295Z" fill="#0C0C0C"/>
                  <path d="M85.0978 298.627C85.0978 298.627 114.484 294.769 123.792 275.776C133.099 256.784 104.364 240.508 88.0977 250.065C70.6956 260.289 85.0978 298.627 85.0978 298.627Z" fill="#647924"/>
                  <path d="M73.9518 343.076H73.946C73.6553 343.074 73.4223 342.844 73.4258 342.566C73.5414 333.243 75.6589 322.625 79.7206 311.004C82.964 301.724 87.4491 291.782 93.0493 281.458C102.581 263.888 112.181 251.121 112.276 250.993C112.448 250.768 112.777 250.717 113.012 250.881C113.247 251.045 113.299 251.361 113.129 251.587C113.033 251.714 103.473 264.431 93.9757 281.94C85.2242 298.073 74.7377 321.69 74.4785 342.577C74.4754 342.854 74.2399 343.076 73.9518 343.076Z" fill="#0C0C0C"/>
                  <path d="M86.3361 296.808L86.0607 296.732C85.8126 296.586 85.7353 296.276 85.8878 296.037C100.028 273.992 121.719 258.661 121.936 258.509C122.172 258.344 122.5 258.394 122.671 258.619C122.843 258.845 122.792 259.161 122.556 259.325C122.341 259.477 100.813 274.697 86.7845 296.566C86.6844 296.722 86.5125 296.808 86.3361 296.808Z" fill="#0C0C0C"/>
                  <path d="M85.6622 298.392C85.5313 298.392 85.3993 298.346 85.2981 298.252C85.0887 298.059 85.0807 297.738 85.281 297.537C95.2513 287.537 105.207 281.535 111.802 278.261C118.963 274.706 123.695 273.537 123.893 273.49C124.174 273.421 124.461 273.585 124.533 273.856C124.604 274.126 124.434 274.401 124.152 274.47C124.104 274.481 119.312 275.666 112.25 279.176C105.735 282.414 95.8988 288.35 86.0423 298.237C85.9388 298.339 85.8011 298.392 85.6622 298.392Z" fill="#0C0C0C"/>
                  <path d="M88.5841 292.616L88.3849 292.579C88.1164 292.473 87.9866 292.178 88.097 291.919C96.3216 272.581 95.2268 248.401 95.2143 248.16C95.2006 247.88 95.4248 247.643 95.715 247.63C96.0018 247.616 96.2521 247.832 96.2658 248.112C96.2783 248.354 97.3856 272.751 89.0723 292.301C88.9881 292.498 88.7912 292.616 88.5841 292.616Z" fill="#0C0C0C"/>
                  <path d="M86.5577 296.464L86.4417 296.451C86.1583 296.39 85.9796 296.119 86.0434 295.847C88.9453 283.535 87.9393 273.304 86.5851 266.889C85.1147 259.935 82.9306 255.839 82.9088 255.799C82.7749 255.551 82.8759 255.246 83.1338 255.118C83.3915 254.99 83.7094 255.085 83.8432 255.333C83.9353 255.502 86.1059 259.565 87.607 266.647C88.9897 273.165 90.0185 283.564 87.071 296.07C87.0152 296.305 86.7979 296.464 86.5577 296.464Z" fill="#0C0C0C"/>
                  <path d="M73.7841 261.877C73.7841 261.877 48.8852 246.405 48.8594 225.417C48.8337 204.428 82.0499 201.404 92.5496 216.688C103.782 233.038 73.7841 261.877 73.7841 261.877Z" fill="#647924"/>
                  <path d="M70.3029 315.621L70.1811 315.607C69.8979 315.542 69.7227 315.27 69.7903 314.998C74.1829 297.194 73.7916 269.01 72.6896 248.501C71.4946 226.26 69.2307 208.011 69.208 207.828C69.1728 207.552 69.3792 207.299 69.6672 207.267C69.9535 207.235 70.2185 207.431 70.2531 207.708C70.2758 207.89 72.5447 226.175 73.7415 248.448C74.8471 269.023 75.2359 297.311 70.815 315.232C70.7577 315.464 70.5415 315.621 70.3029 315.621Z" fill="#0C0C0C"/>
                  <path d="M73.6895 259.774C73.4254 259.774 73.1977 259.583 73.1671 259.324C70.1397 233.806 57.3819 211.251 57.2538 211.026C57.1133 210.781 57.2072 210.474 57.4614 210.34C57.7156 210.205 58.0367 210.295 58.1766 210.54C58.306 210.766 71.1623 233.488 74.2136 259.21C74.246 259.488 74.0384 259.738 73.7499 259.771L73.6895 259.774Z" fill="#0C0C0C"/>
                  <path d="M73.5998 261.483C73.3803 261.483 73.1749 261.349 73.1007 261.138C68.5502 248.169 62.2707 238.788 57.8044 233.2C52.9629 227.143 49.1486 224.116 49.1109 224.086C48.8859 223.909 48.853 223.591 49.0371 223.375C49.2216 223.16 49.5528 223.128 49.7776 223.304C49.9359 223.429 53.7034 226.415 58.6152 232.553C63.138 238.205 69.4958 247.698 74.0986 260.816C74.1916 261.081 74.0435 261.367 73.7679 261.456L73.5998 261.483Z" fill="#0C0C0C"/>
                  <path d="M73.5117 255.062L73.4846 255.061C73.1938 255.047 72.9708 254.81 72.985 254.531C74.1047 233.442 85.8996 211.806 86.018 211.589C86.1545 211.343 86.4732 211.249 86.7292 211.379C86.9876 211.51 87.0855 211.816 86.9489 212.061C86.8317 212.276 75.1446 233.722 74.0372 254.583C74.0226 254.852 73.7905 255.062 73.5117 255.062Z" fill="#0C0C0C"/>
                  <path d="M73.6425 259.372L73.5291 259.36C73.245 259.3 73.065 259.031 73.1277 258.758C75.9914 246.234 81.5393 237.17 85.6901 231.771C90.1967 225.909 93.9738 223.053 94.132 222.934C94.3607 222.762 94.6919 222.802 94.8706 223.021C95.0492 223.242 95.0083 223.56 94.7795 223.731C94.742 223.76 90.9353 226.642 86.5117 232.404C82.4316 237.719 76.9757 246.644 74.1564 258.974C74.1027 259.211 73.8847 259.372 73.6425 259.372Z" fill="#0C0C0C"/>
                  <path d="M104.204 312.903L103.336 315.114L102.787 316.516L101.213 320.528L100.663 321.929L99.0452 326.05L98.4978 327.448L91.5615 345.129H53.6677L46.7315 327.448L46.1834 326.05L44.5662 321.929L44.0154 320.528L42.4412 316.516L41.893 315.114L41.0248 312.903C40.4292 311.388 41.5952 309.77 43.2822 309.77H101.946C103.631 309.77 104.797 311.388 104.204 312.903Z" fill="#F25B32"/>
                  <path d="M103.336 315.114L102.788 316.516H42.4417L41.8936 315.114H103.336Z" fill="#BA3C20"/>
                  <path d="M101.213 320.528L100.664 321.929H44.5664L44.0156 320.528H101.213Z" fill="#BA3C20"/>
                  <path d="M99.0453 326.05L98.498 327.448H46.7317L46.1836 326.05H99.0453Z" fill="#BA3C20"/>
                  <path d="M62.4625 357.255L60.3607 363.76L31.1088 454.275H25.3916L43.9429 365.607L45.6903 357.255H62.4625Z" fill="#0C0C0C"/>
                  <path d="M120.007 454.275H114.289L84.1718 361.081L82.9355 357.255H99.7048L100.128 359.283H100.13L120.007 454.275Z" fill="#0C0C0C"/>
                  <path d="M109.73 401.988H35.3483C35.0419 401.988 34.7939 401.75 34.7939 401.456V396.782C34.7939 396.487 35.0419 396.249 35.3483 396.249H109.73C110.036 396.249 110.285 396.487 110.285 396.782V401.456C110.285 401.75 110.036 401.988 109.73 401.988Z" fill="#373335"/>
                  <path d="M430.459 105.17C430.459 105.17 439.868 112.122 445.684 130.417C451.5 148.71 451.325 176.618 458.882 180.135C466.441 183.652 497.302 190.889 497.064 201.604C496.826 212.32 468.59 208.841 452.583 201.444C436.577 194.047 434.838 145.204 434.838 145.204L430.459 105.17Z" fill="#F25B32"/>
                  <path d="M512.013 187.584C512.013 187.584 500.974 204.917 489.173 207.06C487.389 207.384 485.616 206.443 484.902 204.84L481.947 198.217C481.947 198.217 498.971 184.941 512.013 187.584Z" fill="#F9AD97"/>
                  <path d="M479.889 203.585L480.652 204.37C481.052 204.78 481.677 204.9 482.209 204.668C487.146 202.499 511.116 191.955 515.345 189.711C515.738 189.503 515.995 189.121 516.036 188.692L517.394 174.571C517.427 174.23 517.32 173.891 517.093 173.626L516.072 172.427L514.452 187.602L479.889 203.585Z" fill="#373335"/>
                  <path d="M479.87 203.368L480.78 189.267C480.817 188.715 481.444 187.99 482.183 187.648L514.954 172.469C515.693 172.127 516.263 172.298 516.228 172.849L515.317 186.949C515.282 187.501 514.652 188.226 513.914 188.568L481.144 203.747C480.405 204.089 479.834 203.919 479.87 203.368Z" fill="#0C0C0C"/>
                  <path d="M486.438 198.459L487.1 188.206C487.136 187.654 487.764 186.929 488.502 186.587L512.804 175.332C513.543 174.99 514.113 175.159 514.077 175.711L513.415 185.965C513.38 186.516 512.752 187.241 512.013 187.584L487.712 198.839C486.973 199.181 486.403 199.012 486.438 198.459Z" fill="#373335"/>
                  <path d="M483.39 196.394C482.249 196.922 481.37 196.661 481.424 195.809C481.48 194.957 482.449 193.838 483.589 193.31C484.73 192.782 485.61 193.044 485.555 193.896C485.501 194.747 484.53 195.866 483.39 196.394Z" fill="#373335"/>
                  <path d="M488.014 185.266C488.014 185.266 487.341 179.562 491.515 178.09C495.69 176.62 502.882 178.062 502.882 178.062C504.936 180.925 499.583 181.929 493.017 182.629L488.014 185.266Z" fill="#F9AD97"/>
                  <path d="M496.037 198.556C496.037 198.556 499.077 201.144 500.86 199.568C502.642 197.993 502.103 192.525 501.777 190.618C501.451 188.712 499.181 192.633 498.997 194.646C498.888 195.835 498.227 197.582 498.227 197.582L496.037 198.556Z" fill="#F9AD97"/>
                  <path d="M502.334 195.218C502.334 195.218 505.58 197.803 507.695 195.932C509.811 194.062 509.17 187.573 508.784 185.309C508.397 183.047 505.526 187.693 505.484 190.09C505.442 192.489 504.34 193.235 504.34 193.235L502.334 195.218Z" fill="#F9AD97"/>
                  <path d="M505.687 193.633C505.687 193.633 508.554 195.915 510.423 194.263C512.292 192.611 511.726 186.879 511.385 184.88C511.043 182.88 508.508 186.985 508.469 189.103C508.433 191.222 507.461 191.88 507.461 191.88L505.687 193.633Z" fill="#F9AD97"/>
                  <path d="M498.634 197.945C498.634 197.945 501.879 200.529 503.996 198.659C506.111 196.789 505.47 190.299 505.084 188.036C504.697 185.773 501.826 190.419 501.784 192.818C501.742 195.216 500.641 195.961 500.641 195.961L498.634 197.945Z" fill="#F9AD97"/>
                  <path d="M449.243 183.607C449.068 183.606 448.896 183.533 448.776 183.393C448.567 183.145 448.606 182.78 448.864 182.578C451.95 180.173 455.983 178.623 456.154 178.559C456.463 178.441 456.814 178.587 456.936 178.884C457.06 179.181 456.908 179.518 456.598 179.636C456.558 179.651 452.563 181.186 449.625 183.477C449.513 183.565 449.378 183.607 449.243 183.607Z" fill="#BA3C20"/>
                  <path d="M455.246 180.148L455.057 180.119C452.226 179.211 450.038 179.213 450.043 179.203H450.041C449.709 179.201 449.439 178.943 449.439 178.624C449.438 178.304 449.709 178.045 450.041 178.044C450.143 178.047 452.418 178.052 455.439 179.02C455.754 179.121 455.925 179.449 455.82 179.753C455.735 179.996 455.498 180.149 455.246 180.148Z" fill="#BA3C20"/>
                  <path d="M379.343 397.9L372.738 403.19L380.32 414.726L386.925 409.438L379.343 397.9Z" fill="#F9AD97"/>
                  <path d="M379.506 453.874L351.904 411.866C352.29 411.197 353.017 410.518 353.972 409.843C357.5 407.339 364.153 404.894 368.242 403.196C368.722 402.999 369.165 402.81 369.562 402.633C370.236 402.334 370.785 402.068 371.165 401.838C374.205 399.997 375.382 402.894 375.382 402.894C373.833 409.774 383.507 410.645 383.218 414.749C383.218 414.749 383.109 416.506 382.176 421.735C381.239 426.961 382.903 433.884 383.972 439.985C385.354 447.862 383.803 451.273 382.162 452.749C380.861 453.917 379.506 453.874 379.506 453.874Z" fill="#647924"/>
                  <path d="M379.506 453.874L351.904 411.866C352.29 411.197 353.017 410.518 353.972 409.843L382.162 452.749C380.861 453.917 379.506 453.874 379.506 453.874Z" fill="#333817"/>
                  <path d="M381.773 416.502C381.773 416.502 384.176 416.094 384.663 418.131C385.15 420.166 382.177 421.733 382.177 421.733C382.177 421.733 378.915 422.311 381.773 416.502Z" fill="white"/>
                  <path d="M372.831 421.196C372.579 420.815 372.7 420.309 373.097 420.068C377.443 417.437 381.51 418.621 381.681 418.673C382.131 418.808 382.38 419.268 382.238 419.699C382.096 420.13 381.621 420.368 381.171 420.234C381.024 420.191 377.657 419.242 374.007 421.453C373.608 421.693 373.082 421.58 372.831 421.196Z" fill="white"/>
                  <path d="M384.233 426.496C384.127 426.332 384.079 426.132 384.113 425.926C384.348 424.554 382.804 421.882 381.776 420.52C381.501 420.153 381.584 419.642 381.966 419.377C382.347 419.112 382.881 419.194 383.156 419.56C383.471 419.977 386.221 423.708 385.795 426.193C385.72 426.639 385.281 426.94 384.816 426.867C384.565 426.828 384.359 426.687 384.233 426.496Z" fill="white"/>
                  <path d="M381.177 410.828L381.152 410.792C380.841 410.334 380.459 410.076 379.948 409.978C379.576 409.906 379.302 409.992 379.09 410.251C378.57 410.881 378.466 412.41 379.411 414.403C380.333 416.349 381.096 417.545 381.566 418.201C381.915 416.369 382.331 412.584 381.177 410.828ZM379.662 418.649C379.15 417.87 378.485 416.733 377.73 415.137C376.596 412.749 376.563 410.454 377.641 409.149C378.286 408.368 379.258 408.036 380.31 408.237C381.312 408.431 382.117 408.964 382.702 409.824L382.738 409.88C384.644 412.78 383.414 418.437 383.267 419.076L382.047 418.817L382.08 418.852L380.743 420.077C380.715 420.048 380.312 419.638 379.662 418.649Z" fill="white"/>
                  <path d="M382.188 420.806L383.179 419.31C384.765 420.278 387.428 420.512 388.452 419.774C388.702 419.593 388.958 419.289 388.724 418.521C388.56 417.985 388.299 417.832 388.088 417.759C387.029 417.389 384.906 418.357 383.817 419.053L382.791 417.579C383.157 417.343 386.443 415.298 388.719 416.091C389.326 416.304 390.129 416.811 390.497 418.024C391.039 419.803 390.145 420.772 389.563 421.191C387.74 422.506 384.213 422.043 382.188 420.806Z" fill="white"/>
                  <path d="M354.72 416.152L353.899 414.905C356.201 415.253 359.239 415.041 362.39 412.921C366.582 410.1 367.86 405.845 368.241 403.196C368.721 402.999 369.164 402.81 369.561 402.633C369.302 405.397 368.116 410.508 363.099 413.89C360.09 415.914 357.131 416.339 354.72 416.152Z" fill="#333817"/>
                  <path d="M379.126 422.586C378.922 422.276 378.956 421.86 379.233 421.583C379.558 421.257 380.099 421.245 380.438 421.559L382.841 423.772C383.182 424.085 383.192 424.603 382.865 424.929C382.54 425.256 382 425.267 381.661 424.953L379.258 422.74L379.126 422.586Z" fill="white"/>
                  <path d="M379.26 426.173C379.057 425.861 379.091 425.446 379.367 425.169C379.693 424.843 380.233 424.832 380.573 425.145L382.975 427.359C383.316 427.671 383.327 428.19 383 428.515C382.674 428.841 382.135 428.852 381.795 428.54L379.392 426.327L379.26 426.173Z" fill="white"/>
                  <path d="M379.457 429.721C379.252 429.41 379.288 428.995 379.564 428.718C379.89 428.392 380.43 428.38 380.768 428.695L383.172 430.908C383.513 431.22 383.522 431.739 383.197 432.065C382.871 432.391 382.332 432.402 381.992 432.088L379.588 429.876L379.457 429.721Z" fill="white"/>
                  <path d="M379.924 433.437C379.721 433.127 379.754 432.711 380.031 432.434C380.356 432.109 380.897 432.098 381.237 432.412L383.64 434.624C383.98 434.936 383.991 435.455 383.664 435.782C383.338 436.107 382.799 436.117 382.46 435.805L380.056 433.592L379.924 433.437Z" fill="white"/>
                  <path d="M380.759 437.27C380.554 436.959 380.589 436.544 380.865 436.267C381.192 435.94 381.731 435.93 382.07 436.244L384.473 438.456C384.814 438.768 384.824 439.287 384.499 439.614C384.173 439.941 383.633 439.951 383.293 439.637L380.89 437.425L380.759 437.27Z" fill="white"/>
                  <path d="M459.341 323.58L459.304 323.86C459.304 323.86 459.047 324.321 458.559 325.183C455.115 331.238 440.136 357.068 421.567 381.394C418.89 384.902 416.136 388.375 413.336 391.753C412.104 393.239 410.862 394.704 409.613 396.146C404.188 402.412 399.639 406.253 394.455 409.482C393.906 409.825 393.351 410.158 392.786 410.49C391.709 411.119 390.601 411.731 389.446 412.343C388.9 412.628 388.341 412.916 387.772 413.209C387.772 413.209 379.482 404.774 375.643 396.612C375.643 396.612 376.733 394.922 378.485 392.172C378.828 391.633 379.198 391.055 379.59 390.44C380.772 388.58 382.157 386.393 383.659 384.01C390.409 373.283 399.501 358.553 402.901 351.711C405.386 346.712 408.343 341.164 411.646 335.701C412.276 334.661 412.914 333.627 413.569 332.599C413.643 332.477 413.715 332.362 413.794 332.241C418.283 325.183 423.306 318.483 428.56 313.549L416.921 246.068L416.188 241.831L442.546 233.007L444.05 232.506L450.327 230.405C450.327 230.405 450.819 232.622 451.583 236.434C451.674 236.894 451.771 237.378 451.87 237.883C455.291 255.203 462.927 298.487 459.341 323.58Z" fill="#0C0C0C"/>
                  <path d="M394.455 409.483C393.906 409.825 393.351 410.158 392.786 410.49L382.644 397.5L381.708 396.299L378.485 392.172C378.828 391.633 379.198 391.055 379.59 390.44L382.747 394.484L383.68 395.682L394.455 409.483Z" fill="#373335"/>
                  <path d="M459.34 323.579L459.302 323.86C459.302 323.86 459.046 324.322 458.557 325.183C452.589 324.09 448.016 321.234 447.744 321.064C447.339 320.806 447.225 320.279 447.493 319.888C447.763 319.496 448.31 319.389 448.719 319.647C448.782 319.688 453.45 322.594 459.34 323.579Z" fill="#373335"/>
                  <path d="M435.429 315.93C435.299 316.049 422.051 328.605 383.681 395.682C383.34 396.283 382.994 396.889 382.644 397.5L381.709 396.299C382.057 395.69 382.403 395.085 382.748 394.484C418.348 332.293 431.966 317.423 434.147 315.237C431.086 304.202 421.798 247.714 421.401 245.287C421.341 244.913 421.604 244.566 421.993 244.506C422.379 244.446 422.744 244.702 422.804 245.074C422.902 245.674 432.705 305.301 435.623 315.252C435.696 315.494 435.622 315.757 435.429 315.93Z" fill="#373335"/>
                  <path d="M372.937 213.587C372.937 213.587 370.884 231.62 375.121 241.681C379.356 251.74 434.727 246.77 448.868 237.783C454.67 234.095 442.482 199.837 442.482 199.837L372.937 213.587Z" fill="#0C0C0C"/>
                  <path d="M451.869 237.885C451.031 237.741 450.216 237.536 449.422 237.271C448.152 236.854 446.942 236.286 445.787 235.566C444.591 234.82 443.512 233.955 442.547 233.008C436.468 227.077 434.707 218.139 434.624 217.702C434.553 217.33 434.811 216.978 435.195 216.908C435.582 216.844 435.953 217.088 436.023 217.456C436.042 217.563 437.875 226.859 444.049 232.505C444.82 233.211 445.657 233.861 446.568 234.425C447.666 235.109 448.822 235.644 450.037 236.029C450.543 236.19 451.056 236.325 451.582 236.432C451.674 236.894 451.771 237.378 451.869 237.885Z" fill="#373335"/>
                  <path d="M417.699 242.807C417.714 243.167 417.414 243.475 417.025 243.495H417.019C416.626 243.513 416.295 243.232 416.279 242.869C416.163 240.401 416.022 237.875 415.866 235.351C415.839 234.907 415.812 234.463 415.781 234.018C415.255 225.771 414.577 217.675 414.065 211.958C414.023 211.496 413.984 211.047 413.943 210.616C413.828 209.362 413.725 208.249 413.636 207.307C414.107 207.238 414.578 207.167 415.045 207.094C415.133 208.036 415.238 209.159 415.353 210.427C415.393 210.856 415.432 211.305 415.475 211.768C415.982 217.434 416.656 225.461 417.183 233.657C417.213 234.11 417.24 234.564 417.272 235.016C417.431 237.632 417.578 240.253 417.699 242.807Z" fill="#373335"/>
                  <path d="M419.756 234.113C419.534 234.213 418.536 234.654 417.27 235.016C416.827 235.144 416.352 235.26 415.865 235.351C415.42 235.432 414.967 235.492 414.52 235.513C413.659 235.557 412.829 235.468 412.137 235.147C411.275 234.747 410.718 234.023 410.529 233.058C410.022 230.512 408.979 220.006 408.278 212.574C408.232 212.118 408.191 211.671 408.15 211.239C408.039 210.05 407.94 208.969 407.855 208.05C408.325 207.997 408.797 207.945 409.269 207.886C409.355 208.81 409.453 209.905 409.569 211.109C409.609 211.539 409.651 211.985 409.692 212.445C410.397 219.857 411.436 230.349 411.926 232.816C412.038 233.385 412.307 233.751 412.777 233.97C413.529 234.317 414.657 234.249 415.78 234.018C416.259 233.92 416.736 233.794 417.182 233.657C417.994 233.408 418.704 233.124 419.132 232.931C419.486 232.771 419.912 232.906 420.082 233.232C420.254 233.557 420.109 233.953 419.756 234.113Z" fill="#373335"/>
                  <path d="M395.278 421.96L396.639 432.66L410.849 432.711L411.719 421.458L395.278 421.96Z" fill="#F9AD97"/>
                  <path d="M413.947 236.675L413.224 420.258L413.007 423.166L391.911 423.089C391.69 421.762 391.193 419.621 390.533 416.862C390.39 416.261 390.237 415.631 390.08 414.975C387.374 403.739 382.742 384.58 381.977 367.936C380.884 344.168 381.338 313.378 381.338 313.378C379 295.708 375.371 257.441 373.568 237.853C373.523 237.385 373.483 236.934 373.443 236.488C372.839 229.91 372.467 225.767 372.467 225.767C375.867 224.419 382.024 225.375 388.571 227.186C389.044 227.315 389.518 227.446 389.995 227.588C401.627 230.979 413.947 236.675 413.947 236.675Z" fill="#0C0C0C"/>
                  <path d="M413.245 415.059L413.237 416.946L390.532 416.862C390.389 416.261 390.236 415.631 390.079 414.975L413.245 415.059Z" fill="#373335"/>
                  <path d="M413.628 317.62L413.621 319.372C411.146 319.961 408.322 320.148 405.676 320.138C400.791 320.121 396.519 319.437 396.221 319.389C395.742 319.31 395.418 318.872 395.5 318.409C395.581 317.948 396.036 317.633 396.517 317.716C396.629 317.733 406.949 319.385 413.628 317.62Z" fill="#373335"/>
                  <path d="M394.065 416.875L392.621 416.871C392.507 416.286 392.386 415.655 392.257 414.982C390.43 405.467 387.088 387.678 385.363 376.132C382.951 360.014 384.286 315.351 384.341 313.605C382.523 298.238 378.912 245.601 378.875 245.071C378.848 244.693 379.145 244.369 379.538 244.344C379.932 244.322 380.266 244.604 380.293 244.981C380.33 245.513 383.946 298.227 385.759 313.499L385.763 313.599C385.746 314.057 384.341 359.696 386.769 375.94C388.507 387.568 391.889 405.545 393.704 414.988C393.832 415.663 393.955 416.295 394.065 416.875Z" fill="#373335"/>
                  <path d="M390.031 277.997C391.139 278.002 392.287 277.827 393.472 277.474C408.624 272.955 401.575 236.247 401.266 234.687C401.17 234.196 400.679 233.875 400.167 233.967C399.657 234.059 399.323 234.532 399.418 235.022C399.438 235.115 401.25 244.43 401.274 254.132C401.297 262.85 399.865 273.677 392.913 275.75C390.045 276.606 387.554 276.229 385.297 274.6C378.379 269.606 375.051 252.927 375.339 239.033C375.35 238.535 374.936 238.123 374.417 238.112H374.402C373.89 238.111 373.468 238.505 373.459 238.998C373.314 245.976 374.089 253.577 375.587 259.856C376.9 265.363 379.455 272.641 384.167 276.042C385.96 277.338 387.924 277.99 390.031 277.997Z" fill="#ECA41E"/>
                  <path d="M416.185 450.963C416.184 451.086 416.18 451.205 416.177 451.322C416.162 451.868 416.136 452.36 416.11 452.779C416.048 453.706 415.977 454.275 415.977 454.275L383.962 454.159C383.962 454.159 383.808 452.97 383.938 451.205C384.16 448.067 385.266 443.11 389.7 439.849C395.77 435.379 393.428 436.307 394.679 434.264C394.82 434.037 395.922 430.563 396.038 430.323C397.088 428.2 398.051 427.198 403.786 427.219C411.394 427.246 412.049 430.793 412.854 432.662C413.186 433.437 413.638 435.066 414.102 437.004C414.291 437.782 414.48 438.612 414.666 439.457C415.126 441.577 415.555 443.79 415.847 445.555C416.155 447.446 416.215 449.392 416.185 450.963Z" fill="#647924"/>
                  <path d="M416.185 450.963C416.184 451.086 416.181 451.205 416.177 451.322C416.163 451.868 416.136 452.36 416.11 452.779C414.553 451.723 413.445 450.331 412.801 448.629C410.84 443.443 413.912 437.238 414.039 436.976L414.103 437.004C414.292 437.782 414.481 438.612 414.666 439.457C413.937 441.57 413.091 445.121 414.234 448.134C414.649 449.231 415.301 450.177 416.185 450.963Z" fill="#333817"/>
                  <path d="M416.177 451.322C416.127 453.072 415.977 454.275 415.977 454.275L383.962 454.159C383.962 454.159 383.808 452.97 383.938 451.205L416.177 451.322Z" fill="#333817"/>
                  <path d="M394.495 423.147C394.314 423.146 394.092 423.216 393.807 423.466C393.332 423.883 393.316 424.216 393.356 424.459C393.585 425.87 396.296 427.728 398.768 429.047C397.648 426.37 396.022 423.516 394.702 423.177L394.495 423.147ZM400.403 431.704C400.276 431.704 400.148 431.678 400.028 431.625C399.218 431.271 392.096 428.06 391.552 424.731C391.444 424.067 391.532 423.085 392.576 422.172C393.567 421.304 394.536 421.32 395.176 421.484C398.404 422.316 400.824 429.194 401.277 430.563C401.387 430.893 401.282 431.255 401.012 431.484C400.84 431.629 400.623 431.704 400.403 431.704Z" fill="white"/>
                  <path d="M407.933 423.195L407.726 423.224C406.403 423.554 404.755 426.395 403.615 429.063C406.096 427.761 408.822 425.921 409.063 424.516C409.104 424.274 409.091 423.939 408.619 423.52C408.335 423.267 408.115 423.196 407.933 423.195ZM401.958 431.71C401.737 431.709 401.521 431.632 401.349 431.485C401.082 431.253 400.981 430.892 401.093 430.563C401.556 429.197 404.032 422.336 407.266 421.527C407.907 421.368 408.876 421.36 409.86 422.234C410.895 423.155 410.977 424.138 410.864 424.802C410.294 428.126 403.147 431.285 402.334 431.634C402.213 431.686 402.084 431.71 401.958 431.71Z" fill="white"/>
                  <path d="M401.16 429.147C401.16 429.147 399.673 428.467 399.549 430.428C399.449 432.018 400.628 432.363 401.109 432.098C401.109 432.098 402.123 432.393 402.633 431.616C403.144 430.839 402.817 428.368 401.16 429.147Z" fill="white"/>
                  <path d="M394.591 434.485C394.402 434.484 394.211 434.427 394.047 434.309C393.644 434.02 393.563 433.47 393.865 433.082C396.761 429.38 401.194 430.204 401.382 430.242C401.874 430.339 402.193 430.802 402.092 431.276C401.99 431.749 401.509 432.054 401.016 431.959C400.867 431.93 397.511 431.34 395.325 434.135C395.145 434.365 394.87 434.486 394.591 434.485Z" fill="white"/>
                  <path d="M408.577 435.419C408.229 435.418 407.899 435.226 407.748 434.902C406.281 431.774 401.119 430.998 401.066 430.99C400.569 430.919 400.224 430.473 400.299 429.995C400.374 429.515 400.84 429.187 401.338 429.258C401.59 429.293 407.542 430.193 409.412 434.184C409.619 434.624 409.414 435.144 408.954 435.343C408.832 435.394 408.703 435.42 408.577 435.419Z" fill="white"/>
                  <path d="M404.806 436.803L404.576 436.774C400.509 435.748 397.188 436.591 397.155 436.601C396.668 436.728 396.167 436.452 396.035 435.985C395.901 435.52 396.189 435.036 396.675 434.91C396.829 434.87 400.505 433.933 405.041 435.079C405.527 435.203 405.82 435.681 405.691 436.15C405.583 436.544 405.212 436.804 404.806 436.803Z" fill="white"/>
                  <path d="M403.426 439.575L403.195 439.545C399.155 438.525 395.806 439.364 395.773 439.373C395.287 439.498 394.787 439.221 394.656 438.756C394.522 438.289 394.809 437.808 395.295 437.681C395.449 437.641 399.126 436.706 403.661 437.85C404.148 437.974 404.439 438.453 404.312 438.92C404.204 439.315 403.832 439.576 403.426 439.575Z" fill="white"/>
                  <path d="M401.805 442.726L401.576 442.697C397.534 441.676 394.186 442.515 394.152 442.523C393.666 442.65 393.165 442.373 393.034 441.906C392.902 441.441 393.189 440.959 393.674 440.832C393.828 440.792 397.504 439.857 402.039 441.002C402.528 441.124 402.818 441.605 402.69 442.072C402.581 442.467 402.21 442.727 401.805 442.726Z" fill="white"/>
                  <path d="M393.958 217.554C393.895 217.871 392.904 222.708 389.994 227.587C388.28 230.46 385.898 233.349 382.654 235.338C379.927 237.008 376.883 237.848 373.567 237.853C373.522 237.386 373.482 236.933 373.441 236.488C376.537 236.502 379.364 235.732 381.888 234.189C384.789 232.413 386.965 229.812 388.569 227.185C391.532 222.334 392.547 217.377 392.561 217.302C392.633 216.931 393.006 216.687 393.39 216.757C393.776 216.828 394.031 217.184 393.958 217.554Z" fill="#373335"/>
                  <path d="M371.933 229.38L370.137 239.662C370.137 239.662 390.393 244.085 403.183 240.987C415.973 237.887 446.812 235.045 452.079 234.86L448.756 221.16C448.756 221.16 409.163 232.977 371.933 229.38Z" fill="white"/>
                  <path d="M415.766 100.606C415.766 100.606 423.354 85.9424 407.392 77.7335C396.226 71.9904 374.629 70.8685 367.984 83.8984C361.805 96.015 375.555 106.278 375.555 106.278C375.555 106.278 405.064 112.446 415.766 100.606Z" fill="#F25B32"/>
                  <path d="M389.798 83.5062C389.798 83.5062 375.966 85.264 380.949 92.3585C383.586 96.1144 398.558 98.213 398.558 98.213C398.558 98.213 401.544 85.2498 389.798 83.5062Z" fill="#0C0C0C"/>
                  <path d="M447.171 217.542C447.171 217.542 395.895 233.867 373.858 225.544C373.858 225.544 366.949 223.453 364.223 210.434C364.134 210.009 364.05 209.572 363.971 209.122C362.827 202.682 362.682 193.777 364.676 181.499C367.068 166.769 363.869 159.23 362.545 144.55C362.497 144.033 362.45 143.507 362.406 142.971C362.265 141.383 362.133 139.713 362.002 137.936C360.592 118.557 354.202 110.252 364.279 104.535C374.357 98.8204 387.562 94.4571 387.562 94.4571C387.562 94.4571 398.772 97.9158 406.69 94.5259C406.69 94.5259 418.698 100.229 427.935 103.499C437.168 106.769 434.039 130.219 436.9 143.701C439.763 157.186 444.66 167.92 449.035 190.287C453.033 210.742 447.171 217.542 447.171 217.542Z" fill="#F25B32"/>
                  <path d="M407.87 106.094C407.597 106.094 407.355 105.905 407.306 105.637C407.25 105.338 407.46 105.052 407.771 104.999C413.097 104.101 415.715 99.2826 415.742 99.2334C415.885 98.9625 416.233 98.8554 416.515 98.9942C416.797 99.1318 416.909 99.4639 416.765 99.7359C416.649 99.9544 413.854 105.093 407.97 106.085L407.87 106.094Z" fill="#BA3C20"/>
                  <path d="M389.813 133.714L390.843 145.066L424.707 142.61L422.599 132.027L389.813 133.714Z" fill="#BA3C20"/>
                  <path d="M448.485 188.287C448.103 188.286 447.781 188.001 447.754 187.628C447.347 181.99 442.938 167.669 440.305 159.113C439.793 157.448 439.35 156.011 439.031 154.942C437.122 148.53 434.983 133.47 434.893 132.833C434.839 132.446 435.121 132.089 435.525 132.037C435.93 131.985 436.3 132.256 436.355 132.642C436.376 132.797 438.568 148.239 440.448 154.552C440.766 155.616 441.207 157.05 441.718 158.712C444.37 167.324 448.807 181.738 449.225 187.531C449.252 187.921 448.947 188.259 448.54 188.286L448.485 188.287Z" fill="#BA3C20"/>
                  <path d="M449.781 210.731C449.781 210.731 451.94 217.171 448.837 221.483C448.837 221.483 402.769 236.646 371.934 229.38C371.934 229.38 369.169 226.158 368.42 219.559C368.42 219.559 405.502 228.552 449.781 210.731Z" fill="#BA3C20"/>
                  <path d="M402.561 117.373C411.089 117.404 413.788 110.076 413.816 110C413.915 109.719 413.759 109.414 413.467 109.319C413.174 109.223 412.859 109.374 412.758 109.653C412.654 109.946 410.097 116.805 401.708 116.271C392.993 115.718 381.814 110.148 381.703 110.091C381.428 109.954 381.092 110.055 380.948 110.318C380.806 110.581 380.911 110.904 381.184 111.042C381.649 111.276 392.68 116.772 401.634 117.342C401.951 117.362 402.259 117.373 402.561 117.373Z" fill="#BA3C20"/>
                  <path d="M436.451 183.607C436.451 183.607 442.995 196.022 440.788 205.666C440.788 205.666 416.195 216.627 387.2 210.924C387.2 210.924 387.869 198.829 386.771 187.777C386.771 187.777 418.576 183.273 436.451 183.607Z" fill="#BA3C20"/>
                  <path d="M407.102 90.6902L406.582 95.5496C405.941 95.9505 405.202 96.1438 404.662 96.5787C398.537 101.505 390.553 96.0838 386.483 92.176L388.319 76.7263L404.861 89.0253L407.102 90.6902Z" fill="#F9AD97"/>
                  <path d="M407.103 90.6902L406.583 95.5495C405.942 95.9505 405.3 96.2913 404.663 96.5786C397.483 92.9975 392.841 84.9231 392.841 84.9231L404.862 89.0253L407.103 90.6902Z" fill="#0C0C0C"/>
                  <path d="M384.258 64.2088C384.258 64.2088 381.636 61.2755 381.047 57.8899C380.456 54.5055 384.078 52.3096 384.078 52.3096C384.078 52.3096 382.37 49.9652 384.417 46.9379C386.675 43.6004 392.165 43.9413 392.165 43.9413C392.165 43.9413 390.964 41.138 394.618 39.2218C398.271 37.3045 402.026 40.406 402.026 40.406C402.026 40.406 403.288 37.0336 407.315 36.8555C411.341 36.6763 412.21 40.5404 412.21 40.5404C412.21 40.5404 420.755 37.0325 424.573 42.3222C430.17 50.0766 418.018 54.4399 418.018 54.4399C398.762 48.2019 385.184 65.1559 385.184 65.1559L384.258 64.2088Z" fill="#ECA41E"/>
                  <path d="M413.959 50.6479C413.959 50.6479 427.399 58.0396 418.369 67.8401C418.369 67.8401 413.333 53.8303 413.959 50.6479Z" fill="#ECA41E"/>
                  <path d="M415.729 69.7793C415.729 69.7793 418.952 66.8012 420.229 70.2228C421.505 73.6433 419.551 80.1195 415.291 78.6086L415.729 69.7793Z" fill="#F68267"/>
                  <path d="M417.573 81.5157C417.573 81.5157 416.516 91.5621 405.632 90.4674C394.816 89.3837 388.315 80.5019 387.972 80.0868L387.962 80.0758L388.069 77.9532L388.625 66.9334L388.921 61.0428C388.921 61.0428 388.666 50.3596 399.313 49.4648C407.092 48.8093 414.116 50.731 417.319 54.9075C418.498 56.4468 419.156 58.2953 419.143 60.4332L418.358 70.9876L418.164 73.5746L417.573 81.5157Z" fill="#F9AD97"/>
                  <path d="M408.328 73.2555C408.185 73.2555 408.053 73.1703 408.003 73.0337C407.94 72.8622 408.033 72.6721 408.214 72.612L411.452 71.5141L409.592 69.9027L409.477 69.6569V62.9786C409.477 62.7962 409.632 62.6487 409.822 62.6487C410.013 62.6487 410.167 62.7962 410.167 62.9786V69.5094L412.344 71.395C412.435 71.4726 412.475 71.5917 412.451 71.7053C412.427 71.82 412.343 71.9139 412.228 71.9533L408.444 73.2358L408.328 73.2555Z" fill="#0C0C0C"/>
                  <path d="M406.432 80.4986C405.073 80.1632 404.186 79.4127 404.131 79.3657C403.946 79.2062 403.931 78.9331 404.096 78.7561C404.262 78.5791 404.544 78.5638 404.73 78.7222C404.747 78.7375 406.471 80.1796 408.657 79.6913C408.9 79.6355 409.141 79.7808 409.198 80.0135C409.255 80.2451 409.104 80.4767 408.862 80.5314C407.96 80.7335 407.132 80.6712 406.432 80.4986Z" fill="#F68267"/>
                  <path d="M408.317 78.2689C404.747 78.0711 403.275 75.2209 403.257 75.1859C403.138 74.9434 403.243 74.6528 403.496 74.5359C403.748 74.4201 404.05 74.5228 404.173 74.7631C404.246 74.9084 406.029 78.3027 410.719 77.0147C410.989 76.9415 411.269 77.0912 411.347 77.3501C411.424 77.6079 411.267 77.8777 410.998 77.952C409.998 78.2262 409.105 78.3115 408.317 78.2689Z" fill="#0C0C0C"/>
                  <path d="M407.589 61.6043C408.612 60.4496 407.789 59.0031 406.086 58.6962C404.218 58.3608 400.383 58.0112 399.189 60.4977C397.59 63.8275 403.29 62.9819 405.691 62.5755C406.531 62.4324 407.178 62.0643 407.589 61.6043Z" fill="#ECA41E"/>
                  <path d="M412.787 62.191C412.165 60.9794 413.088 59.6259 414.518 59.4598C416.085 59.2785 419.242 59.2402 419.761 61.7726C420.457 65.1636 416.009 63.8832 414.144 63.2933C413.49 63.0879 413.035 62.675 412.787 62.191Z" fill="#ECA41E"/>
                  <path d="M417.319 54.9065C417.203 55.2517 417.014 55.5412 416.746 55.7597C414.403 57.6813 409.486 56.4337 404.999 54.6038C400.514 52.7751 396.916 55.681 396.916 55.681C397.749 60.0651 393.349 59.9799 393.934 63.2977C394.52 66.6167 393.707 70.8391 393.707 70.8391L391.025 70.2284C390.601 68.6541 389.37 66.8974 386.351 65.9502C383.116 66.1982 383.612 59.8422 385.779 54.9884C385.779 54.9884 388.668 50.3596 399.315 49.4638C407.093 48.8105 414.117 50.7299 417.319 54.9065Z" fill="#ECA41E"/>
                  <path d="M404.021 70.8827C403.944 71.6146 402.31 72.0527 400.375 71.8626C398.439 71.6714 396.933 70.9242 397.011 70.1922C397.088 69.4614 398.722 69.0233 400.657 69.2134C402.593 69.4045 404.098 70.1518 404.021 70.8827Z" fill="#F68267"/>
                  <path d="M418.165 73.5745C417.892 73.5734 417.607 73.5592 417.317 73.5307C415.382 73.3396 413.876 72.5923 413.954 71.8604C414.02 71.2453 415.189 70.8367 416.71 70.8367C416.996 70.8367 417.293 70.8509 417.599 70.8804C417.861 70.9066 418.115 70.9427 418.358 70.9875L418.165 73.5745Z" fill="#F68A70"/>
                  <path d="M405.091 66.9192C404.983 67.9243 404.422 68.6923 403.836 68.6344C403.25 68.5765 402.863 67.7156 402.97 66.7105C403.077 65.7066 403.639 64.9386 404.225 64.9965C404.809 65.0544 405.197 65.9152 405.091 66.9192Z" fill="#0C0C0C"/>
                  <path d="M415.443 67.9384C415.335 68.9435 414.774 69.7115 414.189 69.6536C413.603 69.5957 413.215 68.7349 413.323 67.7298C413.43 66.7258 413.992 65.9578 414.577 66.0157C415.162 66.0736 415.55 66.9345 415.443 67.9384Z" fill="#0C0C0C"/>
                  <path d="M391.814 76.3462C391.754 76.4521 390.048 79.3843 387.972 80.0868L387.962 80.0759L388.069 77.9521C388.069 77.9521 389.818 77.8407 391.814 76.3462Z" fill="#0C0C0C"/>
                  <path d="M390.644 69.1806C390.644 69.1806 387.036 63.373 383.517 67.3114C380.619 70.556 384.421 80.1315 389.755 77.5041L390.644 69.1806Z" fill="#F9AD97"/>
                  <path d="M385.697 75.3728C385.644 75.884 386.031 76.3407 386.563 76.3931C387.096 76.4456 387.572 76.0741 387.626 75.5628C387.681 75.0516 387.294 74.5949 386.761 74.5425C386.229 74.49 385.753 74.8626 385.697 75.3728Z" fill="white"/>
                  <path d="M389.356 75.8229L389.404 75.8251C389.643 75.824 389.836 75.6361 389.834 75.4067C389.803 70.767 385.949 68.7808 385.786 68.6989C385.574 68.5929 385.313 68.6716 385.201 68.8748C385.091 69.078 385.173 69.3282 385.384 69.4352C385.529 69.5084 388.94 71.2837 388.97 75.4121C388.971 75.6262 389.14 75.8021 389.356 75.8229Z" fill="#0C0C0C"/>
                  <path d="M385.606 72.9213L385.888 72.8557C386.293 72.6012 387.504 71.9981 388.228 72.2538C388.452 72.3324 388.7 72.2221 388.783 72.0069C388.866 71.7916 388.75 71.5524 388.527 71.4737C387.266 71.028 385.599 72.044 385.414 72.1609C385.213 72.2865 385.158 72.5443 385.289 72.7366C385.364 72.8459 385.482 72.9092 385.606 72.9213Z" fill="#0C0C0C"/>
                  <path d="M424.863 68.6956L418.486 68.2827L418.395 69.1293L418.408 69.1304L424.803 69.5445C425.047 69.5609 425.258 69.3839 425.275 69.149C425.292 68.9141 425.117 68.7055 424.863 68.6956Z" fill="white"/>
                  <path d="M402.163 60.3425C398.672 59.9984 395.539 62.4455 395.181 65.7972C394.823 69.1489 397.372 72.1565 400.865 72.5006C404.356 72.8437 407.488 70.3966 407.845 67.0449C408.204 63.6932 405.655 60.6856 402.163 60.3425ZM400.777 73.3167C396.816 72.9267 393.924 69.516 394.33 65.7142C394.736 61.9114 398.289 59.1354 402.25 59.5254C406.211 59.9154 409.103 63.3261 408.697 67.129C408.29 70.9308 404.737 73.7067 400.777 73.3167Z" fill="white"/>
                  <path d="M419.127 62.0119C415.634 61.6688 412.503 64.116 412.145 67.4677C411.787 70.8204 414.336 73.8269 417.827 74.1711C421.319 74.5141 424.452 72.067 424.81 68.7153C425.168 65.3625 422.619 62.3571 419.127 62.0119ZM417.741 74.9871C413.779 74.5971 410.888 71.1864 411.295 67.3846C411.7 63.5828 415.253 60.8058 419.215 61.1969C423.175 61.5858 426.067 64.9965 425.66 68.7983C425.254 72.6012 421.701 75.3771 417.741 74.9871Z" fill="white"/>
                  <path d="M385.725 66.3172L385.575 66.2757C385.366 66.1741 385.28 65.9272 385.386 65.724C387.786 61.1608 395.06 64.3355 395.134 64.3683C395.346 64.4633 395.44 64.707 395.34 64.9123C395.241 65.1177 394.988 65.2073 394.773 65.1123C394.708 65.0828 388.178 62.238 386.15 66.0944C386.069 66.2506 385.896 66.3347 385.725 66.3172Z" fill="white"/>
                  <path d="M411.884 66.361C411.775 66.3512 411.669 66.2987 411.594 66.2102C410.538 64.9463 408.649 65.7449 408.629 65.7525C408.413 65.8454 408.162 65.7536 408.065 65.5471C407.967 65.3407 408.063 65.097 408.278 65.0042C409.142 64.6306 411.087 64.293 412.261 65.6968C412.409 65.8727 412.38 66.1316 412.196 66.2725C412.105 66.3435 411.992 66.3719 411.884 66.361Z" fill="white"/>
                  <path d="M386.45 91.5118C386.45 91.5118 396.392 98.5714 399.291 98.5528C399.291 98.5528 395.507 102.705 389.543 103.245C381.72 103.954 368.543 102.275 368.543 102.275C368.543 102.275 378.282 95.0241 386.45 91.5118Z" fill="#F25B32"/>
                  <path d="M384.667 107.275C376.621 107.275 370.652 102.053 370.397 101.826C370.164 101.619 370.15 101.271 370.367 101.047C370.58 100.824 370.945 100.81 371.178 101.016C371.237 101.07 377.321 106.374 385.135 106.165C385.451 106.152 385.716 106.397 385.725 106.7C385.734 107.005 385.485 107.26 385.168 107.267C384.999 107.272 384.833 107.275 384.667 107.275Z" fill="#BA3C20"/>
                  <path d="M407.127 91.7455C407.127 91.7455 405.161 97.2035 399.292 98.5527C399.292 98.5527 400.584 103.687 406.517 102.904C412.451 102.122 415.773 98.863 415.773 98.863C415.773 98.863 411.809 91.763 407.127 91.7455Z" fill="#F25B32"/>
                  <path d="M398.923 192.116C399.146 192.117 399.332 191.95 399.343 191.735C401.276 154.615 390.677 98.8881 390.57 98.3299C390.529 98.1114 390.309 97.9672 390.082 98.0076C389.854 98.0469 389.704 98.2567 389.746 98.4752C389.853 99.0334 400.435 154.67 398.506 191.695C398.496 191.916 398.673 192.105 398.904 192.116H398.923Z" fill="white"/>
                  <path d="M424.773 189.708H424.787C425.018 189.702 425.2 189.517 425.196 189.296C423.965 144.456 408.287 98.6544 408.127 98.1977C408.055 97.9869 407.819 97.8722 407.598 97.9421C407.379 98.012 407.26 98.2404 407.333 98.4512C407.491 98.9068 423.131 144.6 424.357 189.316C424.363 189.535 424.548 189.707 424.773 189.708Z" fill="white"/>
                  <path d="M387.111 211.631C387.111 211.631 362.682 214.67 346.382 204.565C337.127 198.825 330.494 188.85 332.44 171.675C332.468 171.416 332.499 171.154 332.534 170.892C337.343 132.945 355.562 112.612 362.005 106.491C363.894 104.696 366.542 103.781 369.172 104.154C376.512 105.193 381.088 115.561 367.138 163.926C361.899 187.77 385.935 190.665 385.935 190.665L387.111 211.631Z" fill="#F25B32"/>
                  <path d="M366.418 169.392L366.185 169.347C365.79 169.207 365.589 168.787 365.735 168.409C365.844 168.125 376.669 139.866 377.466 124.745C377.488 124.342 377.837 124.041 378.264 124.052C378.684 124.073 379.008 124.416 378.987 124.819C378.178 140.163 367.273 168.629 367.163 168.915C367.045 169.219 366.739 169.404 366.418 169.392Z" fill="#BA3C20"/>
                  <path d="M376.492 136.762C376.356 136.757 376.219 136.716 376.097 136.637C375.748 136.412 375.656 135.958 375.891 135.624L380.624 128.879C380.859 128.543 381.332 128.455 381.68 128.681C382.03 128.906 382.122 129.36 381.887 129.696L377.154 136.44C377.001 136.658 376.746 136.772 376.492 136.762Z" fill="#BA3C20"/>
                  <path d="M381.901 212.991C381.605 212.98 381.331 212.802 381.22 212.52C378.692 206.138 380.067 188.441 380.127 187.692C380.159 187.289 380.528 186.988 380.944 187.019C381.364 187.049 381.677 187.4 381.645 187.803C381.631 187.983 380.236 205.923 382.643 212.001C382.792 212.378 382.594 212.8 382.201 212.944L381.901 212.991Z" fill="#BA3C20"/>
                  <path d="M387.844 211.445C387.739 211.053 387.32 210.823 386.915 210.924C386.808 210.953 376.677 213.457 365.431 210.622C364.907 210.489 364.417 210.912 364.493 211.428L364.495 211.443C364.538 211.728 364.756 211.963 365.046 212.037C368.501 212.914 371.831 213.306 374.815 213.42C381.861 213.691 386.986 212.419 387.305 212.339C387.714 212.235 387.954 211.834 387.844 211.445Z" fill="#BA3C20"/>
                  <path d="M381.204 188.496C380.894 188.484 380.575 188.462 380.246 188.429C376.996 188.102 372.316 186.549 368.486 181.002C368.251 180.666 368.348 180.212 368.698 179.989C369.049 179.766 369.522 179.858 369.753 180.194C376.436 189.869 385.836 186.452 385.929 186.417C386.32 186.268 386.762 186.453 386.916 186.829C387.071 187.204 386.88 187.628 386.488 187.777C386.389 187.814 384.237 188.612 381.204 188.496Z" fill="#BA3C20"/>
                  <path d="M346.382 204.565C337.127 198.825 330.494 188.85 332.44 171.675C338.815 179.015 348.983 192.93 346.382 204.565Z" fill="#BA3C20"/>
                  <path d="M505.331 163.064H481.889C480.746 163.064 479.821 162.176 479.821 161.079V138.577C479.821 137.48 480.746 136.59 481.889 136.59H505.331C506.473 136.59 507.399 137.48 507.399 138.577V161.079C507.399 162.176 506.473 163.064 505.331 163.064Z" fill="#647924"/>
                  <path d="M489.407 156.938L489.185 156.918C488.813 156.852 488.492 156.625 488.316 156.303L485.839 151.754C485.523 151.175 485.756 150.459 486.361 150.158C486.963 149.854 487.707 150.078 488.023 150.658L489.77 153.866L501.443 143.921C501.952 143.487 502.729 143.532 503.182 144.02C503.634 144.509 503.587 145.256 503.078 145.69L490.225 156.639C489.999 156.833 489.706 156.938 489.407 156.938Z" fill="white"/>
                  <path d="M484.339 162.874L485.305 168.856C485.467 169.863 486.858 170.111 487.387 169.228L491.205 162.844L484.339 162.874Z" fill="#647924"/>
                  </svg>