<svg width="340" height="470" viewBox="0 0 559 485" fill="none" xmlns="http://www.w3.org/2000/svg">
                  <g clip-path="url(#clip0_162_152)">
                  <path d="M264.501 485.308C118.518 485.308 0.175781 475.428 0.175781 463.241C0.175781 451.053 118.518 441.173 264.501 441.173C410.483 441.173 528.826 451.053 528.826 463.241C528.826 475.428 410.483 485.308 264.501 485.308Z" fill="#59ACE4"/>
                  <path d="M454.247 442.429C454.247 442.429 428.766 367.627 472.615 314.197C516.463 260.768 526.924 237.195 528.827 234.716C520.267 310.227 495.972 359.783 480.537 378.755C465.103 397.728 454.247 442.429 454.247 442.429Z" fill="#9FD737"/>
                  <path d="M454.246 442.429C454.246 442.429 439.325 382.427 483.173 328.997C527.022 275.569 526.923 237.195 528.826 234.716C520.266 310.227 495.971 359.783 480.537 378.755C465.102 397.728 454.246 442.429 454.246 442.429Z" fill="#88C426"/>
                  <path d="M457.054 446.749C457.054 446.749 452.734 382.567 498.445 349.761C544.154 316.957 557.337 300.616 559.355 299.065C536.755 356.651 507.236 390.52 491.111 402.196C474.985 413.873 457.054 446.749 457.054 446.749Z" fill="#9FD737"/>
                  <path d="M457.055 446.749C457.055 446.749 457.928 396.424 503.639 363.62C549.351 330.815 557.337 300.616 559.355 299.065C536.755 356.651 507.236 390.52 491.111 402.196C474.985 413.873 457.055 446.749 457.055 446.749Z" fill="#88C426"/>
                  <path d="M148.96 132.903C120.45 132.903 97.2572 156.096 97.2572 184.605C97.2572 213.115 120.45 236.308 148.96 236.308C177.468 236.308 200.662 213.115 200.662 184.605C200.662 156.096 177.468 132.903 148.96 132.903ZM148.96 237.735C119.664 237.735 95.8305 213.901 95.8305 184.605C95.8305 155.309 119.664 131.476 148.96 131.476C178.254 131.476 202.088 155.309 202.088 184.605C202.088 213.901 178.254 237.735 148.96 237.735ZM113.345 273.115L113.918 273.341C120.5 275.941 127.32 277.803 134.192 278.869L134.794 278.965V292.481C134.794 296.481 138.05 299.737 142.05 299.737H155.868C159.868 299.737 163.124 296.481 163.124 292.481V278.965L163.726 278.869C170.598 277.803 177.42 275.941 184.001 273.341L184.573 273.115L191.382 284.909C192.352 286.588 193.917 287.788 195.789 288.291C197.659 288.789 199.616 288.533 201.294 287.565L213.26 280.657C216.725 278.656 217.917 274.209 215.916 270.745L208.994 258.755L209.461 258.372C214.776 254.007 219.666 249 223.998 243.487L224.38 243.001L236.604 250.057C240.07 252.06 244.516 250.867 246.514 247.403L253.422 235.436C255.424 231.972 254.232 227.525 250.768 225.525L238.242 218.293L238.451 217.728C240.803 211.377 242.476 204.7 243.425 197.88L243.512 197.265H258.34C262.34 197.265 265.596 194.011 265.596 190.009V176.193C265.596 172.192 262.34 168.937 258.34 168.937H243.058L242.957 168.344C241.822 161.741 239.984 155.249 237.492 149.051L237.26 148.476L250.768 140.677C254.232 138.677 255.424 134.231 253.422 130.765L246.514 118.8C245.545 117.121 243.981 115.921 242.109 115.419C240.234 114.917 238.28 115.175 236.604 116.144L222.754 124.139L222.37 123.676C218.209 118.668 213.466 114.036 208.276 109.908L207.794 109.525L215.916 95.4573C217.917 91.992 216.725 87.5467 213.26 85.5454L201.294 78.6374C199.616 77.6667 197.659 77.4107 195.789 77.912C193.917 78.4147 192.352 79.6147 191.382 81.2934L183.162 95.5307L182.596 95.316C176.473 93.0094 170.124 91.3347 163.726 90.34L163.124 90.2467V73.7213C163.124 69.72 159.868 66.4653 155.868 66.4653H142.05C138.05 66.4653 134.794 69.72 134.794 73.7213V90.2467L134.192 90.34C127.794 91.3347 121.445 93.0094 115.322 95.316L114.756 95.5307L106.536 81.2934C105.566 79.6147 104.001 78.4147 102.13 77.912C100.256 77.4107 98.3025 77.6667 96.6238 78.6374L84.6585 85.5454C81.1945 87.5467 80.0012 91.992 82.0025 95.4573L90.1252 109.525L89.6438 109.909C84.4518 114.036 79.7091 118.668 75.5478 123.676L75.1638 124.139L61.3145 116.144C59.6361 115.175 57.6809 114.917 55.809 115.419C53.9372 115.921 52.373 117.121 51.4038 118.8L44.4954 130.765C42.4954 134.229 43.6866 138.677 47.1506 140.677L60.6585 148.476L60.4265 149.051C57.9361 155.247 56.097 161.739 54.9615 168.344L54.8599 168.937H39.5787C35.5777 168.937 32.3225 172.192 32.3225 176.193V190.009C32.3225 194.011 35.5777 197.265 39.5787 197.265H54.4069L54.4929 197.88C55.4429 204.7 57.1157 211.377 59.4678 217.728L59.6766 218.293L47.1506 225.525C43.6866 227.525 42.4954 231.972 44.4954 235.436L51.4038 247.403C52.373 249.08 53.9371 250.281 55.8095 250.783C57.6814 251.281 59.6361 251.027 61.3145 250.057L73.5385 243.001L73.9198 243.487C78.2518 249 83.1425 254.007 88.4572 258.372L88.9238 258.755L82.0025 270.745C80.0012 274.209 81.1945 278.656 84.6585 280.657L96.6238 287.565C98.3025 288.533 100.256 288.789 102.13 288.291C104.001 287.788 105.566 286.588 106.536 284.909L113.345 273.115ZM155.868 301.164H142.05C137.262 301.164 133.368 297.269 133.368 292.481V280.184C126.797 279.119 120.276 277.34 113.968 274.892L107.772 285.623C106.612 287.631 104.74 289.068 102.5 289.668C100.26 290.267 97.9198 289.96 95.9105 288.801L83.9451 281.893C79.7985 279.499 78.3731 274.179 80.7665 270.031L87.0852 259.088C82.0265 254.879 77.3545 250.095 73.1825 244.855L62.0292 251.293C60.02 252.453 57.6804 252.761 55.4402 252.161C53.2001 251.56 51.3277 250.124 50.1678 248.115L43.2595 236.149C40.8657 232.004 42.2924 226.684 46.4372 224.288L57.9225 217.659C55.7137 211.573 54.1157 205.197 53.1673 198.692H39.5787C34.7907 198.692 30.8965 194.797 30.8965 190.009V176.193C30.8965 171.405 34.7907 167.509 39.5787 167.509H53.6595C54.7823 161.213 56.535 155.024 58.8741 149.093L46.4372 141.913C42.2924 139.519 40.8657 134.197 43.2595 130.053L50.1678 118.087C51.3277 116.079 53.2001 114.641 55.4407 114.041C57.6809 113.44 60.0205 113.749 62.0292 114.909L74.8372 122.304C78.8372 117.551 83.3545 113.139 88.2758 109.176L80.7665 96.1707C78.3731 92.0254 79.7985 86.704 83.9451 84.3094L95.9105 77.4014C100.057 75.0094 105.378 76.4334 107.772 80.58L115.388 93.7707C121.233 91.6094 127.277 90.0147 133.368 89.0267V73.7213C133.368 68.9333 137.262 65.0387 142.05 65.0387H155.868C160.656 65.0387 164.55 68.9333 164.55 73.7213V89.0267C170.642 90.0147 176.685 91.6094 182.532 93.7707L190.146 80.58C191.306 78.572 193.18 77.1347 195.42 76.5334C197.658 75.932 200 76.2413 202.008 77.4014L213.973 84.3094C218.12 86.704 219.545 92.0254 217.152 96.1707L209.644 109.176C214.565 113.139 219.081 117.551 223.081 122.304L235.89 114.909C237.9 113.749 240.238 113.441 242.479 114.041C244.718 114.641 246.59 116.079 247.751 118.087L254.658 130.053C257.053 134.199 255.626 139.52 251.481 141.913L239.044 149.093C241.384 155.027 243.137 161.216 244.258 167.509H258.34C263.128 167.509 267.022 171.405 267.022 176.193V190.009C267.022 194.797 263.128 198.692 258.34 198.692H244.752C243.802 205.197 242.205 211.573 239.996 217.659L251.481 224.288C255.626 226.683 257.053 232.004 254.658 236.149L247.751 248.115C245.357 252.26 240.036 253.687 235.89 251.293L224.736 244.855C220.564 250.095 215.892 254.879 210.834 259.088L217.152 270.031C219.545 274.179 218.12 279.499 213.973 281.893L202.008 288.801C200 289.96 197.66 290.268 195.42 289.668C193.18 289.068 191.306 287.631 190.146 285.623L183.952 274.892C177.644 277.34 171.122 279.119 164.55 280.184V292.481C164.55 297.269 160.656 301.164 155.868 301.164Z" fill="white"/>
                  <path d="M416.731 140.788C401.199 140.788 388.564 153.424 388.564 168.956C388.564 184.487 401.199 197.123 416.731 197.123C432.263 197.123 444.897 184.487 444.897 168.956C444.897 153.424 432.263 140.788 416.731 140.788ZM416.731 198.549C400.415 198.549 387.139 185.273 387.139 168.956C387.139 152.637 400.415 139.361 416.731 139.361C433.048 139.361 446.324 152.637 446.324 168.956C446.324 185.273 433.048 198.549 416.731 198.549ZM396.971 217.323L397.541 217.549C401.147 218.973 404.883 219.993 408.644 220.577L409.248 220.671V228.393C409.248 230.421 410.897 232.071 412.924 232.071H420.537C422.565 232.071 424.215 230.421 424.215 228.393V220.671L424.819 220.577C428.581 219.993 432.315 218.973 435.92 217.549L436.493 217.323L440.383 224.061C441.397 225.815 443.644 226.421 445.408 225.407L452 221.601C452.851 221.109 453.46 220.316 453.713 219.367C453.968 218.419 453.836 217.427 453.347 216.577L449.395 209.735L449.863 209.352C452.776 206.959 455.455 204.217 457.824 201.2L458.207 200.713L465.181 204.741C466.94 205.757 469.191 205.151 470.205 203.395L474.012 196.803C474.503 195.951 474.633 194.96 474.38 194.011C474.125 193.063 473.517 192.269 472.665 191.779L465.529 187.659L465.739 187.093C467.027 183.62 467.943 179.964 468.464 176.225L468.549 175.611H476.997C479.027 175.611 480.676 173.961 480.676 171.933V164.32C480.676 162.292 479.027 160.641 476.997 160.641H468.309L468.205 160.051C467.584 156.429 466.579 152.875 465.213 149.484L464.981 148.911L472.665 144.475C473.516 143.984 474.125 143.191 474.38 142.241C474.633 141.292 474.503 140.301 474.012 139.451L470.205 132.859C469.713 132.007 468.92 131.399 467.972 131.144C467.023 130.889 466.031 131.021 465.181 131.512L457.316 136.053L456.932 135.589C454.653 132.844 452.056 130.307 449.213 128.049L448.733 127.667L453.347 119.676C453.836 118.825 453.968 117.833 453.713 116.885C453.46 115.937 452.852 115.144 452 114.653L445.408 110.845C443.653 109.833 441.397 110.437 440.383 112.192L435.717 120.272L435.151 120.059C431.8 118.795 428.324 117.879 424.819 117.333L424.215 117.24V107.86C424.215 105.832 422.565 104.181 420.537 104.181H412.924C410.897 104.181 409.248 105.832 409.248 107.86V117.24L408.644 117.333C405.139 117.879 401.663 118.795 398.311 120.059L397.744 120.272L393.08 112.192C392.587 111.341 391.796 110.733 390.847 110.479C389.895 110.225 388.907 110.355 388.056 110.845L381.463 114.653C380.612 115.144 380.003 115.937 379.749 116.885C379.495 117.833 379.625 118.825 380.116 119.676L384.731 127.667L384.249 128.049C381.405 130.309 378.807 132.847 376.529 135.589L376.144 136.053L368.281 131.512C366.524 130.496 364.271 131.1 363.256 132.859L359.451 139.451C358.437 141.207 359.041 143.46 360.797 144.475L368.48 148.911L368.249 149.484C366.884 152.877 365.877 156.433 365.255 160.049L365.153 160.641H356.465C354.436 160.641 352.787 162.292 352.787 164.32V171.933C352.787 173.961 354.436 175.611 356.465 175.611H364.915L364.999 176.225C365.52 179.959 366.436 183.616 367.723 187.095L367.932 187.659L360.797 191.779C359.041 192.792 358.437 195.045 359.451 196.803L363.256 203.395C364.271 205.151 366.524 205.753 368.281 204.741L375.256 200.713L375.639 201.2C378.011 204.219 380.689 206.961 383.599 209.352L384.067 209.735L380.116 216.577C379.103 218.333 379.705 220.587 381.463 221.601L388.056 225.407C388.907 225.899 389.897 226.028 390.847 225.775C391.796 225.52 392.587 224.912 393.08 224.061L396.971 217.323ZM420.537 233.497H412.924C410.111 233.497 407.821 231.208 407.821 228.393V221.889C404.36 221.309 400.923 220.372 397.592 219.099L394.313 224.775C393.633 225.955 392.532 226.8 391.215 227.152C389.896 227.505 388.521 227.324 387.343 226.643L380.751 222.836C378.312 221.429 377.473 218.301 378.881 215.863L382.228 210.067C379.572 207.833 377.112 205.315 374.903 202.565L368.995 205.977C366.556 207.385 363.428 206.544 362.021 204.108L358.215 197.515C356.808 195.079 357.645 191.949 360.084 190.543L366.18 187.024C365.032 183.812 364.192 180.457 363.676 177.037H356.465C353.649 177.037 351.361 174.748 351.361 171.933V164.32C351.361 161.505 353.649 159.216 356.465 159.216H363.955C364.561 155.908 365.483 152.655 366.697 149.528L360.084 145.711C357.645 144.303 356.808 141.175 358.215 138.737L362.021 132.144C362.703 130.964 363.804 130.119 365.121 129.767C366.437 129.413 367.813 129.595 368.995 130.276L375.819 134.217C377.935 131.729 380.305 129.413 382.881 127.317L378.881 120.389C378.197 119.208 378.017 117.833 378.371 116.516C378.724 115.199 379.568 114.099 380.751 113.417L387.343 109.611C388.523 108.928 389.9 108.748 391.215 109.101C392.532 109.453 393.633 110.299 394.313 111.479L398.375 118.513C401.451 117.393 404.623 116.557 407.821 116.021V107.86C407.821 105.045 410.111 102.755 412.924 102.755H420.537C423.352 102.755 425.641 105.045 425.641 107.86V116.021C428.843 116.557 432.013 117.393 435.087 118.512L439.148 111.479C440.555 109.041 443.687 108.203 446.121 109.611L452.713 113.417C453.893 114.099 454.74 115.199 455.092 116.516C455.444 117.833 455.263 119.208 454.581 120.389L450.583 127.317C453.153 129.411 455.525 131.727 457.643 134.217L464.469 130.276C465.649 129.596 467.028 129.416 468.341 129.767C469.657 130.119 470.759 130.964 471.44 132.144L475.247 138.737C475.928 139.917 476.111 141.293 475.757 142.611C475.405 143.928 474.56 145.028 473.379 145.711L466.765 149.528C467.977 152.652 468.9 155.905 469.508 159.216H476.997C479.811 159.216 482.103 161.505 482.103 164.32V171.933C482.103 174.748 479.811 177.037 476.997 177.037H469.788C469.271 180.463 468.429 183.815 467.283 187.024L473.379 190.543C474.56 191.224 475.405 192.325 475.757 193.641C476.111 194.96 475.928 196.335 475.247 197.515L471.44 204.108C470.033 206.545 466.909 207.384 464.469 205.977L458.561 202.565C456.353 205.313 453.892 207.833 451.235 210.067L454.581 215.863C455.263 217.044 455.444 218.419 455.092 219.736C454.74 221.055 453.893 222.155 452.713 222.836L446.121 226.643C443.689 228.048 440.556 227.215 439.148 224.775L435.871 219.099C432.54 220.372 429.104 221.309 425.641 221.889V228.393C425.641 231.208 423.352 233.497 420.537 233.497Z" fill="white"/>
                  <path d="M333.994 10.4693C330.522 10.4693 327.696 13.2946 327.696 16.7706C327.696 20.244 330.522 23.0706 333.994 23.0706C337.47 23.0706 340.297 20.244 340.297 16.7706C340.297 13.2946 337.47 10.4693 333.994 10.4693ZM333.994 24.4973C329.734 24.4973 326.268 21.0306 326.268 16.7706C326.268 12.5093 329.734 9.04132 333.994 9.04132C338.257 9.04132 341.724 12.5093 341.724 16.7706C341.724 21.0306 338.257 24.4973 333.994 24.4973Z" fill="white"/>
                  <path d="M383.808 112.772H382.381V80.3747C382.381 73.82 377.049 68.4867 370.493 68.4867H346.597C339.255 68.4867 333.281 62.5134 333.281 55.1707V23.784H334.707V55.1707C334.707 61.7267 340.04 67.06 346.597 67.06H370.493C377.836 67.06 383.808 73.0334 383.808 80.3747V112.772Z" fill="white"/>
                  <path d="M107.363 12.1173C103.89 12.1173 101.063 14.9453 101.063 18.42C101.063 21.8933 103.89 24.7214 107.363 24.7214C110.839 24.7214 113.666 21.8933 113.666 18.42C113.666 14.9453 110.839 12.1173 107.363 12.1173ZM107.363 26.148C103.103 26.148 99.6367 22.6813 99.6367 18.42C99.6367 14.1587 103.103 10.692 107.363 10.692C111.626 10.692 115.093 14.1587 115.093 18.42C115.093 22.6813 111.626 26.148 107.363 26.148Z" fill="white"/>
                  <path d="M160.475 36.1174C157 36.1174 154.173 38.9454 154.173 42.42C154.173 45.8934 157 48.7214 160.475 48.7214C163.949 48.7214 166.776 45.8934 166.776 42.42C166.776 38.9454 163.949 36.1174 160.475 36.1174ZM160.475 50.1481C156.213 50.1481 152.748 46.6814 152.748 42.42C152.748 38.1587 156.213 34.692 160.475 34.692C164.736 34.692 168.203 38.1587 168.203 42.42C168.203 46.6814 164.736 50.1481 160.475 50.1481Z" fill="white"/>
                  <path d="M279.671 1.45066C276.197 1.45066 273.37 4.27866 273.37 7.75333C273.37 11.2267 276.197 14.0547 279.671 14.0547C283.146 14.0547 285.973 11.2267 285.973 7.75333C285.973 4.27866 283.146 1.45066 279.671 1.45066ZM279.671 15.4813C275.41 15.4813 271.943 12.0147 271.943 7.75333C271.943 3.49199 275.41 0.0253325 279.671 0.0253325C283.933 0.0253325 287.399 3.49199 287.399 7.75333C287.399 12.0147 283.933 15.4813 279.671 15.4813Z" fill="white"/>
                  <path d="M315.33 99.3347C312.764 99.3347 310.676 101.423 310.676 103.991C310.676 106.556 312.764 108.645 315.33 108.645C317.897 108.645 319.985 106.556 319.985 103.991C319.985 101.423 317.897 99.3347 315.33 99.3347ZM315.33 109.699C312.182 109.699 309.621 107.139 309.621 103.991C309.621 100.843 312.182 98.2814 315.33 98.2814C318.477 98.2814 321.04 100.843 321.04 103.991C321.04 107.139 318.477 109.699 315.33 109.699Z" fill="white"/>
                  <path d="M7.47525 78.4507C4.00125 78.4507 1.17472 81.2773 1.17472 84.7533C1.17472 88.2267 4.00125 91.0547 7.47525 91.0547C10.9497 91.0547 13.7767 88.2267 13.7767 84.7533C13.7767 81.2773 10.9497 78.4507 7.47525 78.4507ZM7.47525 92.48C3.21432 92.48 -0.251953 89.0147 -0.251953 84.7533C-0.251953 80.492 3.21432 77.0254 7.47525 77.0254C11.7367 77.0254 15.2038 80.492 15.2038 84.7533C15.2038 89.0147 11.7367 92.48 7.47525 92.48Z" fill="white"/>
                  <path d="M524.958 88.7253C521.484 88.7253 518.657 91.5533 518.657 95.028C518.657 98.5013 521.484 101.329 524.958 101.329C528.433 101.329 531.26 98.5013 531.26 95.028C531.26 91.5533 528.433 88.7253 524.958 88.7253ZM524.958 102.755C520.697 102.755 517.23 99.2893 517.23 95.028C517.23 90.7666 520.697 87.3 524.958 87.3C529.22 87.3 532.686 90.7666 532.686 95.028C532.686 99.2893 529.22 102.755 524.958 102.755Z" fill="white"/>
                  <path d="M502.126 151.051C498.652 151.051 495.825 153.877 495.825 157.352C495.825 160.825 498.652 163.652 502.126 163.652C505.601 163.652 508.428 160.825 508.428 157.352C508.428 153.877 505.601 151.051 502.126 151.051ZM502.126 165.08C497.865 165.08 494.398 161.612 494.398 157.352C494.398 153.091 497.865 149.624 502.126 149.624C506.388 149.624 509.854 153.091 509.854 157.352C509.854 161.612 506.388 165.08 502.126 165.08Z" fill="white"/>
                  <path d="M22.9309 147.577C20.8121 147.577 19.0871 149.301 19.0871 151.421C19.0871 153.54 20.8121 155.265 22.9309 155.265C25.0507 155.265 26.7757 153.54 26.7757 151.421C26.7757 149.301 25.0507 147.577 22.9309 147.577ZM22.9309 156.136C20.3313 156.136 18.2168 154.021 18.2168 151.421C18.2168 148.821 20.3313 146.707 22.9309 146.707C25.5309 146.707 27.646 148.821 27.646 151.421C27.646 154.021 25.5309 156.136 22.9309 156.136Z" fill="white"/>
                  <path d="M58.9778 114.421H57.5508V82.024C57.5508 74.6827 63.524 68.7094 70.8666 68.7094H94.7626C101.319 68.7094 106.652 63.376 106.652 56.82V25.4333H108.079V56.82C108.079 64.1627 102.105 70.136 94.7626 70.136H70.8666C64.3107 70.136 58.9778 75.4693 58.9778 82.024V114.421Z" fill="white"/>
                  <path d="M244.787 42.7387C241.312 42.7387 238.485 45.5653 238.485 49.04C238.485 52.5133 241.312 55.34 244.787 55.34C248.261 55.34 251.088 52.5133 251.088 49.04C251.088 45.5653 248.261 42.7387 244.787 42.7387ZM244.787 56.768C240.527 56.768 237.059 53.3 237.059 49.04C237.059 44.7787 240.527 41.312 244.787 41.312C249.049 41.312 252.515 44.7787 252.515 49.04C252.515 53.3 249.049 56.768 244.787 56.768Z" fill="white"/>
                  <path d="M232.185 100.756H213.859V99.3293H232.185C238.741 99.3293 244.074 93.996 244.074 87.4413V56.0546H245.501V87.4413C245.501 94.7827 239.527 100.756 232.185 100.756Z" fill="white"/>
                  <path d="M439.847 428.119H80.3286C75.2073 428.119 71.0566 423.968 71.0566 418.845V196.411C71.0566 191.288 75.2073 187.137 80.3286 187.137H439.847C444.97 187.137 449.121 191.288 449.121 196.411V418.845C449.121 423.968 444.97 428.119 439.847 428.119Z" fill="#2B3183"/>
                  <path d="M444.841 406.709H75.3359V204.971H444.841V406.709Z" fill="#D3F1F8"/>
                  <path d="M263.853 204.971H75.3359V406.709H263.853V204.971Z" fill="#FEF6F9"/>
                  <path d="M215.683 244.889H96.5566V242.036H215.683V244.889Z" fill="#D3EDEC"/>
                  <path d="M241.43 255.521H96.5566V252.373H241.43V255.521Z" fill="#D3EDEC"/>
                  <path d="M191.906 262.86H96.5566V266.007H191.906V262.86Z" fill="#D3EDEC"/>
                  <path d="M204.033 262.86V266.007H241.431V262.86H204.033Z" fill="#D3EDEC"/>
                  <path d="M241.43 276.491H96.5566V273.344H241.43V276.491Z" fill="#D3EDEC"/>
                  <path d="M241.43 286.976H96.5566V283.829H241.43V286.976Z" fill="#D3EDEC"/>
                  <path d="M132.463 294.313V297.461H241.431V294.313H132.463Z" fill="#D3EDEC"/>
                  <path d="M121.525 294.313H96.5566V297.461H121.525V294.313Z" fill="#D3EDEC"/>
                  <path d="M215.683 319.028H96.5566V316.176H215.683V319.028Z" fill="#D3EDEC"/>
                  <path d="M241.43 329.66H96.5566V326.513H241.43V329.66Z" fill="#D3EDEC"/>
                  <path d="M203.557 336.999V340.145H241.43V336.999H203.557Z" fill="#D3EDEC"/>
                  <path d="M119.146 336.999H96.5566V340.145H119.146V336.999Z" fill="#D3EDEC"/>
                  <path d="M131.986 336.999V340.145H190.48V336.999H131.986Z" fill="#D3EDEC"/>
                  <path d="M241.43 350.631H96.5566V347.483H241.43V350.631Z" fill="#D3EDEC"/>
                  <path d="M216.635 357.969H96.5566V361.116H216.635V357.969Z" fill="#D3EDEC"/>
                  <path d="M227.334 357.969V361.116H241.43V357.969H227.334Z" fill="#D3EDEC"/>
                  <path d="M241.43 371.601H96.5566V368.453H241.43V371.601Z" fill="#D3EDEC"/>
                  <path d="M397.822 319.028H278.695V316.176H397.822V319.028Z" fill="#D3EDEC"/>
                  <path d="M328.152 326.513V329.66H423.57V326.513H328.152Z" fill="#D3EDEC"/>
                  <path d="M315.074 326.513H278.695V329.66H315.074V326.513Z" fill="#D3EDEC"/>
                  <path d="M423.569 340.145H278.695V336.999H423.569V340.145Z" fill="#D3EDEC"/>
                  <path d="M344.321 347.483H278.695V350.631H344.321V347.483Z" fill="#D3EDEC"/>
                  <path d="M356.922 347.483V350.631H423.569V347.483H356.922Z" fill="#D3EDEC"/>
                  <path d="M423.569 361.116H278.695V357.969H423.569V361.116Z" fill="#D3EDEC"/>
                  <path d="M322.445 368.453V371.601H423.569V368.453H322.445Z" fill="#D3EDEC"/>
                  <path d="M310.318 368.453H278.695V371.601H310.318V368.453Z" fill="#D3EDEC"/>
                  <path d="M475.791 460.028H44.3874C31.1451 460.028 20.4102 449.293 20.4102 436.051V426.531H499.768V436.051C499.768 449.293 489.032 460.028 475.791 460.028Z" fill="#2B3183"/>
                  <path d="M499.705 437.277C499.727 436.868 499.768 436.465 499.768 436.051V426.531H20.4102V436.051C20.4102 436.465 20.4514 436.868 20.4722 437.277H499.705Z" fill="#2D3A99"/>
                  <path d="M47.8717 445.808C47.8717 448.271 45.8753 450.265 43.4135 450.265C40.9509 450.265 38.9551 448.271 38.9551 445.808C38.9551 443.345 40.9509 441.351 43.4135 441.351C45.8753 441.351 47.8717 443.345 47.8717 445.808Z" fill="#100F0D"/>
                  <path d="M63.7456 445.808C63.7456 448.271 61.7496 450.265 59.2871 450.265C56.8245 450.265 54.8281 448.271 54.8281 445.808C54.8281 443.345 56.8245 441.351 59.2871 441.351C61.7496 441.351 63.7456 443.345 63.7456 445.808Z" fill="#100F0D"/>
                  <path d="M476.288 448.692H453.461V442.033H476.288V448.692Z" fill="#100F0D"/>
                  <path d="M141.606 472.34C140.558 472.34 139.709 471.491 139.709 470.443V174.355C139.709 173.307 140.558 172.457 141.606 172.457C142.654 172.457 143.504 173.307 143.504 174.355V470.443C143.504 471.491 142.654 472.34 141.606 472.34Z" fill="#F25056"/>
                  <path d="M184.964 472.34C183.916 472.34 183.066 471.491 183.066 470.443V174.355C183.066 173.307 183.916 172.457 184.964 172.457C186.012 172.457 186.862 173.307 186.862 174.355V470.443C186.862 471.491 186.012 472.34 184.964 472.34Z" fill="#F25056"/>
                  <path d="M184.964 198.239H141.606C140.558 198.239 139.709 197.388 139.709 196.34C139.709 195.292 140.558 194.443 141.606 194.443H184.964C186.012 194.443 186.862 195.292 186.862 196.34C186.862 197.388 186.012 198.239 184.964 198.239Z" fill="#F25056"/>
                  <path d="M184.964 226.391H141.606C140.558 226.391 139.709 225.541 139.709 224.493C139.709 223.445 140.558 222.596 141.606 222.596H184.964C186.012 222.596 186.862 223.445 186.862 224.493C186.862 225.541 186.012 226.391 184.964 226.391Z" fill="#F25056"/>
                  <path d="M184.964 254.545H141.606C140.558 254.545 139.709 253.695 139.709 252.647C139.709 251.599 140.558 250.749 141.606 250.749H184.964C186.012 250.749 186.862 251.599 186.862 252.647C186.862 253.695 186.012 254.545 184.964 254.545Z" fill="#F25056"/>
                  <path d="M184.964 282.699H141.606C140.558 282.699 139.709 281.849 139.709 280.801C139.709 279.752 140.558 278.903 141.606 278.903H184.964C186.012 278.903 186.862 279.752 186.862 280.801C186.862 281.849 186.012 282.699 184.964 282.699Z" fill="#F25056"/>
                  <path d="M184.964 310.852H141.606C140.558 310.852 139.709 310.003 139.709 308.955C139.709 307.907 140.558 307.056 141.606 307.056H184.964C186.012 307.056 186.862 307.907 186.862 308.955C186.862 310.003 186.012 310.852 184.964 310.852Z" fill="#F25056"/>
                  <path d="M184.964 339.007H141.606C140.558 339.007 139.709 338.156 139.709 337.108C139.709 336.06 140.558 335.209 141.606 335.209H184.964C186.012 335.209 186.862 336.06 186.862 337.108C186.862 338.156 186.012 339.007 184.964 339.007Z" fill="#F25056"/>
                  <path d="M184.964 367.159H141.606C140.558 367.159 139.709 366.308 139.709 365.26C139.709 364.212 140.558 363.363 141.606 363.363H184.964C186.012 363.363 186.862 364.212 186.862 365.26C186.862 366.308 186.012 367.159 184.964 367.159Z" fill="#F25056"/>
                  <path d="M184.964 395.312H141.606C140.558 395.312 139.709 394.464 139.709 393.416C139.709 392.367 140.558 391.517 141.606 391.517H184.964C186.012 391.517 186.862 392.367 186.862 393.416C186.862 394.464 186.012 395.312 184.964 395.312Z" fill="#F25056"/>
                  <path d="M184.964 423.467H141.606C140.558 423.467 139.709 422.617 139.709 421.569C139.709 420.521 140.558 419.671 141.606 419.671H184.964C186.012 419.671 186.862 420.521 186.862 421.569C186.862 422.617 186.012 423.467 184.964 423.467Z" fill="#F25056"/>
                  <path d="M184.964 451.62H141.606C140.558 451.62 139.709 450.769 139.709 449.721C139.709 448.673 140.558 447.824 141.606 447.824H184.964C186.012 447.824 186.862 448.673 186.862 449.721C186.862 450.769 186.012 451.62 184.964 451.62Z" fill="#F25056"/>
                  <path d="M277.453 234.348L276.563 239.469C276.563 239.469 270.278 236.28 270.031 235.36C270.706 233.949 271.043 232.784 271.043 232.784L277.453 234.348Z" fill="#F79778"/>
                  <path d="M270.217 243.424C270.217 243.424 281.255 251.909 283.708 253.727C286.161 255.543 290.332 250.169 286.161 246.601C281.991 243.033 279.045 238.519 279.168 236.433C278.384 234.204 275.919 236.679 275.183 237.047C274.445 237.415 271.137 236.004 270.831 233.244C268.132 235.207 266.416 239.439 266.416 239.439C266.416 239.439 266.416 240.5 270.217 243.424Z" fill="#F25056"/>
                  <path d="M285.712 252.643C283.259 250.827 270.912 241.38 270.912 241.38C268.857 239.695 267.696 238.212 267.288 237.648C266.727 238.673 266.416 239.439 266.416 239.439C266.416 239.439 266.416 240.5 270.217 243.424C270.217 243.424 281.255 251.909 283.708 253.727C284.725 254.48 286.032 253.987 286.923 252.909C286.529 253.003 286.116 252.943 285.712 252.643Z" fill="#E1E0DE"/>
                  <path d="M249.861 234.348L250.751 239.469C250.751 239.469 257.036 236.28 257.281 235.36C256.607 233.949 256.269 232.784 256.269 232.784L249.861 234.348Z" fill="#F79778"/>
                  <path d="M257.099 243.424C257.099 243.424 246.06 251.909 243.608 253.727C241.155 255.543 236.984 250.169 241.155 246.601C245.324 243.033 248.271 238.519 248.148 236.433C248.932 234.204 251.399 236.679 252.135 237.047C252.869 237.415 256.179 236.004 256.485 233.244C259.184 235.207 260.901 239.439 260.901 239.439C260.901 239.439 260.901 240.5 257.099 243.424Z" fill="#F25056"/>
                  <path d="M241.603 252.643C244.057 250.827 256.403 241.38 256.403 241.38C258.458 239.695 259.618 238.212 260.027 237.648C260.589 238.673 260.901 239.439 260.901 239.439C260.901 239.439 260.901 240.5 257.098 243.424C257.098 243.424 246.059 251.909 243.607 253.727C242.589 254.48 241.283 253.987 240.393 252.909C240.786 253.003 241.199 252.943 241.603 252.643Z" fill="#E1E0DE"/>
                  <path d="M290.699 185.044C288.349 179.484 277.696 179.572 277.696 179.572L263.819 180.225C263.819 180.225 263.772 180.461 263.705 180.848C263.64 180.461 263.593 180.225 263.593 180.225L249.717 179.572C249.717 179.572 238.491 179.32 236.14 184.88C233.791 190.44 248.269 233.7 249.717 235.008C254.927 234.028 256.725 233.373 256.725 233.373C256.725 233.373 251.165 201.131 248.385 193.444C251.165 189.193 262.285 189.74 263.593 189.315L263.705 189.237L263.819 189.315C265.127 189.74 276.507 188.795 279.288 193.047C276.507 200.733 270.688 233.373 270.688 233.373C270.688 233.373 272.485 234.028 277.696 235.008C279.143 233.7 293.049 190.604 290.699 185.044Z" fill="#242963"/>
                  <path d="M244.661 143.805C244.661 143.805 237.545 158.729 242.534 170.504C247.525 182.28 252.608 183.101 252.608 183.101L254.27 172.832C254.27 172.832 242.812 166.671 251.313 149.967C250.112 143.531 244.661 143.805 244.661 143.805Z" fill="#F79778"/>
                  <path d="M282.527 143.805C282.527 143.805 289.64 158.729 284.651 170.504C279.661 182.28 274.58 183.101 274.58 183.101L272.916 172.832C272.916 172.832 284.373 166.671 275.872 149.967C277.075 143.531 282.527 143.805 282.527 143.805Z" fill="#F79778"/>
                  <path d="M240.912 148.072C240.912 148.072 247.493 149.604 250.253 153.557C253.264 141.059 259.233 131.323 259.233 131.323C259.233 131.323 248.457 131.432 245.476 139.427C243.585 144.495 240.912 148.072 240.912 148.072Z" fill="#F25056"/>
                  <path d="M285.694 148.072C285.694 148.072 279.111 149.604 276.352 153.557C273.342 141.059 267.371 131.323 267.371 131.323C267.371 131.323 276.296 130.348 280.472 137.789C283.922 143.935 285.694 148.072 285.694 148.072Z" fill="#F25056"/>
                  <path d="M263.254 130.8C263.254 130.8 252.309 129.397 250.301 136.625C248.293 143.853 252.109 168.127 252.109 168.127H274.001C274.001 168.127 279.022 146.659 276.913 136.409C275.807 130.8 267.074 130.843 263.254 130.8Z" fill="#F25056"/>
                  <path d="M259.885 124.691C259.885 124.691 260.501 128.352 259.664 131.281C259.144 132.941 258.58 136.264 263.562 136.295C267.549 136.32 268.288 134.775 268.368 132.777C268.374 132.587 267.913 131.253 267.741 130.604C267.085 128.131 267.45 125.855 267.372 124.592C265.266 124.468 259.885 124.691 259.885 124.691Z" fill="#F9A7A9"/>
                  <path d="M271.021 118.639C271.021 123.575 267.762 127.577 263.745 127.577C259.726 127.577 256.469 123.575 256.469 118.639C256.469 113.701 259.726 109.699 263.745 109.699C267.762 109.699 271.021 113.701 271.021 118.639Z" fill="#F9A7A9"/>
                  <path d="M270.563 118.223C270.563 118.223 271.311 116.851 272.392 117.64C273.472 118.431 271.951 121.583 271.269 121.632C270.587 121.68 270.229 120.576 270.271 120.313C270.312 120.052 270.563 118.223 270.563 118.223Z" fill="#F9A7A9"/>
                  <path d="M257.011 118.223C257.011 118.223 256.261 116.851 255.181 117.64C254.1 118.431 255.621 121.583 256.304 121.632C256.985 121.68 257.343 120.576 257.301 120.313C257.26 120.052 257.011 118.223 257.011 118.223Z" fill="#F9A7A9"/>
                  <path d="M267.257 118.617C267.257 118.944 267.049 119.209 266.79 119.209C266.532 119.209 266.322 118.944 266.322 118.617C266.322 118.291 266.532 118.025 266.79 118.025C267.049 118.025 267.257 118.291 267.257 118.617Z" fill="#242963"/>
                  <path d="M266.916 118.855L266.754 119.047L266.596 118.855L266.754 118.664L266.916 118.855Z" fill="white"/>
                  <path d="M268.472 117.9C268.472 117.9 267.726 116.777 266.664 116.575C265.604 116.372 265.574 117.229 265.964 117.324C266.354 117.417 267.616 117.464 268.472 117.9Z" fill="#242963"/>
                  <path d="M260.535 118.617C260.535 118.944 260.744 119.209 261.002 119.209C261.26 119.209 261.471 118.944 261.471 118.617C261.471 118.291 261.26 118.025 261.002 118.025C260.744 118.025 260.535 118.291 260.535 118.617Z" fill="#242963"/>
                  <path d="M260.879 118.855L261.039 119.047L261.199 118.855L261.039 118.664L260.879 118.855Z" fill="white"/>
                  <path d="M259.32 117.9C259.32 117.9 260.068 116.777 261.128 116.575C262.19 116.372 262.22 117.229 261.83 117.324C261.44 117.417 260.178 117.464 259.32 117.9Z" fill="#242963"/>
                  <path d="M270.049 117.495C270.009 117.951 269.959 118.404 269.972 118.861C269.997 119.667 270.004 120.677 269.939 121.008C269.72 122.111 268.708 124.417 266.753 123.419C264.8 122.421 261.332 122.728 259.627 123.309C257.921 123.892 258.131 121.283 257.799 120.313C257.465 119.345 257.716 118.845 257.799 118.223C257.877 117.631 258.879 116.84 258.876 115.131C260.759 115.555 265.535 116.257 267.949 113.232C267.949 113.232 268.067 115.515 269.904 116.735L270.024 116.896C270.056 117.081 270.069 117.279 270.049 117.495ZM271.253 112.08C270.509 110.499 269.927 110.476 269.927 110.476C269.927 110.476 269.927 106.001 264.6 106.748C260.691 107.743 260.599 109.324 256.736 110.363C255.759 110.68 255.061 110.611 255.061 110.611C255.061 110.611 255.596 111.537 256.945 112.193C255.921 112.487 254.805 111.425 254.805 111.425C254.805 111.425 254.735 112.871 256.131 113.865C255.921 114.815 255.861 115.684 256.055 117.42C256.055 117.42 256.757 118.619 256.925 119.836C257.092 121.055 256.801 122.089 257.051 123.503C257.3 124.916 259.072 127.957 259.96 128.783C261.707 130.404 264.139 130.5 266.509 129.833C268.879 129.169 270.023 125.083 270.479 124.043C270.936 123.004 270.604 120.389 270.811 119.515C271.02 118.639 271.185 118.148 271.519 117.395C271.519 117.395 272.301 115.267 271.253 112.08Z" fill="#242963"/>
                  <path d="M261.021 124.075C261.021 124.075 265.324 124.417 266.664 124.075C265.168 126.101 262.767 127.099 261.021 124.075Z" fill="white"/>
                  <path d="M300.688 183.101H227.017C222.455 183.101 218.758 179.404 218.758 174.843V143.608C218.758 139.048 222.455 135.349 227.017 135.349H300.688C305.248 135.349 308.946 139.048 308.946 143.608V174.843C308.946 179.404 305.248 183.101 300.688 183.101Z" fill="#9985CA"/>
                  <path d="M235.3 169.3C234.117 169.3 233.025 169.083 232.025 168.65C231.042 168.2 230.233 167.567 229.6 166.75L231.85 164.05C232.333 164.683 232.842 165.167 233.375 165.5C233.908 165.817 234.483 165.975 235.1 165.975C236.75 165.975 237.575 165.008 237.575 163.075V154.75H231.425V151.5H241.6V162.85C241.6 165.017 241.067 166.633 240 167.7C238.933 168.767 237.367 169.3 235.3 169.3ZM242.934 169L250.734 151.5H254.734L262.559 169H258.309L251.909 153.55H253.509L247.084 169H242.934ZM246.834 165.25L247.909 162.175H256.909L258.009 165.25H246.834ZM268.673 169L261.123 151.5H265.498L272.098 167H269.523L276.223 151.5H280.248L272.673 169H268.673ZM278.823 169L286.623 151.5H290.623L298.448 169H294.198L287.798 153.55H289.398L282.973 169H278.823ZM282.723 165.25L283.798 162.175H292.798L293.898 165.25H282.723Z" fill="white"/>
                  <path d="M420.831 70.3435C418.671 70.3435 416.658 69.9969 414.791 69.3035C412.951 68.5835 411.351 67.5702 409.991 66.2635C408.631 64.9569 407.565 63.4235 406.791 61.6635C406.045 59.9035 405.671 57.9702 405.671 55.8635C405.671 53.7569 406.045 51.8235 406.791 50.0635C407.565 48.3035 408.631 46.7702 409.991 45.4635C411.378 44.1569 412.991 43.1569 414.831 42.4635C416.671 41.7435 418.685 41.3835 420.871 41.3835C423.298 41.3835 425.485 41.8102 427.431 42.6635C429.405 43.4902 431.058 44.7169 432.391 46.3435L428.231 50.1835C427.271 49.0902 426.205 48.2769 425.031 47.7435C423.858 47.1835 422.578 46.9035 421.191 46.9035C419.885 46.9035 418.685 47.1169 417.591 47.5435C416.498 47.9702 415.551 48.5835 414.751 49.3835C413.951 50.1835 413.325 51.1302 412.871 52.2235C412.445 53.3169 412.231 54.5302 412.231 55.8635C412.231 57.1969 412.445 58.4102 412.871 59.5035C413.325 60.5969 413.951 61.5435 414.751 62.3435C415.551 63.1435 416.498 63.7569 417.591 64.1835C418.685 64.6102 419.885 64.8235 421.191 64.8235C422.578 64.8235 423.858 64.5569 425.031 64.0235C426.205 63.4635 427.271 62.6235 428.231 61.5035L432.391 65.3435C431.058 66.9702 429.405 68.2102 427.431 69.0635C425.485 69.9169 423.285 70.3435 420.831 70.3435ZM442.691 65.1035V46.6235H447.851V65.1035H442.691ZM435.771 58.3035V53.4235H454.811V58.3035H435.771ZM466.793 65.1035V46.6235H471.953V65.1035H466.793ZM459.873 58.3035V53.4235H478.913V58.3035H459.873Z" fill="white"/>
                  <path d="M308.946 156.404C308.946 156.404 312.408 159.871 312.326 163.452C312.244 167.033 307.992 169.229 306.522 168.127C305.048 167.023 304.438 164.031 306.684 162.409C308.332 161.219 308.707 160.881 308.707 160.881L308.946 156.404Z" fill="#F9A7A9"/>
                  <path d="M218.754 156.404C218.754 156.404 215.292 159.871 215.375 163.452C215.456 167.033 219.708 169.229 221.18 168.127C222.652 167.023 223.263 164.031 221.016 162.409C219.368 161.219 218.992 160.881 218.992 160.881L218.754 156.404Z" fill="#F9A7A9"/>
                  <path d="M420.752 273.537H340.448C335.475 273.537 331.445 269.508 331.445 264.536V230.489C331.445 225.517 335.475 221.487 340.448 221.487H420.752C425.724 221.487 429.755 225.517 429.755 230.489V264.536C429.755 269.508 425.724 273.537 420.752 273.537Z" fill="#F25056"/>
                  <path d="M359.52 235.932H363.57V253.432H359.52V235.932ZM351.57 253.432H347.52V235.932H351.57V253.432ZM359.82 246.257H351.27V242.832H359.82V246.257ZM371.336 253.432V239.232H365.736V235.932H380.986V239.232H375.386V253.432H371.336ZM383.165 253.432V235.932H386.515L393.965 248.282H392.19L399.515 235.932H402.84L402.89 253.432H399.09L399.065 241.757H399.765L393.915 251.582H392.09L386.115 241.757H386.965V253.432H383.165ZM407.042 253.432V235.932H411.092V250.132H419.867V253.432H407.042Z" fill="white"/>
                  <path d="M282.062 282.14C282.062 282.14 283.173 280.236 283.173 276.664C287.936 276.267 291.586 276.188 291.586 276.188C291.586 276.188 291.032 280.315 293.731 282.537C288.413 284.999 282.062 282.14 282.062 282.14Z" fill="#F79778"/>
                  <path d="M290.24 258.168C290.24 258.168 292.383 259.121 293.256 261.82C294.129 264.519 293.652 265.392 293.732 265.789C293.811 266.187 295.32 269.44 295.32 269.44L294.208 270.155C294.208 270.155 293.811 273.171 293.732 274.044C293.652 274.917 292.621 273.091 291.588 276.188C288.415 278.887 283.175 276.664 283.175 276.664C283.175 276.664 280.872 270.948 280.159 265.868C279.444 260.788 284.763 254.835 290.24 258.168Z" fill="#F79778"/>
                  <path d="M280.833 258.427C280.833 258.427 282.976 254.081 289.883 255.331C296.788 256.581 299.051 255.381 299.229 257.201C299.408 259.023 295.776 259.856 295.776 259.856C296.609 261.523 293.455 264.201 292.443 264.141C292.027 265.273 291.788 265.392 291.668 266.464C291.549 267.535 291.967 268.905 291.967 268.905H290.954C290.954 268.905 290.24 266.107 288.929 266.94C287.62 267.773 288.573 270.213 288.633 271.524C288.692 272.833 287.784 275.372 285.476 276.188C283.171 277.003 280.476 276.347 278.928 273.132C277.38 269.917 274.939 260.569 280.833 258.427Z" fill="#30231B"/>
                  <path d="M294.336 416.623L294.687 421.344H298.771V416.048L294.336 416.623Z" fill="#FBC187"/>
                  <path d="M293.879 418.696C293.879 418.696 293.783 425.217 293.879 426.429C297.835 426.493 303.832 426.621 304.024 426.429C304.215 426.239 304.567 421.413 301.216 422.032C299.429 422.079 299.349 418.696 299.349 418.696H293.879Z" fill="#F25056"/>
                  <path d="M293.836 424.467C293.84 425.357 293.852 426.096 293.877 426.429C297.833 426.493 303.831 426.621 304.023 426.429C304.103 426.349 304.209 425.441 304.056 424.467H293.836Z" fill="#F5F6F6"/>
                  <path d="M281.461 416.623L281.11 421.344H277.027V416.048L281.461 416.623Z" fill="#FBC187"/>
                  <path d="M281.919 418.696C281.919 418.696 282.015 425.217 281.919 426.429C277.963 426.493 271.966 426.621 271.774 426.429C271.583 426.239 271.232 421.413 274.582 422.032C276.367 422.079 276.45 418.696 276.45 418.696H281.919Z" fill="#F25056"/>
                  <path d="M271.731 424.527C271.591 425.477 271.694 426.351 271.773 426.429C271.965 426.621 277.962 426.493 281.918 426.429C281.943 426.104 281.955 425.389 281.959 424.527H271.731Z" fill="#F5F6F6"/>
                  <path d="M301.951 368.928C301.759 350.361 300.081 328.425 300.081 328.425H288.027L276.021 329.759C276.021 329.759 274.292 350.361 274.1 368.928C273.909 387.496 275.728 417.388 275.728 417.388H282.523C282.523 417.388 285.584 389.219 285.011 376.681C284.436 364.143 288.027 347.184 288.027 347.184C288.027 347.184 291.615 364.143 291.04 376.681C290.467 389.219 293.528 417.388 293.528 417.388H300.324C300.324 417.388 302.141 387.496 301.951 368.928Z" fill="#242963"/>
                  <path d="M261.074 317.581C261.074 317.581 272.741 303.324 285.585 297.213C288.03 297.951 288.958 301.219 288.65 301.601C288.342 301.983 272.886 317.639 272.886 317.639C272.886 317.639 265.161 323.293 261.074 317.581Z" fill="#F03C44"/>
                  <path d="M281.948 281.707C281.948 281.707 289.317 282.376 292.86 281.707C297.74 283.141 304.884 282.895 304.884 282.895C304.884 282.895 303.911 296.361 304.005 297.799C302.379 302.009 301.376 320.195 302.141 324.407C302.908 328.617 299.463 330.723 296.591 331.488C293.72 332.253 276.685 331.871 275.536 331.488C274.388 331.105 272.472 324.407 272.857 315.601C273.24 306.796 271.865 300.043 271.865 300.043C271.865 300.043 272.569 287.257 272.283 285.248C278.503 282.951 281.948 281.707 281.948 281.707Z" fill="#F25056"/>
                  <path d="M272.284 285.248C272.284 285.248 262.193 309.429 260.949 314.051C259.281 320.243 266.585 321.197 268.172 318.739C269.76 316.277 272.69 306.524 272.69 306.524C272.69 306.524 276.394 288.515 272.284 285.248Z" fill="#F25056"/>
                  <path d="M351.131 279.709C351.131 279.709 352.56 278.639 353.334 277.031C354.108 275.423 354.599 273.519 354.599 273.519C354.599 273.519 357.278 273.537 358.796 273.537C360.49 273.537 364.348 269.292 366.134 269.947C367.919 270.601 366.252 274.708 362.918 277.745C359.584 280.781 354.942 283.461 354.942 283.461L351.131 279.709Z" fill="#F79778"/>
                  <path d="M304.884 282.895C304.884 282.895 325.212 293.92 329.101 292.175C332.992 290.428 350.239 279.412 350.239 279.412C350.239 279.412 354.167 279.769 356.429 283.791C343.451 304.707 338.212 304.587 332.972 307.088C327.735 309.588 309.307 301.209 303.244 298.417C299.716 290.72 304.884 282.895 304.884 282.895Z" fill="#F25056"/>
                  <path d="M134.925 151.421C134.925 151.421 131.865 136.505 135.3 132.543C138.735 128.58 142.647 135.427 143.78 138.22C144.916 141.012 146.829 149.312 146.829 149.312L134.925 151.421Z" fill="#9FD737"/>
                  <path d="M171.434 227.197C171.434 227.197 170.98 231.096 171.538 232.779C172.098 234.463 185.21 238.947 187.553 239.231C189.894 239.513 190.354 236.664 187.837 234.844C185.32 233.024 178.241 227.339 177.54 225.804C176.84 224.271 171.434 227.197 171.434 227.197Z" fill="#8ACA2C"/>
                  <path d="M189.373 236.777C189.213 237.323 188.746 237.653 187.925 237.555C185.748 237.291 173.454 233.108 171.285 231.168C171.321 231.781 170.644 232.765 170.785 233.192C171.345 234.875 185.261 239.3 187.604 239.583C189.193 239.776 189.861 238.171 189.373 236.777Z" fill="#EAE8F2"/>
                  <path d="M118.415 161.393C118.415 161.393 115.372 169.171 123.608 175C131.844 180.831 156.783 187.932 156.833 189.968C157.073 199.62 170.805 227.691 170.805 227.691L178.157 225.651C178.157 225.651 167.499 188.664 166.465 183.515C165.432 178.364 131.513 161.492 131.513 161.492L126.411 157.872C126.411 157.872 120.201 156.761 118.415 161.393Z" fill="#242963"/>
                  <path d="M133.867 124.929C133.867 124.929 126.955 122.085 119.667 123.148C112.379 124.211 107.567 151.68 106.807 158.804C106.047 165.925 106.047 165.925 106.047 165.925C106.047 165.925 105.895 168.356 114.55 163.344C123.204 158.333 131.512 161.492 131.512 161.492C131.512 161.492 141.808 136.921 141.88 134.931C141.951 132.94 133.867 124.929 133.867 124.929Z" fill="#8ACA2C"/>
                  <path d="M148.445 124.725C148.445 124.725 157.471 126.511 157.263 122.264C157.057 118.017 151.694 115.548 151.694 115.548C153.779 114.303 150.45 110.537 147.647 111.771C147.651 109.307 141.389 107.061 141.15 113.329C138.761 111.281 136.297 113.565 135.711 116.975C135.127 120.384 135.322 125.864 135.322 125.864L148.445 124.725Z" fill="#30231B"/>
                  <path d="M145.745 117.327C145.745 117.327 148.912 119.908 149.812 121.867C150.713 123.827 148.051 125.709 147.972 126.849C147.892 127.988 148.467 129.123 148.295 129.444C148.123 129.765 146.824 129.543 146.616 129.491C146.408 129.439 143.615 132.335 141.952 132.94C140.288 133.545 139.625 131.695 139.343 131.267C139.059 130.839 134.42 134.363 133.989 135.315C133.559 136.265 129.909 133.288 129.145 131.681C127.396 128.004 130.199 125.417 130.625 125.135C131.053 124.851 134.011 124.023 134.688 123.716C135.364 123.408 137.363 122.683 137.489 122.593C137.616 122.504 136.56 119.693 137.876 118.783C139.191 117.872 139.748 120.14 139.684 121.032C139.597 121.931 139.224 122.223 139.224 122.223L139.935 122.88C139.935 122.88 141.017 120.86 141.807 120.416C142.596 119.972 146.277 122.264 145.745 117.327Z" fill="#F79778"/>
                  <path d="M141.689 239.984C141.689 239.984 140.38 243.685 140.551 245.449C140.723 247.216 152.508 254.503 154.728 255.301C156.949 256.097 158.03 253.421 155.981 251.087C153.932 248.752 148.295 241.636 147.953 239.984C147.611 238.333 141.689 239.984 141.689 239.984Z" fill="#8ACA2C"/>
                  <path d="M155.887 254.256C153.837 253.52 142.515 246.331 140.659 243.843C140.043 244.157 139.865 245.127 139.909 245.569C140.079 247.335 152.51 254.819 154.73 255.615C155.922 256.044 156.778 255.152 157.006 254.168C156.749 254.376 156.382 254.435 155.887 254.256Z" fill="#EAE8F2"/>
                  <path d="M107.472 165.573C107.472 165.573 103.842 177.059 110.22 184.877C116.597 192.697 136.866 197.584 136.778 199.62C136.304 210.676 141.121 240.483 141.121 240.483H148.648C148.648 240.483 148.102 203.657 148.484 198.419C148.865 193.18 127.908 173.796 127.908 173.796L127.409 160.627C127.409 160.627 112.709 159.272 107.472 165.573Z" fill="#242963"/>
                  <path d="M116.213 176.009C115.007 176.307 113.969 176.111 113.47 175.975L113.15 175.876C112.361 175.584 111.874 174.984 111.674 174.695C111.641 174.64 102.434 154.645 101.997 153.611C101.47 152.363 113.214 140.145 113.214 140.145L105.474 134.617C105.474 134.617 90.3848 150.597 92.1888 154.948C93.6542 158.484 106.047 177.269 106.047 177.269C106.799 178.423 110.014 185.111 113.666 186.677C117.317 188.245 118.063 185.44 116.754 183.625C114.93 181.613 114.326 179.995 114.17 178.949C114.317 178.703 114.687 178.371 115.229 178.277C116.027 178.139 117.561 178 118.203 176.996C118.846 175.992 118.563 175.429 116.213 176.009Z" fill="#F79778"/>
                  <path d="M103.424 134.707C103.424 134.707 113.193 123.467 118.429 123.157C123.664 122.848 121.493 130.431 120.286 133.192C119.081 135.953 114.474 143.12 114.474 143.12L103.424 134.707Z" fill="#9FD737"/>
                  <path d="M167.54 185.68H116.223C113.831 185.68 111.891 183.741 111.891 181.348V142.559C111.891 140.167 113.831 138.227 116.223 138.227H167.54C169.932 138.227 171.872 140.167 171.872 142.559V181.348C171.872 183.741 169.932 185.68 167.54 185.68Z" fill="#FEF6F9"/>
                  <path d="M154.249 155.296C154.249 162.076 141.973 179.052 141.973 179.052C141.973 179.052 129.697 162.076 129.697 155.296C129.697 148.517 135.195 143.021 141.973 143.021C148.752 143.021 154.249 148.517 154.249 155.296Z" fill="#F25056"/>
                  <path d="M147.607 154.827C147.607 157.939 145.085 160.46 141.973 160.46C138.861 160.46 136.338 157.939 136.338 154.827C136.338 151.715 138.861 149.192 141.973 149.192C145.085 149.192 147.607 151.715 147.607 154.827Z" fill="#FEF6F9"/>
                  <path d="M171.863 161.807C171.863 161.807 175.226 165.173 175.146 168.652C175.067 172.132 170.938 174.264 169.507 173.192C168.079 172.12 167.486 169.215 169.667 167.639C171.267 166.483 171.632 166.156 171.632 166.156L171.863 161.807Z" fill="#F79778"/>
                  <path d="M116.212 176.009C115.007 176.307 113.968 176.111 113.469 175.975L113.149 175.876C112.36 175.584 111.874 174.984 111.674 174.695C111.664 174.679 110.967 173.168 109.953 170.968H101.938C104.246 174.54 106.047 177.269 106.047 177.269C106.799 178.423 110.013 185.111 113.665 186.677C117.316 188.245 118.063 185.44 116.753 183.625C114.929 181.613 114.325 179.995 114.169 178.949C114.316 178.703 114.687 178.371 115.228 178.277C116.027 178.139 117.56 178 118.203 176.996C118.845 175.992 118.563 175.429 116.212 176.009Z" fill="#F79778"/>
                  <path d="M383.337 393.619C368.316 393.619 356.14 381.441 356.14 366.42C356.14 351.4 368.316 339.223 383.337 339.223C398.359 339.223 410.535 351.4 410.535 366.42C410.535 381.441 398.359 393.619 383.337 393.619ZM440.092 357.919H432.475C431.873 354.419 430.909 351.044 429.619 347.833L436.349 343.947C438.327 342.805 439.004 340.276 437.863 338.299L434.277 332.089C433.136 330.112 430.607 329.433 428.629 330.576L421.713 334.569C419.515 331.921 417.04 329.515 414.345 327.371L418.401 320.348C419.541 318.369 418.864 315.84 416.887 314.697L410.679 311.113C408.7 309.972 406.171 310.649 405.029 312.628L400.92 319.744C397.771 318.556 394.473 317.673 391.057 317.141V308.884C391.057 306.6 389.205 304.749 386.921 304.749H379.752C377.469 304.749 375.617 306.6 375.617 308.884V317.141C372.2 317.673 368.903 318.556 365.752 319.744L361.644 312.628C360.503 310.649 357.973 309.972 355.996 311.113L349.787 314.697C347.808 315.84 347.132 318.369 348.273 320.348L352.328 327.371C349.633 329.515 347.159 331.921 344.96 334.569L338.044 330.576C336.067 329.433 333.537 330.112 332.396 332.089L328.811 338.299C327.669 340.276 328.348 342.805 330.324 343.947L337.055 347.833C335.764 351.044 334.8 354.419 334.197 357.919H326.581C324.297 357.919 322.445 359.771 322.445 362.055V369.224C322.445 371.508 324.297 373.36 326.581 373.36H333.953C334.453 376.955 335.329 380.428 336.553 383.736L330.324 387.332C328.348 388.473 327.669 391.003 328.811 392.98L332.396 399.189C333.537 401.167 336.067 401.845 338.044 400.703L344.109 397.201C346.356 400.061 348.899 402.676 351.708 404.981L348.273 410.932C347.132 412.909 347.808 415.439 349.787 416.581L355.996 420.165C357.973 421.307 360.503 420.629 361.644 418.651L365.019 412.807C368.389 414.139 371.933 415.127 375.617 415.697V422.396C375.617 424.68 377.469 426.531 379.752 426.531H386.921C389.205 426.531 391.057 424.68 391.057 422.396V415.697C394.741 415.127 398.285 414.139 401.655 412.807L405.029 418.651C406.171 420.629 408.7 421.307 410.679 420.165L416.887 416.581C418.864 415.439 419.541 412.909 418.401 410.932L414.965 404.981C417.775 402.676 420.317 400.061 422.565 397.201L428.629 400.703C430.607 401.845 433.136 401.167 434.277 399.189L437.863 392.98C439.004 391.003 438.327 388.473 436.349 387.332L430.12 383.736C431.345 380.428 432.22 376.955 432.721 373.36H440.092C442.376 373.36 444.228 371.508 444.228 369.224V362.055C444.228 359.771 442.376 357.919 440.092 357.919Z" fill="#2F59B1"/>
                  <path d="M457.746 321.785C457.746 321.785 455.395 358.12 455.199 371.436C455.005 384.753 456.473 420.789 456.473 420.789H461.075C461.075 420.789 466.754 397.091 466.362 389.649C465.971 382.208 464.405 375.353 464.405 375.353L469.594 348.028C469.594 348.028 473.903 376.528 476.203 378.683C478.505 380.837 481.639 387.496 482.421 391.021C483.205 394.545 492.338 418.24 492.338 418.24L497.058 418.22C497.058 418.22 494.565 395.329 493.194 387.887C491.822 380.445 486.338 377.703 485.555 375.353C484.771 373.004 484.429 345.58 483.842 341.86C483.254 338.139 488.493 327.905 481.639 320.856C474.785 313.805 457.746 321.785 457.746 321.785Z" fill="#F79778"/>
                  <path d="M485.53 368.499C485.148 361.801 484.237 344.361 483.842 341.86C483.254 338.139 488.493 327.905 481.64 320.856C474.785 313.805 457.746 321.785 457.746 321.785C457.746 321.785 454.757 354.233 454.318 368.352C456.746 370.209 464.485 371.231 467.978 370.188L469.594 348.028C469.594 348.028 470.4 364.443 472.336 371.093C476.829 371.588 482.47 371.283 485.53 368.499Z" fill="#242963"/>
                  <path d="M436.477 273.279C435.545 272.759 421.598 260.579 415.617 255.799L415.472 255.683C415.217 255.464 414.701 254.943 414.509 254.168C414.509 254.168 414.346 249.641 414.372 248.399C414.397 247.157 413.052 247.229 412.696 248.705C412.482 249.592 412.016 251.469 411.653 252.871C410.682 252.6 409.242 251.852 407.569 249.963C405.99 248.54 403.265 248.953 404.366 252.563C405.469 256.171 411.4 258.648 412.412 259.479C417.913 265.533 429.63 279.371 432.816 281.12C436.736 283.272 455.85 285.399 455.85 285.399L456.946 277.404C456.946 277.404 437.6 273.905 436.477 273.279Z" fill="#F79778"/>
                  <path d="M447.801 273.871C447.801 273.871 478.113 279.435 482.079 280.316C486.044 281.196 483.107 299.117 482.665 298.823C482.225 298.528 482.36 311.988 483.24 317.131C484.121 322.271 478.553 323.645 476.497 324.233C474.44 324.82 459.313 324.116 457.696 324.233C453.584 324.529 453.573 317.179 455.181 309.839C457.403 299.704 453.403 290.372 453.403 290.372L443.865 286.436C443.865 286.436 445.892 279.159 447.801 273.871Z" fill="#83A5DC"/>
                  <path d="M459.432 265.755C459.432 265.755 450.453 261.019 452.973 257.611C455.495 254.203 459.34 254.569 459.34 254.569C458.3 252.383 466.635 251.24 468.276 253.813C469.637 251.768 474.419 254.945 473.719 258.947C476.833 258.571 482.284 264.985 473.991 273.204C471.541 275.632 469.688 273.96 469.688 273.96L459.432 265.755Z" fill="#30231B"/>
                  <path d="M465.765 261.111C465.765 261.111 461.71 261.5 459.879 262.628C458.049 263.755 459.215 266.789 458.65 267.779C458.085 268.767 456.981 269.391 456.946 269.752C456.911 270.115 458.111 270.647 458.313 270.719C458.515 270.791 459.229 274.739 460.274 276.161C461.318 277.584 462.893 276.415 463.363 276.216C463.835 276.019 465.102 281.637 464.933 282.664C464.763 283.691 470.425 283.404 471.91 282.435C473.395 281.467 474.341 279.236 474.142 278.764C473.945 278.293 470.058 273.177 469.666 272.548C469.275 271.919 469.755 270.192 469.699 270.047C469.643 269.903 472.075 268.155 471.487 266.673C470.901 265.191 469.183 266.763 468.743 267.537C468.318 268.331 468.466 268.78 468.466 268.78L467.513 268.931C467.513 268.931 467.733 266.657 467.323 265.852C466.915 265.047 464.289 262.707 465.765 261.111Z" fill="#F79778"/>
                  <path d="M455.979 418.267C455.979 418.267 457.819 417.823 458.952 419.305C459.614 419.872 461.622 418.44 461.622 418.44C461.622 418.44 464.9 422.444 463.263 426.845C457.095 427.849 441.992 427.353 441.238 426.845C440.482 426.339 441.488 422.185 446.586 422.248C451.684 422.309 455.979 418.267 455.979 418.267Z" fill="#4849A7"/>
                  <path d="M441.805 424.58L441.671 424.407C440.925 425.479 440.868 426.597 441.239 426.845C441.993 427.353 457.096 427.849 463.264 426.845C463.549 426.077 463.679 425.323 463.708 424.597C457.469 425.576 442.555 425.084 441.805 424.58Z" fill="#EAE8F2"/>
                  <path d="M497.478 419.137C497.478 419.137 496.997 416.215 494.458 415.739C491.92 415.261 492.004 415.644 490.682 417.72C489.361 419.797 484.453 423.353 483.949 426.123C483.445 428.891 492.098 428.299 495.12 427.209C498.14 426.123 497.952 426.123 498.329 424.989C498.706 423.857 497.478 419.137 497.478 419.137Z" fill="#4849A7"/>
                  <path d="M495.12 425.008C492.584 425.92 486.081 426.484 484.356 425.004C484.157 425.387 484.014 425.761 483.949 426.123C483.445 428.891 492.098 428.299 495.12 427.209C498.14 426.123 497.952 426.123 498.329 424.989C498.456 424.611 498.4 423.828 498.273 422.957C497.964 423.92 497.978 423.977 495.12 425.008Z" fill="#EAE8F2"/>
                  <path d="M453.767 305.104C452.678 305.365 433.239 305.884 425.218 306.451L425.023 306.465C424.671 306.476 423.902 306.441 423.201 305.98C423.201 305.98 419.855 302.6 418.99 301.624C418.126 300.645 417.139 301.66 417.915 303.052C418.381 303.888 419.355 305.671 420.074 307.011C419.131 307.492 417.486 307.94 414.85 307.673C412.618 307.696 410.807 309.956 414.227 311.959C417.646 313.961 423.99 311.652 425.362 311.575C433.919 312.336 452.815 314.681 456.522 313.764C461.081 312.637 477.355 300.676 477.355 300.676L472.51 293.721C472.51 293.721 455.082 304.789 453.767 305.104Z" fill="#F79778"/>
                  <path d="M469.719 293.067C469.719 293.067 478.044 283.881 480.063 282.099C482.08 280.316 482.252 279.923 482.791 280.723C483.329 281.523 489.247 286.023 487.552 292.175C485.859 298.327 476.407 303.848 476.407 303.848L469.719 293.067Z" fill="#83A5DC"/>
                  <path d="M75.3645 402.524C64.4659 402.524 55.6303 393.688 55.6303 382.788C55.6303 371.888 64.4659 363.052 75.3645 363.052C86.2645 363.052 95.1005 371.888 95.1005 382.788C95.1005 393.688 86.2645 402.524 75.3645 402.524ZM116.055 377.252H110.594C110.163 374.744 109.471 372.323 108.546 370.021L113.371 367.236C114.789 366.417 115.275 364.604 114.457 363.187L111.886 358.735C111.067 357.316 109.254 356.831 107.837 357.649L102.879 360.512C101.302 358.615 99.5285 356.888 97.5965 355.352L100.503 350.316C101.322 348.899 100.835 347.085 99.4179 346.267L94.9672 343.696C93.5485 342.877 91.7352 343.364 90.9179 344.783L87.9725 349.883C85.7139 349.032 83.3499 348.399 80.8992 348.019V342.097C80.8992 340.461 79.5725 339.133 77.9352 339.133H72.7952C71.1579 339.133 69.8312 340.461 69.8312 342.097V348.019C67.3819 348.399 65.0165 349.032 62.7592 349.883L59.8136 344.783C58.9948 343.364 57.1812 342.877 55.7641 343.696L51.3131 346.267C49.8943 347.085 49.4089 348.899 50.2276 350.316L53.1349 355.352C51.2027 356.888 49.4292 358.615 47.8521 360.512L42.8943 357.649C41.4765 356.831 39.6636 357.316 38.8448 358.735L36.2745 363.187C35.4563 364.604 35.9423 366.417 37.3599 367.236L42.1855 370.021C41.2593 372.323 40.5683 374.744 40.1365 377.252H34.6756C33.038 377.252 31.7109 378.581 31.7109 380.217V385.357C31.7109 386.995 33.038 388.321 34.6756 388.321H39.9609C40.3199 390.9 40.9479 393.389 41.8256 395.76L37.3599 398.339C35.9423 399.157 35.4563 400.972 36.2745 402.389L38.8448 406.84C39.6636 408.257 41.4765 408.744 42.8943 407.925L47.2423 405.416C48.8527 407.465 50.676 409.34 52.6901 410.993L50.2276 415.257C49.4089 416.676 49.8943 418.489 51.3131 419.308L55.7641 421.877C57.1812 422.696 58.9948 422.211 59.8136 420.793L62.2325 416.603C64.6485 417.559 67.1899 418.265 69.8312 418.676V423.476C69.8312 425.115 71.1579 426.441 72.7952 426.441H77.9352C79.5725 426.441 80.8992 425.115 80.8992 423.476V418.676C83.5405 418.265 86.0819 417.559 88.4992 416.603L90.9179 420.793C91.7352 422.211 93.5485 422.696 94.9672 421.877L99.4179 419.308C100.835 418.489 101.322 416.676 100.503 415.257L98.0405 410.993C100.055 409.34 101.878 407.465 103.489 405.416L107.837 407.925C109.254 408.744 111.067 408.257 111.886 406.84L114.457 402.389C115.275 400.972 114.789 399.157 113.371 398.339L108.906 395.76C109.783 393.389 110.411 390.9 110.77 388.321H116.055C117.693 388.321 119.019 386.995 119.019 385.357V380.217C119.019 378.581 117.693 377.252 116.055 377.252Z" fill="#2F59B1"/>
                  <path d="M166.405 478.469H87.6012C83.9279 478.469 80.9492 475.489 80.9492 471.816V412.251C80.9492 408.577 83.9279 405.597 87.6012 405.597H166.405C170.08 405.597 173.057 408.577 173.057 412.251V471.816C173.057 475.489 170.08 478.469 166.405 478.469Z" fill="#FAB71D"/>
                  <path d="M108.176 459.576C105.904 459.576 103.808 459.16 101.888 458.328C100 457.464 98.448 456.248 97.232 454.68L101.552 449.496C102.48 450.712 103.456 451.64 104.48 452.28C105.504 452.888 106.608 453.192 107.792 453.192C110.96 453.192 112.544 451.336 112.544 447.624V431.64H100.736V425.4H120.272V447.192C120.272 451.352 119.248 454.456 117.2 456.504C115.152 458.552 112.144 459.576 108.176 459.576ZM138.993 459.576C136.305 459.576 133.729 459.224 131.265 458.52C128.801 457.784 126.817 456.84 125.313 455.688L127.953 449.832C129.393 450.856 131.089 451.704 133.041 452.376C135.025 453.016 137.025 453.336 139.041 453.336C140.577 453.336 141.809 453.192 142.737 452.904C143.697 452.584 144.401 452.152 144.849 451.608C145.297 451.064 145.521 450.44 145.521 449.736C145.521 448.84 145.169 448.136 144.465 447.624C143.761 447.08 142.833 446.648 141.681 446.328C140.529 445.976 139.249 445.656 137.841 445.368C136.465 445.048 135.073 444.664 133.665 444.216C132.289 443.768 131.025 443.192 129.873 442.488C128.721 441.784 127.777 440.856 127.041 439.704C126.337 438.552 125.985 437.08 125.985 435.288C125.985 433.368 126.497 431.624 127.521 430.056C128.577 428.456 130.145 427.192 132.225 426.264C134.337 425.304 136.977 424.824 140.145 424.824C142.257 424.824 144.337 425.08 146.385 425.592C148.433 426.072 150.241 426.808 151.809 427.8L149.409 433.704C147.841 432.808 146.273 432.152 144.705 431.736C143.137 431.288 141.601 431.064 140.097 431.064C138.593 431.064 137.361 431.24 136.401 431.592C135.441 431.944 134.753 432.408 134.337 432.984C133.921 433.528 133.713 434.168 133.713 434.904C133.713 435.768 134.065 436.472 134.769 437.016C135.473 437.528 136.401 437.944 137.553 438.264C138.705 438.584 139.969 438.904 141.345 439.224C142.753 439.544 144.145 439.912 145.521 440.328C146.929 440.744 148.209 441.304 149.361 442.008C150.513 442.712 151.441 443.64 152.145 444.792C152.881 445.944 153.249 447.4 153.249 449.16C153.249 451.048 152.721 452.776 151.665 454.344C150.609 455.912 149.025 457.176 146.913 458.136C144.833 459.096 142.193 459.576 138.993 459.576Z" fill="white"/>
                  <path d="M98.6879 299.295H19.8846C16.2106 299.295 13.2324 296.316 13.2324 292.641V233.077C13.2324 229.403 16.2106 226.424 19.8846 226.424H98.6879C102.363 226.424 105.34 229.403 105.34 233.077V292.641C105.34 296.316 102.363 299.295 98.6879 299.295Z" fill="#8ACA2C"/>
                  <path d="M24.656 275V252.6H34.352C36.3573 252.6 38.0853 252.931 39.536 253.592C40.9867 254.232 42.1067 255.16 42.896 256.376C43.6853 257.592 44.08 259.043 44.08 260.728C44.08 262.392 43.6853 263.832 42.896 265.048C42.1067 266.264 40.9867 267.203 39.536 267.864C38.0853 268.504 36.3573 268.824 34.352 268.824H27.536L29.84 266.488V275H24.656ZM29.84 267.064L27.536 264.6H34.064C35.664 264.6 36.8587 264.259 37.648 263.576C38.4373 262.893 38.832 261.944 38.832 260.728C38.832 259.491 38.4373 258.531 37.648 257.848C36.8587 257.165 35.664 256.824 34.064 256.824H27.536L29.84 254.36V267.064ZM63.141 252.6H68.325V275H63.141V252.6ZM52.965 275H47.781V252.6H52.965V275ZM63.525 265.816H52.581V261.432H63.525V265.816ZM73.6248 275V252.6H83.3208C85.3261 252.6 87.0541 252.931 88.5048 253.592C89.9554 254.232 91.0754 255.16 91.8648 256.376C92.6541 257.592 93.0488 259.043 93.0488 260.728C93.0488 262.392 92.6541 263.832 91.8648 265.048C91.0754 266.264 89.9554 267.203 88.5048 267.864C87.0541 268.504 85.3261 268.824 83.3208 268.824H76.5048L78.8088 266.488V275H73.6248ZM78.8088 267.064L76.5048 264.6H83.0328C84.6328 264.6 85.8274 264.259 86.6168 263.576C87.4061 262.893 87.8008 261.944 87.8008 260.728C87.8008 259.491 87.4061 258.531 86.6168 257.848C85.8274 257.165 84.6328 256.824 83.0328 256.824H76.5048L78.8088 254.36V267.064Z" fill="white"/>
                  </g>
                  <defs>
                  <clipPath id="clip0_162_152">
                  <rect width="559" height="485" fill="white"/>
                  </clipPath>
                  </defs>
                  </svg>