<svg width="340" height="472" viewBox="0 0 520 472" fill="none" xmlns="http://www.w3.org/2000/svg">
                  <path d="M350.31 110.765V115.248H345.826V121.653H356.714V110.765H350.31Z" fill="#FCCC1F"/>
                  <path d="M333.017 115.248H320.207V121.653H333.017V115.248ZM307.398 115.248H294.588V121.653H307.398V115.248Z" fill="#FCCC1F"/>
                  <path d="M281.78 115.248H277.296V110.765H270.892V121.653H281.78V115.248Z" fill="#FCCC1F"/>
                  <path d="M277.296 85.1455H270.892V97.9552H277.296V85.1455ZM277.296 59.5259H270.892V72.3357H277.296V59.5259Z" fill="#FCCC1F"/>
                  <path d="M277.296 46.7162V42.2328H281.78V35.8279H270.892V46.7162H277.296Z" fill="#FCCC1F"/>
                  <path d="M294.588 42.2328H307.398V35.8279H294.588V42.2328ZM320.207 42.2328H333.017V35.8279H320.207V42.2328Z" fill="#FCCC1F"/>
                  <path d="M345.826 42.2328H350.31V46.7162H356.714V35.8279H345.826V42.2328Z" fill="#FCCC1F"/>
                  <path d="M350.311 72.3357H356.715V59.5259H350.311V72.3357ZM350.311 97.9552H356.715V85.1455H350.311V97.9552Z" fill="#FCCC1F"/>
                  <path d="M334.288 58.2539H293.317V99.226H334.288V58.2539ZM330.445 62.0969V95.3831H297.16V62.0969H330.445Z" fill="#61CCED"/>
                  <path d="M268.108 33.0444H280.08V45.0151H268.108V33.0444Z" fill="white"/>
                  <path d="M268.107 33.0444V34.9658H278.158V43.0936H270.028V33.0444H268.107V34.9658V33.0444H266.186V46.9366H282V31.1229H266.186V33.0444H268.107Z" fill="#4F6ABC"/>
                  <path d="M346.673 33.0444H358.645V45.0151H346.673V33.0444Z" fill="white"/>
                  <path d="M346.673 33.0444V34.9658H356.724V43.0936H348.595V33.0444H346.673V34.9658V33.0444H344.752V46.9366H360.567V31.1229H344.752V33.0444H346.673Z" fill="#4F6ABC"/>
                  <path d="M268.108 122.302H280.081V110.329H268.108V122.302Z" fill="white"/>
                  <path d="M268.105 110.329V111.61H278.796V121.021H269.386V110.329H268.105V111.61V110.329H266.824V123.582H281.358V109.049H266.824V110.329H268.105Z" fill="#4F6ABC"/>
                  <path d="M346.673 122.302H358.644V110.329H346.673V122.302Z" fill="white"/>
                  <path d="M346.673 110.329V112.251H356.724V120.38H348.595V110.329H346.673V112.251V110.329H344.752V124.223H360.567V108.408H344.752V110.329H346.673Z" fill="#4F6ABC"/>
                  <path d="M281.778 215.378H394.504V163.285H281.778V215.378Z" fill="#F9AC1A"/>
                  <path d="M289.084 184.848H380.935V179.724H289.084V184.848Z" fill="white"/>
                  <path d="M289.084 198.938H380.935V193.815H289.084V198.938Z" fill="white"/>
                  <path d="M512.994 472H7.00839C3.47123 472 0.603516 469.132 0.603516 465.595C0.603516 462.057 3.47123 459.19 7.00839 459.19H512.994C516.533 459.19 519.399 462.057 519.399 465.595C519.399 469.132 516.533 472 512.994 472Z" fill="#FAE15F"/>
                  <path d="M123.202 181.192C111.653 184.998 99.1341 178.887 95.0888 167.362C91.0422 155.837 96.9949 143.244 108.388 138.995C119.938 135.189 132.456 141.298 136.502 152.823C140.548 164.348 134.597 176.943 123.202 181.192ZM163.885 151.047L158.985 137.094L147.492 137.795C145.894 135.562 142.639 134.035 140.633 132.237L142.535 120.977L129.194 114.589L121.6 123.162C118.942 122.722 116.362 122.998 113.619 123.146L107.156 114.245L100.518 116.577L93.8809 118.907L94.4009 129.893C92.1682 131.491 90.052 133.074 88.2535 135.08L76.94 133.04L70.5171 146.313L79.06 153.88C78.6193 156.537 77.2871 159.661 77.4344 162.404L68.3369 168.917L73.2354 182.871L84.4144 182.283C86.0131 184.515 88.4162 186.344 90.4222 188.142L88.7903 199.312L102.269 205.664L109.938 197.085C112.596 197.525 115.83 199.008 118.572 198.86L125.704 209.555L132.342 207.225L138.98 204.895L137.868 192.086C140.1 190.487 141.806 187.595 143.605 185.589L154.916 187.343L161.466 173.879L153.248 166.127C153.69 163.469 154.63 160.446 154.483 157.704L163.885 151.047Z" fill="#61CCED"/>
                  <path d="M139.606 117.639C117.793 108.621 107.102 83.7851 115.735 61.7049C124.366 39.6234 149.065 28.6224 171.211 36.7886C193.024 45.8054 203.715 70.641 195.082 92.7225C186.451 114.803 161.753 125.805 139.606 117.639ZM224.691 117.409L233.585 94.6593L218.779 83.2932C219.18 78.7752 216.921 73.4245 216.345 69.0103L230.94 56.9922L221.155 34.6392L202.431 37.2049C199.577 33.7899 196.333 30.6656 192.74 27.8961L194.512 9.09521L183.691 4.86417L172.868 0.633072L161.415 15.6513C156.897 15.249 152.404 15.3015 147.991 15.8767L135.953 1.30946L113.579 11.1038L116.113 29.8239C112.696 32.6767 107.245 35.017 104.475 38.6089L85.6448 36.8297L76.751 59.5798L91.7973 71.0432C91.3951 75.5612 92.6402 80.5212 93.2154 84.9341L79.245 97.2046L89.3366 119.695L108.207 117.221C111.059 120.636 113.774 125.351 117.366 128.121L115.038 148.573L125.86 152.804L136.683 157.034L148.84 140.423C153.357 140.826 158.486 139.356 162.899 138.781L175.113 153.316L197.788 143.589L195.829 125.068C199.244 122.216 203.328 119.327 206.098 115.735L224.691 117.409Z" fill="#FCCC1F"/>
                  <path d="M218.779 83.2932C219.18 78.7752 216.92 73.4245 216.345 69.0103L230.939 56.9922L221.155 34.6392L202.431 37.2049C199.577 33.7899 196.332 30.6643 192.739 27.8961L194.512 9.09521L183.69 4.86418L172.867 0.633087L161.414 15.6513C158.824 15.4207 156.244 15.3592 153.681 15.4399V34.1793C159.477 33.8424 165.43 34.6571 171.211 36.7886C193.023 45.8054 203.714 70.641 195.082 92.7225C188.258 110.18 171.389 120.702 153.681 120.311V140.276C156.811 139.91 160.007 139.158 162.899 138.781L175.113 153.316L197.787 143.589L195.829 125.068C199.244 122.216 203.327 119.327 206.097 115.735L224.69 117.409L233.584 94.6593L218.779 83.2932Z" fill="#F9AC1A"/>
                  <path d="M168.496 460.043L98.8266 236.727H88.9708L17.8369 464.741H28.6476L93.8987 255.099L157.689 460.043H168.496Z" fill="#F68C1E"/>
                  <path d="M63.8772 428.874H28.8535L31.9259 418.626H66.3351L63.8772 428.874Z" fill="#F9AC1A"/>
                  <path d="M81.9464 381.478H43.4775L46.7957 372.511H81.9464V381.478Z" fill="#F9AC1A"/>
                  <path d="M97.3194 335.362H58.1641L61.1133 325.115H97.3194V335.362Z" fill="#F9AC1A"/>
                  <path d="M112.69 287.966H72.7246L76.0436 277.718H112.69V287.966Z" fill="#F9AC1A"/>
                  <path d="M201.54 460.043L131.87 236.727H122.014L50.8799 464.741H61.6906L126.942 255.099L190.732 460.043H201.54Z" fill="#FCCC1F"/>
                  <path d="M397.767 250.991H378.533V246.376H397.767V250.991Z" fill="#F68C1E"/>
                  <path d="M409.783 265.132H378.533V260.516H409.783V265.132Z" fill="#61CCED"/>
                  <path d="M397.767 279.274H378.533V274.658H397.767V279.274Z" fill="#F68C1E"/>
                  <path d="M475.399 250.991H432.037V246.376H475.399V250.991Z" fill="#61CCED"/>
                  <path d="M475.399 279.274H432.037V274.658H475.399V279.274Z" fill="#F68C1E"/>
                  <path d="M475.401 265.132H439.295V260.516H475.401V265.132Z" fill="#FCCC1F"/>
                  <path d="M432.038 265.132H417.284V260.516H432.038V265.132Z" fill="#4F6ABC"/>
                  <path d="M424.2 250.991H404.968V246.376H424.2V250.991Z" fill="#FCCC1F"/>
                  <path d="M424.2 279.274H404.968V274.658H424.2V279.274Z" fill="#FCCC1F"/>
                  <path d="M133.231 451.092V109.469C133.231 102.394 138.966 96.6588 146.041 96.6588H348.342C355.417 96.6588 361.152 102.394 361.152 109.469V451.092C361.152 458.167 355.417 463.902 348.342 463.902H146.041C138.966 463.902 133.231 458.167 133.231 451.092Z" fill="#040606"/>
                  <path d="M231.504 438.904C231.504 430.24 238.527 423.217 247.192 423.217C255.855 423.217 262.879 430.24 262.879 438.904C262.879 447.568 255.855 454.59 247.192 454.59C238.527 454.59 231.504 447.568 231.504 438.904Z" fill="#565A5B"/>
                  <path d="M239.735 438.904C239.735 434.787 243.074 431.448 247.192 431.448C251.309 431.448 254.647 434.787 254.647 438.904C254.647 443.022 251.309 446.36 247.192 446.36C243.074 446.36 239.735 443.022 239.735 438.904Z" fill="#040606"/>
                  <path d="M242.74 109.658C242.74 107.2 244.733 105.207 247.192 105.207C249.65 105.207 251.642 107.2 251.642 109.658C251.642 112.115 249.65 114.108 247.192 114.108C244.733 114.108 242.74 112.115 242.74 109.658Z" fill="#2B4055"/>
                  <path d="M144.876 415.991H349.505V122.255H144.876V415.991Z" fill="#4F6ABC"/>
                  <path d="M144.876 147.656H349.505V122.256H144.876V147.656Z" fill="#314FAA"/>
                  <path d="M199.899 215.01H166.476C161.523 215.01 157.509 210.995 157.509 206.043V172.619C157.509 167.667 161.523 163.653 166.476 163.653H199.899C204.851 163.653 208.866 167.667 208.866 172.619V206.043C208.866 210.995 204.851 215.01 199.899 215.01Z" fill="#F9AC1A"/>
                  <path d="M263.897 215.01H230.474C225.521 215.01 221.507 210.995 221.507 206.043V172.619C221.507 167.667 225.521 163.653 230.474 163.653H263.897C268.849 163.653 272.864 167.667 272.864 172.619V206.043C272.864 210.995 268.849 215.01 263.897 215.01Z" fill="white"/>
                  <path d="M327.48 215.01H294.057C289.104 215.01 285.09 210.995 285.09 206.043V172.619C285.09 167.667 289.104 163.653 294.057 163.653H327.48C332.432 163.653 336.447 167.667 336.447 172.619V206.043C336.447 210.995 332.432 215.01 327.48 215.01Z" fill="#FAE15F"/>
                  <path d="M199.899 277.351H166.476C161.523 277.351 157.509 273.336 157.509 268.384V234.961C157.509 230.008 161.523 225.994 166.476 225.994H199.899C204.851 225.994 208.866 230.008 208.866 234.961V268.384C208.866 273.336 204.851 277.351 199.899 277.351Z" fill="white"/>
                  <path d="M263.897 277.351H230.474C225.521 277.351 221.507 273.336 221.507 268.384V234.961C221.507 230.008 225.521 225.994 230.474 225.994H263.897C268.849 225.994 272.864 230.008 272.864 234.961V268.384C272.864 273.336 268.849 277.351 263.897 277.351Z" fill="#FDF5C0"/>
                  <path d="M327.48 277.351H294.057C289.104 277.351 285.09 273.336 285.09 268.384V234.961C285.09 230.008 289.104 225.994 294.057 225.994H327.48C332.432 225.994 336.447 230.008 336.447 234.961V268.384C336.447 273.336 332.432 277.351 327.48 277.351Z" fill="#61CCED"/>
                  <path d="M199.899 339.691H166.476C161.523 339.691 157.509 335.676 157.509 330.724V297.301C157.509 292.348 161.523 288.334 166.476 288.334H199.899C204.851 288.334 208.866 292.348 208.866 297.301V330.724C208.866 335.676 204.851 339.691 199.899 339.691Z" fill="#61CCED"/>
                  <path d="M263.897 339.691H230.474C225.521 339.691 221.507 335.676 221.507 330.724V297.301C221.507 292.348 225.521 288.334 230.474 288.334H263.897C268.849 288.334 272.864 292.348 272.864 297.301V330.724C272.864 335.676 268.849 339.691 263.897 339.691Z" fill="#C7ECF3"/>
                  <path d="M327.48 339.691H294.057C289.104 339.691 285.09 335.676 285.09 330.724V297.301C285.09 292.348 289.104 288.334 294.057 288.334H327.48C332.432 288.334 336.447 292.348 336.447 297.301V330.724C336.447 335.676 332.432 339.691 327.48 339.691Z" fill="#F9AC1A"/>
                  <path d="M199.899 402.032H166.476C161.523 402.032 157.509 398.017 157.509 393.065V359.642C157.509 354.69 161.523 350.675 166.476 350.675H199.899C204.851 350.675 208.866 354.69 208.866 359.642V393.065C208.866 398.017 204.851 402.032 199.899 402.032Z" fill="#FAE15F"/>
                  <path d="M263.897 402.032H230.474C225.521 402.032 221.507 398.017 221.507 393.065V359.642C221.507 354.69 225.521 350.675 230.474 350.675H263.897C268.849 350.675 272.864 354.69 272.864 359.642V393.065C272.864 398.017 268.849 402.032 263.897 402.032Z" fill="#F9AC1A"/>
                  <path d="M327.48 402.032H294.057C289.104 402.032 285.09 398.017 285.09 393.065V359.642C285.09 354.69 289.104 350.675 294.057 350.675H327.48C332.432 350.675 336.447 354.69 336.447 359.642V393.065C336.447 398.017 332.432 402.032 327.48 402.032Z" fill="white"/>
                  <path d="M229.55 415.991H144.876V147.656H339.133L332.082 164.922C330.737 164.116 329.162 163.653 327.479 163.653H294.056C289.104 163.653 285.089 167.667 285.089 172.619V206.043C285.089 210.995 289.104 215.01 294.056 215.01H311.627L307.141 225.994H294.056C289.104 225.994 285.089 230.008 285.089 234.961V268.384C285.089 270.686 285.958 272.787 287.383 274.374L272.862 309.932V297.301C272.862 292.348 268.848 288.334 263.895 288.334H230.472C225.52 288.334 221.505 292.348 221.505 297.301V330.724C221.505 335.676 225.52 339.691 230.472 339.691H260.71L256.224 350.675H230.472C225.52 350.675 221.505 354.69 221.505 359.642V393.065C221.505 398.017 225.52 402.032 230.472 402.032H235.25L229.55 415.991ZM166.476 350.675C161.524 350.675 157.509 354.69 157.509 359.642V393.065C157.509 398.017 161.524 402.032 166.476 402.032H199.899C204.851 402.032 208.866 398.017 208.866 393.065V359.642C208.866 354.69 204.851 350.675 199.899 350.675H166.476ZM166.476 288.334C161.524 288.334 157.509 292.348 157.509 297.301V330.724C157.509 335.676 161.524 339.691 166.476 339.691H199.899C204.851 339.691 208.866 335.676 208.866 330.724V297.301C208.866 292.348 204.851 288.334 199.899 288.334H166.476ZM230.472 225.994C225.52 225.994 221.505 230.008 221.505 234.961V268.384C221.505 273.336 225.52 277.351 230.472 277.351H263.895C268.848 277.351 272.862 273.336 272.862 268.384V234.961C272.862 230.008 268.848 225.994 263.895 225.994H230.472ZM166.476 225.994C161.524 225.994 157.509 230.008 157.509 234.961V268.384C157.509 273.336 161.524 277.351 166.476 277.351H199.899C204.851 277.351 208.866 273.336 208.866 268.384V234.961C208.866 230.008 204.851 225.994 199.899 225.994H166.476ZM230.472 163.653C225.52 163.653 221.505 167.667 221.505 172.619V206.043C221.505 210.995 225.52 215.01 230.472 215.01H263.895C268.848 215.01 272.862 210.995 272.862 206.043V172.619C272.862 167.667 268.848 163.653 263.895 163.653H230.472ZM166.476 163.653C161.524 163.653 157.509 167.667 157.509 172.619V206.043C157.509 210.995 161.524 215.01 166.476 215.01H199.899C204.851 215.01 208.866 210.995 208.866 206.043V172.619C208.866 167.667 204.851 163.653 199.899 163.653H166.476Z" fill="#3554AD"/>
                  <path d="M339.133 147.656H144.876V122.255H349.505L339.133 147.656Z" fill="#293A7F"/>
                  <path d="M199.899 215.01H166.476C161.523 215.01 157.509 210.995 157.509 206.043V172.619C157.509 167.667 161.523 163.653 166.476 163.653H199.899C204.851 163.653 208.866 167.667 208.866 172.619V206.043C208.866 210.995 204.851 215.01 199.899 215.01Z" fill="#F5751E"/>
                  <path d="M263.897 215.01H230.474C225.521 215.01 221.507 210.995 221.507 206.043V172.619C221.507 167.667 225.521 163.653 230.474 163.653H263.897C268.849 163.653 272.864 167.667 272.864 172.619V206.043C272.864 210.995 268.849 215.01 263.897 215.01Z" fill="white"/>
                  <path d="M311.628 215.01H294.057C289.104 215.01 285.09 210.995 285.09 206.043V172.619C285.09 167.667 289.104 163.653 294.057 163.653H327.48C329.163 163.653 330.737 164.116 332.082 164.922L311.628 215.01Z" fill="#FBC22F"/>
                  <path d="M199.899 277.351H166.476C161.523 277.351 157.509 273.336 157.509 268.384V234.961C157.509 230.008 161.523 225.994 166.476 225.994H199.899C204.851 225.994 208.866 230.008 208.866 234.961V268.384C208.866 273.336 204.851 277.351 199.899 277.351Z" fill="white"/>
                  <path d="M263.897 277.351H230.474C225.521 277.351 221.507 273.336 221.507 268.384V234.961C221.507 230.008 225.521 225.994 230.474 225.994H263.897C268.849 225.994 272.864 230.008 272.864 234.961V268.384C272.864 273.336 268.849 277.351 263.897 277.351Z" fill="#FBEC93"/>
                  <path d="M287.384 274.374C285.958 272.787 285.09 270.686 285.09 268.384V234.961C285.09 230.009 289.104 225.994 294.057 225.994H307.142L287.384 274.374Z" fill="#56B1E7"/>
                  <path d="M199.899 339.691H166.476C161.523 339.691 157.509 335.676 157.509 330.724V297.301C157.509 292.348 161.523 288.334 166.476 288.334H199.899C204.851 288.334 208.866 292.348 208.866 297.301V330.724C208.866 335.676 204.851 339.691 199.899 339.691Z" fill="#56B1E7"/>
                  <path d="M260.711 339.691H230.474C225.521 339.691 221.507 335.676 221.507 330.724V297.301C221.507 292.348 225.521 288.334 230.474 288.334H263.897C268.849 288.334 272.864 292.348 272.864 297.301V309.932L260.711 339.691Z" fill="#A2E1ED"/>
                  <path d="M199.899 402.032H166.476C161.523 402.032 157.509 398.017 157.509 393.065V359.642C157.509 354.69 161.523 350.675 166.476 350.675H199.899C204.851 350.675 208.866 354.69 208.866 359.642V393.065C208.866 398.017 204.851 402.032 199.899 402.032Z" fill="#FBC22F"/>
                  <path d="M235.252 402.032H230.474C225.521 402.032 221.507 398.017 221.507 393.065V359.642C221.507 354.69 225.521 350.675 230.474 350.675H256.225L235.252 402.032Z" fill="#F5751E"/>
                  <path d="M384.416 389.163L361.048 417.345H314.111L337.164 389.163H384.416Z" fill="#F68C1E"/>
                  <path d="M396.726 464.524H336.903V389.407H396.726V464.524Z" fill="#F9AC1A"/>
                  <path d="M420.609 464.524H373.356V389.407H420.609V464.524Z" fill="#F68C1E"/>
                  <path d="M349.839 406.969H342.556V395.497H349.839V406.969Z" fill="white"/>
                  <path d="M373.356 389.163L396.725 417.345H443.662L420.609 389.163H373.356Z" fill="#F9AC1A"/>
                  <path d="M466.629 464.524H406.806V423.956H466.629V464.524Z" fill="#F9AC1A"/>
                  <path d="M490.512 464.524H443.26V423.956H490.512V464.524Z" fill="#F68C1E"/>
                  <path d="M419.745 441.519H412.461V430.046H419.745V441.519Z" fill="white"/>
                  <path d="M61.8441 180.49L50.1378 182.949L38.749 180.49L48.1742 149.132C48.7652 147.165 51.5458 147.155 52.1517 149.116L61.8441 180.49Z" fill="#FAB552"/>
                  <path d="M55.3816 159.571L52.1516 149.117C51.5457 147.155 48.7651 147.165 48.174 149.132L45.0361 159.571H55.3816Z" fill="#4F6ABC"/>
                  <path d="M38.749 180.49H61.8441V383.298L50.2969 391.547L38.749 383.298V180.49Z" fill="#4F6ABC"/>
                  <path d="M46.1738 180.49H54.4166V399.2H46.1738V180.49Z" fill="white"/>
                  <path d="M61.8441 412.271V396.867H38.749V412.271C38.749 415.703 41.5301 418.484 44.9612 418.484H55.6319C59.0625 418.484 61.8441 415.703 61.8441 412.271Z" fill="#FCCC1F"/>
                  <path d="M38.749 383.298H61.8441V397.287H38.749V383.298Z" fill="#040606"/>
                  <path d="M482.047 69.0346C482.047 35.4538 447.912 9.79074 412.585 24.3926C399.509 29.797 389.515 41.0607 385.797 54.712C379.651 77.2752 388.54 98.4151 405.091 109.594V125.284H460.723V109.594C473.703 100.827 482.047 85.9345 482.047 69.0346Z" fill="#FCCC1F"/>
                  <path d="M433.214 20.2448V125.284H460.72V109.594C473.7 100.827 482.045 85.9345 482.045 69.0346C482.045 42.12 460.109 20.3268 433.214 20.2448Z" fill="#F9AC1A"/>
                  <path d="M404.926 123.197V144.967H412.996C413.935 153.132 422.42 162.893 432.759 162.893C443.098 162.893 451.583 153.132 452.523 144.967H460.942V123.197H404.926Z" fill="#4F6ABC"/>
                  <path d="M432.945 97.0894C417.28 97.0894 404.582 84.3898 404.582 68.726C404.582 53.0609 417.28 40.3626 432.945 40.3626C433.035 40.3626 433.126 40.3626 433.216 40.3639V56.2839C433.126 56.2826 433.035 56.2813 432.945 56.2813C426.072 56.2813 420.501 61.8523 420.501 68.726C420.501 75.5984 426.072 81.1707 432.945 81.1707C433.035 81.1707 433.126 81.1694 433.216 81.1668V97.0881C433.126 97.0881 433.035 97.0894 432.945 97.0894Z" fill="#F9E842"/>
                  <path d="M433.214 97.088V81.1668C439.962 81.0233 445.388 75.5087 445.388 68.7259C445.388 61.9432 439.962 56.4273 433.214 56.2838V40.3639C448.755 40.5086 461.307 53.1505 461.307 68.7259C461.307 84.3 448.755 96.9433 433.214 97.088Z" fill="#F9D617"/>
                  <path d="M432.946 81.1707C426.072 81.1707 420.501 75.5984 420.501 68.726C420.501 61.8523 426.072 56.2813 432.946 56.2813C433.035 56.2813 433.126 56.2826 433.216 56.2839V81.1668C433.126 81.1694 433.035 81.1707 432.946 81.1707Z" fill="#F8F579"/>
                  <path d="M433.214 81.1667V56.2838C439.962 56.4272 445.388 61.9431 445.388 68.7259C445.388 75.5086 439.962 81.0232 433.214 81.1667Z" fill="#F5F01D"/>
                  <path d="M430.371 214.951H435.495V158.588H430.371V214.951Z" fill="#4F6ABC"/>
                  </svg>