<svg class="w-full px-3 pt-3 mt-8" width="270" height="280" viewBox="0 0 270 270" fill="none" xmlns="http://www.w3.org/2000/svg">
                  <g clip-path="url(#clip0_72_6143)">
                  <path d="M54.2301 42.1402C53.105 42.416 52.0954 42.9184 51.2344 43.5849C50.9325 43.8187 50.6033 44.0117 50.2526 44.1549L46.3476 28.2578C46.0599 27.0874 44.8771 26.3716 43.7052 26.6589L27.1454 30.7173L27.6063 32.5941C27.7129 33.0283 27.9046 33.4357 28.166 33.7981C28.6921 34.5259 29.0921 35.3629 29.3195 36.289C30.2954 40.2639 27.777 44.2786 23.7223 45.103C20.1491 45.8293 16.5035 43.695 15.3904 40.2266C14.9982 39.0048 14.9531 37.7693 15.1862 36.6104C15.2902 36.0928 15.2928 35.5606 15.1668 35.0482L14.8434 33.7315L-1.94748 37.7903C-3.386 38.1427 -4.26645 39.5937 -3.91312 41.0305L-0.307875 55.7776L-1.45187 56.0581C-1.58155 56.0896 -1.71437 56.1185 -1.84825 56.141C-3.51778 55.4556 -5.41149 55.2726 -7.2989 55.7351C-12.0329 56.8951 -14.9288 61.6686 -13.7674 66.3971C-12.6059 71.1256 -7.82664 74.0187 -3.09253 72.8582C-1.54428 72.4791 -0.194476 71.7108 0.883368 70.6867C1.09862 70.5813 1.32438 70.4979 1.55906 70.4402L3.02699 70.0805L7.06851 86.5355C7.42184 87.9729 8.87402 88.8517 10.3125 88.4993L56.1375 77.2694C57.3093 76.9821 58.0259 75.8006 57.7382 74.6307L53.6232 57.8767C53.9225 57.8778 54.2227 57.9124 54.5183 57.9759C56.0876 58.3136 57.7865 58.1935 59.4335 57.4787C62.7032 56.0602 64.6662 52.561 64.1932 49.0108C63.5432 44.1255 58.8602 41.0054 54.2301 42.1402Z" fill="#E7E8E5"/>
                  <path d="M258.282 130.033C258.945 130.34 259.64 130.49 260.327 130.501C260.567 130.506 260.806 130.54 261.035 130.607L256.683 139.964C256.363 140.653 256.662 141.471 257.352 141.791L267.099 146.313L267.613 145.209C267.732 144.953 267.798 144.677 267.813 144.396C267.841 143.831 267.975 143.261 268.228 142.717C269.316 140.377 272.139 139.394 274.459 140.584C276.503 141.634 277.454 144.118 276.634 146.263C276.344 147.018 275.879 147.644 275.307 148.122C275.052 148.336 274.84 148.596 274.7 148.898L274.34 149.673L284.201 154.286C285.047 154.679 286.053 154.312 286.447 153.466L290.491 144.792L291.165 145.105C291.241 145.14 291.318 145.179 291.393 145.22C291.943 146.214 292.802 147.05 293.914 147.565C296.7 148.858 300.008 147.65 301.302 144.867C302.597 142.084 301.387 138.779 298.6 137.487C297.689 137.064 296.722 136.91 295.788 136.99C295.64 136.957 295.496 136.909 295.359 136.845L294.494 136.444L298.998 126.759C299.392 125.913 299.024 124.909 298.178 124.516L271.206 112.002C270.516 111.682 269.697 111.981 269.376 112.669L264.791 122.531C264.644 122.412 264.51 122.277 264.389 122.129C263.75 121.345 262.868 120.736 261.775 120.439C259.608 119.85 257.261 120.798 256.093 122.731C254.486 125.39 255.558 128.769 258.282 130.033Z" fill="#E7E8E5"/>
                  <path d="M274.779 234.808C275.211 234.431 275.539 233.981 275.764 233.494C275.844 233.322 275.944 233.163 276.065 233.02L281.398 239.106C281.791 239.554 282.473 239.599 282.922 239.206L289.261 233.664L288.631 232.946C288.486 232.779 288.309 232.644 288.111 232.545C287.715 232.345 287.349 232.069 287.038 231.714C285.705 230.193 285.895 227.859 287.485 226.576C288.887 225.446 290.972 225.554 292.25 226.822C292.701 227.269 293.002 227.801 293.164 228.361C293.236 228.613 293.356 228.846 293.528 229.043L293.969 229.546L300.41 223.951C300.96 223.47 301.016 222.634 300.534 222.084L295.594 216.435L296.032 216.052C296.081 216.008 296.133 215.966 296.187 215.925C297.075 215.846 297.947 215.496 298.67 214.865C300.482 213.281 300.665 210.529 299.079 208.719C297.493 206.908 294.738 206.726 292.926 208.31C292.333 208.828 291.915 209.472 291.677 210.166C291.606 210.261 291.526 210.35 291.436 210.428L290.874 210.919L285.354 204.62C284.872 204.07 284.035 204.015 283.483 204.496L265.942 219.834C265.494 220.225 265.449 220.907 265.841 221.354L271.462 227.768C271.33 227.835 271.191 227.888 271.047 227.928C270.281 228.136 269.564 228.575 269.004 229.262C267.893 230.628 267.829 232.608 268.845 234.058C270.243 236.053 273.007 236.357 274.779 234.808Z" fill="#F3F2F1"/>
                  <path d="M212.247 53.4792C211.367 53.2353 210.479 53.1918 209.629 53.3182C209.331 53.3622 209.03 53.3685 208.734 53.3318L212.189 40.8974C212.443 39.9818 211.906 39.0337 210.99 38.7799L198.037 35.1893L197.629 36.6576C197.534 36.9969 197.509 37.3509 197.549 37.7006C197.629 38.4039 197.58 39.1338 197.38 39.8575C196.516 42.9672 193.233 44.7569 190.127 43.7611C187.39 42.8838 185.708 40.0117 186.282 37.1983C186.484 36.2066 186.93 35.3403 187.538 34.6329C187.809 34.3172 188.017 33.9523 188.128 33.5516L188.414 32.5217L175.303 28.8426C174.177 28.5305 173.011 29.1892 172.7 30.313L169.483 41.8413L168.588 41.5932C168.486 41.5654 168.384 41.534 168.284 41.4978C167.4 40.3835 166.169 39.5276 164.693 39.1186C160.99 38.0924 157.155 40.2581 156.127 43.9567C155.1 47.6552 157.269 51.4859 160.971 52.5122C162.183 52.8478 163.407 52.8399 164.544 52.551C164.732 52.5615 164.919 52.5909 165.103 52.6423L166.251 52.9606L162.676 65.8308C162.363 66.9551 163.022 68.1193 164.148 68.4307L199.991 78.3665C200.907 78.6208 201.857 78.0849 202.111 77.1693L205.752 64.0646C205.957 64.181 206.151 64.32 206.329 64.4779C207.278 65.3148 208.492 65.8869 209.901 66.0301C212.696 66.3143 215.398 64.6645 216.443 62.042C217.883 58.4326 215.868 54.4829 212.247 53.4792Z" fill="#F3F2F1"/>
                  <path d="M115.219 161.988C118.142 161.785 120.67 162.577 123.113 163.714C124.204 164.223 125.489 164.59 126.694 164.59L129.892 164.517L129.93 129.011C129.93 125.658 127.191 122.939 123.813 122.939L90.0222 123.064V122.336C90.0222 120.91 90.3881 119.517 91.0134 118.233C92.6525 114.869 93.325 110.956 92.6194 106.829C91.2177 98.6386 84.3689 92.2483 76.0501 91.3442C64.6034 90.1009 54.9185 98.9674 54.9185 110.079C54.9185 112.78 55.4981 115.344 56.5313 117.666C57.0663 118.867 57.3766 120.154 57.3766 121.468L57.5761 123.064H55.5286H16.8516C13.4737 123.064 10.7353 125.782 10.7353 129.136V163.853H7.83094C6.47956 163.853 5.16074 163.507 3.94429 162.916C0.756435 161.367 -3.14963 160.731 -7.05938 161.398C-14.8184 162.723 -20.8724 169.196 -21.7286 177.058C-22.9068 187.877 -14.5071 197.03 -3.9802 197.03C-1.4213 197.03 1.00791 196.482 3.20665 195.506C4.34487 195 5.56395 194.708 6.80875 194.708H10.5353L10.6098 237.174C10.6098 239.904 12.8395 242.118 15.5906 242.118H124.59C127.341 242.118 129.497 238.669 129.497 235.938V197.341H125.084C124.064 197.341 123.057 197.542 122.112 197.922C120.211 198.685 118.139 199.112 115.962 199.112C106.618 199.112 99.0865 191.407 99.4619 182.048C99.7926 173.801 106.925 162.562 115.219 161.988Z" fill="#DADBD8"/>
                  <path d="M115.219 161.988C115.219 161.988 115.122 162.002 114.93 162.025C114.739 162.05 114.45 162.071 114.077 162.154C113.327 162.294 112.214 162.599 110.879 163.29C108.22 164.645 104.73 167.741 102.102 172.911C100.825 175.483 99.6718 178.582 99.5185 182.126C99.4723 183.893 99.6997 185.746 100.271 187.583C100.842 189.417 101.771 191.229 103.069 192.855C104.365 194.478 106.027 195.916 107.981 196.991C109.933 198.067 112.18 198.771 114.549 198.964C116.915 199.192 119.404 198.861 121.761 197.972C122.921 197.464 124.236 197.203 125.541 197.259C126.842 197.258 128.16 197.257 129.496 197.257H129.581V197.341C129.584 203.445 129.587 209.935 129.591 216.783C129.592 220.208 129.594 223.722 129.595 227.321C129.596 229.121 129.597 230.942 129.597 232.785C129.598 233.707 129.598 234.633 129.598 235.565C129.608 236.026 129.58 236.511 129.503 236.979C129.41 237.444 129.293 237.909 129.113 238.351C128.771 239.242 128.268 240.081 127.594 240.779C126.935 241.483 126.057 242.033 125.07 242.186C124.705 242.227 124.354 242.225 124.003 242.224C123.872 242.223 123.74 242.222 123.607 242.224C123.123 242.224 122.637 242.224 122.151 242.224C121.177 242.225 120.198 242.225 119.214 242.225C115.279 242.227 111.265 242.228 107.175 242.229C98.9961 242.232 90.5136 242.234 81.7569 242.236C64.2426 242.24 45.63 242.244 26.1422 242.247C23.7061 242.248 21.2564 242.248 18.7936 242.248C18.3552 242.244 17.9195 242.246 17.4837 242.248C16.6883 242.253 15.8924 242.256 15.0771 242.223C13.8107 242.099 12.5985 241.481 11.7553 240.522C10.899 239.572 10.446 238.277 10.4775 237.003C10.4754 235.754 10.4727 234.502 10.4706 233.246C10.4659 230.735 10.4612 228.211 10.4565 225.676C10.4381 215.534 10.4192 205.202 10.3997 194.708L10.5352 194.843C9.76344 194.843 8.98853 194.843 8.21099 194.843C7.97158 194.847 7.73218 194.845 7.4933 194.844C6.95359 194.84 6.41545 194.836 5.88887 194.897C5.12393 194.987 4.37002 195.183 3.64813 195.469C2.93464 195.77 2.19175 196.093 1.43154 196.325C-1.60669 197.307 -4.9489 197.425 -8.11413 196.674C-11.2648 195.895 -14.2768 194.31 -16.5926 191.95C-17.7983 190.818 -18.7552 189.448 -19.6104 188.034C-19.9797 187.292 -20.4069 186.575 -20.6735 185.786C-20.8165 185.396 -20.992 185.017 -21.1085 184.618L-21.4368 183.414C-22.3915 179.457 -22.0347 175.191 -20.3304 171.519C-18.6535 167.839 -15.7046 164.789 -12.1446 162.968C-10.3667 162.048 -8.43323 161.462 -6.46618 161.172C-4.49634 160.904 -2.48871 160.952 -0.545122 161.311C0.42667 161.492 1.38271 161.749 2.30935 162.084C2.77294 162.251 3.23075 162.434 3.67648 162.643C4.12746 162.85 4.5501 163.059 5.00896 163.215C6.38395 163.757 7.85555 163.738 9.3303 163.718C9.79914 163.712 10.2685 163.706 10.7352 163.718L10.5998 163.853C10.6008 156.344 10.6014 148.928 10.6019 141.616C10.6024 137.959 10.6029 134.329 10.6029 130.726C10.6213 129.829 10.5457 128.924 10.7111 128.011C10.8696 127.107 11.2476 126.247 11.7879 125.512C12.8573 124.029 14.5983 123.058 16.4143 122.955C30.6226 122.95 44.3721 122.945 57.576 122.94L57.4532 123.079C57.3849 122.532 57.3193 122.007 57.2537 121.483L57.2526 121.475V121.468C57.2532 120.491 57.0773 119.52 56.7654 118.601C56.6127 118.138 56.4105 117.7 56.2168 117.242C56.0288 116.785 55.8603 116.322 55.707 115.854C55.1006 113.982 54.7977 112.026 54.7977 110.084L54.8764 108.632C54.8943 108.391 54.8922 108.148 54.9274 107.909L55.0444 107.195C55.1342 106.722 55.1762 106.239 55.3043 105.776L55.6892 104.388C55.7443 104.154 55.8283 103.931 55.9207 103.71L56.1842 103.043C56.3575 102.598 56.5255 102.152 56.7639 101.739L57.4264 100.478L58.2108 99.294C59.3096 97.7643 60.5717 96.3438 62.0638 95.2242L62.6067 94.7858L63.1889 94.403C63.5801 94.1534 63.9612 93.8885 64.3581 93.6531C65.1866 93.243 65.9814 92.7679 66.8545 92.4748C68.5493 91.759 70.3579 91.4066 72.1487 91.2078C73.0512 91.1685 73.9506 91.0741 74.8452 91.1653C75.2925 91.1952 75.7409 91.2031 76.1845 91.2513C76.626 91.3185 77.0665 91.3845 77.5065 91.4511C80.9978 92.1344 84.2418 93.7564 86.7786 96.0816C89.3155 98.3978 91.2139 101.338 92.1605 104.52C93.1554 107.686 93.2368 111.05 92.5464 114.162C92.1994 115.718 91.6381 117.214 90.9499 118.606C90.6369 119.31 90.4007 120.044 90.2631 120.793C90.1146 121.544 90.113 122.299 90.1198 123.064L90.0216 122.967C99.1862 122.937 107.772 122.91 115.728 122.884C117.717 122.878 119.667 122.871 121.576 122.866C122.054 122.864 122.529 122.863 123.001 122.861C123.473 122.857 123.942 122.856 124.417 122.89C125.361 122.979 126.267 123.296 127.055 123.778C128.65 124.732 129.704 126.413 129.938 128.16C130.048 129.041 129.985 129.9 130.001 130.751C130 131.602 129.998 132.442 129.996 133.272C129.969 146.545 129.947 157.096 129.932 164.517V164.557L129.893 164.557C128.604 164.574 127.406 164.634 126.285 164.611C125.163 164.53 124.161 164.21 123.293 163.829C121.579 163.016 120.091 162.513 118.875 162.264C117.659 162.012 116.735 161.972 116.127 161.969C115.822 161.966 115.595 161.975 115.445 161.982C115.294 161.988 115.219 161.988 115.219 161.988C115.219 161.988 115.517 161.951 116.127 161.948C116.736 161.945 117.663 161.978 118.883 162.224C120.104 162.466 121.6 162.967 123.317 163.773C124.182 164.149 125.179 164.464 126.289 164.54C127.4 164.561 128.605 164.497 129.891 164.477L129.851 164.517C129.852 157.096 129.853 146.545 129.854 133.272C129.854 132.442 129.855 131.602 129.855 130.751C129.839 129.903 129.899 129.031 129.79 128.181C129.56 126.477 128.53 124.839 126.974 123.911C126.204 123.442 125.321 123.135 124.402 123.048C123.944 123.016 123.474 123.017 123.001 123.023C122.529 123.024 122.054 123.027 121.577 123.029C119.667 123.037 117.717 123.045 115.729 123.054C107.773 123.087 99.1867 123.123 90.0227 123.161L89.9256 123.162L89.925 123.064C89.9172 122.307 89.9182 121.522 90.0694 120.758C90.2096 119.992 90.45 119.243 90.7687 118.526C91.457 117.128 92.0046 115.661 92.349 114.118C93.0294 111.04 92.9454 107.711 91.96 104.581C91.0213 101.436 89.1423 98.5305 86.6332 96.2425C84.1232 93.9446 80.9143 92.3447 77.465 91.6709C77.0308 91.6053 76.595 91.5397 76.1588 91.4742C75.7204 91.427 75.2767 91.4197 74.8347 91.3903C73.9495 91.3001 73.0612 91.395 72.1692 91.4338C70.3994 91.6315 68.6128 91.9803 66.9396 92.6887C66.0765 92.9777 65.2921 93.4491 64.4736 93.8539C64.082 94.0867 63.7055 94.3484 63.3191 94.5954L62.7442 94.9735L62.2082 95.4072C60.734 96.5136 59.4892 97.9185 58.4045 99.4288L57.6306 100.598L56.9775 101.844C56.7418 102.252 56.5759 102.693 56.4053 103.132L56.1454 103.79C56.054 104.008 55.9711 104.23 55.917 104.46L55.538 105.83C55.4109 106.287 55.3705 106.764 55.2823 107.231L55.1663 107.937C55.1316 108.173 55.1348 108.413 55.1169 108.65L55.0397 110.084C55.0403 112.001 55.34 113.931 55.9396 115.779C56.0908 116.241 56.2578 116.698 56.4436 117.149C56.6321 117.593 56.8421 118.049 56.998 118.522C57.3183 119.464 57.4999 120.462 57.4994 121.468L57.4989 121.452C57.5645 121.976 57.6301 122.501 57.6989 123.049L57.7162 123.188H57.576C44.3778 123.196 30.6341 123.206 16.4321 123.216C14.6917 123.314 13.0248 124.245 12.0005 125.666C11.4834 126.371 11.1222 127.194 10.9699 128.059C10.8124 128.918 10.8843 129.825 10.8675 130.726C10.8675 134.329 10.8681 137.959 10.8686 141.616C10.8691 148.928 10.8696 156.344 10.8707 163.853V163.988H10.7352C9.76659 163.988 8.79637 163.988 7.82458 163.988C6.83546 163.988 5.84949 163.801 4.91813 163.47C4.45245 163.313 3.99831 163.089 3.56255 162.889C3.12469 162.683 2.67371 162.504 2.21748 162.338C1.30501 162.009 0.363146 161.755 -0.594471 161.578C-2.5097 161.224 -4.48794 161.176 -6.42995 161.441C-8.36676 161.728 -10.2691 162.304 -12.0201 163.21C-15.5252 165.003 -18.4307 168.009 -20.0823 171.633C-21.7604 175.247 -22.1114 179.452 -21.1713 183.349L-20.848 184.535C-20.7336 184.928 -20.5601 185.301 -20.4194 185.685C-20.1573 186.463 -19.7359 187.169 -19.3727 187.899C-18.5298 189.292 -17.5881 190.642 -16.4005 191.756C-14.1195 194.081 -11.153 195.641 -8.05113 196.409C-4.93473 197.149 -1.6424 197.032 1.34911 196.066C2.1046 195.835 2.81231 195.527 3.54837 195.216C4.29021 194.923 5.06723 194.72 5.85737 194.627C6.40811 194.564 6.95201 194.568 7.4912 194.572C7.73166 194.574 7.97158 194.576 8.21099 194.572C8.98853 194.572 9.76344 194.572 10.5352 194.572H10.6712V194.708C10.6885 205.202 10.7064 215.534 10.7232 225.675C10.7268 228.211 10.7316 230.735 10.7358 233.246C10.7379 234.501 10.74 235.754 10.7415 237.003C10.7127 238.23 11.1405 239.442 11.9522 240.348C12.7523 241.258 13.9016 241.844 15.1028 241.963C15.8861 241.995 16.6873 241.991 17.4874 241.987C17.9242 241.985 18.3605 241.984 18.7936 241.987C21.2564 241.988 23.7061 241.988 26.1422 241.989C45.63 241.992 64.2426 241.996 81.7569 241.999C90.5136 242.002 98.9961 242.004 107.175 242.007C111.265 242.008 115.279 242.009 119.214 242.01C120.198 242.011 121.177 242.011 122.151 242.011C122.637 242.012 123.123 242.012 123.607 242.012C123.735 242.01 123.864 242.011 123.993 242.012C124.349 242.014 124.704 242.016 125.04 241.977C125.966 241.834 126.806 241.315 127.443 240.635C128.094 239.96 128.586 239.144 128.92 238.277C129.096 237.846 129.209 237.395 129.301 236.943C129.374 236.485 129.403 236.035 129.394 235.565C129.394 234.633 129.394 233.707 129.395 232.785C129.396 230.942 129.396 229.121 129.397 227.321C129.399 223.722 129.4 220.208 129.402 216.783C129.405 209.935 129.409 203.445 129.412 197.341L129.496 197.425C128.16 197.425 126.842 197.424 125.541 197.423C124.24 197.369 122.979 197.617 121.817 198.121C119.437 199.016 116.923 199.347 114.536 199.114C112.146 198.915 109.88 198.202 107.913 197.115C105.943 196.028 104.27 194.575 102.966 192.937C101.66 191.296 100.727 189.469 100.154 187.619C99.5826 185.768 99.3568 183.9 99.4067 182.122C99.5684 178.553 100.734 175.448 102.021 172.87C104.669 167.69 108.182 164.595 110.858 163.248C112.201 162.562 113.319 162.264 114.072 162.131C114.448 162.051 114.737 162.034 114.93 162.013C115.122 161.994 115.219 161.988 115.219 161.988Z" fill="#17282F"/>
                  <path d="M258.008 163.442C255.366 163.442 252.857 164.007 250.587 165.016C249.792 165.369 248.957 165.619 248.103 165.745V128.422C248.103 125.675 245.873 123.448 243.122 123.448H204.242V127.855C204.242 128.873 204.445 129.879 204.827 130.823C205.595 132.722 206.026 134.792 206.026 136.966C206.026 146.299 198.264 153.822 188.837 153.447C180.53 153.116 173.617 146.412 173.038 138.127C172.834 135.208 173.407 132.448 174.553 130.008C175.065 128.918 175.36 127.742 175.36 126.537V123.448L135.971 123.323C132.592 123.323 129.854 126.058 129.854 129.432L129.816 164.045H127.131C126.826 164.045 126.517 164.036 126.208 164.014C122.884 161.59 118.79 160.156 114.359 160.156C103.244 160.156 94.2344 169.156 94.2344 180.258C94.2344 191.359 103.244 200.358 114.359 200.358C117.994 200.358 121.4 199.39 124.344 197.707C124.879 197.591 125.424 197.528 125.974 197.528H129.421V236.161C129.421 239.534 132.159 242.27 135.537 242.27H243.122C245.873 242.27 248.103 240.042 248.103 237.295V197.96C248.765 198.126 249.411 198.364 250.032 198.666C253.323 200.265 257.15 200.922 261.187 200.233C269.198 198.865 275.449 192.181 276.333 184.064C277.55 172.892 268.877 163.442 258.008 163.442Z" fill="#F3F2F1"/>
                  <path d="M258.008 163.442C258.008 163.442 258.402 163.455 259.177 163.493C259.564 163.514 260.049 163.516 260.616 163.631C260.9 163.676 261.208 163.726 261.538 163.778C261.872 163.817 262.218 163.91 262.584 164.016C262.951 164.117 263.34 164.223 263.751 164.336C264.155 164.472 264.569 164.649 265.009 164.818C265.228 164.906 265.456 164.988 265.681 165.086C265.901 165.2 266.125 165.316 266.354 165.436C266.807 165.683 267.307 165.894 267.761 166.225C269.663 167.4 271.667 169.144 273.305 171.58C274.923 174.004 276.249 177.13 276.437 180.734C276.457 181.183 276.497 181.637 276.499 182.095C276.475 182.554 276.449 183.017 276.424 183.486C276.406 183.72 276.41 183.957 276.374 184.192C276.339 184.426 276.303 184.662 276.267 184.9C276.231 185.136 276.194 185.374 276.157 185.614C276.101 185.849 276.045 186.086 275.989 186.324C275.538 188.227 274.758 190.138 273.629 191.926C272.5 193.711 271.032 195.385 269.232 196.769C267.429 198.146 265.31 199.241 262.98 199.899C262.401 200.076 261.796 200.169 261.198 200.309C260.592 200.404 259.979 200.49 259.356 200.53C258.113 200.624 256.841 200.591 255.57 200.419C254.297 200.256 253.027 199.939 251.785 199.495C250.529 199.072 249.39 198.338 248.082 198.042L248.188 197.961C248.191 204.002 248.194 210.415 248.197 217.173C248.199 220.553 248.2 224.019 248.202 227.568C248.202 229.343 248.203 231.137 248.204 232.952C248.204 233.861 248.205 234.774 248.205 235.691C248.205 236.15 248.205 236.611 248.205 237.072C248.211 237.301 248.192 237.539 248.182 237.774C248.147 238.007 248.128 238.245 248.063 238.473C247.646 240.329 246.072 241.89 244.158 242.269C243.683 242.36 243.188 242.384 242.716 242.375C242.239 242.375 241.761 242.376 241.282 242.376C240.323 242.376 239.36 242.376 238.392 242.377C234.52 242.378 230.571 242.379 226.549 242.381C218.505 242.383 210.168 242.385 201.565 242.388C184.36 242.391 166.089 242.395 146.966 242.399C144.575 242.399 142.172 242.4 139.756 242.4C138.547 242.4 137.335 242.4 136.121 242.4C135.519 242.408 134.888 242.391 134.278 242.274C133.67 242.139 133.082 241.924 132.531 241.631C131.442 241.023 130.528 240.096 129.965 238.975C129.671 238.421 129.489 237.813 129.382 237.196C129.262 236.575 129.295 235.943 129.288 235.334C129.288 232.87 129.288 230.395 129.288 227.907C129.287 217.958 129.286 207.823 129.285 197.528L129.42 197.663C128.625 197.663 127.79 197.663 126.936 197.663C126.788 197.664 126.639 197.664 126.49 197.663C126.207 197.662 125.924 197.661 125.648 197.671C125.221 197.691 124.794 197.749 124.372 197.839L124.411 197.824C121.942 199.233 119.135 200.148 116.224 200.407C113.318 200.654 110.318 200.3 107.517 199.286C104.716 198.279 102.11 196.648 99.9769 194.507C97.8595 192.352 96.211 189.716 95.214 186.837C94.5194 184.772 94.1246 182.606 94.1062 180.433C94.113 178.262 94.4343 176.101 95.0817 174.039C95.7348 171.976 96.7664 170.054 98.0249 168.319C98.6386 167.433 99.3799 166.654 100.113 165.873L101.303 164.794C101.704 164.441 102.152 164.144 102.574 163.817C104.317 162.583 106.237 161.608 108.262 160.957C110.299 160.338 112.413 160.045 114.525 160.024C118.754 160.041 122.927 161.441 126.287 163.905L126.218 163.88C126.991 163.919 127.775 163.915 128.556 163.911C128.978 163.908 129.398 163.906 129.816 163.911L129.681 164.045C129.691 156.65 129.699 149.349 129.708 142.151C129.712 138.553 129.717 134.98 129.72 131.435L129.722 130.108C129.717 129.668 129.723 129.222 129.76 128.769C129.856 127.873 130.152 127 130.615 126.231C131.533 124.685 133.141 123.574 134.906 123.29C135.549 123.181 136.184 123.189 136.814 123.196C137.056 123.199 137.297 123.202 137.537 123.198C138.407 123.201 139.275 123.204 140.141 123.207C141.872 123.213 143.597 123.219 145.314 123.224C148.747 123.236 152.15 123.247 155.522 123.258C162.266 123.281 168.882 123.303 175.361 123.326H175.483V123.448C175.483 124.374 175.483 125.298 175.483 126.219C175.508 127.145 175.379 128.089 175.092 128.97C174.953 129.411 174.766 129.842 174.575 130.254C174.385 130.664 174.22 131.086 174.065 131.51C173.764 132.361 173.525 133.231 173.372 134.115C172.725 137.651 173.339 141.33 174.957 144.421C175.765 145.967 176.796 147.391 178.033 148.594C179.267 149.798 180.673 150.803 182.186 151.575C185.206 153.158 188.681 153.623 191.939 153.157C195.203 152.675 198.246 151.191 200.593 149.029C201.747 147.935 202.807 146.734 203.582 145.366C204.379 144.02 205.019 142.582 205.377 141.082C206.181 138.103 206.076 134.955 205.184 132.122C204.98 131.407 204.648 130.742 204.444 130.014C204.24 129.293 204.139 128.545 204.142 127.804C204.143 126.337 204.144 124.885 204.145 123.448V123.35H204.242C214.466 123.355 223.973 123.36 232.697 123.364C234.877 123.365 237.01 123.366 239.092 123.368C240.132 123.369 241.161 123.369 242.177 123.37C242.29 123.37 242.402 123.37 242.515 123.37C242.909 123.369 243.302 123.367 243.699 123.406C244.206 123.462 244.696 123.606 245.158 123.801C246.078 124.21 246.859 124.886 247.383 125.713C247.915 126.536 248.172 127.506 248.174 128.455C248.173 130.331 248.172 132.155 248.171 133.927C248.155 148.094 248.143 158.873 248.136 165.745L248.098 165.712C249.849 165.485 251.167 164.633 252.413 164.293C253.643 163.9 254.692 163.707 255.526 163.593C256.36 163.485 256.984 163.454 257.395 163.444C257.806 163.435 258.008 163.442 258.008 163.442C258.008 163.442 257.806 163.446 257.395 163.462C256.985 163.477 256.363 163.513 255.53 163.627C254.699 163.746 253.654 163.943 252.429 164.341C251.191 164.683 249.874 165.542 248.107 165.778L248.069 165.783V165.745C248.062 158.873 248.05 148.094 248.034 133.927C248.033 132.155 248.032 130.331 248.03 128.455C248.026 127.531 247.775 126.591 247.257 125.792C246.749 124.99 245.989 124.336 245.097 123.941C244.648 123.751 244.173 123.613 243.681 123.559C243.3 123.523 242.907 123.524 242.512 123.525C242.4 123.525 242.289 123.526 242.177 123.525C241.161 123.526 240.132 123.527 239.092 123.527C237.01 123.528 234.877 123.53 232.697 123.531C223.973 123.536 214.466 123.54 204.242 123.545L204.34 123.448C204.34 124.885 204.341 126.337 204.341 127.804C204.338 128.529 204.437 129.256 204.637 129.96C204.833 130.66 205.169 131.337 205.377 132.062C206.282 134.93 206.392 138.117 205.58 141.135C205.218 142.654 204.571 144.11 203.765 145.476C202.98 146.861 201.908 148.08 200.739 149.189C198.363 151.381 195.28 152.887 191.972 153.377C188.672 153.852 185.145 153.382 182.082 151.778C180.548 150.997 179.122 149.978 177.869 148.759C176.616 147.539 175.569 146.097 174.749 144.529C173.105 141.395 172.481 137.661 173.135 134.073C173.291 133.176 173.533 132.292 173.838 131.428C173.995 130.998 174.162 130.571 174.355 130.154C174.548 129.737 174.725 129.328 174.861 128.896C175.139 128.035 175.264 127.135 175.239 126.219C175.239 125.298 175.239 124.374 175.238 123.448L175.36 123.57C168.881 123.55 162.265 123.531 155.521 123.511C152.15 123.501 148.747 123.491 145.313 123.481C143.596 123.475 141.872 123.47 140.14 123.465C139.274 123.462 138.407 123.459 137.537 123.457C137.298 123.46 137.057 123.458 136.817 123.455C136.186 123.448 135.557 123.441 134.95 123.546C133.259 123.817 131.717 124.883 130.839 126.365C130.395 127.102 130.112 127.938 130.019 128.797C129.986 129.224 129.98 129.662 129.984 130.108L129.983 131.435C129.98 134.981 129.976 138.553 129.973 142.152C129.965 149.349 129.958 156.651 129.951 164.045L129.951 164.181L129.816 164.18C129.396 164.175 128.978 164.177 128.559 164.18C127.779 164.184 126.997 164.189 126.198 164.149L126.161 164.147L126.129 164.123C122.811 161.691 118.696 160.312 114.523 160.295C112.438 160.317 110.353 160.605 108.344 161.216C106.346 161.858 104.452 162.821 102.733 164.039C102.317 164.362 101.874 164.653 101.478 165.002L100.305 166.067C99.5821 166.837 98.8502 167.607 98.2454 168.479C97.0043 170.192 95.9857 172.089 95.3415 174.123C94.7037 176.157 94.3866 178.288 94.3792 180.431C94.3981 182.575 94.7877 184.711 95.4723 186.748C96.4561 189.588 98.0821 192.188 100.171 194.315C102.275 196.427 104.847 198.036 107.609 199.03C110.372 200.03 113.332 200.379 116.2 200.136C119.071 199.881 121.839 198.978 124.276 197.589L124.294 197.578L124.315 197.574C124.75 197.48 125.192 197.421 125.635 197.4C125.927 197.39 126.209 197.391 126.489 197.392C126.638 197.393 126.786 197.394 126.936 197.393C127.79 197.393 128.625 197.393 129.42 197.393H129.556V197.528C129.555 207.823 129.555 217.958 129.554 227.907C129.553 230.395 129.553 232.87 129.553 235.334C129.559 235.953 129.528 236.562 129.642 237.152C129.745 237.742 129.919 238.325 130.201 238.856C130.738 239.93 131.616 240.818 132.658 241.401C133.185 241.682 133.749 241.887 134.331 242.017C134.919 242.128 135.508 242.146 136.121 242.138C137.335 242.139 138.547 242.139 139.756 242.139C142.172 242.139 144.575 242.14 146.966 242.14C166.089 242.144 184.36 242.148 201.565 242.15C210.168 242.153 218.505 242.156 226.549 242.158C230.571 242.159 234.52 242.16 238.392 242.162C239.36 242.162 240.323 242.163 241.282 242.163C241.761 242.163 242.239 242.163 242.716 242.164C243.198 242.172 243.656 242.148 244.115 242.062C245.949 241.701 247.46 240.204 247.862 238.425C247.972 237.982 248.003 237.533 247.999 237.072C247.999 236.611 248 236.15 248 235.691C248 234.774 248.001 233.861 248.001 232.952C248.002 231.137 248.002 229.343 248.003 227.568C248.005 224.019 248.006 220.553 248.007 217.173C248.011 210.415 248.015 204.002 248.018 197.961V197.854L248.124 197.878C249.464 198.185 250.607 198.925 251.842 199.339C253.071 199.781 254.33 200.097 255.591 200.26C256.852 200.433 258.112 200.466 259.345 200.374C259.962 200.336 260.57 200.251 261.172 200.157C261.765 200.019 262.365 199.928 262.939 199.753C265.25 199.104 267.354 198.02 269.145 196.656C270.933 195.285 272.393 193.625 273.517 191.855C274.641 190.082 275.419 188.185 275.869 186.296C275.926 186.059 275.982 185.824 276.038 185.59C276.075 185.353 276.112 185.116 276.149 184.881C276.185 184.645 276.22 184.411 276.256 184.178C276.292 183.945 276.288 183.709 276.307 183.477C276.333 183.011 276.359 182.55 276.384 182.095C276.383 181.639 276.343 181.188 276.325 180.742C276.145 177.158 274.832 174.048 273.229 171.632C271.605 169.202 269.615 167.461 267.725 166.284C267.272 165.953 266.776 165.741 266.325 165.493C266.097 165.373 265.874 165.257 265.656 165.142C265.431 165.042 265.205 164.96 264.987 164.871C264.548 164.703 264.137 164.523 263.735 164.386C263.326 164.272 262.938 164.164 262.572 164.062C262.207 163.954 261.863 163.86 261.53 163.819C261.201 163.764 260.894 163.713 260.61 163.665C260.045 163.548 259.561 163.541 259.175 163.517C258.402 163.471 258.008 163.442 258.008 163.442Z" fill="#17282F"/>
                  <path d="M126.905 170.328C126.905 170.328 128.671 169.418 130.23 169.759C131.79 170.101 137.451 173.788 137.451 173.788L142.013 172.937L144.702 185.802L126.905 193.189V170.328Z" fill="#B96357"/>
                  <path d="M113.741 174.813C113.741 174.813 117.818 174.298 119.295 173.561C120.771 172.823 124.293 169.703 125.031 169.76C125.769 169.817 128.439 170.328 128.439 170.328L127.359 173.561C127.359 173.561 132.698 176.794 134.289 177.986C135.879 179.177 140.877 184.509 141.104 185.815C141.332 187.119 140.934 188.651 140.309 189.162C139.684 189.672 137.413 188.651 137.413 188.651C137.413 188.651 137.753 189.842 136.901 190.977C136.049 192.112 134.061 191.714 134.061 191.714C134.061 191.714 133.891 193.587 132.982 193.927C132.074 194.267 130.029 193.246 130.029 193.246C130.029 193.246 129.412 194.835 128.67 195.005C127.927 195.175 125.826 193.927 125.826 193.927C125.826 193.927 116.738 187.403 114.694 186.439C112.649 185.474 112.024 185.418 112.024 185.418L113.741 174.813Z" fill="#F8A58D"/>
                  <path d="M130.029 193.246C129.988 193.245 129.962 193.086 129.867 192.848C129.772 192.609 129.611 192.288 129.41 191.942C129.005 191.251 128.642 190.696 128.707 190.649C128.762 190.606 129.227 191.089 129.647 191.806C129.855 192.163 129.999 192.52 130.052 192.794C130.108 193.071 130.063 193.249 130.029 193.246Z" fill="#F68260"/>
                  <path d="M133.805 192.143C133.731 192.181 133.287 191.366 132.659 190.429C132.038 189.485 131.372 188.855 131.42 188.795C131.463 188.732 132.244 189.302 132.886 190.277C133.53 191.239 133.866 192.114 133.805 192.143Z" fill="#F68260"/>
                  <path d="M137.451 188.869C137.371 188.889 137.118 187.907 136.49 186.848C135.872 185.783 135.139 185.083 135.195 185.022C135.234 184.967 136.081 185.601 136.725 186.711C137.378 187.814 137.52 188.862 137.451 188.869Z" fill="#F68260"/>
                  <path d="M134.79 181.788C134.861 181.774 135.057 182.449 135.094 183.309C135.133 184.17 134.999 184.86 134.926 184.851C134.849 184.843 134.86 184.159 134.82 183.322C134.785 182.484 134.714 181.803 134.79 181.788Z" fill="#F68260"/>
                  <path d="M121.566 176.681C121.566 176.681 122.987 172.143 123.497 171.575C124.009 171.008 128.758 169.759 128.758 169.759L130.231 173.561L129.177 174.674L126.905 174.525C126.905 174.525 125.486 178.27 121.566 176.681Z" fill="#B96357"/>
                  <path d="M112.852 185.656C112.852 185.656 112.202 186.155 112.852 187.346C113.501 188.538 115.262 187.687 115.83 187.346C115.83 187.346 114.978 189.332 116.057 189.956C117.136 190.58 118.442 190.409 118.442 190.409C118.442 190.409 118.386 191.601 119.919 192.396C121.453 193.189 121.85 192.396 121.85 192.396C121.85 192.396 122.02 194.381 123.781 194.551C125.542 194.721 126.162 194.117 126.162 194.117L125.372 192.944C125.372 192.944 126.394 190.863 125.599 189.956C124.803 189.048 123.497 189.162 123.497 189.162C123.497 189.162 123.845 187.319 122.832 186.805C120.95 185.851 120.147 187.63 120.147 187.63C120.147 187.63 120.033 185.61 118.556 185.656C117.08 185.701 116.284 186.608 116.284 186.608L112.852 185.656Z" fill="#B96357"/>
                  <path d="M120.147 187.63C120.213 187.663 119.935 188.354 119.469 189.142C119.005 189.933 118.535 190.512 118.474 190.47C118.41 190.426 118.775 189.785 119.233 189.004C119.694 188.224 120.078 187.595 120.147 187.63Z" fill="#6F3430"/>
                  <path d="M123.534 189.417C123.6 189.448 123.31 190.186 122.76 190.987C122.212 191.79 121.628 192.327 121.576 192.277C121.518 192.224 121.999 191.617 122.534 190.833C123.072 190.051 123.463 189.382 123.534 189.417Z" fill="#6F3430"/>
                  <path d="M88.3537 210.825H79.7383L77.5327 242.118H86.1707C87.6412 237.352 91.3168 212.516 91.3168 212.516L88.3537 210.825Z" fill="#17282F"/>
                  <path d="M39.5597 210.825C39.5597 210.825 34.0461 223.739 34.5973 228.967C35.1491 234.194 38.2451 242.118 38.2451 242.118H80.9152C80.9152 242.118 82.106 237.752 83.0253 231.295C83.944 224.838 86.4252 210.825 86.4252 210.825H39.5597Z" fill="#17282F"/>
                  <path d="M95.947 86.1941C94.5059 84.3776 92.7245 82.6282 92.3559 80.3403C92.0168 78.2364 92.9376 75.9328 91.9937 74.0219C90.8313 71.6715 87.4912 71.2121 86.0427 69.0259C85.3413 67.9672 85.1749 66.6258 84.4829 65.5613C83.3037 63.7463 80.8819 63.1627 78.7193 63.287C76.5568 63.4112 74.4473 64.0825 72.2822 64.1276C69.3112 64.19 66.3029 63.0767 63.4179 63.7877C60.2348 64.5717 58.1815 67.2509 56.0101 69.8356L53.1976 72.8184C52.6211 73.3244 52.0147 73.7864 51.3548 74.1687C50.2003 74.8373 48.8951 75.2746 47.8882 76.1488C45.733 78.0204 45.7214 81.8228 47.8645 83.7074C45.5492 84.3231 43.7978 86.621 43.8193 89.0138C43.8314 90.3306 44.317 91.5886 44.6499 92.8623C44.9828 94.1361 45.1518 95.5451 44.5685 96.7256C43.9847 97.906 42.4008 98.6574 41.2856 97.9563C41.608 99.6774 42.7551 101.226 44.3097 102.036C43.6613 102.64 42.7751 102.983 41.8878 102.973C44.0173 108.722 50.4077 111.997 56.5361 112.322C62.6646 112.646 68.6428 110.604 74.4389 108.589L91.1484 105.088C92.6132 104.826 93.3004 103.095 93.3503 101.609C93.3997 100.123 93.0967 98.5599 93.6937 97.198C94.5116 95.3307 96.7734 94.4261 97.6249 92.5734C98.593 90.4674 97.3882 88.0106 95.947 86.1941Z" fill="#17282F"/>
                  <path d="M56.1816 99.3816C55.1631 95.5997 54.1608 91.7904 53.809 87.8895C53.4568 83.989 53.7828 79.959 55.3358 76.3627C55.5715 75.8179 57.5272 72.1801 58.1146 72.2682C58.5347 72.3317 57.2694 75.7544 57.4636 76.1315C59.3211 79.7314 59.6582 83.9633 59.1248 87.9776C58.5914 91.9918 57.565 95.575 56.1816 99.3816Z" fill="#17282F"/>
                  <path d="M56.5654 84.439C56.7523 74.6186 62.6293 66.5419 72.4522 67.0007L73.3578 67.0951C82.4683 68.0548 89.3176 75.8384 89.0924 84.9864C88.8834 93.4969 88.5427 102.898 88.0093 107.42C86.9041 116.781 77.3647 117.25 77.3647 117.25L77.108 132.712L54.772 117.254L56.5654 84.439Z" fill="#F8A58D"/>
                  <path d="M77.3647 117.25C77.3647 117.25 71.4132 116.973 65.5273 112.356C65.5273 112.356 67.7266 120.277 77.1794 120.419L77.3647 117.25Z" fill="#F68260"/>
                  <path d="M85.8405 92.2498C85.7912 92.9593 85.1485 93.5026 84.4057 93.4643C83.6643 93.4266 83.1026 92.822 83.1519 92.1124C83.2018 91.4029 83.8439 90.8591 84.5852 90.8969C85.3276 90.9352 85.8904 91.5409 85.8405 92.2498Z" fill="#17282F"/>
                  <path d="M86.6763 88.6651C86.492 88.8224 85.5559 87.965 84.1132 87.8171C82.6747 87.6483 81.538 88.2781 81.4005 88.0851C81.3317 87.9991 81.5344 87.7018 82.0305 87.4149C82.5193 87.1291 83.3273 86.8858 84.225 86.9844C85.1228 87.084 85.8436 87.4936 86.2421 87.8774C86.6495 88.2639 86.7666 88.5959 86.6763 88.6651Z" fill="#17282F"/>
                  <path d="M72.7902 92.2498C72.7409 92.9593 72.0983 93.5026 71.3559 93.4643C70.6141 93.4266 70.0523 92.822 70.1017 92.1119C70.1515 91.4029 70.7936 90.8591 71.5355 90.8969C72.2778 90.9352 72.8396 91.5409 72.7902 92.2498Z" fill="#17282F"/>
                  <path d="M72.49 87.761C72.3052 87.9178 71.3675 87.0604 69.9259 86.9125C68.4879 86.7442 67.3512 87.374 67.2131 87.1805C67.1449 87.0945 67.3454 86.7972 67.8437 86.5114C68.3325 86.2251 69.1399 85.9817 70.0382 86.0798C70.936 86.18 71.6563 86.5895 72.0553 86.9734C72.4617 87.3599 72.5793 87.6918 72.49 87.761Z" fill="#17282F"/>
                  <path d="M76.4946 99.3732C76.4967 99.2909 77.4092 99.2301 78.8813 99.1975C79.253 99.1986 79.6095 99.1624 79.6982 98.9175C79.8127 98.6611 79.7009 98.2484 79.5675 97.8011C79.315 96.875 79.0509 95.9038 78.7742 94.886C77.6822 90.7396 76.9341 87.3457 77.101 87.3027C77.269 87.2607 78.2896 90.587 79.3811 94.7339C79.6415 95.7554 79.8904 96.7292 80.1272 97.6611C80.2217 98.0937 80.4117 98.5929 80.1655 99.1247C80.0374 99.3895 79.746 99.5604 79.5035 99.5992C79.2599 99.6459 79.052 99.6281 78.8687 99.6202C77.3987 99.5447 76.4915 99.4555 76.4946 99.3732Z" fill="#17282F"/>
                  <path d="M72.1455 99.9222C72.3818 99.9338 72.2195 101.498 73.4423 102.748C74.6619 104.002 76.3487 104.003 76.3382 104.222C76.3498 104.322 75.9345 104.487 75.2284 104.432C74.5348 104.383 73.5494 104.054 72.8012 103.29C72.0563 102.523 71.8006 101.578 71.8148 100.931C71.8237 100.271 72.0395 99.9023 72.1455 99.9222Z" fill="#17282F"/>
                  <path d="M73.0271 81.9077C72.8439 82.2842 71.4232 81.947 69.7101 81.9727C67.9965 81.9638 66.5795 82.3146 66.392 81.9402C66.3101 81.7614 66.5868 81.4179 67.178 81.097C67.7649 80.776 68.6753 80.5081 69.7033 80.5023C70.7302 80.4981 71.6432 80.7566 72.2328 81.0723C72.8276 81.3875 73.1079 81.7283 73.0271 81.9077Z" fill="#17282F"/>
                  <path d="M86.586 83.8144C86.2977 84.1149 85.3401 83.6707 84.1473 83.5291C82.9597 83.3456 81.9181 83.5171 81.7212 83.15C81.6372 82.9733 81.8304 82.6623 82.305 82.3991C82.7733 82.1363 83.5288 81.9607 84.3468 82.0718C85.1648 82.1846 85.8447 82.5558 86.2248 82.935C86.6117 83.3152 86.7146 83.667 86.586 83.8144Z" fill="#17282F"/>
                  <path d="M56.5989 91.4601C56.4461 91.3741 50.3523 88.8764 49.8809 95.306C49.41 101.735 55.9694 100.882 55.9941 100.698C56.0188 100.514 56.5989 91.4601 56.5989 91.4601Z" fill="#F8A58D"/>
                  <path d="M54.2065 98.1189C54.1798 98.0964 54.0884 98.1887 53.8926 98.2615C53.702 98.3329 53.3797 98.3675 53.0531 98.2175C52.3916 97.9186 51.8981 96.7985 51.9516 95.6369C51.9784 95.0512 52.1417 94.5027 52.3832 94.0569C52.6142 93.6007 52.9429 93.2945 53.2894 93.2583C53.6364 93.2048 53.8637 93.4271 53.9288 93.6138C54.0018 93.8 53.9519 93.9258 53.985 93.9389C54.0018 93.9568 54.1309 93.8414 54.0989 93.5719C54.0816 93.4423 54.017 93.2856 53.8753 93.1508C53.7298 93.0139 53.5072 92.9332 53.2668 92.9416C52.768 92.9395 52.2876 93.3626 52.0225 93.853C51.7295 94.3427 51.5322 94.9579 51.5022 95.6165C51.4487 96.9149 52.0236 98.1761 52.9345 98.5127C53.3786 98.6638 53.7666 98.5547 53.9724 98.4173C54.1835 98.2731 54.2281 98.132 54.2065 98.1189Z" fill="#F68260"/>
                  <path d="M85.612 74.0607C86.6915 73.5536 83.7808 69.9803 81.2938 68.6552C77.5353 66.6515 71.693 65.1916 68.0578 65.9729C63.6819 66.9137 59.9732 68.8199 57.5639 72.5887C55.1547 76.357 54.05 80.8568 53.8883 85.3252C53.8385 86.6886 53.8884 88.1166 54.542 89.3143C55.3505 90.7941 57.0184 91.801 56.8163 93.758C56.7428 94.4738 56.9009 95.2106 57.3592 95.7654C58.4565 97.0932 59.9743 96.0092 60.7129 94.8723C62.2911 92.4439 62.6429 89.4454 62.9532 86.5664C63.1742 84.5208 63.3926 82.43 62.94 80.4221C62.6938 79.3293 62.2533 78.2841 62.0685 77.1792C61.8832 76.0743 61.9955 74.842 62.7316 73.9967C62.8513 73.8593 63.045 73.6889 63.2886 73.5016C65.2154 72.0223 67.8 71.7082 70.034 72.6631C73.5783 74.1781 79.649 76.4907 81.3463 75.3648C83.7876 73.746 84.4182 72.628 84.4182 72.628L85.612 74.0607Z" fill="#17282F"/>
                  <path d="M68.4507 65.1213C72.0664 64.1664 76.0917 64.4873 79.2937 66.4171C80.9931 67.4407 82.4878 68.9992 82.9016 70.9389C83.3147 72.8776 82.3498 75.1698 80.4671 75.798L80.3358 75.8693C77.5281 76.616 75.7656 76.1336 73.087 75.0103C70.8332 74.0654 68.8738 72.5121 66.6158 71.5777C64.2149 70.5844 61.5127 70.3317 58.969 70.8629C61.6124 68.2215 64.836 66.0762 68.4507 65.1213Z" fill="#17282F"/>
                  <path d="M70.0802 64.0043C70.0823 63.987 70.3159 64.0059 70.7354 64.0693C71.1512 64.1475 71.7539 64.2786 72.4684 64.5408C73.1819 64.8019 74.0051 65.1963 74.8404 65.7616C75.6726 66.3248 76.5252 67.0647 77.2035 68.0217C77.8881 68.9813 78.2619 70.0495 78.5039 71.0218C78.7423 71.9992 78.8468 72.8986 78.8998 73.6527C78.9533 74.4078 78.9554 75.0192 78.947 75.4408C78.9392 75.863 78.9182 76.0958 78.9003 76.0958C78.8804 76.0958 78.8651 75.863 78.841 75.4429C78.8158 75.0229 78.7848 74.4151 78.7071 73.6694C78.6299 72.9243 78.5071 72.0386 78.2598 71.0831C78.0094 70.1334 77.6366 69.0983 76.9804 68.1795C76.3272 67.2577 75.503 66.5298 74.6976 65.9687C73.8891 65.405 73.0916 65.0007 72.3986 64.7206C71.0063 64.1658 70.0697 64.0567 70.0802 64.0043Z" fill="#33535F"/>
                  <path d="M76.0069 63.6477C76.0127 63.6294 76.2096 63.6849 76.5629 63.8014C76.7367 63.868 76.9646 63.9146 77.1987 64.0389C77.4455 64.1637 77.7138 64.2995 78.0041 64.4464C79.1497 65.116 80.5646 66.4616 81.3431 68.3689C81.5558 68.8361 81.6818 69.3206 81.8167 69.7831C81.9044 70.2577 82.0067 70.7118 82.0267 71.1555C82.0834 71.596 82.0509 72.0181 82.0514 72.4109C82.0026 72.8011 81.9873 73.1697 81.9033 73.4943C81.8272 73.8205 81.77 74.1178 81.665 74.3637C81.5699 74.6118 81.5064 74.8315 81.4061 74.9914C81.2287 75.3208 81.1242 75.4964 81.1079 75.4865C81.0518 75.4608 81.4964 74.7518 81.7138 73.4592C81.7831 73.1409 81.7863 72.7801 81.8246 72.3999C81.8136 72.0165 81.8382 71.6065 81.7758 71.1786C81.75 70.747 81.6445 70.306 81.5563 69.8466C81.4214 69.3977 81.2975 68.9279 81.0906 68.4748C80.3351 66.6252 78.9953 65.308 77.9017 64.6105C77.625 64.4542 77.3688 64.31 77.1331 64.1768C76.9094 64.0415 76.6905 63.9818 76.5251 63.9005C76.1876 63.7552 76.0017 63.6655 76.0069 63.6477Z" fill="#33535F"/>
                  <path d="M80.2061 131.159C80.2061 132.042 84.6346 151.467 86.3293 156.238C88.0241 161.01 93.3907 208.859 92.6846 212.267C91.9784 215.675 90.1425 215.539 90.1425 215.539C90.1425 215.539 46.7856 212.813 42.1251 213.221C37.4646 213.631 35.4874 213.494 34.3576 208.177C33.2278 202.861 34.3912 175.229 33.4026 168.549C32.414 161.87 32.4056 158.631 32.0234 148.707C31.6916 140.106 33.6515 133.207 37.747 128.228C41.8426 123.248 50.9085 118.214 50.9085 118.214L54.1242 113.529L76.8807 125.551L77.401 122.815L78.7818 127.074L80.2061 131.159Z" fill="#33535F"/>
                  <path d="M37.0864 195.325H90.252V148.9H37.0864V195.325Z" fill="#20353D"/>
                  <path d="M35.9109 147.547C36.1603 147.99 55.456 189.154 64.0708 190.847C72.6857 192.539 99.4596 192.935 104.685 191.947C109.91 190.96 115.023 190.041 115.023 190.041C115.023 190.041 118.806 181.064 115.353 173.416L108.161 173.643C108.161 173.643 88.164 172.566 85.3395 171.794C82.5149 171.023 80.0747 168.377 77.5326 168.518L62.3205 133.158C62.3205 133.158 52.4345 123.989 45.3731 126.811C38.3118 129.632 33.8413 143.87 35.9109 147.547Z" fill="#33535F"/>
                  <path d="M108.715 191.468C108.697 191.462 108.748 191.216 108.857 190.776C108.971 190.338 109.114 189.698 109.263 188.903C109.417 188.11 109.549 187.155 109.646 186.093C109.728 185.029 109.767 183.854 109.72 182.623C109.614 180.158 109.175 177.958 108.741 176.401C108.526 175.622 108.332 174.996 108.182 174.568C108.037 174.139 107.965 173.898 107.982 173.89C108 173.884 108.106 174.112 108.282 174.531C108.463 174.949 108.686 175.569 108.927 176.347C109.411 177.901 109.886 180.121 109.994 182.612C110.041 183.855 109.994 185.042 109.896 186.115C109.786 187.187 109.632 188.147 109.453 188.942C109.277 189.737 109.106 190.374 108.96 190.805C108.819 191.238 108.733 191.474 108.715 191.468Z" fill="#17282F"/>
                  <path d="M62.3204 133.158C62.3204 133.158 62.4228 133.369 62.6076 133.785C62.7935 134.208 63.0654 134.826 63.4193 135.633C64.128 137.263 65.1665 139.652 66.4969 142.712C69.1508 148.853 72.9676 157.684 77.6318 168.475L77.5268 168.41C78.7275 168.355 79.8563 168.876 80.8989 169.442C81.9484 170.02 82.9649 170.692 84.08 171.201C85.1814 171.76 86.432 171.889 87.6989 172.042C88.9657 172.191 90.2588 172.302 91.5698 172.416C96.8177 172.849 102.378 173.19 108.168 173.513H108.157C110.419 173.441 112.866 173.363 115.348 173.283L115.438 173.28L115.474 173.362C116.583 175.898 117.048 178.75 116.914 181.605C116.791 184.464 116.205 187.341 115.149 190.094L115.123 190.161L115.047 190.175C113.598 190.442 112.041 190.73 110.474 191.019C108.796 191.328 107.127 191.635 105.469 191.941C103.809 192.265 102.116 192.389 100.459 192.457C97.1317 192.609 93.8525 192.621 90.6316 192.605C87.4106 192.587 84.2469 192.512 81.1504 192.397C78.0539 192.288 75.0241 192.128 72.072 191.903C70.5951 191.797 69.1393 191.655 67.7044 191.499C66.2696 191.31 64.8615 191.182 63.476 190.797C62.8003 190.546 62.2013 190.159 61.6447 189.742C61.0867 189.323 60.5758 188.858 60.0897 188.379C59.1147 187.422 58.2422 186.4 57.4195 185.371C54.1565 181.23 51.5997 177.034 49.3139 173.192C44.7909 165.473 41.5264 159.009 39.2851 154.54C38.1711 152.302 37.3268 150.554 36.7604 149.366C36.1944 148.177 35.9109 147.547 35.9109 147.547C35.9109 147.547 35.9965 147.697 36.1466 147.999C36.2989 148.308 36.5204 148.756 36.8097 149.342C37.4003 150.525 38.2661 152.26 39.3801 154.492C41.6498 158.945 44.94 165.395 49.4803 173.094C51.774 176.924 54.3392 181.112 57.5964 185.23C58.4175 186.252 59.2869 187.267 60.2535 188.213C60.7354 188.685 61.2405 189.143 61.7881 189.553C62.333 189.961 62.9179 190.335 63.5579 190.571C64.8704 190.934 66.3152 191.071 67.7328 191.254C69.1634 191.409 70.6166 191.548 72.0909 191.652C75.0388 191.873 78.066 192.03 81.1599 192.137C84.2538 192.248 87.4148 192.321 90.6331 192.337C93.8509 192.352 97.1275 192.338 100.445 192.185C102.108 192.116 103.767 191.994 105.418 191.674C107.077 191.368 108.746 191.06 110.425 190.75C111.992 190.461 113.55 190.173 114.998 189.906L114.897 189.988C115.936 187.282 116.522 184.417 116.643 181.595C116.777 178.771 116.318 175.963 115.231 173.471L115.357 173.549C112.874 173.627 110.427 173.703 108.165 173.774H108.159H108.154C102.362 173.447 96.8015 173.099 91.5493 172.657C90.2368 172.542 88.9431 172.428 87.6716 172.276C87.0347 172.204 86.4058 172.122 85.78 172.004C85.1458 171.908 84.5525 171.662 83.9844 171.41C82.8478 170.888 81.8298 170.212 80.7913 169.638C79.7597 169.074 78.665 168.575 77.5384 168.626L77.4628 168.63L77.4334 168.561C72.8054 157.754 69.018 148.91 66.3845 142.76C65.0778 139.69 64.0572 137.293 63.361 135.658C63.0192 134.845 62.7572 134.224 62.5777 133.798C62.4029 133.378 62.3204 133.158 62.3204 133.158Z" fill="#17282F"/>
                  <path d="M60.3046 130.383C60.2868 130.399 60.0358 130.135 59.556 129.69C59.0777 129.244 58.3411 128.642 57.3488 128.028C56.3587 127.412 55.0897 126.815 53.6029 126.408C52.1187 125.999 50.4114 125.809 48.6426 125.974C46.8754 126.161 45.2384 126.686 43.865 127.381C42.4879 128.074 41.3623 128.91 40.5139 129.71C39.6628 130.508 39.0606 131.243 38.68 131.775C38.2978 132.306 38.1046 132.614 38.0836 132.602C38.0752 132.597 38.1156 132.516 38.2002 132.364C38.2894 132.216 38.4028 131.984 38.5929 131.715C38.9488 131.16 39.5347 130.397 40.3805 129.57C41.2237 128.741 42.3556 127.874 43.7511 127.156C45.1424 126.437 46.8103 125.893 48.6153 125.703C50.4219 125.533 52.1638 125.736 53.6701 126.166C55.18 126.594 56.461 127.219 57.4517 127.865C58.445 128.509 59.1706 129.141 59.63 129.614C59.8694 129.84 60.0264 130.045 60.1435 130.173C60.2558 130.304 60.312 130.377 60.3046 130.383Z" fill="#17282F"/>
                  <path d="M77.4744 168.549C77.5453 168.576 77.1095 169.912 76.501 171.535C75.8926 173.158 75.3423 174.452 75.2715 174.426C75.2006 174.4 75.6364 173.062 76.2448 171.44C76.8533 169.817 77.4035 168.523 77.4744 168.549Z" fill="#17282F"/>
                  <path d="M112.427 175.33C112.427 175.314 112.501 175.293 112.625 175.338C112.749 175.381 112.907 175.506 113.012 175.716C113.111 175.914 113.182 176.242 112.992 176.533C112.814 176.802 112.475 177.009 112.079 176.954C111.677 176.879 111.443 176.531 111.392 176.221C111.337 175.897 111.471 175.603 111.654 175.446C111.842 175.284 112.05 175.267 112.171 175.278C112.297 175.29 112.359 175.323 112.357 175.34C112.366 175.392 112.051 175.321 111.789 175.586C111.668 175.717 111.586 175.944 111.639 176.174C111.686 176.402 111.875 176.643 112.125 176.685C112.377 176.726 112.653 176.578 112.783 176.393C112.921 176.21 112.897 175.969 112.835 175.792C112.7 175.417 112.416 175.365 112.427 175.33Z" fill="#17282F"/>
                  <path d="M77.4246 126.919C77.4178 126.93 77.2387 126.836 76.9059 126.651C76.5483 126.447 76.0685 126.173 75.47 125.832L75.5708 125.788C75.2873 127.221 75.0122 129.33 74.5307 131.857L74.4987 132.025L74.3522 131.933C72.2396 130.603 69.7048 129.083 67.0005 127.45C64.9845 126.245 63.0997 125.028 61.3635 123.976C59.6184 122.933 58.0239 122.03 56.6815 121.278C55.3579 120.543 54.2769 119.942 53.4957 119.508C53.1403 119.308 52.8536 119.147 52.631 119.023C52.4347 118.91 52.3333 118.846 52.3375 118.838C52.3423 118.829 52.452 118.877 52.6567 118.974C52.8851 119.087 53.1802 119.233 53.5456 119.414C54.3137 119.804 55.4193 120.378 56.7749 121.109C58.1305 121.84 59.736 122.727 61.4926 123.76C63.232 124.825 65.1394 125.992 67.1423 127.217C69.845 128.848 72.3761 130.383 74.4788 131.734L74.3002 131.81C74.8027 129.302 75.1135 127.19 75.4385 125.76L75.4595 125.666L75.5393 125.716C76.1241 126.08 76.593 126.372 76.9426 126.59C77.2634 126.795 77.4309 126.909 77.4246 126.919Z" fill="#17282F"/>
                  <path d="M75.8022 134.291C72.6999 133.296 70.0245 131.318 67.4115 129.374C63.6409 126.568 59.8703 123.761 56.0991 120.955C56.2876 121.06 56.4819 121.167 56.6814 121.278C57.2048 121.571 57.7666 121.888 58.3609 122.226L63.7322 125.44C64.778 126.093 65.8685 126.773 67.0004 127.45C69.7047 129.083 72.2395 130.603 74.3521 131.933L74.4986 132.025L74.5306 131.857C74.7569 130.669 74.938 129.573 75.095 128.596L75.6305 126.047C75.6877 128.795 75.745 131.543 75.8022 134.291Z" fill="#20353D"/>
                  <path d="M74.4987 132.025L74.3522 131.933C72.2395 130.603 69.7048 129.083 67.0005 127.45C65.8686 126.773 64.7781 126.093 63.7323 125.44L74.4157 131.834L75.0951 128.596C74.9381 129.573 74.757 130.669 74.5307 131.857L74.4987 132.025ZM58.3609 122.226C57.7666 121.888 57.2049 121.571 56.6814 121.278C56.4819 121.167 56.2877 121.06 56.0992 120.955C55.9118 120.815 55.7238 120.675 55.5364 120.536L58.3609 122.226Z" fill="#0F191D"/>
                  <path d="M177.823 79.2469C175.756 79.5227 173.601 78.0439 173.118 76.0172C172.635 73.9909 173.891 71.7008 175.862 71.017C174.548 69.7228 174.183 67.566 174.999 65.912C175.814 64.2586 177.749 63.2339 179.577 63.4862C179.618 61.6665 180.672 59.9025 182.256 59.0026C183.84 58.1033 185.897 58.1006 187.483 58.9963C189.461 57.2343 192.704 57.1069 194.816 58.7079C196.578 58.3471 198.526 59.2512 199.387 60.8291C200.248 62.4075 199.953 64.5318 198.694 65.8161" fill="#17282F"/>
                  <path d="M177.216 79.8552C177.781 70.4711 185.467 63.0955 194.877 62.9046L195.812 62.8858C205.906 63.2691 211.219 72.0454 210.556 82.1127L211.157 118.032L186.629 126.825L186.415 113.89C186.415 113.89 176.692 112.582 176.375 102.906C176.222 98.2321 176.69 88.5832 177.216 79.8552Z" fill="#B96357"/>
                  <path d="M186.334 113.878C186.334 113.878 192.53 114.124 198.956 109.908C198.956 109.908 196.111 116.934 186.424 116.259L186.334 113.878Z" fill="#6F3430"/>
                  <path d="M179.938 88.6068C179.927 89.3373 180.537 89.9488 181.301 89.9744C182.063 89.9991 182.691 89.4296 182.702 88.6991C182.713 87.9686 182.103 87.3561 181.341 87.331C180.577 87.3053 179.949 87.8769 179.938 88.6068Z" fill="#17282F"/>
                  <path d="M179.396 84.5486C179.571 84.7253 180.604 83.9288 182.093 83.9025C183.58 83.8548 184.689 84.5979 184.846 84.4128C184.924 84.3299 184.743 84.0085 184.26 83.6718C183.785 83.3367 182.979 83.0179 182.051 83.041C181.124 83.0651 180.351 83.4217 179.909 83.7798C179.458 84.1406 179.31 84.4694 179.396 84.5486Z" fill="#17282F"/>
                  <path d="M193.506 88.6074C193.495 89.3373 194.105 89.9488 194.869 89.974C195.63 89.9997 196.259 89.4296 196.27 88.6986C196.281 87.9687 195.67 87.3562 194.909 87.331C194.145 87.3053 193.517 87.8769 193.506 88.6074Z" fill="#17282F"/>
                  <path d="M194.039 84.5281C194.214 84.7049 195.249 83.9088 196.737 83.8826C198.223 83.8349 199.332 84.578 199.49 84.3923C199.568 84.31 199.388 83.9885 198.903 83.6519C198.428 83.3168 197.622 82.9979 196.695 83.0205C195.767 83.0446 194.994 83.4017 194.553 83.7594C194.103 84.1196 193.954 84.449 194.039 84.5281Z" fill="#17282F"/>
                  <path d="M188.86 95.6689C188.865 95.5839 187.936 95.4429 186.432 95.2819C186.051 95.2509 185.69 95.1828 185.621 94.9242C185.525 94.6521 185.676 94.2394 185.852 93.7937C186.19 92.8676 186.545 91.8964 186.917 90.8785C188.395 86.729 189.456 83.3204 189.288 83.2622C189.12 83.2045 187.786 86.5208 186.309 90.6704C185.954 91.6929 185.613 92.6683 185.291 93.6017C185.156 94.0359 184.918 94.5309 185.124 95.0962C185.232 95.3778 185.516 95.5782 185.761 95.6385C186.005 95.7082 186.22 95.7077 186.408 95.715C187.919 95.7654 188.856 95.7533 188.86 95.6689Z" fill="#17282F"/>
                  <path d="M193.485 79.474C193.688 79.8468 194.956 79.4121 196.527 79.3298C198.095 79.2118 199.425 79.4803 199.561 79.0854C199.618 78.8977 199.333 78.5647 198.76 78.2742C198.193 77.9837 197.334 77.7676 196.393 77.8269C195.453 77.8882 194.641 78.2107 194.132 78.5699C193.618 78.9302 193.393 79.2957 193.485 79.474Z" fill="#17282F"/>
                  <path d="M179.108 79.2867C179.429 79.6182 180.65 79.2427 182.128 79.196C183.604 79.1063 184.863 79.3675 185.143 79.0083C185.266 78.8342 185.062 78.4996 184.509 78.1908C183.964 77.8829 183.057 77.6412 182.042 77.6873C181.027 77.7345 180.153 78.0591 179.646 78.4157C179.131 78.7734 178.966 79.1252 179.108 79.2867Z" fill="#17282F"/>
                  <path d="M178.058 75.3973C178.058 75.3973 180.49 69.2839 183.387 67.8099C186.895 66.0259 188.499 69.8781 191.856 68.867C195.213 67.856 198.562 66.1438 202.065 68.6803C205.899 71.457 204.17 73.4943 204.491 77.7844C205.792 95.1765 209.076 100.036 209.814 91.8162C209.895 90.9152 212.377 90.1502 212.67 86.3467C213.049 81.4143 213.116 75.433 211.946 71.962C210.958 69.0364 209.237 67.0364 206.176 64.8549C201.346 61.4112 194.809 61.4683 190.38 62.0048C185.951 62.5407 177.499 67.8161 178.058 75.3973Z" fill="#17282F"/>
                  <path d="M209.191 91.565C209.222 90.0699 210.486 88.8643 211.98 88.9755C213.79 89.1103 215.822 90.0946 215.779 93.8272C215.703 100.449 209.062 99.0061 209.053 98.8158C209.047 98.6868 209.135 94.3359 209.191 91.565Z" fill="#B96357"/>
                  <path d="M210.525 96.3412C210.554 96.3207 210.639 96.4235 210.834 96.5153C211.023 96.6044 211.349 96.6679 211.696 96.5425C212.4 96.294 213.002 95.1906 213.048 93.9971C213.072 93.3951 212.953 92.8193 212.744 92.3421C212.547 91.855 212.238 91.5136 211.886 91.447C211.536 91.3615 211.284 91.5697 211.201 91.7553C211.11 91.9394 211.15 92.0721 211.115 92.0831C211.096 92.0993 210.974 91.9698 211.031 91.6971C211.059 91.566 211.139 91.4108 211.296 91.2855C211.457 91.158 211.691 91.0946 211.937 91.124C212.448 91.1654 212.902 91.6405 213.131 92.1649C213.388 92.6919 213.537 93.3385 213.51 94.015C213.452 95.349 212.754 96.5892 211.792 96.8551C211.325 96.971 210.938 96.8257 210.738 96.6679C210.534 96.5016 210.502 96.3532 210.525 96.3412Z" fill="#6F3430"/>
                  <path d="M208.8 78.7472C207.952 79.3513 207.055 79.9748 206.021 80.0985C204.986 80.2218 203.789 79.6512 203.593 78.6286C203.505 78.1698 203.606 77.6333 203.296 77.2836C202.926 76.8656 202.261 77.0125 201.707 77.0827C199.785 77.326 197.785 76.0051 197.256 74.1435C196.78 74.8881 195.633 74.8797 194.88 74.4162C194.126 73.9526 193.632 73.1791 193.036 72.5252C192.441 71.8718 191.612 71.2934 190.739 71.4355C190.251 71.5147 189.798 71.8152 189.305 71.7816C188.433 71.7218 187.988 70.7134 187.838 69.8534C187.689 68.9934 187.566 67.9892 186.82 67.5356C186.128 67.115 185.248 67.384 184.45 67.5183C183.651 67.6525 182.614 67.4858 182.392 66.7076C182.276 66.2996 182.444 65.8643 182.664 65.5015C183.663 63.8585 185.897 63.0918 187.696 63.7762C188.3 61.5763 190.313 59.8327 192.578 59.5475C194.844 59.2622 197.227 60.4515 198.358 62.4327C199.733 61.1353 201.756 60.5616 203.609 60.9439C205.46 61.3262 207.09 62.6545 207.837 64.3902C209.439 63.934 211.289 64.5193 212.337 65.814C213.385 67.1087 213.569 69.038 212.787 70.5073C213.992 71.1628 215.035 72.3238 215.088 73.6936C215.14 75.0622 213.832 76.4545 212.502 76.121C213.058 77.1766 212.652 78.6328 211.63 79.2495C210.608 79.8662 209.129 79.5474 208.452 78.5641" fill="#17282F"/>
                  <path d="M187.243 65.7327C187.238 65.7338 187.24 65.7747 187.247 65.8544C187.258 65.9336 187.265 66.0537 187.296 66.2068C187.364 66.511 187.496 66.9614 187.803 67.4722C188.113 67.9756 188.588 68.554 189.305 69.0065C190.006 69.4654 190.963 69.8047 192.035 69.7245L191.919 69.5802C191.725 70.1503 191.795 70.8283 192.089 71.4046C192.368 71.9909 192.801 72.5069 193.256 73.0087C193.489 73.2494 193.693 73.5342 194.013 73.7534C194.324 73.9631 194.694 74.0811 195.071 74.121C195.82 74.2007 196.658 73.9532 197.187 73.3139L196.939 73.2484C197.134 74.5604 197.91 75.8614 199.116 76.6397C199.755 77.0812 200.54 77.3434 201.306 77.3077C202.073 77.2841 202.781 77.045 203.44 76.7938L203.262 76.7199C203.635 77.5348 204.196 78.2254 204.872 78.7304C205.535 79.2344 206.41 79.5202 207.193 79.3109C208.749 78.9486 209.76 77.6287 209.944 76.4016L209.796 76.4739C210.58 76.8809 211.414 76.9045 212.079 76.7618C212.754 76.6244 213.28 76.3198 213.652 76.0224C214.027 75.7193 214.245 75.4115 214.376 75.1986C214.495 74.9778 214.544 74.8562 214.537 74.853C214.503 74.8263 214.328 75.3607 213.584 75.9349C213.212 76.2086 212.697 76.4881 212.048 76.6045C211.407 76.7272 210.617 76.6858 209.893 76.2962L209.767 76.2285L209.744 76.3691C209.557 77.5143 208.582 78.7467 207.139 79.066C206.429 79.2475 205.66 78.9916 205.032 78.5149C204.401 78.0387 203.865 77.3733 203.519 76.6066L203.463 76.4855L203.34 76.5321C202.691 76.7776 202.007 77.0025 201.298 77.0214C200.59 77.0513 199.886 76.8185 199.276 76.3995C198.136 75.6632 197.408 74.4461 197.217 73.2043L197.169 72.8918L196.968 73.1388C196.521 73.6847 195.772 73.9212 195.098 73.8504C194.76 73.8168 194.432 73.713 194.161 73.5321C193.896 73.3585 193.684 73.0774 193.447 72.8346C192.992 72.3412 192.572 71.8451 192.306 71.2997C192.027 70.7612 191.964 70.1655 192.13 69.6495L192.18 69.4906L192.014 69.5047C191.005 69.5933 190.084 69.2866 189.399 68.8576C188.7 68.435 188.226 67.8859 187.908 67.4066C187.285 66.4181 187.291 65.717 187.243 65.7327Z" fill="#33535F"/>
                  <path d="M193.993 96.1807C193.757 96.2085 194.03 97.7691 192.889 99.1126C191.752 100.459 190.055 100.578 190.082 100.798C190.077 100.9 190.506 101.036 191.212 100.931C191.906 100.833 192.874 100.433 193.572 99.6118C194.267 98.7885 194.457 97.8205 194.397 97.1713C194.341 96.5084 194.098 96.1529 193.993 96.1807Z" fill="#17282F"/>
                  <path d="M139.855 171.488C140.695 171.152 168.441 167.822 168.441 167.822L179.699 158.303L178.643 185.861L143.214 189.273L139.855 171.488Z" fill="#F2575D"/>
                  <path d="M171.604 165.148C171.604 165.148 174.383 162.68 174.722 162.512L171.604 165.148Z" fill="#9FA1A1"/>
                  <path d="M172.452 186.369L171.604 165.148L174.722 162.512L174.67 163.053C173.785 168.973 173.026 175.587 172.94 181.243L172.452 186.369Z" fill="#CC4341"/>
                  <path d="M221.994 212.419H175.129C175.129 212.419 177.61 225.627 178.529 231.713C179.448 237.799 180.791 242.118 180.791 242.118H223.237C223.237 242.118 226.405 234.446 226.957 229.519C227.508 224.591 221.994 212.419 221.994 212.419Z" fill="#17282F"/>
                  <path d="M171.637 214.012C171.637 214.012 170.328 229.068 171.637 242.118H187.871V230.094L171.637 214.012Z" fill="#17282F"/>
                  <path d="M180.657 140.212L185.707 129.165L186.335 122.342C186.335 122.342 196.019 116.262 200.614 113.968C205.208 111.673 211.398 109.596 211.398 109.596V116.034L180.657 140.212Z" fill="#E7E8E5"/>
                  <path d="M222.871 196.632C222.871 196.632 225.614 159.81 225.8 157.074C225.8 157.074 227.42 137.4 223.923 129.908C220.425 122.416 212.599 115.831 212.599 115.831L211.878 111.898L196.591 121.523L189.525 127.661C189.525 127.661 185.514 131.891 182.857 135.948C180.851 138.72 178.621 142.287 177.628 146.771C177.266 148.41 173.06 168.012 172.934 181.675C172.934 181.675 172.288 193.595 171.599 200.347C170.745 208.703 169.446 227.754 169.728 239.041L219.264 237.53C231.506 235.665 229.353 234.449 229.353 234.449L222.871 196.632Z" fill="#F2575D"/>
                  <path d="M211.398 116.034C211.398 116.034 211.283 116.093 211.055 116.191C210.813 116.291 210.477 116.432 210.044 116.612C209.611 116.82 209.086 117.094 208.47 117.414C207.878 117.78 207.172 118.158 206.441 118.678C203.47 120.67 199.548 124.045 195.558 128.726L195.53 128.759L195.489 128.767C193.98 129.044 192.386 129.337 190.736 129.64L190.838 129.521C190.764 131.727 190.685 134.042 190.604 136.437L190.602 136.491L190.561 136.53C188.181 138.782 185.763 141.33 183.573 144.181C182.684 145.351 181.866 146.552 181.176 147.799L180.918 148.265L180.72 148.752C180.585 149.074 180.457 149.398 180.362 149.74C180.15 150.41 179.941 151.075 179.768 151.748C179.034 154.422 178.43 157.031 177.863 159.518C176.734 164.493 175.795 168.992 175.017 172.771C173.461 180.331 172.586 185.022 172.586 185.022C172.586 185.022 172.597 184.722 172.692 184.162C172.778 183.6 172.922 182.774 173.111 181.712C173.495 179.588 174.075 176.518 174.827 172.732C175.582 168.947 176.502 164.444 177.617 159.462C178.178 156.972 178.778 154.36 179.51 151.676C179.682 151.003 179.892 150.332 180.105 149.655C180.199 149.315 180.332 148.979 180.472 148.644L180.677 148.141L180.938 147.668C181.636 146.404 182.461 145.193 183.355 144.017C185.56 141.146 187.983 138.596 190.382 136.335L190.339 136.428C190.426 134.033 190.509 131.718 190.588 129.512L190.592 129.412L190.691 129.394C192.342 129.096 193.937 128.809 195.447 128.537L195.377 128.578C199.406 123.89 203.358 120.534 206.366 118.566C207.106 118.052 207.82 117.68 208.42 117.322C209.044 117.01 209.576 116.745 210.015 116.547C210.455 116.379 210.797 116.249 211.042 116.156C211.275 116.07 211.398 116.034 211.398 116.034Z" fill="#17282F"/>
                  <path d="M194.768 145.13L195.362 194.264L187.871 242.118H207.619C207.619 242.118 216.594 205.784 218.685 198.148C220.714 190.734 223.755 153.413 224.025 151.581C224.131 150.863 226.272 137.973 219.969 131.893L194.768 145.13Z" fill="#F2575D"/>
                  <path d="M219.968 131.893C219.968 131.893 220.111 132.028 220.382 132.303C220.65 132.579 221.028 133.013 221.46 133.628C222.324 134.853 223.341 136.878 223.927 139.682C224.518 142.478 224.725 146.009 224.302 150.049C224.006 152.062 223.857 154.213 223.639 156.507C223.431 158.797 223.21 161.218 222.979 163.761C222.508 168.847 221.976 174.418 221.333 180.397C221.004 183.384 220.662 186.475 220.239 189.653C219.809 192.825 219.389 196.113 218.5 199.393C215.201 212.518 211.57 226.963 207.752 242.15L207.726 242.255H207.619C206.947 242.255 206.219 242.255 205.489 242.255C199.496 242.254 193.61 242.254 187.871 242.253H187.713L187.738 242.097C190.51 224.447 193.067 208.156 195.251 194.247L195.25 194.265C195.09 179.387 194.958 167.106 194.866 158.537C194.827 154.259 194.797 150.909 194.777 148.622C194.77 147.486 194.765 146.614 194.762 146.021C194.76 145.433 194.768 145.13 194.768 145.13C194.768 145.13 194.783 145.432 194.796 146.02C194.807 146.614 194.823 147.485 194.844 148.621C194.879 150.908 194.93 154.258 194.994 158.535C195.109 167.104 195.274 179.385 195.474 194.263V194.272L195.473 194.282C193.302 208.193 190.759 224.487 188.005 242.139L187.871 241.983C193.61 241.983 199.496 241.982 205.489 241.982C206.219 241.982 206.947 241.982 207.619 241.982L207.487 242.085C211.313 226.897 214.952 212.453 218.258 199.327C219.146 196.068 219.567 192.793 220.003 189.621C220.429 186.448 220.775 183.358 221.11 180.372C221.762 174.397 222.305 168.827 222.788 163.744C223.026 161.201 223.253 158.781 223.467 156.491C223.691 154.208 223.85 152.031 224.152 150.032C224.588 146.009 224.396 142.49 223.824 139.704C223.256 136.909 222.261 134.888 221.416 133.659C220.992 133.041 220.623 132.603 220.362 132.322C220.099 132.042 219.968 131.893 219.968 131.893Z" fill="#17282F"/>
                  <path d="M205.212 199.1C205.2 199.133 204.614 198.974 203.686 198.658C202.757 198.341 201.489 197.859 200.12 197.253C198.752 196.645 197.543 196.03 196.685 195.554C195.827 195.079 195.316 194.751 195.334 194.719C195.353 194.685 195.896 194.953 196.774 195.383C197.653 195.813 198.869 196.398 200.231 197.004C201.594 197.607 202.844 198.115 203.753 198.477C204.661 198.839 205.224 199.061 205.212 199.1Z" fill="#17282F"/>
                  <path d="M171.404 202.357C171.4 202.356 171.398 202.313 171.399 202.228C171.403 202.126 171.408 202.003 171.413 201.852C171.432 201.498 171.458 201.016 171.491 200.406C171.572 199.128 171.687 197.319 171.829 195.094C172.132 190.611 172.565 184.417 173.17 177.585C173.776 170.751 174.475 164.58 175.044 160.121C175.33 157.892 175.573 156.09 175.755 154.846C175.846 154.242 175.917 153.765 175.969 153.415C175.995 153.265 176.015 153.143 176.031 153.043C176.048 152.96 176.058 152.918 176.062 152.918C176.067 152.919 176.066 152.962 176.059 153.047C176.05 153.148 176.038 153.271 176.024 153.422C175.984 153.773 175.93 154.253 175.861 154.859C175.71 156.131 175.497 157.931 175.236 160.144C174.716 164.607 174.048 170.779 173.442 177.609C172.837 184.438 172.374 190.628 172.022 195.108C171.844 197.331 171.698 199.137 171.597 200.414C171.543 201.022 171.5 201.503 171.468 201.855C171.452 202.006 171.438 202.129 171.428 202.229C171.417 202.314 171.409 202.357 171.404 202.357Z" fill="#17282F"/>
                  <path d="M211.398 125.694C211.312 125.723 210.828 123.806 209.54 121.78C208.27 119.741 206.751 118.475 206.814 118.411C206.834 118.386 207.239 118.668 207.815 119.219C208.39 119.769 209.121 120.604 209.771 121.635C210.419 122.667 210.856 123.686 211.102 124.442C211.35 125.199 211.429 125.687 211.398 125.694Z" fill="#17282F"/>
                  <path d="M176.551 186.74C176.565 186.737 176.615 186.861 176.599 187.097C176.582 187.327 176.48 187.68 176.17 187.986C175.881 188.295 175.306 188.516 174.746 188.31C174.472 188.216 174.21 188.038 174.014 187.786C173.816 187.537 173.708 187.194 173.718 186.865C173.723 186.442 173.854 186.037 174.098 185.722C174.22 185.565 174.378 185.434 174.558 185.359C174.747 185.289 174.884 185.256 175.041 185.206L175.06 185.2L175.077 185.201C175.435 185.209 175.782 185.287 176.03 185.474C176.281 185.655 176.406 185.904 176.47 186.099C176.592 186.501 176.568 186.738 176.551 186.74C176.519 186.746 176.49 186.509 176.34 186.15C176.261 185.975 176.135 185.772 175.919 185.635C175.705 185.492 175.405 185.437 175.077 185.439L175.114 185.433C174.971 185.484 174.79 185.538 174.66 185.591C174.527 185.651 174.405 185.753 174.307 185.884C174.109 186.144 173.995 186.504 173.992 186.867C173.963 187.442 174.372 187.907 174.831 188.072C175.294 188.255 175.762 188.099 176.038 187.845C176.326 187.595 176.447 187.289 176.494 187.081C176.54 186.869 176.529 186.742 176.551 186.74Z" fill="#17282F"/>
                  <path d="M175.817 204.113C175.831 204.11 175.88 204.234 175.865 204.47C175.847 204.701 175.745 205.054 175.436 205.359C175.147 205.669 174.571 205.89 174.012 205.682C173.736 205.59 173.475 205.412 173.279 205.159C173.082 204.91 172.973 204.567 172.984 204.238C172.989 203.815 173.12 203.41 173.363 203.095C173.486 202.939 173.644 202.808 173.823 202.732C174.013 202.662 174.15 202.629 174.306 202.579L174.325 202.574H174.343C174.7 202.583 175.047 202.66 175.295 202.847C175.546 203.028 175.672 203.277 175.736 203.473C175.857 203.874 175.833 204.111 175.817 204.113C175.784 204.12 175.755 203.883 175.605 203.523C175.527 203.348 175.4 203.145 175.183 203.009C174.971 202.865 174.67 202.81 174.343 202.812L174.379 202.807C174.236 202.857 174.055 202.911 173.926 202.964C173.792 203.024 173.67 203.126 173.572 203.256C173.375 203.518 173.26 203.877 173.257 204.24C173.228 204.816 173.638 205.281 174.096 205.446C174.56 205.628 175.027 205.472 175.304 205.219C175.591 204.968 175.713 204.662 175.759 204.455C175.806 204.242 175.793 204.115 175.817 204.113Z" fill="#17282F"/>
                  <path d="M217.745 128.985C217.717 129.032 217.065 128.616 215.913 128.174C215.34 127.949 214.632 127.746 213.835 127.583C213.035 127.437 212.144 127.341 211.205 127.348C210.266 127.367 209.376 127.487 208.58 127.655C207.788 127.84 207.087 128.062 206.52 128.304C205.38 128.777 204.74 129.211 204.711 129.165C204.701 129.149 204.855 129.034 205.145 128.839C205.288 128.738 205.468 128.622 205.69 128.508C205.909 128.392 206.152 128.245 206.443 128.126C207.01 127.858 207.719 127.612 208.524 127.41C209.333 127.225 210.241 127.094 211.201 127.075C212.16 127.068 213.071 127.174 213.885 127.337C214.696 127.516 215.411 127.743 215.985 127.995C216.279 128.105 216.526 128.245 216.749 128.356C216.973 128.464 217.156 128.574 217.302 128.671C217.597 128.858 217.755 128.97 217.745 128.985Z" fill="#17282F"/>
                  <path d="M174.607 174.772C174.738 174.13 174.874 173.462 175.016 172.771C175.795 168.992 176.734 164.493 177.863 159.518C178.43 157.031 179.034 154.422 179.768 151.748C179.941 151.075 180.149 150.41 180.362 149.74C180.457 149.398 180.585 149.074 180.72 148.752L180.918 148.265L181.176 147.799C181.866 146.552 182.684 145.351 183.573 144.181C183.886 143.773 184.205 143.371 184.527 142.975C185.913 141.385 187.398 139.751 188.537 138.513C189.211 137.828 189.887 137.167 190.561 136.53L190.602 136.491L190.604 136.437C190.684 134.078 190.761 131.797 190.834 129.621C192.449 129.325 194.01 129.038 195.489 128.767L195.53 128.759L195.558 128.726C196.716 127.368 197.869 126.119 198.994 124.982C198.793 125.875 197.898 127.873 196.694 129.165C196.457 129.42 194.47 130.868 192.578 130.868C192.566 130.868 192.554 130.868 192.542 130.868C192.594 137.116 192.199 139.426 189.538 141.244C186.809 143.106 184.963 146.087 183.394 148.993C180.729 153.927 180.254 159.964 178.556 165.308C177.435 168.837 176.657 171.727 174.607 174.772ZM180.068 149.773C180.262 148.992 180.409 148.446 180.494 148.215C180.634 147.833 181.092 147.159 181.741 146.319C181.459 146.763 181.19 147.212 180.938 147.668L180.677 148.141L180.472 148.644C180.332 148.979 180.199 149.315 180.105 149.655C180.093 149.695 180.08 149.734 180.068 149.773Z" fill="#CC4341"/>
                  <path d="M174.489 174.945C174.489 174.945 178.606 155.656 180.068 149.773C180.08 149.734 180.093 149.695 180.105 149.655C180.199 149.315 180.332 148.979 180.472 148.644L180.677 148.141L180.938 147.668C181.19 147.212 181.459 146.763 181.741 146.319C182.484 145.357 183.477 144.179 184.527 142.975C184.205 143.371 183.886 143.773 183.573 144.181C182.684 145.351 181.866 146.552 181.176 147.799L180.918 148.265L180.72 148.752C180.585 149.074 180.457 149.398 180.362 149.74C180.149 150.41 179.941 151.075 179.768 151.748C179.034 154.422 178.43 157.031 177.862 159.518C176.734 164.493 175.795 168.992 175.016 172.771C174.874 173.462 174.738 174.13 174.607 174.772C174.568 174.83 174.529 174.888 174.489 174.945ZM188.537 138.513C189.678 137.274 190.472 136.432 190.472 136.432C190.59 134.029 190.595 131.921 190.713 129.518C190.714 129.518 190.714 129.518 190.714 129.518C190.802 129.518 195.468 128.652 195.468 128.652C195.468 128.652 197.693 126.247 199.027 124.797C199.02 124.852 199.009 124.914 198.994 124.982C197.868 126.119 196.716 127.368 195.558 128.726L195.53 128.759L195.489 128.767C194.01 129.038 192.449 129.325 190.834 129.621C190.761 131.797 190.684 134.078 190.604 136.437L190.602 136.492L190.561 136.53C189.887 137.167 189.211 137.828 188.537 138.513ZM190.713 129.518C190.712 129.518 190.712 129.518 190.713 129.517V129.518Z" fill="#0F191D"/>
                  <path d="M209.621 234.714C212.756 222.244 215.743 210.357 218.5 199.393C219.389 196.113 219.809 192.825 220.239 189.653C220.662 186.475 221.004 183.384 221.333 180.397C221.976 174.418 222.508 168.847 222.979 163.761C223.176 161.589 223.366 159.506 223.547 157.517C224.181 184.548 220.687 212.847 209.621 234.714Z" fill="#CC4341"/>
                  <path d="M208.857 236.191C208.857 236.191 209.744 232.88 210.996 228.153C210.363 230.667 209.723 233.209 209.076 235.774C209.004 235.913 208.93 236.053 208.857 236.191ZM220.249 187.733C220.731 183.679 221.264 178.85 221.758 174.237C221.554 176.229 221.339 178.276 221.11 180.372C220.842 182.762 220.567 185.219 220.249 187.733Z" fill="#CC4341"/>
                  <path d="M209.076 235.774C209.723 233.208 210.363 230.667 210.996 228.153C213.746 217.779 218.259 200.586 219.034 196.632C219.324 195.15 219.76 191.839 220.249 187.733C220.567 185.219 220.842 182.762 221.11 180.372C221.339 178.276 221.554 176.229 221.758 174.236C222.721 165.244 223.536 157.074 223.536 157.074C223.54 157.221 223.544 157.369 223.547 157.517C223.366 159.506 223.176 161.589 222.979 163.761C222.508 168.847 221.976 174.418 221.333 180.397C221.004 183.384 220.662 186.475 220.239 189.653C219.809 192.825 219.389 196.113 218.5 199.393C215.743 210.357 212.756 222.244 209.621 234.714C209.441 235.07 209.26 235.422 209.076 235.774Z" fill="#0F191D"/>
                  <path d="M210.648 112.464C210.654 112.472 210.563 112.541 210.385 112.665C210.183 112.802 209.923 112.978 209.604 113.195C208.888 113.664 207.904 114.31 206.701 115.1C204.21 116.703 200.818 118.887 197.072 121.299C195.62 122.223 194.223 123.113 192.916 123.945L192.925 123.939C192.471 124.29 192.028 124.632 191.598 124.964C191.157 125.287 190.778 125.616 190.412 125.975C189.685 126.677 189.038 127.36 188.455 127.979L188.35 128.091L188.29 127.952C187.661 126.5 187.147 125.312 186.775 124.454C186.611 124.061 186.478 123.743 186.376 123.496C186.288 123.276 186.246 123.158 186.254 123.154C186.264 123.15 186.323 123.26 186.429 123.473C186.544 123.714 186.692 124.024 186.876 124.409C187.269 125.258 187.81 126.433 188.473 127.87L188.308 127.843C188.882 127.213 189.522 126.521 190.248 125.806C190.602 125.449 191.016 125.085 191.449 124.764C191.876 124.43 192.314 124.086 192.765 123.734L192.77 123.73L192.774 123.727C194.079 122.891 195.476 121.997 196.923 121.069C200.688 118.683 204.096 116.523 206.598 114.937C207.821 114.177 208.821 113.556 209.547 113.105C209.879 112.906 210.146 112.744 210.356 112.618C210.543 112.509 210.643 112.456 210.648 112.464Z" fill="#17282F"/>
                  <path d="M162.226 88.2529L155.667 87.4883C153.024 90.169 149.631 92.1764 145.705 93.1403C134.414 95.9117 123.012 89.0164 120.237 77.7388C117.462 66.4616 124.366 55.0728 135.656 52.3014C146.947 49.53 158.349 56.4247 161.124 67.7024C162.283 72.4114 161.749 77.1373 159.918 81.2501L159.925 81.2407L162.226 88.2529Z" fill="white"/>
                  <path d="M162.226 88.2529C162.226 88.2529 162.167 88.0929 162.063 87.7898C161.957 87.4778 161.806 87.0316 161.607 86.4458C161.209 85.2617 160.624 83.5228 159.863 81.2611L159.977 81.2816L159.969 81.291L159.877 81.3015L159.858 81.2233C160.957 78.7104 161.921 75.1823 161.562 71.005C161.473 69.9661 161.308 68.8927 161.038 67.8046C160.717 66.7317 160.424 65.6079 159.919 64.5229C158.982 62.3325 157.607 60.1626 155.761 58.2533C153.921 56.3439 151.614 54.6994 148.96 53.5594C146.312 52.4173 143.316 51.7864 140.228 51.8504C134.06 51.9206 127.554 55.0854 123.649 60.6455C121.674 63.4726 120.356 66.7102 119.968 70.0086C119.543 73.2982 119.918 76.5971 120.936 79.571C121.943 82.5548 123.654 85.171 125.697 87.2722C127.748 89.3761 130.155 90.9561 132.638 91.9939C135.123 93.0364 137.678 93.5362 140.087 93.6101C140.388 93.6138 140.688 93.618 140.985 93.6216C141.282 93.6306 141.576 93.6305 141.867 93.5938C142.45 93.5425 143.022 93.4921 143.585 93.4423C144.692 93.2215 145.776 93.0653 146.776 92.7427C150.811 91.5309 153.73 89.3504 155.623 87.4448L155.675 87.4264C157.789 87.6902 159.417 87.8926 160.527 88.031C161.076 88.1013 161.495 88.1548 161.789 88.192C162.074 88.2293 162.226 88.2529 162.226 88.2529C162.226 88.2529 162.092 88.2434 161.814 88.2146C161.523 88.1836 161.11 88.1401 160.567 88.083C159.444 87.9613 157.798 87.7825 155.66 87.5502L155.711 87.5323C153.826 89.4668 150.899 91.685 146.832 92.9289C145.824 93.2588 144.732 93.4224 143.614 93.6494C143.046 93.7019 142.468 93.7553 141.88 93.8099C141.586 93.8476 141.289 93.8497 140.988 93.8419C140.688 93.8393 140.385 93.8361 140.081 93.8335C137.645 93.7679 135.059 93.2713 132.542 92.2231C130.027 91.18 127.586 89.5864 125.504 87.4595C123.431 85.3357 121.693 82.6864 120.667 79.6638C119.632 76.6517 119.248 73.3071 119.677 69.9703C120.069 66.6252 121.404 63.3409 123.407 60.4741C123.633 60.1086 123.913 59.7845 124.185 59.4557L124.998 58.4714L125.896 57.5715C126.192 57.2695 126.489 56.9695 126.825 56.7136C127.15 56.4462 127.474 56.1793 127.797 55.9129C128.113 55.637 128.482 55.4351 128.821 55.1934C129.171 54.9669 129.504 54.7167 129.865 54.5122C130.23 54.3166 130.594 54.121 130.957 53.9265C133.883 52.4094 137.092 51.6113 140.221 51.5667C143.352 51.5053 146.387 52.1498 149.067 53.3119C151.753 54.4718 154.085 56.142 155.942 58.0797C157.805 60.0168 159.188 62.2166 160.127 64.4343C160.633 65.5329 160.926 66.6698 161.245 67.7548C161.513 68.8544 161.675 69.9394 161.759 70.9887C162.102 75.2075 161.106 78.7587 159.978 81.2768L159.866 81.2087L159.874 81.1997L159.966 81.1893L159.988 81.2202C160.721 83.5129 161.285 85.2754 161.669 86.4752C161.853 87.0572 161.993 87.5004 162.092 87.8103C162.185 88.1076 162.226 88.2529 162.226 88.2529Z" fill="#17282F"/>
                  <path d="M130.984 73.2075L133.503 70.4245L138.847 74.7093L146.786 65.6037L149.383 68.1287L138.727 79.8384L130.984 73.2075Z" fill="#17282F"/>
                  <path d="M104.455 90.072C105.407 89.953 106.804 89.7789 108.616 89.5534L108.66 89.5692C110.283 91.2026 112.786 93.0721 116.246 94.112C117.104 94.3883 118.032 94.5221 118.982 94.7114C119.465 94.7539 119.956 94.7974 120.455 94.8409C120.704 94.8724 120.957 94.8729 121.211 94.865C121.466 94.8619 121.723 94.8587 121.982 94.8556C124.047 94.7916 126.238 94.3632 128.368 93.4696C128.915 93.241 129.457 92.9803 129.992 92.6909C129.828 92.628 129.664 92.5687 129.501 92.5005C127.036 91.4785 124.643 89.9163 122.603 87.8318C120.571 85.75 118.867 83.1532 117.862 80.1903C116.846 77.238 116.471 73.96 116.892 70.6893C117.275 67.4103 118.584 64.191 120.548 61.3813C120.769 61.0232 121.043 60.7054 121.309 60.3829L122.107 59.4185L122.45 59.0745C122.253 59.0651 122.056 59.052 121.86 59.0499C119.213 58.9948 116.644 59.5354 114.373 60.515C112.098 61.4925 110.119 62.9021 108.542 64.5392C106.959 66.1764 105.78 68.0369 104.977 69.9148C104.544 70.8456 104.292 71.8094 104.017 72.7292C103.786 73.6621 103.644 74.5824 103.568 75.4729C103.26 79.055 104.087 82.0803 105.029 84.2345L105.014 84.3006C104.366 86.223 103.869 87.7034 103.53 88.7123C103.359 89.2147 103.229 89.5975 103.138 89.8649C103.049 90.1245 102.999 90.2619 102.999 90.2619C102.999 90.2619 103.129 90.2414 103.373 90.21C103.625 90.178 103.984 90.1318 104.455 90.072Z" fill="#F3F2F1"/>
                  <path d="M104.455 90.072C104.455 90.072 104.333 90.0977 104.09 90.1344C103.836 90.1712 103.475 90.2236 103.003 90.2923L102.954 90.2996L102.97 90.2509C103.376 89.0248 104.05 86.9886 104.948 84.2785L104.969 84.2476L104.958 84.2444L104.921 84.1595L104.848 83.9875C104.801 83.8716 104.752 83.7546 104.704 83.6367C104.607 83.3996 104.519 83.1542 104.429 82.9035C104.252 82.4017 104.094 81.8715 103.954 81.3167C103.675 80.2066 103.478 78.991 103.427 77.6926C103.372 76.3963 103.458 75.0182 103.722 73.6029C103.844 72.8902 104.067 72.1828 104.282 71.4675C104.492 70.746 104.794 70.0281 105.123 69.3207C106.438 66.4769 108.658 63.7411 111.69 61.8013C114.698 59.8548 118.51 58.7226 122.457 58.9413L122.755 58.9576L122.544 59.1689C122.438 59.2759 122.32 59.3938 122.202 59.5129L122.21 59.5034C119.802 62.2135 117.96 65.6473 117.225 69.425C116.243 74.6034 117.286 79.9344 119.816 84.0368C122.329 88.1727 126.133 91.0962 130.034 92.5818L130.289 92.6788L130.048 92.7942C129.092 93.2478 128.173 93.726 127.208 94.0276C126.253 94.3464 125.296 94.5776 124.353 94.7318C122.473 95.0438 120.633 95.005 118.974 94.8063L118.966 94.8052L118.963 94.8047C118.358 94.683 117.761 94.5829 117.183 94.4534C116.602 94.3306 116.054 94.1434 115.524 93.9678C114.469 93.596 113.506 93.1565 112.646 92.6741C110.926 91.7082 109.616 90.609 108.646 89.6279C108.638 89.5775 108.528 89.6268 108.449 89.6253C108.366 89.6352 108.284 89.6447 108.204 89.6541C108.042 89.6735 107.886 89.6918 107.734 89.7097C107.431 89.7453 107.148 89.7784 106.884 89.8093C106.361 89.8691 105.916 89.9205 105.553 89.9624C105.202 90.0002 104.929 90.0296 104.735 90.0511C104.55 90.0694 104.455 90.072 104.455 90.072C104.455 90.072 104.548 90.0511 104.731 90.0238C104.925 89.9965 105.196 89.9577 105.547 89.9084C105.909 89.8597 106.352 89.8004 106.874 89.7301C107.138 89.6955 107.421 89.6583 107.723 89.6179C107.874 89.598 108.03 89.5775 108.192 89.5566C108.272 89.5461 108.354 89.5351 108.437 89.5246L108.563 89.5078C108.59 89.5067 108.59 89.4994 108.642 89.5031L108.697 89.5319L108.72 89.5545C109.695 90.5178 111.007 91.598 112.72 92.5425C114.432 93.4906 116.541 94.2662 119 94.618L118.991 94.6165C119.833 94.6878 120.69 94.7843 121.578 94.7591C122.472 94.7533 123.386 94.6731 124.319 94.5205C125.25 94.3653 126.194 94.133 127.137 93.8146C128.088 93.5142 128.994 93.038 129.935 92.5881L129.949 92.7999C126 91.3091 122.141 88.3588 119.591 84.1736C117.022 80.0173 115.962 74.6212 116.957 69.3741C117.704 65.5371 119.57 62.0698 122.004 59.333L122.01 59.3257L122.012 59.3236C122.131 59.2056 122.249 59.0871 122.355 58.9801L122.443 59.2077C118.553 58.988 114.796 60.0976 111.825 62.0111C108.831 63.9178 106.633 66.6095 105.323 69.414C104.992 70.1204 104.697 70.8141 104.484 71.531C104.266 72.2478 104.045 72.9406 103.922 73.6406C103.655 75.0387 103.563 76.4026 103.611 77.6863C103.654 78.9706 103.842 80.1756 104.111 81.2779C104.247 81.8285 104.399 82.3556 104.571 82.8548C104.659 83.1033 104.744 83.3482 104.838 83.5837C104.886 83.7012 104.932 83.8181 104.979 83.9335L105.05 84.1044L105.086 84.1894C105.102 84.204 105.12 84.3178 105.058 84.3535L105.079 84.3226C104.151 87.0374 103.461 89.0731 103.028 90.2724L102.994 90.2314C103.469 90.1759 103.831 90.1329 104.086 90.103C104.331 90.0773 104.455 90.072 104.455 90.072Z" fill="#17282F"/>
                  <path d="M245.699 94.95H239.328C237.993 94.95 236.91 93.8692 236.91 92.5362V79.054C236.91 77.7209 237.993 76.6396 239.328 76.6396H245.699C247.034 76.6396 248.115 77.7209 248.115 79.054V92.5362C248.115 93.8692 247.034 94.95 245.699 94.95Z" fill="#33535F"/>
                  <path d="M262.847 94.95H256.808C255.381 94.95 254.225 93.7952 254.225 92.371V69.263C254.225 67.8382 255.381 66.6835 256.808 66.6835H262.847C264.274 66.6835 265.43 67.8382 265.43 69.263V92.371C265.43 93.7952 264.274 94.95 262.847 94.95Z" fill="#33535F"/>
                  <path d="M279.075 39.5764C279.085 39.5848 278.993 39.707 278.807 39.9325C278.592 40.1857 278.317 40.5103 277.975 40.9131C277.205 41.7941 276.138 43.0159 274.813 44.5335C272.058 47.6353 268.237 51.9374 263.825 56.905L263.703 57.043L263.547 56.9418C261.388 55.5327 259.068 54.0193 256.672 52.4561L256.965 52.4131C256.882 52.5111 256.792 52.6165 256.702 52.7225C251.038 59.3592 245.912 65.3656 242.162 69.759L242.066 69.8718L241.948 69.7847C239.669 68.0941 237.812 66.716 236.481 65.7296C235.869 65.2639 235.379 64.8911 235.008 64.6089C234.675 64.3488 234.504 64.2062 234.513 64.1936C234.522 64.181 234.71 64.2995 235.061 64.536C235.444 64.8014 235.951 65.1512 236.584 65.589C237.934 66.5476 239.82 67.8864 242.135 69.5293L241.921 69.555C245.645 65.1401 250.736 59.1038 256.361 52.434C256.451 52.3286 256.541 52.2227 256.623 52.1252L256.751 51.9747L256.916 52.0827C259.31 53.6512 261.626 55.1693 263.782 56.5825L263.505 56.6192C267.964 51.6936 271.826 47.4276 274.611 44.3526C275.976 42.8701 277.074 41.6761 277.866 40.8161C278.23 40.4327 278.523 40.1233 278.751 39.8826C278.955 39.6734 279.066 39.568 279.075 39.5764Z" fill="#17282F"/>
                  </g>
                  <defs>
                  <clipPath id="clip0_72_6143">
                  <rect width="270" height="270" rx="40" fill="white"/>
                  </clipPath>
                  </defs>
                  </svg>