 <svg width="340" height="450" viewBox="0 0 537 408" fill="none" xmlns="http://www.w3.org/2000/svg">
                  <g clip-path="url(#clip0_98_486)">
                  <path d="M260.252 407.532C182.458 407.532 114.899 363.636 80.8335 299.203H40.4208C32.6051 299.203 26.2684 292.851 26.2684 285.013C26.2684 279.734 29.1491 275.138 33.4143 272.694H13.9288C6.1126 272.694 -0.224121 266.341 -0.224121 258.502C-0.224121 250.665 6.1126 244.312 13.9288 244.312H61.2823C58.6737 231.288 57.2976 217.815 57.2976 204.023C57.2976 195.682 57.8098 187.461 58.7822 179.384H27.6766C19.8605 179.384 13.5242 173.03 13.5242 165.192C13.5242 157.355 19.8605 151.002 27.6766 151.002H64.2703C69.7721 130.503 78.3766 111.283 89.5647 93.8859H36.5728C28.7561 93.8859 22.4199 87.5318 22.4199 79.6942C22.4199 71.8567 28.7561 65.5037 36.5728 65.5037H70.9053C67.7625 62.9002 65.7584 58.9632 65.7584 54.5552C65.7584 46.7188 72.0947 40.3647 79.9113 40.3647H139.611C173.336 15.326 215.066 0.51239 260.252 0.51239C329.323 0.51239 390.324 35.1188 426.982 87.9756H496.201C504.017 87.9756 510.353 94.3297 510.353 102.167C510.353 107.445 507.471 112.042 503.207 114.486H522.693C530.509 114.486 536.844 120.84 536.844 128.678C536.844 136.515 530.509 142.869 522.693 142.869H453.875C458.923 158.953 462.038 175.895 462.934 193.426H509.139C516.956 193.426 523.292 199.78 523.292 207.618C523.292 215.455 516.956 221.808 509.139 221.808H462.426C460.447 244.72 454.688 266.545 445.767 286.652H451.314C459.131 286.652 465.467 293.005 465.467 300.842C465.467 306.121 462.587 310.717 458.32 313.162H477.807C485.623 313.162 491.96 319.515 491.96 327.353C491.96 335.192 485.623 341.543 477.807 341.543H409.845C372.745 382.101 319.463 407.532 260.252 407.532ZM157.239 352.308C159.406 354.646 162.022 356.594 164.999 358.004L164.033 364.167L168.551 365.269L173.067 366.372L175.036 360.456C175.343 360.466 175.65 360.472 175.956 360.472C178.926 360.472 181.822 359.949 184.537 358.973L188.205 364.019L192.176 361.597L196.147 359.173L193.364 353.588C195.694 351.417 197.639 348.793 199.044 345.808L205.19 346.775L206.29 342.247L207.39 337.717L201.488 335.743C201.608 332.444 201.084 329.219 200.011 326.215L205.042 322.539L202.626 318.557L200.21 314.575L194.641 317.365C192.475 315.028 189.858 313.078 186.882 311.669L187.846 305.505L183.33 304.404L178.814 303.301L176.845 309.218C176.537 309.206 176.23 309.202 175.924 309.202C172.955 309.202 170.058 309.724 167.342 310.7L163.676 305.654L159.705 308.078L155.734 310.501L158.516 316.084C156.186 318.257 154.241 320.881 152.836 323.865L146.69 322.898L145.589 327.426L144.49 331.955L150.391 333.93C150.273 337.229 150.795 340.455 151.87 343.457L146.838 347.135L149.253 351.117L151.67 355.099L157.239 352.308ZM337.023 186.632C339.882 189.714 343.334 192.287 347.261 194.146L345.988 202.277L351.948 203.732L357.907 205.188L360.505 197.379C360.912 197.395 361.319 197.402 361.725 197.402C365.64 197.402 369.46 196.711 373.043 195.425L377.88 202.081L383.12 198.884L388.36 195.688L384.688 188.32C387.762 185.454 390.328 181.992 392.183 178.054L400.293 179.33L401.743 173.355L403.194 167.379L395.407 164.775C395.565 160.422 394.874 156.165 393.458 152.202L400.096 147.352L396.909 142.097L393.721 136.843L386.373 140.524C383.514 137.442 380.061 134.869 376.135 133.01L377.407 124.877L371.448 123.423L365.488 121.968L362.892 129.775C362.484 129.761 362.078 129.754 361.675 129.754C357.758 129.754 353.936 130.443 350.354 131.731L345.516 125.073L340.277 128.27L335.037 131.466L338.708 138.835C335.633 141.702 333.069 145.164 331.213 149.101L323.104 147.825L321.652 153.8L320.202 159.777L327.988 162.381C327.83 166.734 328.521 170.989 329.937 174.952L323.3 179.803L326.487 185.058L329.676 190.313L337.023 186.632ZM160.597 81.4079C162.764 83.7446 165.38 85.6942 168.355 87.1034L167.391 93.2663L171.907 94.3686L176.424 95.4721L178.394 89.5535C178.702 89.5653 179.01 89.5712 179.317 89.5712C182.285 89.5712 185.181 89.0483 187.895 88.0723L191.561 93.1176L195.534 90.6947L199.505 88.2718L196.721 82.6883C199.051 80.5156 200.996 77.8921 202.402 74.9074L208.548 75.874L209.648 71.3456L210.748 66.8173L204.846 64.8428C204.966 61.5442 204.442 58.3177 203.368 55.3141L208.4 51.6378L205.984 47.6559L203.567 43.674L197.998 46.4639C195.831 44.1271 193.216 42.1775 190.24 40.7683L191.204 34.6054L186.688 33.502L182.17 32.3997L180.201 38.3171C179.894 38.3065 179.587 38.3006 179.28 38.3006C176.311 38.3006 173.415 38.8234 170.7 39.7994L167.034 34.7542L163.061 37.1759L159.09 39.5988L161.874 45.1834C159.543 47.3561 157.599 49.9796 156.193 52.9643L150.047 51.9966L148.947 56.5261L147.848 61.0545L153.749 63.0289C153.629 66.3275 154.154 69.5541 155.226 72.5565L150.195 76.2339L152.611 80.2159L155.027 84.1978L160.597 81.4079ZM175.954 350.024C174.766 350.024 173.562 349.884 172.358 349.59C164.231 347.606 159.249 339.392 161.226 331.245C162.912 324.304 169.106 319.649 175.927 319.649C177.114 319.649 178.318 319.79 179.522 320.084C187.648 322.067 192.631 330.281 190.653 338.429C188.967 345.369 182.774 350.024 175.954 350.024ZM361.716 183.617C360.149 183.617 358.561 183.431 356.972 183.044C346.25 180.426 339.675 169.589 342.286 158.838C344.509 149.68 352.682 143.538 361.682 143.538C363.246 143.538 364.836 143.724 366.424 144.112C377.146 146.73 383.721 157.566 381.111 168.318C378.888 177.475 370.715 183.617 361.716 183.617ZM179.309 79.123C178.124 79.123 176.919 78.9826 175.715 78.6888C167.589 76.7049 162.606 68.492 164.584 60.344C166.27 53.4022 172.464 48.7487 179.284 48.7487C180.471 48.7487 181.676 48.8892 182.88 49.183C191.006 51.1657 195.989 59.3798 194.011 67.5277C192.325 74.4684 186.131 79.123 179.309 79.123Z" fill="#E8E5E5"/>
                  <path d="M357.907 205.188L351.948 203.732L345.988 202.277L347.26 194.146C343.334 192.287 339.882 189.714 337.023 186.632L329.675 190.313L326.487 185.058L323.3 179.803L329.937 174.952C328.521 170.989 327.83 166.734 327.988 162.381L320.202 159.777L321.652 153.8L323.103 147.825L331.213 149.101C333.069 145.164 335.633 141.702 338.707 138.835L335.036 131.466L340.276 128.27L345.516 125.073L350.353 131.731C353.936 130.443 357.758 129.754 361.674 129.754C362.078 129.754 362.484 129.761 362.891 129.775L365.488 121.968L371.448 123.423L377.407 124.877L376.135 133.01C380.061 134.869 383.514 137.442 386.373 140.524L393.721 136.843L396.909 142.097L400.096 147.352L393.458 152.202C394.874 156.165 395.565 160.422 395.407 164.775L403.194 167.379L401.743 173.355L400.293 179.33L392.182 178.054C390.327 181.992 387.762 185.454 384.687 188.32L388.36 195.688L383.12 198.884L377.88 202.081L373.043 195.425C369.46 196.711 365.64 197.402 361.725 197.402C361.319 197.402 360.912 197.395 360.505 197.379L357.907 205.188ZM361.682 143.538C352.681 143.538 344.509 149.68 342.285 158.838C339.675 169.589 346.249 180.426 356.971 183.044C358.56 183.431 360.149 183.617 361.716 183.617C370.715 183.617 378.887 177.475 381.111 168.318C383.721 157.566 377.146 146.73 366.423 144.112C364.836 143.724 363.246 143.538 361.682 143.538Z" fill="#8E9396"/>
                  <path d="M176.425 95.472L171.907 94.3686L167.391 93.2663L168.355 87.1034C165.38 85.6943 162.764 83.7446 160.597 81.4078L155.028 84.1978L152.611 80.2158L150.195 76.2339L155.226 72.5565C154.154 69.5541 153.629 66.3275 153.749 63.0289L147.848 61.0545L148.947 56.5261L150.047 51.9966L156.193 52.9643C157.599 49.9796 159.544 47.3561 161.874 45.1834L159.09 39.5988L163.061 37.1759L167.034 34.7541L170.7 39.7994C173.415 38.8234 176.312 38.3006 179.28 38.3006C179.587 38.3006 179.894 38.3065 180.201 38.3171L182.17 32.3997L186.688 33.5019L191.204 34.6054L190.24 40.7683C193.216 42.1775 195.831 44.1271 197.998 46.4639L203.568 43.6739L205.984 47.6559L208.4 51.6378L203.369 55.314C204.442 58.3176 204.966 61.5442 204.846 64.8428L210.748 66.8173L209.648 71.3456L208.548 75.874L202.402 74.9074C200.996 77.8921 199.052 80.5156 196.721 82.6883L199.505 88.2718L195.534 90.6947L191.561 93.1176L187.895 88.0723C185.181 89.0483 182.285 89.5711 179.318 89.5711C179.01 89.5711 178.702 89.5653 178.394 89.5535L176.425 95.472ZM179.285 48.7487C172.464 48.7487 166.27 53.4022 164.584 60.344C162.606 68.492 167.589 76.7048 175.715 78.6887C176.919 78.9826 178.124 79.123 179.309 79.123C186.131 79.123 192.325 74.4684 194.011 67.5277C195.989 59.3798 191.006 51.1657 182.88 49.183C181.676 48.8891 180.471 48.7487 179.285 48.7487Z" fill="#8E9396"/>
                  <path d="M173.067 366.372L168.551 365.269L164.034 364.167L164.999 358.004C162.022 356.594 159.406 354.646 157.239 352.308L151.67 355.099L149.253 351.117L146.838 347.135L151.87 343.457C150.795 340.455 150.273 337.229 150.391 333.93L144.49 331.955L145.59 327.426L146.69 322.898L152.836 323.865C154.241 320.881 156.186 318.257 158.516 316.084L155.734 310.501L159.705 308.078L163.676 305.654L167.342 310.7C170.058 309.724 172.955 309.202 175.924 309.202C176.23 309.202 176.538 309.206 176.845 309.218L178.814 303.301L183.33 304.404L187.846 305.505L186.882 311.669C189.858 313.078 192.475 315.028 194.641 317.365L200.21 314.575L202.626 318.557L205.042 322.539L200.011 326.215C201.084 329.219 201.608 332.444 201.488 335.743L207.39 337.717L206.29 342.247L205.19 346.775L199.044 345.808C197.639 348.793 195.694 351.417 193.364 353.588L196.147 359.173L192.176 361.597L188.205 364.019L184.537 358.973C181.822 359.949 178.926 360.472 175.956 360.472C175.65 360.472 175.343 360.466 175.036 360.456L173.067 366.372ZM175.927 319.649C169.106 319.649 162.912 324.304 161.227 331.245C159.249 339.392 164.231 347.606 172.358 349.59C173.562 349.884 174.766 350.024 175.954 350.024C182.774 350.024 188.967 345.369 190.653 338.429C192.631 330.281 187.648 322.067 179.522 320.084C178.318 319.79 177.114 319.649 175.927 319.649Z" fill="#8E9396"/>
                  <path d="M326.404 364.382H198.507C182.855 364.382 170.166 351.659 170.166 335.963V78.9731C170.166 63.2791 182.855 50.5555 198.507 50.5555H326.404C342.055 50.5555 354.745 63.2791 354.745 78.9731V335.963C354.745 351.659 342.055 364.382 326.404 364.382Z" fill="#243852"/>
                  <path d="M342.132 327.891H182.777C180.82 327.891 179.232 326.298 179.232 324.334V83.7104C179.232 81.7466 180.82 80.1545 182.777 80.1545H342.132C344.09 80.1545 345.678 81.7466 345.678 83.7104V324.334C345.678 326.298 344.09 327.891 342.132 327.891Z" fill="white"/>
                  <path d="M287.213 70.4227H237.697C235.963 70.4227 234.558 69.0148 234.558 67.2764V67.0828C234.558 65.3444 235.963 63.9353 237.697 63.9353H287.213C288.946 63.9353 290.352 65.3444 290.352 67.0828V67.2764C290.352 69.0148 288.946 70.4227 287.213 70.4227Z" fill="#172034"/>
                  <path d="M274.128 346.541C274.128 353.005 268.901 358.246 262.455 358.246C256.009 358.246 250.782 353.005 250.782 346.541C250.782 340.076 256.009 334.837 262.455 334.837C268.901 334.837 274.128 340.076 274.128 346.541Z" fill="#172034"/>
                  <path d="M214.545 319.017V318.409H192.895C191.199 318.406 189.827 317.03 189.823 315.329V293.621C189.827 291.92 191.199 290.544 192.895 290.541H214.545C216.24 290.544 217.613 291.92 217.616 293.621V315.329C217.613 317.03 216.24 318.406 214.545 318.409V319.017V319.626C216.911 319.625 218.828 317.702 218.829 315.329V293.621C218.828 291.247 216.911 289.325 214.545 289.325H192.895C190.528 289.325 188.611 291.249 188.611 293.621V315.329C188.611 317.702 190.528 319.625 192.895 319.626H214.545V319.017Z" fill="#899098"/>
                  <path d="M253.701 319.017V318.409H232.052C230.356 318.406 228.984 317.03 228.98 315.329V293.621C228.984 291.92 230.356 290.544 232.052 290.541H253.701C255.397 290.544 256.769 291.92 256.773 293.621V315.329C256.769 317.03 255.397 318.406 253.701 318.409V319.017V319.626C256.068 319.625 257.985 317.702 257.985 315.329V293.621C257.985 291.249 256.068 289.325 253.701 289.325H232.052C229.685 289.325 227.768 291.249 227.768 293.621V315.329C227.768 317.702 229.685 319.625 232.052 319.626H253.701V319.017Z" fill="#F46954"/>
                  <path d="M292.858 319.017H271.209C269.177 319.017 267.531 317.366 267.531 315.329V293.621C267.531 291.584 269.177 289.933 271.209 289.933H292.858C294.89 289.933 296.536 291.584 296.536 293.621V315.329C296.536 317.366 294.89 319.017 292.858 319.017Z" fill="#53C6CB"/>
                  <path d="M332.015 319.017V318.409H310.366C308.67 318.406 307.298 317.03 307.295 315.329V293.621C307.298 291.92 308.67 290.544 310.366 290.541H332.015C333.711 290.544 335.084 291.92 335.087 293.621V315.329C335.084 317.03 333.711 318.406 332.015 318.409V319.017V319.626C334.382 319.625 336.299 317.702 336.299 315.329V293.621C336.299 291.247 334.382 289.325 332.015 289.325H310.366C308 289.325 306.082 291.247 306.081 293.621V315.329C306.082 317.702 308 319.625 310.366 319.626H332.015V319.017Z" fill="#FCD160"/>
                  <path d="M214.545 120.342H192.895C190.863 120.342 189.217 118.691 189.217 116.654V94.9457C189.217 92.9088 190.863 91.2577 192.895 91.2577H214.545C216.575 91.2577 218.223 92.9088 218.223 94.9457V116.654C218.223 118.691 216.575 120.342 214.545 120.342Z" fill="#899098"/>
                  <path d="M253.701 120.342H232.052C230.021 120.342 228.374 118.691 228.374 116.654V94.9457C228.374 92.9088 230.021 91.2577 232.052 91.2577H253.701C255.732 91.2577 257.379 92.9088 257.379 94.9457V116.654C257.379 118.691 255.732 120.342 253.701 120.342Z" fill="#FCD160"/>
                  <path d="M288.006 119.733H285.58V120.95H288.006V119.733ZM283.153 119.733H280.728V120.95H283.153V119.733ZM278.301 119.733H275.875V120.95H278.301V119.733ZM273.449 119.733H271.209L271.053 119.729L270.993 120.944L271.209 120.95H273.449V119.733ZM269.207 118.989C268.7 118.552 268.338 117.951 268.2 117.27L267.01 117.512C267.203 118.465 267.71 119.302 268.417 119.911L269.207 118.989ZM268.138 112.532H266.925V114.964H268.138V112.532ZM268.138 107.666H266.925V110.098H268.138V107.666ZM268.138 102.8H266.925V105.233H268.138V102.8ZM268.138 97.9351H266.925V100.367H268.138V97.9351ZM268.138 95.5015V94.9457C268.139 94.3993 268.279 93.8894 268.526 93.4457L267.467 92.8532C267.122 93.4716 266.925 94.188 266.925 94.9457V95.5015H268.138ZM270.005 92.1109C270.375 91.9527 270.78 91.8654 271.209 91.8654H272.153V90.6487H271.209C270.615 90.6487 270.045 90.7714 269.529 90.9921L270.005 92.1109ZM274.579 91.8654H277.005V90.6488H274.579V91.8654ZM279.432 91.8654H281.857V90.6488H279.432V91.8654ZM284.283 91.8654H286.71V90.6488H284.283V91.8654ZM289.136 91.8654H291.561V90.6488H289.136V91.8654ZM293.787 92.0082C294.441 92.2159 295.003 92.6396 295.386 93.1955L296.383 92.5039C295.85 91.7297 295.07 91.1396 294.153 90.8493L293.787 92.0082ZM295.929 97.581H297.142V95.1488H295.929V97.581ZM295.929 102.447H297.142V100.013H295.929V102.447ZM295.929 107.312H297.142V104.879H295.929V107.312ZM295.929 112.177H297.142V109.745H295.929V112.177ZM295.929 114.61V116.654C295.929 116.764 295.923 116.872 295.913 116.978L297.119 117.106C297.134 116.957 297.142 116.806 297.142 116.654V114.61H295.929ZM295.073 118.787C294.612 119.269 293.996 119.6 293.307 119.701L293.482 120.905C294.447 120.763 295.306 120.299 295.949 119.629L295.075 118.787H295.073ZM292.858 119.733H290.431V120.95H292.858V119.733Z" fill="#D6E8E0"/>
                  <path d="M332.015 120.342V119.733H310.366C308.67 119.731 307.298 118.355 307.295 116.654V94.9457C307.298 93.2439 308.67 91.869 310.366 91.8654H332.015C333.711 91.869 335.084 93.2439 335.087 94.9457V116.654C335.084 118.355 333.711 119.731 332.015 119.733V120.342V120.95C334.381 120.95 336.299 119.027 336.299 116.654V94.9457C336.299 92.5724 334.381 90.6499 332.015 90.6487H310.366C308 90.6499 306.082 92.5724 306.081 94.9457V116.654C306.082 119.027 308 120.95 310.366 120.95H332.015V120.342Z" fill="#899098"/>
                  <path d="M253.701 155.921V155.313H232.052C230.356 155.31 228.984 153.934 228.98 152.233V130.525C228.984 128.824 230.356 127.448 232.052 127.444H253.701C255.397 127.448 256.769 128.824 256.773 130.525V152.233C256.769 153.934 255.397 155.31 253.701 155.313V155.921V156.529C256.068 156.529 257.985 154.606 257.985 152.233V130.525C257.985 128.151 256.068 126.229 253.701 126.228H232.052C229.685 126.229 227.768 128.151 227.768 130.525V152.233C227.768 154.606 229.685 156.529 232.052 156.529H253.701V155.921Z" fill="#F46954"/>
                  <path d="M293.108 227.079V226.471H271.457C269.761 226.467 268.389 225.092 268.386 223.391V201.684C268.389 199.982 269.761 198.607 271.457 198.603H293.108C294.802 198.607 296.176 199.982 296.178 201.684V223.391C296.176 225.092 294.802 226.467 293.108 226.471V227.079V227.687C295.473 227.687 297.392 225.765 297.392 223.391V201.684C297.392 199.309 295.473 197.387 293.108 197.387H271.457C269.092 197.387 267.173 199.309 267.173 201.684V223.391C267.173 225.765 269.092 227.687 271.457 227.687H293.108V227.079Z" fill="#FCD160"/>
                  <path d="M248.933 190.892H246.549V192.109H248.933V190.892ZM244.164 190.892H241.78V192.109H244.164V190.892ZM239.396 190.892H237.012V192.109H239.396V190.892ZM234.627 190.892H232.245V192.109H234.627V190.892ZM230.328 190.362C229.781 189.989 229.358 189.442 229.143 188.802L227.994 189.193C228.297 190.087 228.883 190.847 229.647 191.368L230.328 190.362ZM228.98 184.237H227.768V186.628H228.98V184.237ZM228.98 179.456H227.768V181.846H228.98V179.456ZM228.98 174.674H227.768V177.065H228.98V174.674ZM228.98 169.893H227.768V172.284H228.98V169.893ZM228.98 167.502V166.103C228.98 165.819 229.019 165.545 229.09 165.284L227.921 164.962C227.821 165.326 227.768 165.709 227.768 166.103V167.502H228.98ZM230.184 163.658C230.699 163.263 231.335 163.028 232.033 163.023L232.026 161.808C231.058 161.812 230.16 162.143 229.445 162.694L230.184 163.658ZM234.414 163.023H236.799V161.808H234.414V163.023ZM239.183 163.023H241.567V161.808H239.183V163.023ZM243.951 163.023H246.336V161.808H243.951V163.023ZM248.719 163.023H251.104V161.808H248.719V163.023ZM253.488 163.023H253.701C254.336 163.024 254.92 163.216 255.41 163.544L256.086 162.533C255.405 162.076 254.582 161.808 253.701 161.808H253.488V163.023ZM256.605 165.097C256.713 165.412 256.773 165.749 256.773 166.103V167.266H257.985V166.103C257.985 165.614 257.903 165.14 257.751 164.699L256.605 165.097ZM256.773 172.048H257.985V169.657H256.773V172.048ZM256.773 176.829H257.985V174.438H256.773V176.829ZM256.773 181.61H257.985V179.22H256.773V181.61ZM256.773 186.392H257.985V184.001H256.773V186.392ZM256.668 188.613C256.493 189.269 256.106 189.84 255.584 190.246L256.328 191.207C257.054 190.641 257.593 189.846 257.839 188.929L256.668 188.613ZM253.738 190.892H251.317V192.109H253.752L253.738 190.892Z" fill="#D6E8E0"/>
                  <path d="M288.339 262.815H285.954V264.03H288.339V262.815ZM283.571 262.815H281.187V264.03H283.571V262.815ZM278.802 262.815H276.417V264.03H278.802V262.815ZM274.034 262.815H271.65V264.03H274.034V262.815ZM269.735 262.284C269.186 261.911 268.764 261.363 268.548 260.724L267.399 261.115C267.702 262.01 268.289 262.77 269.053 263.29L269.735 262.284ZM268.386 256.16H267.173V258.551H268.386V256.16ZM268.386 251.379H267.173V253.769H268.386V251.379ZM268.386 246.597H267.173V248.988H268.386V246.597ZM268.386 241.816H267.173V244.206H268.386V241.816ZM268.386 239.425V238.026C268.386 237.742 268.425 237.467 268.495 237.207L267.326 236.885C267.226 237.248 267.173 237.632 267.173 238.026V239.425H268.386ZM269.59 235.581C270.104 235.185 270.741 234.951 271.439 234.946L271.432 233.729C270.463 233.735 269.565 234.065 268.851 234.617L269.59 235.581ZM273.82 234.946H276.204V233.729H273.82V234.946ZM278.588 234.946H280.972V233.729H278.588V234.946ZM283.357 234.946H285.741V233.729H283.357V234.946ZM288.124 234.946H290.509V233.729H288.124V234.946ZM292.893 234.946H293.108C293.741 234.946 294.326 235.137 294.815 235.465L295.491 234.455C294.809 233.997 293.987 233.729 293.108 233.729H292.893V234.946ZM296.011 237.018C296.119 237.333 296.178 237.671 296.178 238.026V239.187H297.392V238.026C297.392 237.535 297.309 237.062 297.158 236.62L296.011 237.018ZM296.178 243.969H297.392V241.578H296.178V243.969ZM296.178 248.75H297.392V246.36H296.178V248.75ZM296.178 253.531H297.392V251.141H296.178V253.531ZM296.178 258.313H297.392V255.923H296.178V258.313ZM296.074 260.534C295.898 261.191 295.511 261.762 294.99 262.168L295.735 263.129C296.46 262.562 297 261.768 297.246 260.851L296.074 260.534ZM293.144 262.815H290.723V264.03H293.158L293.144 262.813" fill="#D6E8E0"/>
                  <path d="M210.774 262.815H208.389V264.03H210.774V262.815ZM206.005 262.815H203.621V264.03H206.005V262.815ZM201.237 262.815H198.853V264.03H201.237V262.815ZM196.468 262.815H194.084V264.03H196.468V262.815ZM192.17 262.284C191.621 261.911 191.199 261.363 190.983 260.723L189.834 261.114C190.137 262.009 190.723 262.77 191.487 263.29L192.17 262.284ZM190.821 256.16H189.608V258.549H190.821V256.16ZM190.821 251.377H189.608V253.769H190.821V251.377ZM190.821 246.597H189.608V248.986H190.821V246.597ZM190.821 241.814H189.608V244.206H190.821V241.814ZM190.821 239.423V238.026C190.821 237.74 190.86 237.467 190.931 237.207L189.761 236.884C189.661 237.248 189.608 237.632 189.608 238.026V239.423H190.821ZM192.025 235.581C192.539 235.185 193.177 234.951 193.875 234.946L193.868 233.729C192.898 233.735 192.001 234.065 191.286 234.615L192.025 235.581ZM196.255 234.946H198.639V233.729H196.255V234.946ZM201.024 234.946H203.408V233.729H201.024V234.946ZM205.792 234.946H208.176V233.729H205.792V234.946ZM210.561 234.946H212.944V233.729H210.561V234.946ZM215.328 234.946H215.541C216.176 234.946 216.761 235.137 217.25 235.466L217.926 234.456C217.246 233.997 216.422 233.729 215.541 233.729H215.328V234.946ZM218.445 237.019C218.555 237.334 218.613 237.672 218.613 238.026V239.189H219.827V238.026C219.827 237.535 219.744 237.062 219.593 236.622L218.445 237.019ZM218.613 243.969H219.827V241.578H218.613V243.969ZM218.613 248.752H219.827V246.36H218.613V248.752ZM218.613 253.532H219.827V251.141H218.613V253.532ZM218.613 258.315H219.827V255.923H218.613V258.315ZM218.509 260.536C218.333 261.191 217.946 261.762 217.425 262.168L218.168 263.129C218.895 262.563 219.434 261.769 219.68 260.851L218.509 260.536ZM215.578 262.815H213.157V264.03H215.592L215.578 262.813" fill="#FCD160"/>
                  <path d="M326.258 262.815H323.873V264.03H326.258V262.815ZM321.489 262.815H319.105V264.03H321.489V262.815ZM316.721 262.815H314.337V264.03H316.721V262.815ZM311.952 262.815H309.569V264.03H311.952V262.815ZM307.654 262.284C307.105 261.911 306.684 261.363 306.467 260.723L305.319 261.114C305.621 262.009 306.208 262.77 306.971 263.29L307.654 262.284ZM306.306 256.158H305.092V258.549H306.306V256.158ZM306.306 251.377H305.092V253.767H306.306V251.377ZM306.306 246.595H305.092V248.986H306.306V246.595ZM306.306 241.814H305.092V244.206H306.306V241.814ZM306.306 239.423V238.026C306.306 237.74 306.345 237.467 306.415 237.206L305.246 236.884C305.147 237.248 305.093 237.631 305.093 238.026V239.423H306.306ZM307.51 235.581C308.024 235.185 308.661 234.949 309.359 234.946L309.353 233.729C308.383 233.735 307.485 234.064 306.771 234.615L307.51 235.581ZM311.74 234.946H314.125V233.729H311.74V234.946ZM316.509 234.946H318.892V233.729H316.509V234.946ZM321.277 234.946H323.661V233.729H321.277V234.946ZM326.046 234.946H328.429V233.729H326.046V234.946ZM330.814 234.946H331.026C331.661 234.946 332.246 235.137 332.736 235.466L333.411 234.456C332.73 233.997 331.907 233.729 331.026 233.729H330.814V234.946ZM333.93 237.019C334.039 237.334 334.097 237.672 334.097 238.026V239.189H335.311V238.026C335.311 237.535 335.228 237.063 335.077 236.623L333.93 237.019ZM334.097 243.971H335.311V241.58H334.097V243.971ZM334.097 248.752H335.311V246.362H334.097V248.752ZM334.097 253.534H335.311V251.143H334.097V253.534ZM334.097 258.315H335.311V255.923H334.097V258.315ZM333.993 260.537C333.817 261.192 333.43 261.763 332.908 262.169L333.653 263.13C334.378 262.564 334.918 261.769 335.164 260.852L333.993 260.536V260.537ZM331.062 262.815H328.642V264.03H331.076L331.062 262.815Z" fill="#53C6CB"/>
                  <path d="M292.858 155.921H271.209C269.177 155.921 267.531 154.27 267.531 152.233V130.525C267.531 128.488 269.177 126.837 271.209 126.837H292.858C294.89 126.837 296.536 128.488 296.536 130.525V152.233C296.536 154.27 294.89 155.921 292.858 155.921Z" fill="#53C6CB"/>
                  <path d="M214.545 191.501V190.892H192.895C191.199 190.89 189.827 189.512 189.823 187.813V166.103C189.827 164.403 191.199 163.027 192.895 163.023H214.545C216.24 163.027 217.613 164.403 217.616 166.103V187.813C217.613 189.512 216.24 190.89 214.545 190.892V191.501V192.109C216.911 192.109 218.828 190.185 218.829 187.813V166.103C218.829 163.73 216.911 161.808 214.545 161.808H192.895C190.528 161.808 188.611 163.73 188.611 166.103V187.813C188.611 190.185 190.528 192.109 192.895 192.109H214.545V191.501Z" fill="#FCD160"/>
                  <path d="M332.015 191.501H310.366C308.335 191.501 306.688 189.849 306.688 187.813V166.103C306.688 164.067 308.335 162.415 310.366 162.415H332.015C334.047 162.415 335.693 164.067 335.693 166.103V187.813C335.693 189.849 334.047 191.501 332.015 191.501Z" fill="#F46954"/>
                  <path d="M214.545 227.079H192.895C190.863 227.079 189.217 225.429 189.217 223.391V201.684C189.217 199.645 190.863 197.995 192.895 197.995H214.545C216.575 197.995 218.223 199.645 218.223 201.684V223.391C218.223 225.429 216.575 227.079 214.545 227.079Z" fill="#53C6CB"/>
                  <path d="M128.271 97.9811L127.855 335.459L82.6558 335.38L83.0718 97.9021L128.271 97.9811Z" fill="#899098"/>
                  <path d="M96.4443 323.102L126.912 323.155L126.916 321.307L96.4479 321.254" fill="white"/>
                  <path d="M112.081 314.429L126.928 314.453L126.931 312.605L112.083 312.579" fill="white"/>
                  <path d="M96.4751 305.699L126.943 305.752L126.946 303.904L96.4775 303.851" fill="white"/>
                  <path d="M112.11 297.026L126.958 297.05L126.962 295.202L112.113 295.176" fill="white"/>
                  <path d="M96.5059 288.296L126.974 288.349L126.977 286.501L96.5082 286.448" fill="white"/>
                  <path d="M112.141 279.623L126.989 279.648L126.993 277.799L112.144 277.773" fill="white"/>
                  <path d="M96.5361 270.893L127.004 270.946L127.007 269.098L96.5385 269.045" fill="white"/>
                  <path d="M112.171 262.22L127.019 262.245L127.023 260.396L112.174 260.37" fill="white"/>
                  <path d="M96.5659 253.49L127.035 253.543L127.038 251.694L96.5694 251.642" fill="white"/>
                  <path d="M112.202 244.814L127.05 244.842L127.054 242.992L112.205 242.966" fill="white"/>
                  <path d="M96.5962 236.087L127.065 236.14L127.069 234.291L96.5997 234.238" fill="white"/>
                  <path d="M112.232 227.412L127.081 227.439L127.083 225.589L112.236 225.563" fill="white"/>
                  <path d="M96.627 218.684L127.096 218.737L127.099 216.888L96.6305 216.835" fill="white"/>
                  <path d="M112.263 210.009L127.111 210.036L127.113 208.186L112.266 208.16" fill="white"/>
                  <path d="M96.6577 201.281L127.127 201.334L127.129 199.485L96.6612 199.432" fill="white"/>
                  <path d="M112.293 192.606L127.141 192.633L127.144 190.783L112.296 190.757" fill="white"/>
                  <path d="M96.688 183.878L127.157 183.931L127.159 182.082L96.6915 182.029" fill="white"/>
                  <path d="M112.324 175.203L127.171 175.23L127.175 173.38L112.327 173.354" fill="white"/>
                  <path d="M96.7188 166.474L127.187 166.528L127.19 164.679L96.7223 164.626" fill="white"/>
                  <path d="M112.354 157.8L127.202 157.826L127.205 155.978L112.357 155.952" fill="white"/>
                  <path d="M96.7495 149.071L127.217 149.124L127.221 147.276L96.753 147.223" fill="white"/>
                  <path d="M112.384 140.397L127.232 140.423L127.236 138.575L112.387 138.549" fill="white"/>
                  <path d="M96.7798 131.668L127.248 131.721L127.251 129.873L96.7833 129.819" fill="white"/>
                  <path d="M112.415 122.994L127.263 123.02L127.267 121.172L112.418 121.146" fill="white"/>
                  <path d="M96.8105 114.265L127.278 114.318L127.282 112.47L96.8141 112.416" fill="white"/>
                  <path d="M37.85 252.052L29.8311 219.838L189.1 179.972L197.12 212.185L37.85 252.052Z" fill="#233764"/>
                  <path d="M178.274 198.787L52.1865 230.35L52.6568 232.24L178.745 200.678" fill="white"/>
                  <path d="M169.35 210.37L64.8286 236.532L65.2994 238.421L169.82 212.259" fill="white"/>
                  <path d="M164.895 192.473L60.374 218.636L60.8448 220.525L165.366 194.363" fill="white"/>
                  <path d="M197.12 212.185L230.946 188.473C232.398 187.454 231.832 185.175 230.071 184.962L189.1 179.972L197.12 212.185Z" fill="#375681"/>
                  <path d="M215.69 183.561L218.908 196.486L220.793 196.014L217.575 183.089" fill="#243852"/>
                  <path d="M495.766 338.588H380.121V299.445H495.766V338.588Z" fill="white"/>
                  <path d="M163.285 46.6904H47.6411V7.54739H163.285V46.6904Z" fill="white"/>
                  <path d="M394.27 313.49L389.92 311.75V311.09L394.27 309.35V309.97L390.18 311.58V311.26L394.27 312.87V313.49ZM397.322 312.82C397.322 312.54 397.366 312.3 397.452 312.1C397.546 311.9 397.659 311.723 397.792 311.57C397.932 311.416 398.079 311.273 398.232 311.14C398.392 311.006 398.542 310.873 398.682 310.74C398.822 310.6 398.936 310.45 399.022 310.29C399.109 310.123 399.152 309.93 399.152 309.71C399.152 309.35 399.012 309.056 398.732 308.83C398.452 308.603 398.056 308.49 397.542 308.49C397.116 308.49 396.746 308.56 396.432 308.7C396.119 308.833 395.852 309.033 395.632 309.3L395.102 308.9C395.369 308.566 395.712 308.31 396.132 308.13C396.552 307.95 397.039 307.86 397.592 307.86C398.059 307.86 398.462 307.93 398.802 308.07C399.149 308.21 399.416 308.41 399.602 308.67C399.796 308.93 399.892 309.24 399.892 309.6C399.892 309.886 399.846 310.133 399.752 310.34C399.666 310.54 399.552 310.72 399.412 310.88C399.279 311.033 399.132 311.18 398.972 311.32C398.819 311.453 398.672 311.59 398.532 311.73C398.392 311.87 398.279 312.026 398.192 312.2C398.106 312.373 398.062 312.58 398.062 312.82H397.322ZM397.692 314.97C397.552 314.97 397.429 314.92 397.322 314.82C397.222 314.713 397.172 314.59 397.172 314.45C397.172 314.303 397.222 314.183 397.322 314.09C397.429 313.99 397.552 313.94 397.692 313.94C397.846 313.94 397.972 313.99 398.072 314.09C398.172 314.183 398.222 314.303 398.222 314.45C398.222 314.59 398.172 314.713 398.072 314.82C397.972 314.92 397.846 314.97 397.692 314.97ZM404.346 314.97C403.893 314.97 403.483 314.866 403.116 314.66C402.749 314.446 402.456 314.143 402.236 313.75C402.023 313.35 401.916 312.863 401.916 312.29C401.916 311.716 402.023 311.233 402.236 310.84C402.449 310.44 402.739 310.136 403.106 309.93C403.473 309.723 403.886 309.62 404.346 309.62C404.846 309.62 405.293 309.733 405.686 309.96C406.086 310.18 406.399 310.493 406.626 310.9C406.853 311.3 406.966 311.763 406.966 312.29C406.966 312.823 406.853 313.29 406.626 313.69C406.399 314.09 406.086 314.403 405.686 314.63C405.293 314.856 404.846 314.97 404.346 314.97ZM401.636 316.86V309.67H402.316V311.25L402.246 312.3L402.346 313.36V316.86H401.636ZM404.296 314.34C404.669 314.34 405.003 314.256 405.296 314.09C405.589 313.916 405.823 313.676 405.996 313.37C406.169 313.056 406.256 312.696 406.256 312.29C406.256 311.883 406.169 311.526 405.996 311.22C405.823 310.913 405.589 310.673 405.296 310.5C405.003 310.326 404.669 310.24 404.296 310.24C403.923 310.24 403.586 310.326 403.286 310.5C402.993 310.673 402.759 310.913 402.586 311.22C402.419 311.526 402.336 311.883 402.336 312.29C402.336 312.696 402.419 313.056 402.586 313.37C402.759 313.676 402.993 313.916 403.286 314.09C403.586 314.256 403.923 314.34 404.296 314.34ZM411.093 309.62C411.52 309.62 411.893 309.703 412.213 309.87C412.54 310.03 412.793 310.276 412.973 310.61C413.16 310.943 413.253 311.363 413.253 311.87V314.92H412.543V311.94C412.543 311.386 412.403 310.97 412.123 310.69C411.85 310.403 411.463 310.26 410.963 310.26C410.59 310.26 410.263 310.336 409.983 310.49C409.71 310.636 409.497 310.853 409.343 311.14C409.197 311.42 409.123 311.76 409.123 312.16V314.92H408.413V307.5H409.123V311.11L408.983 310.84C409.15 310.46 409.417 310.163 409.783 309.95C410.15 309.73 410.587 309.62 411.093 309.62ZM417.881 314.97C417.428 314.97 417.018 314.866 416.651 314.66C416.284 314.446 415.991 314.143 415.771 313.75C415.558 313.35 415.451 312.863 415.451 312.29C415.451 311.716 415.558 311.233 415.771 310.84C415.984 310.44 416.274 310.136 416.641 309.93C417.008 309.723 417.421 309.62 417.881 309.62C418.381 309.62 418.828 309.733 419.221 309.96C419.621 310.18 419.934 310.493 420.161 310.9C420.388 311.3 420.501 311.763 420.501 312.29C420.501 312.823 420.388 313.29 420.161 313.69C419.934 314.09 419.621 314.403 419.221 314.63C418.828 314.856 418.381 314.97 417.881 314.97ZM415.171 316.86V309.67H415.851V311.25L415.781 312.3L415.881 313.36V316.86H415.171ZM417.831 314.34C418.204 314.34 418.538 314.256 418.831 314.09C419.124 313.916 419.358 313.676 419.531 313.37C419.704 313.056 419.791 312.696 419.791 312.29C419.791 311.883 419.704 311.526 419.531 311.22C419.358 310.913 419.124 310.673 418.831 310.5C418.538 310.326 418.204 310.24 417.831 310.24C417.458 310.24 417.121 310.326 416.821 310.5C416.528 310.673 416.294 310.913 416.121 311.22C415.954 311.526 415.871 311.883 415.871 312.29C415.871 312.696 415.954 313.056 416.121 313.37C416.294 313.676 416.528 313.916 416.821 314.09C417.121 314.256 417.458 314.34 417.831 314.34ZM426.008 313.49L421.658 311.75V311.09L426.008 309.35V309.97L421.918 311.58V311.26L426.008 312.87V313.49ZM430.38 309.62C430.807 309.62 431.18 309.703 431.5 309.87C431.827 310.03 432.08 310.276 432.26 310.61C432.447 310.943 432.54 311.363 432.54 311.87V314.92H431.83V311.94C431.83 311.386 431.69 310.97 431.41 310.69C431.137 310.403 430.75 310.26 430.25 310.26C429.877 310.26 429.55 310.336 429.27 310.49C428.997 310.636 428.784 310.853 428.63 311.14C428.484 311.42 428.41 311.76 428.41 312.16V314.92H427.7V307.5H428.41V311.11L428.27 310.84C428.437 310.46 428.704 310.163 429.07 309.95C429.437 309.73 429.874 309.62 430.38 309.62ZM436.118 314.97C435.625 314.97 435.245 314.836 434.978 314.57C434.712 314.303 434.578 313.926 434.578 313.44V308.51H435.288V313.4C435.288 313.706 435.365 313.943 435.518 314.11C435.678 314.276 435.905 314.36 436.198 314.36C436.512 314.36 436.772 314.27 436.978 314.09L437.228 314.6C437.088 314.726 436.918 314.82 436.718 314.88C436.525 314.94 436.325 314.97 436.118 314.97ZM433.638 310.26V309.67H436.888V310.26H433.638ZM445.081 309.62C445.507 309.62 445.877 309.703 446.191 309.87C446.511 310.03 446.757 310.276 446.931 310.61C447.111 310.943 447.201 311.363 447.201 311.87V314.92H446.491V311.94C446.491 311.386 446.357 310.97 446.091 310.69C445.831 310.403 445.461 310.26 444.981 310.26C444.621 310.26 444.307 310.336 444.041 310.49C443.781 310.636 443.577 310.853 443.431 311.14C443.291 311.42 443.221 311.76 443.221 312.16V314.92H442.511V311.94C442.511 311.386 442.377 310.97 442.111 310.69C441.844 310.403 441.471 310.26 440.991 310.26C440.637 310.26 440.327 310.336 440.061 310.49C439.794 310.636 439.587 310.853 439.441 311.14C439.301 311.42 439.231 311.76 439.231 312.16V314.92H438.521V309.67H439.201V311.09L439.091 310.84C439.251 310.46 439.507 310.163 439.861 309.95C440.221 309.73 440.644 309.62 441.131 309.62C441.644 309.62 442.081 309.75 442.441 310.01C442.801 310.263 443.034 310.646 443.141 311.16L442.861 311.05C443.014 310.623 443.284 310.28 443.671 310.02C444.064 309.753 444.534 309.62 445.081 309.62ZM449.126 314.92V307.5H449.836V314.92H449.126ZM451.522 313.49V312.87L455.612 311.26V311.58L451.522 309.97V309.35L455.872 311.09V311.75L451.522 313.49Z" fill="#172034"/>
                  <path d="M485.83 331.637H434V328H485.83V331.637Z" fill="#172034"/>
                  <path d="M486.319 323.638H389V320H486.319V323.638Z" fill="#172034"/>
                  <path d="M154.897 22.1782H106.707V18.5409H154.897V22.1782Z" fill="#172034"/>
                  <path d="M154.897 35.6983H57.5771V32.0598H154.897V35.6983Z" fill="#172034"/>
                  <path d="M466.606 30.6648L339.739 96.0609C332.396 87.4173 319.859 84.6156 309.351 90.0314L276.903 106.757C280.766 114.291 289.988 117.259 297.501 113.386L305.46 109.285C312.822 105.489 321.856 108.397 325.64 115.779C329.425 123.16 326.525 132.22 319.163 136.015L311.986 139.716C304.042 143.81 300.911 153.589 304.995 161.555L337.442 144.828C347.95 139.413 352.975 127.559 350.238 116.541L477.104 51.1445C482.744 48.2377 484.965 41.297 482.066 35.6416C479.166 29.9862 472.246 27.758 466.606 30.6648Z" fill="#899098"/>
                  <path d="M355.291 98.1133L461.36 43.4379L460.472 41.7053L354.402 96.3808" fill="white"/>
                  <path d="M359.01 105.368L465.08 50.6925L464.191 48.96L358.122 103.635" fill="white"/>
                  <path d="M500.566 250.758L500.463 250.738C496.286 249.933 492.313 248.278 488.847 245.807C481.402 240.5 470.286 235.941 457.458 233.468C444.631 230.995 432.621 231.097 423.745 233.258C419.611 234.265 415.308 234.325 411.131 233.519L388.353 229.129C385.943 228.665 383.615 230.246 383.152 232.662L380.746 245.213C380.284 247.629 381.861 249.965 384.27 250.429L406.946 254.799C411.142 255.608 415.13 257.275 418.607 259.761C426.053 265.083 437.188 269.658 450.045 272.137C462.902 274.614 474.936 274.507 483.819 272.33C487.968 271.314 492.288 271.249 496.483 272.057L496.485 272.044C499.178 272.562 501.78 270.794 502.299 268.094L504.505 256.587C505.022 253.887 503.259 251.277 500.566 250.758Z" fill="#233764"/>
                  <path d="M382.775 234.633L317.125 221.98C317.188 220.656 316.355 219.429 315.054 219.042L298.054 213.979C296.403 213.487 294.691 214.53 294.366 216.226L292.2 227.52C291.877 229.216 293.081 230.822 294.795 230.979L312.456 232.596C313.807 232.72 315.034 231.889 315.465 230.637L381.116 243.29L382.775 234.633Z" fill="#899098"/>
                  <path d="M427.143 239.836L480.309 250.084L480.675 248.171L427.509 237.923" fill="white"/>
                  <path d="M425.51 248.351L478.677 258.598L479.043 256.685L425.877 246.437" fill="white"/>
                  <path d="M423.878 256.865L477.044 267.113L477.412 265.2L424.245 254.952" fill="white"/>
                  </g>
                  <defs>
                  <clipPath id="clip0_98_486">
                  <rect width="537" height="408" fill="white"/>
                  </clipPath>
                  </defs>
                  </svg>
                    
                  
              